G04 #@! TF.GenerationSoftware,KiCad,Pcbnew,5.1.5+dfsg1-2*
G04 #@! TF.CreationDate,2020-01-18T18:57:03+02:00*
G04 #@! TF.ProjectId,Morfeas_Rpi_Hat,4d6f7266-6561-4735-9f52-70695f486174,V1.0*
G04 #@! TF.SameCoordinates,Original*
G04 #@! TF.FileFunction,Legend,Bot*
G04 #@! TF.FilePolarity,Positive*
%FSLAX46Y46*%
G04 Gerber Fmt 4.6, Leading zero omitted, Abs format (unit mm)*
G04 Created by KiCad (PCBNEW 5.1.5+dfsg1-2) date 2020-01-18 18:57:03*
%MOMM*%
%LPD*%
G04 APERTURE LIST*
%ADD10C,0.177800*%
%ADD11C,0.150000*%
%ADD12C,0.152400*%
%ADD13C,0.120000*%
%ADD14C,0.127000*%
%ADD15C,0.200000*%
%ADD16C,0.119380*%
%ADD17C,0.254000*%
%ADD18C,0.250000*%
G04 APERTURE END LIST*
D10*
X167615809Y-117946714D02*
X166648190Y-117946714D01*
X167132000Y-118430523D02*
X167132000Y-117462904D01*
X171191478Y-117936517D02*
X170223859Y-117936517D01*
X174493478Y-117936517D02*
X173525859Y-117936517D01*
X156967478Y-117936517D02*
X155999859Y-117936517D01*
X153665478Y-117936517D02*
X152697859Y-117936517D01*
X150089809Y-117946714D02*
X149122190Y-117946714D01*
X149606000Y-118430523D02*
X149606000Y-117462904D01*
D11*
X164917047Y-111133380D02*
X164917047Y-110133380D01*
X164536095Y-110133380D01*
X164440857Y-110181000D01*
X164393238Y-110228619D01*
X164345619Y-110323857D01*
X164345619Y-110466714D01*
X164393238Y-110561952D01*
X164440857Y-110609571D01*
X164536095Y-110657190D01*
X164917047Y-110657190D01*
X163774190Y-111133380D02*
X163869428Y-111085761D01*
X163917047Y-111038142D01*
X163964666Y-110942904D01*
X163964666Y-110657190D01*
X163917047Y-110561952D01*
X163869428Y-110514333D01*
X163774190Y-110466714D01*
X163631333Y-110466714D01*
X163536095Y-110514333D01*
X163488476Y-110561952D01*
X163440857Y-110657190D01*
X163440857Y-110942904D01*
X163488476Y-111038142D01*
X163536095Y-111085761D01*
X163631333Y-111133380D01*
X163774190Y-111133380D01*
X163107523Y-110466714D02*
X162917047Y-111133380D01*
X162726571Y-110657190D01*
X162536095Y-111133380D01*
X162345619Y-110466714D01*
X161583714Y-111085761D02*
X161678952Y-111133380D01*
X161869428Y-111133380D01*
X161964666Y-111085761D01*
X162012285Y-110990523D01*
X162012285Y-110609571D01*
X161964666Y-110514333D01*
X161869428Y-110466714D01*
X161678952Y-110466714D01*
X161583714Y-110514333D01*
X161536095Y-110609571D01*
X161536095Y-110704809D01*
X162012285Y-110800047D01*
X161107523Y-111133380D02*
X161107523Y-110466714D01*
X161107523Y-110657190D02*
X161059904Y-110561952D01*
X161012285Y-110514333D01*
X160917047Y-110466714D01*
X160821809Y-110466714D01*
X159726571Y-111133380D02*
X159726571Y-110133380D01*
X159250380Y-111133380D02*
X159250380Y-110133380D01*
X158678952Y-111133380D01*
X158678952Y-110133380D01*
X163940857Y-112402428D02*
X163178952Y-112402428D01*
X160417047Y-112402428D02*
X159655142Y-112402428D01*
X160036095Y-112783380D02*
X160036095Y-112021476D01*
D12*
X174739904Y-105355571D02*
X174800380Y-105416047D01*
X174981809Y-105476523D01*
X175102761Y-105476523D01*
X175284190Y-105416047D01*
X175405142Y-105295095D01*
X175465619Y-105174142D01*
X175526095Y-104932238D01*
X175526095Y-104750809D01*
X175465619Y-104508904D01*
X175405142Y-104387952D01*
X175284190Y-104267000D01*
X175102761Y-104206523D01*
X174981809Y-104206523D01*
X174800380Y-104267000D01*
X174739904Y-104327476D01*
X174256095Y-105113666D02*
X173651333Y-105113666D01*
X174377047Y-105476523D02*
X173953714Y-104206523D01*
X173530380Y-105476523D01*
X173107047Y-105476523D02*
X173107047Y-104206523D01*
X172381333Y-105476523D01*
X172381333Y-104206523D01*
X171534666Y-104206523D02*
X171413714Y-104206523D01*
X171292761Y-104267000D01*
X171232285Y-104327476D01*
X171171809Y-104448428D01*
X171111333Y-104690333D01*
X171111333Y-104992714D01*
X171171809Y-105234619D01*
X171232285Y-105355571D01*
X171292761Y-105416047D01*
X171413714Y-105476523D01*
X171534666Y-105476523D01*
X171655619Y-105416047D01*
X171716095Y-105355571D01*
X171776571Y-105234619D01*
X171837047Y-104992714D01*
X171837047Y-104690333D01*
X171776571Y-104448428D01*
X171716095Y-104327476D01*
X171655619Y-104267000D01*
X171534666Y-104206523D01*
X169599428Y-105476523D02*
X169599428Y-104206523D01*
X169115619Y-104206523D01*
X168994666Y-104267000D01*
X168934190Y-104327476D01*
X168873714Y-104448428D01*
X168873714Y-104629857D01*
X168934190Y-104750809D01*
X168994666Y-104811285D01*
X169115619Y-104871761D01*
X169599428Y-104871761D01*
X168148000Y-105476523D02*
X168268952Y-105416047D01*
X168329428Y-105355571D01*
X168389904Y-105234619D01*
X168389904Y-104871761D01*
X168329428Y-104750809D01*
X168268952Y-104690333D01*
X168148000Y-104629857D01*
X167966571Y-104629857D01*
X167845619Y-104690333D01*
X167785142Y-104750809D01*
X167724666Y-104871761D01*
X167724666Y-105234619D01*
X167785142Y-105355571D01*
X167845619Y-105416047D01*
X167966571Y-105476523D01*
X168148000Y-105476523D01*
X166636095Y-104629857D02*
X166636095Y-105476523D01*
X167180380Y-104629857D02*
X167180380Y-105295095D01*
X167119904Y-105416047D01*
X166998952Y-105476523D01*
X166817523Y-105476523D01*
X166696571Y-105416047D01*
X166636095Y-105355571D01*
X166212761Y-104629857D02*
X165728952Y-104629857D01*
X166031333Y-104206523D02*
X166031333Y-105295095D01*
X165970857Y-105416047D01*
X165849904Y-105476523D01*
X165728952Y-105476523D01*
D11*
X157467904Y-105355571D02*
X157528380Y-105416047D01*
X157709809Y-105476523D01*
X157830761Y-105476523D01*
X158012190Y-105416047D01*
X158133142Y-105295095D01*
X158193619Y-105174142D01*
X158254095Y-104932238D01*
X158254095Y-104750809D01*
X158193619Y-104508904D01*
X158133142Y-104387952D01*
X158012190Y-104267000D01*
X157830761Y-104206523D01*
X157709809Y-104206523D01*
X157528380Y-104267000D01*
X157467904Y-104327476D01*
X156984095Y-105113666D02*
X156379333Y-105113666D01*
X157105047Y-105476523D02*
X156681714Y-104206523D01*
X156258380Y-105476523D01*
X155835047Y-105476523D02*
X155835047Y-104206523D01*
X155109333Y-105476523D01*
X155109333Y-104206523D01*
X153839333Y-105476523D02*
X154565047Y-105476523D01*
X154202190Y-105476523D02*
X154202190Y-104206523D01*
X154323142Y-104387952D01*
X154444095Y-104508904D01*
X154565047Y-104569380D01*
X152327428Y-105476523D02*
X152327428Y-104206523D01*
X151843619Y-104206523D01*
X151722666Y-104267000D01*
X151662190Y-104327476D01*
X151601714Y-104448428D01*
X151601714Y-104629857D01*
X151662190Y-104750809D01*
X151722666Y-104811285D01*
X151843619Y-104871761D01*
X152327428Y-104871761D01*
X150876000Y-105476523D02*
X150996952Y-105416047D01*
X151057428Y-105355571D01*
X151117904Y-105234619D01*
X151117904Y-104871761D01*
X151057428Y-104750809D01*
X150996952Y-104690333D01*
X150876000Y-104629857D01*
X150694571Y-104629857D01*
X150573619Y-104690333D01*
X150513142Y-104750809D01*
X150452666Y-104871761D01*
X150452666Y-105234619D01*
X150513142Y-105355571D01*
X150573619Y-105416047D01*
X150694571Y-105476523D01*
X150876000Y-105476523D01*
X149364095Y-104629857D02*
X149364095Y-105476523D01*
X149908380Y-104629857D02*
X149908380Y-105295095D01*
X149847904Y-105416047D01*
X149726952Y-105476523D01*
X149545523Y-105476523D01*
X149424571Y-105416047D01*
X149364095Y-105355571D01*
X148940761Y-104629857D02*
X148456952Y-104629857D01*
X148759333Y-104206523D02*
X148759333Y-105295095D01*
X148698857Y-105416047D01*
X148577904Y-105476523D01*
X148456952Y-105476523D01*
D13*
X165550435Y-118606948D02*
X165550435Y-105906948D01*
X175710435Y-118606948D02*
X165550435Y-118606948D01*
X165550435Y-105906948D02*
X175710435Y-105906948D01*
X175710435Y-105906948D02*
X175710435Y-118606948D01*
X148082000Y-118618000D02*
X148082000Y-105918000D01*
X158242000Y-118618000D02*
X148082000Y-118618000D01*
X158242000Y-105918000D02*
X158242000Y-118618000D01*
X148082000Y-105918000D02*
X158242000Y-105918000D01*
G04 #@! TO.C,C3*
X157390000Y-73624064D02*
X157390000Y-72419936D01*
X160110000Y-73624064D02*
X160110000Y-72419936D01*
G04 #@! TO.C,C2*
X165702064Y-78830000D02*
X164497936Y-78830000D01*
X165702064Y-76110000D02*
X164497936Y-76110000D01*
G04 #@! TO.C,C1*
X163540064Y-93054000D02*
X162335936Y-93054000D01*
X163540064Y-90334000D02*
X162335936Y-90334000D01*
D14*
G04 #@! TO.C,D1*
X165608000Y-98430080D02*
X166243000Y-98430080D01*
X162433000Y-93858080D02*
X163068000Y-93858080D01*
X162433000Y-98430080D02*
X162433000Y-93858080D01*
X163068000Y-98430080D02*
X162433000Y-98430080D01*
X162433000Y-95153480D02*
X166243000Y-95153480D01*
X162433000Y-95483680D02*
X166243000Y-95483680D01*
X166243000Y-93858080D02*
X165608000Y-93858080D01*
X166243000Y-98430080D02*
X166243000Y-93858080D01*
D15*
G04 #@! TO.C,L1*
X168354000Y-81328000D02*
X168354000Y-87328000D01*
X162354000Y-87328000D02*
X162354000Y-81328000D01*
D13*
G04 #@! TO.C,J2*
X128634000Y-64440000D02*
X128634000Y-67040000D01*
X128634000Y-64440000D02*
X179554000Y-64440000D01*
X179554000Y-64440000D02*
X179554000Y-69640000D01*
X131234000Y-69640000D02*
X179554000Y-69640000D01*
X131234000Y-67040000D02*
X131234000Y-69640000D01*
X128634000Y-67040000D02*
X131234000Y-67040000D01*
X128634000Y-69640000D02*
X129964000Y-69640000D01*
X128634000Y-68310000D02*
X128634000Y-69640000D01*
D14*
G04 #@! TO.C,U1*
X138039000Y-93515000D02*
X130439000Y-93515000D01*
X138039000Y-83015000D02*
X130439000Y-83015000D01*
D15*
X139012000Y-82722000D02*
G75*
G03X139012000Y-82722000I-100000J0D01*
G01*
D13*
G04 #@! TO.C,R8*
X154792000Y-91404064D02*
X154792000Y-90199936D01*
X156612000Y-91404064D02*
X156612000Y-90199936D01*
G04 #@! TO.C,R15*
X148808064Y-83926000D02*
X147603936Y-83926000D01*
X148808064Y-85746000D02*
X147603936Y-85746000D01*
G04 #@! TO.C,R14*
X173830064Y-79100000D02*
X172625936Y-79100000D01*
X173830064Y-80920000D02*
X172625936Y-80920000D01*
G04 #@! TO.C,C17*
X152834078Y-84126000D02*
X152316922Y-84126000D01*
X152834078Y-85546000D02*
X152316922Y-85546000D01*
G04 #@! TO.C,C16*
X177804578Y-79300000D02*
X177287422Y-79300000D01*
X177804578Y-80720000D02*
X177287422Y-80720000D01*
D14*
G04 #@! TO.C,D5*
X171353963Y-110235523D02*
X171353963Y-109600523D01*
X166781963Y-113410523D02*
X166781963Y-112775523D01*
X171353963Y-113410523D02*
X166781963Y-113410523D01*
X171353963Y-112775523D02*
X171353963Y-113410523D01*
X168077363Y-113410523D02*
X168077363Y-109600523D01*
X168407563Y-113410523D02*
X168407563Y-109600523D01*
X166781963Y-109600523D02*
X166781963Y-110235523D01*
X171353963Y-109600523D02*
X166781963Y-109600523D01*
D13*
G04 #@! TO.C,R13*
X142642000Y-103292064D02*
X142642000Y-102087936D01*
X140822000Y-103292064D02*
X140822000Y-102087936D01*
G04 #@! TO.C,R12*
X137632064Y-80666000D02*
X136427936Y-80666000D01*
X137632064Y-78846000D02*
X136427936Y-78846000D01*
G04 #@! TO.C,C15*
X142442000Y-86364578D02*
X142442000Y-85847422D01*
X141022000Y-86364578D02*
X141022000Y-85847422D01*
G04 #@! TO.C,R11*
X182986000Y-90075936D02*
X182986000Y-91280064D01*
X184806000Y-90075936D02*
X184806000Y-91280064D01*
G04 #@! TO.C,R10*
X152370064Y-74528000D02*
X151165936Y-74528000D01*
X152370064Y-76348000D02*
X151165936Y-76348000D01*
G04 #@! TO.C,R9*
X176500064Y-74528000D02*
X175295936Y-74528000D01*
X176500064Y-76348000D02*
X175295936Y-76348000D01*
G04 #@! TO.C,R7*
X178964000Y-87157936D02*
X178964000Y-88362064D01*
X177144000Y-87157936D02*
X177144000Y-88362064D01*
G04 #@! TO.C,R6*
X160126000Y-98262064D02*
X160126000Y-97057936D01*
X161946000Y-98262064D02*
X161946000Y-97057936D01*
G04 #@! TO.C,R4*
X159660000Y-101824064D02*
X159660000Y-100619936D01*
X157840000Y-101824064D02*
X157840000Y-100619936D01*
G04 #@! TO.C,C13*
X168708000Y-96349078D02*
X168708000Y-95831922D01*
X170128000Y-96349078D02*
X170128000Y-95831922D01*
G04 #@! TO.C,C12*
X161746000Y-102034078D02*
X161746000Y-101516922D01*
X160326000Y-102034078D02*
X160326000Y-101516922D01*
G04 #@! TO.C,C9*
X134185922Y-109168000D02*
X134703078Y-109168000D01*
X134185922Y-107748000D02*
X134703078Y-107748000D01*
G04 #@! TO.C,C8*
X122988000Y-75950578D02*
X122988000Y-75433422D01*
X124408000Y-75950578D02*
X124408000Y-75433422D01*
D12*
G04 #@! TO.C,U6*
X172593000Y-97684000D02*
X175895000Y-97684000D01*
X175895000Y-100986000D02*
X172593000Y-100986000D01*
G04 #@! TO.C,U7*
X151638000Y-97684000D02*
X154940000Y-97684000D01*
X154940000Y-100986000D02*
X151638000Y-100986000D01*
G04 #@! TO.C,C3*
D11*
X156821142Y-72731333D02*
X156868761Y-72683714D01*
X156916380Y-72540857D01*
X156916380Y-72445619D01*
X156868761Y-72302761D01*
X156773523Y-72207523D01*
X156678285Y-72159904D01*
X156487809Y-72112285D01*
X156344952Y-72112285D01*
X156154476Y-72159904D01*
X156059238Y-72207523D01*
X155964000Y-72302761D01*
X155916380Y-72445619D01*
X155916380Y-72540857D01*
X155964000Y-72683714D01*
X156011619Y-72731333D01*
X155916380Y-73064666D02*
X155916380Y-73683714D01*
X156297333Y-73350380D01*
X156297333Y-73493238D01*
X156344952Y-73588476D01*
X156392571Y-73636095D01*
X156487809Y-73683714D01*
X156725904Y-73683714D01*
X156821142Y-73636095D01*
X156868761Y-73588476D01*
X156916380Y-73493238D01*
X156916380Y-73207523D01*
X156868761Y-73112285D01*
X156821142Y-73064666D01*
G04 #@! TO.C,C2*
X168505142Y-77303333D02*
X168552761Y-77255714D01*
X168600380Y-77112857D01*
X168600380Y-77017619D01*
X168552761Y-76874761D01*
X168457523Y-76779523D01*
X168362285Y-76731904D01*
X168171809Y-76684285D01*
X168028952Y-76684285D01*
X167838476Y-76731904D01*
X167743238Y-76779523D01*
X167648000Y-76874761D01*
X167600380Y-77017619D01*
X167600380Y-77112857D01*
X167648000Y-77255714D01*
X167695619Y-77303333D01*
X167695619Y-77684285D02*
X167648000Y-77731904D01*
X167600380Y-77827142D01*
X167600380Y-78065238D01*
X167648000Y-78160476D01*
X167695619Y-78208095D01*
X167790857Y-78255714D01*
X167886095Y-78255714D01*
X168028952Y-78208095D01*
X168600380Y-77636666D01*
X168600380Y-78255714D01*
G04 #@! TO.C,C1*
X166473142Y-91527333D02*
X166520761Y-91479714D01*
X166568380Y-91336857D01*
X166568380Y-91241619D01*
X166520761Y-91098761D01*
X166425523Y-91003523D01*
X166330285Y-90955904D01*
X166139809Y-90908285D01*
X165996952Y-90908285D01*
X165806476Y-90955904D01*
X165711238Y-91003523D01*
X165616000Y-91098761D01*
X165568380Y-91241619D01*
X165568380Y-91336857D01*
X165616000Y-91479714D01*
X165663619Y-91527333D01*
X166568380Y-92479714D02*
X166568380Y-91908285D01*
X166568380Y-92194000D02*
X165568380Y-92194000D01*
X165711238Y-92098761D01*
X165806476Y-92003523D01*
X165854095Y-91908285D01*
G04 #@! TO.C,D1*
D16*
X167108656Y-99893724D02*
X167108656Y-98892964D01*
X166870380Y-98892964D01*
X166727414Y-98940620D01*
X166632103Y-99035930D01*
X166584448Y-99131240D01*
X166536793Y-99321861D01*
X166536793Y-99464827D01*
X166584448Y-99655448D01*
X166632103Y-99750759D01*
X166727414Y-99846069D01*
X166870380Y-99893724D01*
X167108656Y-99893724D01*
X165583688Y-99893724D02*
X166155551Y-99893724D01*
X165869620Y-99893724D02*
X165869620Y-98892964D01*
X165964930Y-99035930D01*
X166060240Y-99131240D01*
X166155551Y-99178896D01*
G04 #@! TO.C,L1*
D17*
X161864523Y-85894333D02*
X161864523Y-85289571D01*
X160594523Y-85289571D01*
X161864523Y-86982904D02*
X161864523Y-86257190D01*
X161864523Y-86620047D02*
X160594523Y-86620047D01*
X160775952Y-86499095D01*
X160896904Y-86378142D01*
X160957380Y-86257190D01*
G04 #@! TO.C,J2*
D11*
X129619333Y-70318380D02*
X129619333Y-71032666D01*
X129666952Y-71175523D01*
X129762190Y-71270761D01*
X129905047Y-71318380D01*
X130000285Y-71318380D01*
X129190761Y-70413619D02*
X129143142Y-70366000D01*
X129047904Y-70318380D01*
X128809809Y-70318380D01*
X128714571Y-70366000D01*
X128666952Y-70413619D01*
X128619333Y-70508857D01*
X128619333Y-70604095D01*
X128666952Y-70746952D01*
X129238380Y-71318380D01*
X128619333Y-71318380D01*
G04 #@! TO.C,U1*
D18*
X137680095Y-81646619D02*
X137680095Y-82469095D01*
X137631714Y-82565857D01*
X137583333Y-82614238D01*
X137486571Y-82662619D01*
X137293047Y-82662619D01*
X137196285Y-82614238D01*
X137147904Y-82565857D01*
X137099523Y-82469095D01*
X137099523Y-81646619D01*
X136083523Y-82662619D02*
X136664095Y-82662619D01*
X136373809Y-82662619D02*
X136373809Y-81646619D01*
X136470571Y-81791761D01*
X136567333Y-81888523D01*
X136664095Y-81936904D01*
G04 #@! TO.C,R8*
D11*
X157974380Y-90635333D02*
X157498190Y-90302000D01*
X157974380Y-90063904D02*
X156974380Y-90063904D01*
X156974380Y-90444857D01*
X157022000Y-90540095D01*
X157069619Y-90587714D01*
X157164857Y-90635333D01*
X157307714Y-90635333D01*
X157402952Y-90587714D01*
X157450571Y-90540095D01*
X157498190Y-90444857D01*
X157498190Y-90063904D01*
X157402952Y-91206761D02*
X157355333Y-91111523D01*
X157307714Y-91063904D01*
X157212476Y-91016285D01*
X157164857Y-91016285D01*
X157069619Y-91063904D01*
X157022000Y-91111523D01*
X156974380Y-91206761D01*
X156974380Y-91397238D01*
X157022000Y-91492476D01*
X157069619Y-91540095D01*
X157164857Y-91587714D01*
X157212476Y-91587714D01*
X157307714Y-91540095D01*
X157355333Y-91492476D01*
X157402952Y-91397238D01*
X157402952Y-91206761D01*
X157450571Y-91111523D01*
X157498190Y-91063904D01*
X157593428Y-91016285D01*
X157783904Y-91016285D01*
X157879142Y-91063904D01*
X157926761Y-91111523D01*
X157974380Y-91206761D01*
X157974380Y-91397238D01*
X157926761Y-91492476D01*
X157879142Y-91540095D01*
X157783904Y-91587714D01*
X157593428Y-91587714D01*
X157498190Y-91540095D01*
X157450571Y-91492476D01*
X157402952Y-91397238D01*
G04 #@! TO.C,R15*
X148848857Y-87320380D02*
X149182190Y-86844190D01*
X149420285Y-87320380D02*
X149420285Y-86320380D01*
X149039333Y-86320380D01*
X148944095Y-86368000D01*
X148896476Y-86415619D01*
X148848857Y-86510857D01*
X148848857Y-86653714D01*
X148896476Y-86748952D01*
X148944095Y-86796571D01*
X149039333Y-86844190D01*
X149420285Y-86844190D01*
X147896476Y-87320380D02*
X148467904Y-87320380D01*
X148182190Y-87320380D02*
X148182190Y-86320380D01*
X148277428Y-86463238D01*
X148372666Y-86558476D01*
X148467904Y-86606095D01*
X146991714Y-86320380D02*
X147467904Y-86320380D01*
X147515523Y-86796571D01*
X147467904Y-86748952D01*
X147372666Y-86701333D01*
X147134571Y-86701333D01*
X147039333Y-86748952D01*
X146991714Y-86796571D01*
X146944095Y-86891809D01*
X146944095Y-87129904D01*
X146991714Y-87225142D01*
X147039333Y-87272761D01*
X147134571Y-87320380D01*
X147372666Y-87320380D01*
X147467904Y-87272761D01*
X147515523Y-87225142D01*
G04 #@! TO.C,R14*
X173870857Y-78642380D02*
X174204190Y-78166190D01*
X174442285Y-78642380D02*
X174442285Y-77642380D01*
X174061333Y-77642380D01*
X173966095Y-77690000D01*
X173918476Y-77737619D01*
X173870857Y-77832857D01*
X173870857Y-77975714D01*
X173918476Y-78070952D01*
X173966095Y-78118571D01*
X174061333Y-78166190D01*
X174442285Y-78166190D01*
X172918476Y-78642380D02*
X173489904Y-78642380D01*
X173204190Y-78642380D02*
X173204190Y-77642380D01*
X173299428Y-77785238D01*
X173394666Y-77880476D01*
X173489904Y-77928095D01*
X172061333Y-77975714D02*
X172061333Y-78642380D01*
X172299428Y-77594761D02*
X172537523Y-78309047D01*
X171918476Y-78309047D01*
G04 #@! TO.C,C17*
X153218357Y-86971142D02*
X153265976Y-87018761D01*
X153408833Y-87066380D01*
X153504071Y-87066380D01*
X153646928Y-87018761D01*
X153742166Y-86923523D01*
X153789785Y-86828285D01*
X153837404Y-86637809D01*
X153837404Y-86494952D01*
X153789785Y-86304476D01*
X153742166Y-86209238D01*
X153646928Y-86114000D01*
X153504071Y-86066380D01*
X153408833Y-86066380D01*
X153265976Y-86114000D01*
X153218357Y-86161619D01*
X152265976Y-87066380D02*
X152837404Y-87066380D01*
X152551690Y-87066380D02*
X152551690Y-86066380D01*
X152646928Y-86209238D01*
X152742166Y-86304476D01*
X152837404Y-86352095D01*
X151932642Y-86066380D02*
X151265976Y-86066380D01*
X151694547Y-87066380D01*
G04 #@! TO.C,C16*
X178188857Y-78717142D02*
X178236476Y-78764761D01*
X178379333Y-78812380D01*
X178474571Y-78812380D01*
X178617428Y-78764761D01*
X178712666Y-78669523D01*
X178760285Y-78574285D01*
X178807904Y-78383809D01*
X178807904Y-78240952D01*
X178760285Y-78050476D01*
X178712666Y-77955238D01*
X178617428Y-77860000D01*
X178474571Y-77812380D01*
X178379333Y-77812380D01*
X178236476Y-77860000D01*
X178188857Y-77907619D01*
X177236476Y-78812380D02*
X177807904Y-78812380D01*
X177522190Y-78812380D02*
X177522190Y-77812380D01*
X177617428Y-77955238D01*
X177712666Y-78050476D01*
X177807904Y-78098095D01*
X176379333Y-77812380D02*
X176569809Y-77812380D01*
X176665047Y-77860000D01*
X176712666Y-77907619D01*
X176807904Y-78050476D01*
X176855523Y-78240952D01*
X176855523Y-78621904D01*
X176807904Y-78717142D01*
X176760285Y-78764761D01*
X176665047Y-78812380D01*
X176474571Y-78812380D01*
X176379333Y-78764761D01*
X176331714Y-78717142D01*
X176284095Y-78621904D01*
X176284095Y-78383809D01*
X176331714Y-78288571D01*
X176379333Y-78240952D01*
X176474571Y-78193333D01*
X176665047Y-78193333D01*
X176760285Y-78240952D01*
X176807904Y-78288571D01*
X176855523Y-78383809D01*
G04 #@! TO.C,D5*
D16*
X172267275Y-112244656D02*
X173268035Y-112244656D01*
X173268035Y-112006380D01*
X173220380Y-111863414D01*
X173125069Y-111768103D01*
X173029759Y-111720448D01*
X172839138Y-111672793D01*
X172696172Y-111672793D01*
X172505551Y-111720448D01*
X172410240Y-111768103D01*
X172314930Y-111863414D01*
X172267275Y-112006380D01*
X172267275Y-112244656D01*
X173268035Y-110767343D02*
X173268035Y-111243896D01*
X172791482Y-111291551D01*
X172839138Y-111243896D01*
X172886793Y-111148585D01*
X172886793Y-110910309D01*
X172839138Y-110814999D01*
X172791482Y-110767343D01*
X172696172Y-110719688D01*
X172457896Y-110719688D01*
X172362585Y-110767343D01*
X172314930Y-110814999D01*
X172267275Y-110910309D01*
X172267275Y-111148585D01*
X172314930Y-111243896D01*
X172362585Y-111291551D01*
G04 #@! TO.C,R13*
D11*
X144004380Y-101211142D02*
X143528190Y-100877809D01*
X144004380Y-100639714D02*
X143004380Y-100639714D01*
X143004380Y-101020666D01*
X143052000Y-101115904D01*
X143099619Y-101163523D01*
X143194857Y-101211142D01*
X143337714Y-101211142D01*
X143432952Y-101163523D01*
X143480571Y-101115904D01*
X143528190Y-101020666D01*
X143528190Y-100639714D01*
X144004380Y-102163523D02*
X144004380Y-101592095D01*
X144004380Y-101877809D02*
X143004380Y-101877809D01*
X143147238Y-101782571D01*
X143242476Y-101687333D01*
X143290095Y-101592095D01*
X143004380Y-102496857D02*
X143004380Y-103115904D01*
X143385333Y-102782571D01*
X143385333Y-102925428D01*
X143432952Y-103020666D01*
X143480571Y-103068285D01*
X143575809Y-103115904D01*
X143813904Y-103115904D01*
X143909142Y-103068285D01*
X143956761Y-103020666D01*
X144004380Y-102925428D01*
X144004380Y-102639714D01*
X143956761Y-102544476D01*
X143909142Y-102496857D01*
G04 #@! TO.C,R12*
X137672857Y-78388380D02*
X138006190Y-77912190D01*
X138244285Y-78388380D02*
X138244285Y-77388380D01*
X137863333Y-77388380D01*
X137768095Y-77436000D01*
X137720476Y-77483619D01*
X137672857Y-77578857D01*
X137672857Y-77721714D01*
X137720476Y-77816952D01*
X137768095Y-77864571D01*
X137863333Y-77912190D01*
X138244285Y-77912190D01*
X136720476Y-78388380D02*
X137291904Y-78388380D01*
X137006190Y-78388380D02*
X137006190Y-77388380D01*
X137101428Y-77531238D01*
X137196666Y-77626476D01*
X137291904Y-77674095D01*
X136339523Y-77483619D02*
X136291904Y-77436000D01*
X136196666Y-77388380D01*
X135958571Y-77388380D01*
X135863333Y-77436000D01*
X135815714Y-77483619D01*
X135768095Y-77578857D01*
X135768095Y-77674095D01*
X135815714Y-77816952D01*
X136387142Y-78388380D01*
X135768095Y-78388380D01*
G04 #@! TO.C,C15*
X143739142Y-85463142D02*
X143786761Y-85415523D01*
X143834380Y-85272666D01*
X143834380Y-85177428D01*
X143786761Y-85034571D01*
X143691523Y-84939333D01*
X143596285Y-84891714D01*
X143405809Y-84844095D01*
X143262952Y-84844095D01*
X143072476Y-84891714D01*
X142977238Y-84939333D01*
X142882000Y-85034571D01*
X142834380Y-85177428D01*
X142834380Y-85272666D01*
X142882000Y-85415523D01*
X142929619Y-85463142D01*
X143834380Y-86415523D02*
X143834380Y-85844095D01*
X143834380Y-86129809D02*
X142834380Y-86129809D01*
X142977238Y-86034571D01*
X143072476Y-85939333D01*
X143120095Y-85844095D01*
X142834380Y-87320285D02*
X142834380Y-86844095D01*
X143310571Y-86796476D01*
X143262952Y-86844095D01*
X143215333Y-86939333D01*
X143215333Y-87177428D01*
X143262952Y-87272666D01*
X143310571Y-87320285D01*
X143405809Y-87367904D01*
X143643904Y-87367904D01*
X143739142Y-87320285D01*
X143786761Y-87272666D01*
X143834380Y-87177428D01*
X143834380Y-86939333D01*
X143786761Y-86844095D01*
X143739142Y-86796476D01*
G04 #@! TO.C,R11*
X184538857Y-94178380D02*
X184872190Y-93702190D01*
X185110285Y-94178380D02*
X185110285Y-93178380D01*
X184729333Y-93178380D01*
X184634095Y-93226000D01*
X184586476Y-93273619D01*
X184538857Y-93368857D01*
X184538857Y-93511714D01*
X184586476Y-93606952D01*
X184634095Y-93654571D01*
X184729333Y-93702190D01*
X185110285Y-93702190D01*
X183586476Y-94178380D02*
X184157904Y-94178380D01*
X183872190Y-94178380D02*
X183872190Y-93178380D01*
X183967428Y-93321238D01*
X184062666Y-93416476D01*
X184157904Y-93464095D01*
X182634095Y-94178380D02*
X183205523Y-94178380D01*
X182919809Y-94178380D02*
X182919809Y-93178380D01*
X183015047Y-93321238D01*
X183110285Y-93416476D01*
X183205523Y-93464095D01*
G04 #@! TO.C,R10*
X152410857Y-74070380D02*
X152744190Y-73594190D01*
X152982285Y-74070380D02*
X152982285Y-73070380D01*
X152601333Y-73070380D01*
X152506095Y-73118000D01*
X152458476Y-73165619D01*
X152410857Y-73260857D01*
X152410857Y-73403714D01*
X152458476Y-73498952D01*
X152506095Y-73546571D01*
X152601333Y-73594190D01*
X152982285Y-73594190D01*
X151458476Y-74070380D02*
X152029904Y-74070380D01*
X151744190Y-74070380D02*
X151744190Y-73070380D01*
X151839428Y-73213238D01*
X151934666Y-73308476D01*
X152029904Y-73356095D01*
X150839428Y-73070380D02*
X150744190Y-73070380D01*
X150648952Y-73118000D01*
X150601333Y-73165619D01*
X150553714Y-73260857D01*
X150506095Y-73451333D01*
X150506095Y-73689428D01*
X150553714Y-73879904D01*
X150601333Y-73975142D01*
X150648952Y-74022761D01*
X150744190Y-74070380D01*
X150839428Y-74070380D01*
X150934666Y-74022761D01*
X150982285Y-73975142D01*
X151029904Y-73879904D01*
X151077523Y-73689428D01*
X151077523Y-73451333D01*
X151029904Y-73260857D01*
X150982285Y-73165619D01*
X150934666Y-73118000D01*
X150839428Y-73070380D01*
G04 #@! TO.C,R9*
X176064666Y-74070380D02*
X176398000Y-73594190D01*
X176636095Y-74070380D02*
X176636095Y-73070380D01*
X176255142Y-73070380D01*
X176159904Y-73118000D01*
X176112285Y-73165619D01*
X176064666Y-73260857D01*
X176064666Y-73403714D01*
X176112285Y-73498952D01*
X176159904Y-73546571D01*
X176255142Y-73594190D01*
X176636095Y-73594190D01*
X175588476Y-74070380D02*
X175398000Y-74070380D01*
X175302761Y-74022761D01*
X175255142Y-73975142D01*
X175159904Y-73832285D01*
X175112285Y-73641809D01*
X175112285Y-73260857D01*
X175159904Y-73165619D01*
X175207523Y-73118000D01*
X175302761Y-73070380D01*
X175493238Y-73070380D01*
X175588476Y-73118000D01*
X175636095Y-73165619D01*
X175683714Y-73260857D01*
X175683714Y-73498952D01*
X175636095Y-73594190D01*
X175588476Y-73641809D01*
X175493238Y-73689428D01*
X175302761Y-73689428D01*
X175207523Y-73641809D01*
X175159904Y-73594190D01*
X175112285Y-73498952D01*
G04 #@! TO.C,R7*
X176686380Y-87593333D02*
X176210190Y-87260000D01*
X176686380Y-87021904D02*
X175686380Y-87021904D01*
X175686380Y-87402857D01*
X175734000Y-87498095D01*
X175781619Y-87545714D01*
X175876857Y-87593333D01*
X176019714Y-87593333D01*
X176114952Y-87545714D01*
X176162571Y-87498095D01*
X176210190Y-87402857D01*
X176210190Y-87021904D01*
X175686380Y-87926666D02*
X175686380Y-88593333D01*
X176686380Y-88164761D01*
G04 #@! TO.C,R6*
X161202666Y-95194380D02*
X161536000Y-94718190D01*
X161774095Y-95194380D02*
X161774095Y-94194380D01*
X161393142Y-94194380D01*
X161297904Y-94242000D01*
X161250285Y-94289619D01*
X161202666Y-94384857D01*
X161202666Y-94527714D01*
X161250285Y-94622952D01*
X161297904Y-94670571D01*
X161393142Y-94718190D01*
X161774095Y-94718190D01*
X160345523Y-94194380D02*
X160536000Y-94194380D01*
X160631238Y-94242000D01*
X160678857Y-94289619D01*
X160774095Y-94432476D01*
X160821714Y-94622952D01*
X160821714Y-95003904D01*
X160774095Y-95099142D01*
X160726476Y-95146761D01*
X160631238Y-95194380D01*
X160440761Y-95194380D01*
X160345523Y-95146761D01*
X160297904Y-95099142D01*
X160250285Y-95003904D01*
X160250285Y-94765809D01*
X160297904Y-94670571D01*
X160345523Y-94622952D01*
X160440761Y-94575333D01*
X160631238Y-94575333D01*
X160726476Y-94622952D01*
X160774095Y-94670571D01*
X160821714Y-94765809D01*
G04 #@! TO.C,R4*
X157551380Y-100544333D02*
X157075190Y-100211000D01*
X157551380Y-99972904D02*
X156551380Y-99972904D01*
X156551380Y-100353857D01*
X156599000Y-100449095D01*
X156646619Y-100496714D01*
X156741857Y-100544333D01*
X156884714Y-100544333D01*
X156979952Y-100496714D01*
X157027571Y-100449095D01*
X157075190Y-100353857D01*
X157075190Y-99972904D01*
X156884714Y-101401476D02*
X157551380Y-101401476D01*
X156503761Y-101163380D02*
X157218047Y-100925285D01*
X157218047Y-101544333D01*
G04 #@! TO.C,C13*
X167997142Y-95369142D02*
X168044761Y-95321523D01*
X168092380Y-95178666D01*
X168092380Y-95083428D01*
X168044761Y-94940571D01*
X167949523Y-94845333D01*
X167854285Y-94797714D01*
X167663809Y-94750095D01*
X167520952Y-94750095D01*
X167330476Y-94797714D01*
X167235238Y-94845333D01*
X167140000Y-94940571D01*
X167092380Y-95083428D01*
X167092380Y-95178666D01*
X167140000Y-95321523D01*
X167187619Y-95369142D01*
X168092380Y-96321523D02*
X168092380Y-95750095D01*
X168092380Y-96035809D02*
X167092380Y-96035809D01*
X167235238Y-95940571D01*
X167330476Y-95845333D01*
X167378095Y-95750095D01*
X167092380Y-96654857D02*
X167092380Y-97273904D01*
X167473333Y-96940571D01*
X167473333Y-97083428D01*
X167520952Y-97178666D01*
X167568571Y-97226285D01*
X167663809Y-97273904D01*
X167901904Y-97273904D01*
X167997142Y-97226285D01*
X168044761Y-97178666D01*
X168092380Y-97083428D01*
X168092380Y-96797714D01*
X168044761Y-96702476D01*
X167997142Y-96654857D01*
G04 #@! TO.C,C12*
X163171142Y-101211142D02*
X163218761Y-101163523D01*
X163266380Y-101020666D01*
X163266380Y-100925428D01*
X163218761Y-100782571D01*
X163123523Y-100687333D01*
X163028285Y-100639714D01*
X162837809Y-100592095D01*
X162694952Y-100592095D01*
X162504476Y-100639714D01*
X162409238Y-100687333D01*
X162314000Y-100782571D01*
X162266380Y-100925428D01*
X162266380Y-101020666D01*
X162314000Y-101163523D01*
X162361619Y-101211142D01*
X163266380Y-102163523D02*
X163266380Y-101592095D01*
X163266380Y-101877809D02*
X162266380Y-101877809D01*
X162409238Y-101782571D01*
X162504476Y-101687333D01*
X162552095Y-101592095D01*
X162361619Y-102544476D02*
X162314000Y-102592095D01*
X162266380Y-102687333D01*
X162266380Y-102925428D01*
X162314000Y-103020666D01*
X162361619Y-103068285D01*
X162456857Y-103115904D01*
X162552095Y-103115904D01*
X162694952Y-103068285D01*
X163266380Y-102496857D01*
X163266380Y-103115904D01*
G04 #@! TO.C,C9*
X132437142Y-108291333D02*
X132484761Y-108243714D01*
X132532380Y-108100857D01*
X132532380Y-108005619D01*
X132484761Y-107862761D01*
X132389523Y-107767523D01*
X132294285Y-107719904D01*
X132103809Y-107672285D01*
X131960952Y-107672285D01*
X131770476Y-107719904D01*
X131675238Y-107767523D01*
X131580000Y-107862761D01*
X131532380Y-108005619D01*
X131532380Y-108100857D01*
X131580000Y-108243714D01*
X131627619Y-108291333D01*
X132532380Y-108767523D02*
X132532380Y-108958000D01*
X132484761Y-109053238D01*
X132437142Y-109100857D01*
X132294285Y-109196095D01*
X132103809Y-109243714D01*
X131722857Y-109243714D01*
X131627619Y-109196095D01*
X131580000Y-109148476D01*
X131532380Y-109053238D01*
X131532380Y-108862761D01*
X131580000Y-108767523D01*
X131627619Y-108719904D01*
X131722857Y-108672285D01*
X131960952Y-108672285D01*
X132056190Y-108719904D01*
X132103809Y-108767523D01*
X132151428Y-108862761D01*
X132151428Y-109053238D01*
X132103809Y-109148476D01*
X132056190Y-109196095D01*
X131960952Y-109243714D01*
G04 #@! TO.C,C8*
X123864666Y-78589142D02*
X123912285Y-78636761D01*
X124055142Y-78684380D01*
X124150380Y-78684380D01*
X124293238Y-78636761D01*
X124388476Y-78541523D01*
X124436095Y-78446285D01*
X124483714Y-78255809D01*
X124483714Y-78112952D01*
X124436095Y-77922476D01*
X124388476Y-77827238D01*
X124293238Y-77732000D01*
X124150380Y-77684380D01*
X124055142Y-77684380D01*
X123912285Y-77732000D01*
X123864666Y-77779619D01*
X123293238Y-78112952D02*
X123388476Y-78065333D01*
X123436095Y-78017714D01*
X123483714Y-77922476D01*
X123483714Y-77874857D01*
X123436095Y-77779619D01*
X123388476Y-77732000D01*
X123293238Y-77684380D01*
X123102761Y-77684380D01*
X123007523Y-77732000D01*
X122959904Y-77779619D01*
X122912285Y-77874857D01*
X122912285Y-77922476D01*
X122959904Y-78017714D01*
X123007523Y-78065333D01*
X123102761Y-78112952D01*
X123293238Y-78112952D01*
X123388476Y-78160571D01*
X123436095Y-78208190D01*
X123483714Y-78303428D01*
X123483714Y-78493904D01*
X123436095Y-78589142D01*
X123388476Y-78636761D01*
X123293238Y-78684380D01*
X123102761Y-78684380D01*
X123007523Y-78636761D01*
X122959904Y-78589142D01*
X122912285Y-78493904D01*
X122912285Y-78303428D01*
X122959904Y-78208190D01*
X123007523Y-78160571D01*
X123102761Y-78112952D01*
G04 #@! TO.C,U6*
X175005904Y-96247380D02*
X175005904Y-97056904D01*
X174958285Y-97152142D01*
X174910666Y-97199761D01*
X174815428Y-97247380D01*
X174624952Y-97247380D01*
X174529714Y-97199761D01*
X174482095Y-97152142D01*
X174434476Y-97056904D01*
X174434476Y-96247380D01*
X173529714Y-96247380D02*
X173720190Y-96247380D01*
X173815428Y-96295000D01*
X173863047Y-96342619D01*
X173958285Y-96485476D01*
X174005904Y-96675952D01*
X174005904Y-97056904D01*
X173958285Y-97152142D01*
X173910666Y-97199761D01*
X173815428Y-97247380D01*
X173624952Y-97247380D01*
X173529714Y-97199761D01*
X173482095Y-97152142D01*
X173434476Y-97056904D01*
X173434476Y-96818809D01*
X173482095Y-96723571D01*
X173529714Y-96675952D01*
X173624952Y-96628333D01*
X173815428Y-96628333D01*
X173910666Y-96675952D01*
X173958285Y-96723571D01*
X174005904Y-96818809D01*
X176669700Y-97242380D02*
X176669700Y-97480476D01*
X176907795Y-97385238D02*
X176669700Y-97480476D01*
X176431604Y-97385238D01*
X176812557Y-97670952D02*
X176669700Y-97480476D01*
X176526842Y-97670952D01*
X176669700Y-97242380D02*
X176669700Y-97480476D01*
X176907795Y-97385238D02*
X176669700Y-97480476D01*
X176431604Y-97385238D01*
X176812557Y-97670952D02*
X176669700Y-97480476D01*
X176526842Y-97670952D01*
G04 #@! TO.C,U7*
X154050904Y-96247380D02*
X154050904Y-97056904D01*
X154003285Y-97152142D01*
X153955666Y-97199761D01*
X153860428Y-97247380D01*
X153669952Y-97247380D01*
X153574714Y-97199761D01*
X153527095Y-97152142D01*
X153479476Y-97056904D01*
X153479476Y-96247380D01*
X153098523Y-96247380D02*
X152431857Y-96247380D01*
X152860428Y-97247380D01*
X155956000Y-97242380D02*
X155956000Y-97480476D01*
X156194095Y-97385238D02*
X155956000Y-97480476D01*
X155717904Y-97385238D01*
X156098857Y-97670952D02*
X155956000Y-97480476D01*
X155813142Y-97670952D01*
X155956000Y-97242380D02*
X155956000Y-97480476D01*
X156194095Y-97385238D02*
X155956000Y-97480476D01*
X155717904Y-97385238D01*
X156098857Y-97670952D02*
X155956000Y-97480476D01*
X155813142Y-97670952D01*
G04 #@! TD*
M02*
