G04 #@! TF.GenerationSoftware,KiCad,Pcbnew,5.1.5+dfsg1-2*
G04 #@! TF.CreationDate,2020-01-18T18:57:03+02:00*
G04 #@! TF.ProjectId,Morfeas_Rpi_Hat,4d6f7266-6561-4735-9f52-70695f486174,V1.0*
G04 #@! TF.SameCoordinates,Original*
G04 #@! TF.FileFunction,Soldermask,Bot*
G04 #@! TF.FilePolarity,Negative*
%FSLAX46Y46*%
G04 Gerber Fmt 4.6, Leading zero omitted, Abs format (unit mm)*
G04 Created by KiCad (PCBNEW 5.1.5+dfsg1-2) date 2020-01-18 18:57:03*
%MOMM*%
%LPD*%
G04 APERTURE LIST*
%ADD10C,0.025400*%
G04 APERTURE END LIST*
D10*
G36*
X183612332Y-114331289D02*
G01*
X183612334Y-114331290D01*
X183612335Y-114331290D01*
X183935726Y-114465243D01*
X184226766Y-114659710D01*
X184226768Y-114659712D01*
X184226771Y-114659714D01*
X184474286Y-114907229D01*
X184474288Y-114907232D01*
X184474290Y-114907234D01*
X184668757Y-115198274D01*
X184802710Y-115521665D01*
X184802711Y-115521668D01*
X184871000Y-115864981D01*
X184871000Y-116215019D01*
X184803520Y-116554267D01*
X184802710Y-116558335D01*
X184668757Y-116881726D01*
X184474290Y-117172766D01*
X184474288Y-117172768D01*
X184474286Y-117172771D01*
X184226771Y-117420286D01*
X184226768Y-117420288D01*
X184226766Y-117420290D01*
X183935726Y-117614757D01*
X183612335Y-117748710D01*
X183612334Y-117748710D01*
X183612332Y-117748711D01*
X183269019Y-117817000D01*
X182918981Y-117817000D01*
X182575668Y-117748711D01*
X182575666Y-117748710D01*
X182575665Y-117748710D01*
X182252274Y-117614757D01*
X181961234Y-117420290D01*
X181961232Y-117420288D01*
X181961229Y-117420286D01*
X181713714Y-117172771D01*
X181713712Y-117172768D01*
X181713710Y-117172766D01*
X181519243Y-116881726D01*
X181385290Y-116558335D01*
X181384481Y-116554267D01*
X181317000Y-116215019D01*
X181317000Y-115864981D01*
X181385289Y-115521668D01*
X181385290Y-115521665D01*
X181519243Y-115198274D01*
X181713710Y-114907234D01*
X181713712Y-114907232D01*
X181713714Y-114907229D01*
X181961229Y-114659714D01*
X181961232Y-114659712D01*
X181961234Y-114659710D01*
X182252274Y-114465243D01*
X182575665Y-114331290D01*
X182575666Y-114331290D01*
X182575668Y-114331289D01*
X182918981Y-114263000D01*
X183269019Y-114263000D01*
X183612332Y-114331289D01*
G37*
G36*
X125612332Y-114331289D02*
G01*
X125612334Y-114331290D01*
X125612335Y-114331290D01*
X125935726Y-114465243D01*
X126226766Y-114659710D01*
X126226768Y-114659712D01*
X126226771Y-114659714D01*
X126474286Y-114907229D01*
X126474288Y-114907232D01*
X126474290Y-114907234D01*
X126668757Y-115198274D01*
X126802710Y-115521665D01*
X126802711Y-115521668D01*
X126871000Y-115864981D01*
X126871000Y-116215019D01*
X126803520Y-116554267D01*
X126802710Y-116558335D01*
X126668757Y-116881726D01*
X126474290Y-117172766D01*
X126474288Y-117172768D01*
X126474286Y-117172771D01*
X126226771Y-117420286D01*
X126226768Y-117420288D01*
X126226766Y-117420290D01*
X125935726Y-117614757D01*
X125612335Y-117748710D01*
X125612334Y-117748710D01*
X125612332Y-117748711D01*
X125269019Y-117817000D01*
X124918981Y-117817000D01*
X124575668Y-117748711D01*
X124575666Y-117748710D01*
X124575665Y-117748710D01*
X124252274Y-117614757D01*
X123961234Y-117420290D01*
X123961232Y-117420288D01*
X123961229Y-117420286D01*
X123713714Y-117172771D01*
X123713712Y-117172768D01*
X123713710Y-117172766D01*
X123519243Y-116881726D01*
X123385290Y-116558335D01*
X123384481Y-116554267D01*
X123317000Y-116215019D01*
X123317000Y-115864981D01*
X123385289Y-115521668D01*
X123385290Y-115521665D01*
X123519243Y-115198274D01*
X123713710Y-114907234D01*
X123713712Y-114907232D01*
X123713714Y-114907229D01*
X123961229Y-114659714D01*
X123961232Y-114659712D01*
X123961234Y-114659710D01*
X124252274Y-114465243D01*
X124575665Y-114331290D01*
X124575666Y-114331290D01*
X124575668Y-114331289D01*
X124918981Y-114263000D01*
X125269019Y-114263000D01*
X125612332Y-114331289D01*
G37*
G36*
X139026000Y-117182000D02*
G01*
X137072000Y-117182000D01*
X137072000Y-115228000D01*
X139026000Y-115228000D01*
X139026000Y-117182000D01*
G37*
G36*
X133086135Y-115232159D02*
G01*
X133253983Y-115265545D01*
X133431780Y-115339191D01*
X133591800Y-115446113D01*
X133727887Y-115582200D01*
X133834809Y-115742220D01*
X133908455Y-115920017D01*
X133946000Y-116108775D01*
X133946000Y-116301225D01*
X133908455Y-116489983D01*
X133834809Y-116667780D01*
X133727887Y-116827800D01*
X133591800Y-116963887D01*
X133431780Y-117070809D01*
X133253983Y-117144455D01*
X133086135Y-117177841D01*
X133065226Y-117182000D01*
X132872774Y-117182000D01*
X132851865Y-117177841D01*
X132684017Y-117144455D01*
X132506220Y-117070809D01*
X132346200Y-116963887D01*
X132210113Y-116827800D01*
X132103191Y-116667780D01*
X132029545Y-116489983D01*
X131992000Y-116301225D01*
X131992000Y-116108775D01*
X132029545Y-115920017D01*
X132103191Y-115742220D01*
X132210113Y-115582200D01*
X132346200Y-115446113D01*
X132506220Y-115339191D01*
X132684017Y-115265545D01*
X132851865Y-115232159D01*
X132872774Y-115228000D01*
X133065226Y-115228000D01*
X133086135Y-115232159D01*
G37*
G36*
X135626135Y-115232159D02*
G01*
X135793983Y-115265545D01*
X135971780Y-115339191D01*
X136131800Y-115446113D01*
X136267887Y-115582200D01*
X136374809Y-115742220D01*
X136448455Y-115920017D01*
X136486000Y-116108775D01*
X136486000Y-116301225D01*
X136448455Y-116489983D01*
X136374809Y-116667780D01*
X136267887Y-116827800D01*
X136131800Y-116963887D01*
X135971780Y-117070809D01*
X135793983Y-117144455D01*
X135626135Y-117177841D01*
X135605226Y-117182000D01*
X135412774Y-117182000D01*
X135391865Y-117177841D01*
X135224017Y-117144455D01*
X135046220Y-117070809D01*
X134886200Y-116963887D01*
X134750113Y-116827800D01*
X134643191Y-116667780D01*
X134569545Y-116489983D01*
X134532000Y-116301225D01*
X134532000Y-116108775D01*
X134569545Y-115920017D01*
X134643191Y-115742220D01*
X134750113Y-115582200D01*
X134886200Y-115446113D01*
X135046220Y-115339191D01*
X135224017Y-115265545D01*
X135391865Y-115232159D01*
X135412774Y-115228000D01*
X135605226Y-115228000D01*
X135626135Y-115232159D01*
G37*
G36*
X130524267Y-115599283D02*
G01*
X130662942Y-115656724D01*
X130787747Y-115740116D01*
X130893884Y-115846253D01*
X130977276Y-115971058D01*
X131034717Y-116109733D01*
X131064000Y-116256950D01*
X131064000Y-116407050D01*
X131034717Y-116554267D01*
X130977276Y-116692942D01*
X130893884Y-116817747D01*
X130787747Y-116923884D01*
X130662942Y-117007276D01*
X130524267Y-117064717D01*
X130377050Y-117094000D01*
X130226950Y-117094000D01*
X130079733Y-117064717D01*
X129941058Y-117007276D01*
X129816253Y-116923884D01*
X129710116Y-116817747D01*
X129626724Y-116692942D01*
X129569283Y-116554267D01*
X129540000Y-116407050D01*
X129540000Y-116256950D01*
X129569283Y-116109733D01*
X129626724Y-115971058D01*
X129710116Y-115846253D01*
X129816253Y-115740116D01*
X129941058Y-115656724D01*
X130079733Y-115599283D01*
X130226950Y-115570000D01*
X130377050Y-115570000D01*
X130524267Y-115599283D01*
G37*
G36*
X164031493Y-114226686D02*
G01*
X164285729Y-114331994D01*
X164514531Y-114484875D01*
X164709125Y-114679469D01*
X164862006Y-114908271D01*
X164967314Y-115162507D01*
X165021000Y-115432408D01*
X165021000Y-115707592D01*
X164967314Y-115977493D01*
X164862006Y-116231729D01*
X164709125Y-116460531D01*
X164514531Y-116655125D01*
X164285729Y-116808006D01*
X164031493Y-116913314D01*
X163761592Y-116967000D01*
X163486408Y-116967000D01*
X163216507Y-116913314D01*
X162962271Y-116808006D01*
X162733469Y-116655125D01*
X162538875Y-116460531D01*
X162385994Y-116231729D01*
X162280686Y-115977493D01*
X162227000Y-115707592D01*
X162227000Y-115432408D01*
X162280686Y-115162507D01*
X162385994Y-114908271D01*
X162538875Y-114679469D01*
X162733469Y-114484875D01*
X162962271Y-114331994D01*
X163216507Y-114226686D01*
X163486408Y-114173000D01*
X163761592Y-114173000D01*
X164031493Y-114226686D01*
G37*
G36*
X174531493Y-114226686D02*
G01*
X174785729Y-114331994D01*
X175014531Y-114484875D01*
X175209125Y-114679469D01*
X175362006Y-114908271D01*
X175467314Y-115162507D01*
X175521000Y-115432408D01*
X175521000Y-115707592D01*
X175467314Y-115977493D01*
X175362006Y-116231729D01*
X175209125Y-116460531D01*
X175014531Y-116655125D01*
X174785729Y-116808006D01*
X174531493Y-116913314D01*
X174261592Y-116967000D01*
X173986408Y-116967000D01*
X173716507Y-116913314D01*
X173462271Y-116808006D01*
X173233469Y-116655125D01*
X173038875Y-116460531D01*
X172885994Y-116231729D01*
X172780686Y-115977493D01*
X172727000Y-115707592D01*
X172727000Y-115432408D01*
X172780686Y-115162507D01*
X172885994Y-114908271D01*
X173038875Y-114679469D01*
X173233469Y-114484875D01*
X173462271Y-114331994D01*
X173716507Y-114226686D01*
X173986408Y-114173000D01*
X174261592Y-114173000D01*
X174531493Y-114226686D01*
G37*
G36*
X171031493Y-114226686D02*
G01*
X171285729Y-114331994D01*
X171514531Y-114484875D01*
X171709125Y-114679469D01*
X171862006Y-114908271D01*
X171967314Y-115162507D01*
X172021000Y-115432408D01*
X172021000Y-115707592D01*
X171967314Y-115977493D01*
X171862006Y-116231729D01*
X171709125Y-116460531D01*
X171514531Y-116655125D01*
X171285729Y-116808006D01*
X171031493Y-116913314D01*
X170761592Y-116967000D01*
X170486408Y-116967000D01*
X170216507Y-116913314D01*
X169962271Y-116808006D01*
X169733469Y-116655125D01*
X169538875Y-116460531D01*
X169385994Y-116231729D01*
X169280686Y-115977493D01*
X169227000Y-115707592D01*
X169227000Y-115432408D01*
X169280686Y-115162507D01*
X169385994Y-114908271D01*
X169538875Y-114679469D01*
X169733469Y-114484875D01*
X169962271Y-114331994D01*
X170216507Y-114226686D01*
X170486408Y-114173000D01*
X170761592Y-114173000D01*
X171031493Y-114226686D01*
G37*
G36*
X150031493Y-114226686D02*
G01*
X150285729Y-114331994D01*
X150514531Y-114484875D01*
X150709125Y-114679469D01*
X150862006Y-114908271D01*
X150967314Y-115162507D01*
X151021000Y-115432408D01*
X151021000Y-115707592D01*
X150967314Y-115977493D01*
X150862006Y-116231729D01*
X150709125Y-116460531D01*
X150514531Y-116655125D01*
X150285729Y-116808006D01*
X150031493Y-116913314D01*
X149761592Y-116967000D01*
X149486408Y-116967000D01*
X149216507Y-116913314D01*
X148962271Y-116808006D01*
X148733469Y-116655125D01*
X148538875Y-116460531D01*
X148385994Y-116231729D01*
X148280686Y-115977493D01*
X148227000Y-115707592D01*
X148227000Y-115432408D01*
X148280686Y-115162507D01*
X148385994Y-114908271D01*
X148538875Y-114679469D01*
X148733469Y-114484875D01*
X148962271Y-114331994D01*
X149216507Y-114226686D01*
X149486408Y-114173000D01*
X149761592Y-114173000D01*
X150031493Y-114226686D01*
G37*
G36*
X153531493Y-114226686D02*
G01*
X153785729Y-114331994D01*
X154014531Y-114484875D01*
X154209125Y-114679469D01*
X154362006Y-114908271D01*
X154467314Y-115162507D01*
X154521000Y-115432408D01*
X154521000Y-115707592D01*
X154467314Y-115977493D01*
X154362006Y-116231729D01*
X154209125Y-116460531D01*
X154014531Y-116655125D01*
X153785729Y-116808006D01*
X153531493Y-116913314D01*
X153261592Y-116967000D01*
X152986408Y-116967000D01*
X152716507Y-116913314D01*
X152462271Y-116808006D01*
X152233469Y-116655125D01*
X152038875Y-116460531D01*
X151885994Y-116231729D01*
X151780686Y-115977493D01*
X151727000Y-115707592D01*
X151727000Y-115432408D01*
X151780686Y-115162507D01*
X151885994Y-114908271D01*
X152038875Y-114679469D01*
X152233469Y-114484875D01*
X152462271Y-114331994D01*
X152716507Y-114226686D01*
X152986408Y-114173000D01*
X153261592Y-114173000D01*
X153531493Y-114226686D01*
G37*
G36*
X157031493Y-114226686D02*
G01*
X157285729Y-114331994D01*
X157514531Y-114484875D01*
X157709125Y-114679469D01*
X157862006Y-114908271D01*
X157967314Y-115162507D01*
X158021000Y-115432408D01*
X158021000Y-115707592D01*
X157967314Y-115977493D01*
X157862006Y-116231729D01*
X157709125Y-116460531D01*
X157514531Y-116655125D01*
X157285729Y-116808006D01*
X157031493Y-116913314D01*
X156761592Y-116967000D01*
X156486408Y-116967000D01*
X156216507Y-116913314D01*
X155962271Y-116808006D01*
X155733469Y-116655125D01*
X155538875Y-116460531D01*
X155385994Y-116231729D01*
X155280686Y-115977493D01*
X155227000Y-115707592D01*
X155227000Y-115432408D01*
X155280686Y-115162507D01*
X155385994Y-114908271D01*
X155538875Y-114679469D01*
X155733469Y-114484875D01*
X155962271Y-114331994D01*
X156216507Y-114226686D01*
X156486408Y-114173000D01*
X156761592Y-114173000D01*
X157031493Y-114226686D01*
G37*
G36*
X160531493Y-114226686D02*
G01*
X160785729Y-114331994D01*
X161014531Y-114484875D01*
X161209125Y-114679469D01*
X161362006Y-114908271D01*
X161467314Y-115162507D01*
X161521000Y-115432408D01*
X161521000Y-115707592D01*
X161467314Y-115977493D01*
X161362006Y-116231729D01*
X161209125Y-116460531D01*
X161014531Y-116655125D01*
X160785729Y-116808006D01*
X160531493Y-116913314D01*
X160261592Y-116967000D01*
X159986408Y-116967000D01*
X159716507Y-116913314D01*
X159462271Y-116808006D01*
X159233469Y-116655125D01*
X159038875Y-116460531D01*
X158885994Y-116231729D01*
X158780686Y-115977493D01*
X158727000Y-115707592D01*
X158727000Y-115432408D01*
X158780686Y-115162507D01*
X158885994Y-114908271D01*
X159038875Y-114679469D01*
X159233469Y-114484875D01*
X159462271Y-114331994D01*
X159716507Y-114226686D01*
X159986408Y-114173000D01*
X160261592Y-114173000D01*
X160531493Y-114226686D01*
G37*
G36*
X167531493Y-114226686D02*
G01*
X167785729Y-114331994D01*
X168014531Y-114484875D01*
X168209125Y-114679469D01*
X168362006Y-114908271D01*
X168467314Y-115162507D01*
X168521000Y-115432408D01*
X168521000Y-115707592D01*
X168467314Y-115977493D01*
X168362006Y-116231729D01*
X168209125Y-116460531D01*
X168014531Y-116655125D01*
X167785729Y-116808006D01*
X167531493Y-116913314D01*
X167261592Y-116967000D01*
X166986408Y-116967000D01*
X166716507Y-116913314D01*
X166462271Y-116808006D01*
X166233469Y-116655125D01*
X166038875Y-116460531D01*
X165885994Y-116231729D01*
X165780686Y-115977493D01*
X165727000Y-115707592D01*
X165727000Y-115432408D01*
X165780686Y-115162507D01*
X165885994Y-114908271D01*
X166038875Y-114679469D01*
X166233469Y-114484875D01*
X166462271Y-114331994D01*
X166716507Y-114226686D01*
X166986408Y-114173000D01*
X167261592Y-114173000D01*
X167531493Y-114226686D01*
G37*
G36*
X141954267Y-114075283D02*
G01*
X142092942Y-114132724D01*
X142217747Y-114216116D01*
X142323884Y-114322253D01*
X142407276Y-114447058D01*
X142464717Y-114585733D01*
X142494000Y-114732950D01*
X142494000Y-114883050D01*
X142464717Y-115030267D01*
X142407276Y-115168942D01*
X142323884Y-115293747D01*
X142217747Y-115399884D01*
X142092942Y-115483276D01*
X141954267Y-115540717D01*
X141807050Y-115570000D01*
X141656950Y-115570000D01*
X141509733Y-115540717D01*
X141371058Y-115483276D01*
X141246253Y-115399884D01*
X141140116Y-115293747D01*
X141056724Y-115168942D01*
X140999283Y-115030267D01*
X140970000Y-114883050D01*
X140970000Y-114732950D01*
X140999283Y-114585733D01*
X141056724Y-114447058D01*
X141140116Y-114322253D01*
X141246253Y-114216116D01*
X141371058Y-114132724D01*
X141509733Y-114075283D01*
X141656950Y-114046000D01*
X141807050Y-114046000D01*
X141954267Y-114075283D01*
G37*
G36*
X168095143Y-112732343D02*
G01*
X166240943Y-112732343D01*
X166240943Y-110278703D01*
X168095143Y-110278703D01*
X168095143Y-112732343D01*
G37*
G36*
X171894983Y-112732343D02*
G01*
X170040783Y-112732343D01*
X170040783Y-110278703D01*
X171894983Y-110278703D01*
X171894983Y-112732343D01*
G37*
G36*
X127984267Y-110773283D02*
G01*
X128122942Y-110830724D01*
X128247747Y-110914116D01*
X128353884Y-111020253D01*
X128437276Y-111145058D01*
X128494717Y-111283733D01*
X128524000Y-111430950D01*
X128524000Y-111581050D01*
X128494717Y-111728267D01*
X128437276Y-111866942D01*
X128353884Y-111991747D01*
X128247747Y-112097884D01*
X128122942Y-112181276D01*
X127984267Y-112238717D01*
X127837050Y-112268000D01*
X127686950Y-112268000D01*
X127539733Y-112238717D01*
X127401058Y-112181276D01*
X127276253Y-112097884D01*
X127170116Y-111991747D01*
X127086724Y-111866942D01*
X127029283Y-111728267D01*
X127000000Y-111581050D01*
X127000000Y-111430950D01*
X127029283Y-111283733D01*
X127086724Y-111145058D01*
X127170116Y-111020253D01*
X127276253Y-110914116D01*
X127401058Y-110830724D01*
X127539733Y-110773283D01*
X127686950Y-110744000D01*
X127837050Y-110744000D01*
X127984267Y-110773283D01*
G37*
G36*
X135774684Y-107636595D02*
G01*
X135826314Y-107652256D01*
X135873888Y-107677685D01*
X135915590Y-107711910D01*
X135949815Y-107753612D01*
X135975244Y-107801186D01*
X135990905Y-107852816D01*
X135996500Y-107909617D01*
X135996500Y-109006383D01*
X135990905Y-109063184D01*
X135975244Y-109114814D01*
X135949815Y-109162388D01*
X135915590Y-109204090D01*
X135873888Y-109238315D01*
X135826314Y-109263744D01*
X135774684Y-109279405D01*
X135717883Y-109285000D01*
X135046117Y-109285000D01*
X134989316Y-109279405D01*
X134937686Y-109263744D01*
X134890112Y-109238315D01*
X134848410Y-109204090D01*
X134814185Y-109162388D01*
X134788756Y-109114814D01*
X134773095Y-109063184D01*
X134767500Y-109006383D01*
X134767500Y-107909617D01*
X134773095Y-107852816D01*
X134788756Y-107801186D01*
X134814185Y-107753612D01*
X134848410Y-107711910D01*
X134890112Y-107677685D01*
X134937686Y-107652256D01*
X134989316Y-107636595D01*
X135046117Y-107631000D01*
X135717883Y-107631000D01*
X135774684Y-107636595D01*
G37*
G36*
X133899684Y-107636595D02*
G01*
X133951314Y-107652256D01*
X133998888Y-107677685D01*
X134040590Y-107711910D01*
X134074815Y-107753612D01*
X134100244Y-107801186D01*
X134115905Y-107852816D01*
X134121500Y-107909617D01*
X134121500Y-109006383D01*
X134115905Y-109063184D01*
X134100244Y-109114814D01*
X134074815Y-109162388D01*
X134040590Y-109204090D01*
X133998888Y-109238315D01*
X133951314Y-109263744D01*
X133899684Y-109279405D01*
X133842883Y-109285000D01*
X133171117Y-109285000D01*
X133114316Y-109279405D01*
X133062686Y-109263744D01*
X133015112Y-109238315D01*
X132973410Y-109204090D01*
X132939185Y-109162388D01*
X132913756Y-109114814D01*
X132898095Y-109063184D01*
X132892500Y-109006383D01*
X132892500Y-107909617D01*
X132898095Y-107852816D01*
X132913756Y-107801186D01*
X132939185Y-107753612D01*
X132973410Y-107711910D01*
X133015112Y-107677685D01*
X133062686Y-107652256D01*
X133114316Y-107636595D01*
X133171117Y-107631000D01*
X133842883Y-107631000D01*
X133899684Y-107636595D01*
G37*
G36*
X137128267Y-107725283D02*
G01*
X137266942Y-107782724D01*
X137391747Y-107866116D01*
X137497884Y-107972253D01*
X137581276Y-108097058D01*
X137638717Y-108235733D01*
X137668000Y-108382950D01*
X137668000Y-108533050D01*
X137638717Y-108680267D01*
X137581276Y-108818942D01*
X137497884Y-108943747D01*
X137391747Y-109049884D01*
X137266942Y-109133276D01*
X137128267Y-109190717D01*
X136981050Y-109220000D01*
X136830950Y-109220000D01*
X136683733Y-109190717D01*
X136545058Y-109133276D01*
X136420253Y-109049884D01*
X136314116Y-108943747D01*
X136230724Y-108818942D01*
X136173283Y-108680267D01*
X136144000Y-108533050D01*
X136144000Y-108382950D01*
X136173283Y-108235733D01*
X136230724Y-108097058D01*
X136314116Y-107972253D01*
X136420253Y-107866116D01*
X136545058Y-107782724D01*
X136683733Y-107725283D01*
X136830950Y-107696000D01*
X136981050Y-107696000D01*
X137128267Y-107725283D01*
G37*
G36*
X167396542Y-105999842D02*
G01*
X167658610Y-106079339D01*
X167900133Y-106208436D01*
X168111829Y-106382171D01*
X168285564Y-106593867D01*
X168414661Y-106835390D01*
X168494158Y-107097458D01*
X168521001Y-107369999D01*
X168521001Y-107370001D01*
X168494158Y-107642542D01*
X168414661Y-107904610D01*
X168285564Y-108146133D01*
X168111829Y-108357829D01*
X167900133Y-108531564D01*
X167658610Y-108660661D01*
X167396542Y-108740158D01*
X167124001Y-108767001D01*
X167123999Y-108767001D01*
X166851458Y-108740158D01*
X166589390Y-108660661D01*
X166347867Y-108531564D01*
X166136171Y-108357829D01*
X165962436Y-108146133D01*
X165833339Y-107904610D01*
X165753842Y-107642542D01*
X165726999Y-107370001D01*
X165726999Y-107369999D01*
X165753842Y-107097458D01*
X165833339Y-106835390D01*
X165962436Y-106593867D01*
X166136171Y-106382171D01*
X166347867Y-106208436D01*
X166589390Y-106079339D01*
X166851458Y-105999842D01*
X167123999Y-105972999D01*
X167124001Y-105972999D01*
X167396542Y-105999842D01*
G37*
G36*
X149896542Y-105999842D02*
G01*
X150158610Y-106079339D01*
X150400133Y-106208436D01*
X150611829Y-106382171D01*
X150785564Y-106593867D01*
X150914661Y-106835390D01*
X150994158Y-107097458D01*
X151021001Y-107369999D01*
X151021001Y-107370001D01*
X150994158Y-107642542D01*
X150914661Y-107904610D01*
X150785564Y-108146133D01*
X150611829Y-108357829D01*
X150400133Y-108531564D01*
X150158610Y-108660661D01*
X149896542Y-108740158D01*
X149624001Y-108767001D01*
X149623999Y-108767001D01*
X149351458Y-108740158D01*
X149089390Y-108660661D01*
X148847867Y-108531564D01*
X148636171Y-108357829D01*
X148462436Y-108146133D01*
X148333339Y-107904610D01*
X148253842Y-107642542D01*
X148226999Y-107370001D01*
X148226999Y-107369999D01*
X148253842Y-107097458D01*
X148333339Y-106835390D01*
X148462436Y-106593867D01*
X148636171Y-106382171D01*
X148847867Y-106208436D01*
X149089390Y-106079339D01*
X149351458Y-105999842D01*
X149623999Y-105972999D01*
X149624001Y-105972999D01*
X149896542Y-105999842D01*
G37*
G36*
X170896542Y-105999842D02*
G01*
X171158610Y-106079339D01*
X171400133Y-106208436D01*
X171611829Y-106382171D01*
X171785564Y-106593867D01*
X171914661Y-106835390D01*
X171994158Y-107097458D01*
X172021001Y-107369999D01*
X172021001Y-107370001D01*
X171994158Y-107642542D01*
X171914661Y-107904610D01*
X171785564Y-108146133D01*
X171611829Y-108357829D01*
X171400133Y-108531564D01*
X171158610Y-108660661D01*
X170896542Y-108740158D01*
X170624001Y-108767001D01*
X170623999Y-108767001D01*
X170351458Y-108740158D01*
X170089390Y-108660661D01*
X169847867Y-108531564D01*
X169636171Y-108357829D01*
X169462436Y-108146133D01*
X169333339Y-107904610D01*
X169253842Y-107642542D01*
X169226999Y-107370001D01*
X169226999Y-107369999D01*
X169253842Y-107097458D01*
X169333339Y-106835390D01*
X169462436Y-106593867D01*
X169636171Y-106382171D01*
X169847867Y-106208436D01*
X170089390Y-106079339D01*
X170351458Y-105999842D01*
X170623999Y-105972999D01*
X170624001Y-105972999D01*
X170896542Y-105999842D01*
G37*
G36*
X174396542Y-105999842D02*
G01*
X174658610Y-106079339D01*
X174900133Y-106208436D01*
X175111829Y-106382171D01*
X175285564Y-106593867D01*
X175414661Y-106835390D01*
X175494158Y-107097458D01*
X175521001Y-107369999D01*
X175521001Y-107370001D01*
X175494158Y-107642542D01*
X175414661Y-107904610D01*
X175285564Y-108146133D01*
X175111829Y-108357829D01*
X174900133Y-108531564D01*
X174658610Y-108660661D01*
X174396542Y-108740158D01*
X174124001Y-108767001D01*
X174123999Y-108767001D01*
X173851458Y-108740158D01*
X173589390Y-108660661D01*
X173347867Y-108531564D01*
X173136171Y-108357829D01*
X172962436Y-108146133D01*
X172833339Y-107904610D01*
X172753842Y-107642542D01*
X172726999Y-107370001D01*
X172726999Y-107369999D01*
X172753842Y-107097458D01*
X172833339Y-106835390D01*
X172962436Y-106593867D01*
X173136171Y-106382171D01*
X173347867Y-106208436D01*
X173589390Y-106079339D01*
X173851458Y-105999842D01*
X174123999Y-105972999D01*
X174124001Y-105972999D01*
X174396542Y-105999842D01*
G37*
G36*
X156896542Y-105999842D02*
G01*
X157158610Y-106079339D01*
X157400133Y-106208436D01*
X157611829Y-106382171D01*
X157785564Y-106593867D01*
X157914661Y-106835390D01*
X157994158Y-107097458D01*
X158021001Y-107369999D01*
X158021001Y-107370001D01*
X157994158Y-107642542D01*
X157914661Y-107904610D01*
X157785564Y-108146133D01*
X157611829Y-108357829D01*
X157400133Y-108531564D01*
X157158610Y-108660661D01*
X156896542Y-108740158D01*
X156624001Y-108767001D01*
X156623999Y-108767001D01*
X156351458Y-108740158D01*
X156089390Y-108660661D01*
X155847867Y-108531564D01*
X155636171Y-108357829D01*
X155462436Y-108146133D01*
X155333339Y-107904610D01*
X155253842Y-107642542D01*
X155226999Y-107370001D01*
X155226999Y-107369999D01*
X155253842Y-107097458D01*
X155333339Y-106835390D01*
X155462436Y-106593867D01*
X155636171Y-106382171D01*
X155847867Y-106208436D01*
X156089390Y-106079339D01*
X156351458Y-105999842D01*
X156623999Y-105972999D01*
X156624001Y-105972999D01*
X156896542Y-105999842D01*
G37*
G36*
X160396542Y-105999842D02*
G01*
X160658610Y-106079339D01*
X160900133Y-106208436D01*
X161111829Y-106382171D01*
X161285564Y-106593867D01*
X161414661Y-106835390D01*
X161494158Y-107097458D01*
X161521001Y-107369999D01*
X161521001Y-107370001D01*
X161494158Y-107642542D01*
X161414661Y-107904610D01*
X161285564Y-108146133D01*
X161111829Y-108357829D01*
X160900133Y-108531564D01*
X160658610Y-108660661D01*
X160396542Y-108740158D01*
X160124001Y-108767001D01*
X160123999Y-108767001D01*
X159851458Y-108740158D01*
X159589390Y-108660661D01*
X159347867Y-108531564D01*
X159136171Y-108357829D01*
X158962436Y-108146133D01*
X158833339Y-107904610D01*
X158753842Y-107642542D01*
X158726999Y-107370001D01*
X158726999Y-107369999D01*
X158753842Y-107097458D01*
X158833339Y-106835390D01*
X158962436Y-106593867D01*
X159136171Y-106382171D01*
X159347867Y-106208436D01*
X159589390Y-106079339D01*
X159851458Y-105999842D01*
X160123999Y-105972999D01*
X160124001Y-105972999D01*
X160396542Y-105999842D01*
G37*
G36*
X163896542Y-105999842D02*
G01*
X164158610Y-106079339D01*
X164400133Y-106208436D01*
X164611829Y-106382171D01*
X164785564Y-106593867D01*
X164914661Y-106835390D01*
X164994158Y-107097458D01*
X165021001Y-107369999D01*
X165021001Y-107370001D01*
X164994158Y-107642542D01*
X164914661Y-107904610D01*
X164785564Y-108146133D01*
X164611829Y-108357829D01*
X164400133Y-108531564D01*
X164158610Y-108660661D01*
X163896542Y-108740158D01*
X163624001Y-108767001D01*
X163623999Y-108767001D01*
X163351458Y-108740158D01*
X163089390Y-108660661D01*
X162847867Y-108531564D01*
X162636171Y-108357829D01*
X162462436Y-108146133D01*
X162333339Y-107904610D01*
X162253842Y-107642542D01*
X162226999Y-107370001D01*
X162226999Y-107369999D01*
X162253842Y-107097458D01*
X162333339Y-106835390D01*
X162462436Y-106593867D01*
X162636171Y-106382171D01*
X162847867Y-106208436D01*
X163089390Y-106079339D01*
X163351458Y-105999842D01*
X163623999Y-105972999D01*
X163624001Y-105972999D01*
X163896542Y-105999842D01*
G37*
G36*
X153396542Y-105999842D02*
G01*
X153658610Y-106079339D01*
X153900133Y-106208436D01*
X154111829Y-106382171D01*
X154285564Y-106593867D01*
X154414661Y-106835390D01*
X154494158Y-107097458D01*
X154521001Y-107369999D01*
X154521001Y-107370001D01*
X154494158Y-107642542D01*
X154414661Y-107904610D01*
X154285564Y-108146133D01*
X154111829Y-108357829D01*
X153900133Y-108531564D01*
X153658610Y-108660661D01*
X153396542Y-108740158D01*
X153124001Y-108767001D01*
X153123999Y-108767001D01*
X152851458Y-108740158D01*
X152589390Y-108660661D01*
X152347867Y-108531564D01*
X152136171Y-108357829D01*
X151962436Y-108146133D01*
X151833339Y-107904610D01*
X151753842Y-107642542D01*
X151726999Y-107370001D01*
X151726999Y-107369999D01*
X151753842Y-107097458D01*
X151833339Y-106835390D01*
X151962436Y-106593867D01*
X152136171Y-106382171D01*
X152347867Y-106208436D01*
X152589390Y-106079339D01*
X152851458Y-105999842D01*
X153123999Y-105972999D01*
X153124001Y-105972999D01*
X153396542Y-105999842D01*
G37*
G36*
X141446267Y-106963283D02*
G01*
X141584942Y-107020724D01*
X141709747Y-107104116D01*
X141815884Y-107210253D01*
X141899276Y-107335058D01*
X141956717Y-107473733D01*
X141986000Y-107620950D01*
X141986000Y-107771050D01*
X141956717Y-107918267D01*
X141899276Y-108056942D01*
X141815884Y-108181747D01*
X141709747Y-108287884D01*
X141584942Y-108371276D01*
X141446267Y-108428717D01*
X141299050Y-108458000D01*
X141148950Y-108458000D01*
X141001733Y-108428717D01*
X140863058Y-108371276D01*
X140738253Y-108287884D01*
X140632116Y-108181747D01*
X140548724Y-108056942D01*
X140491283Y-107918267D01*
X140462000Y-107771050D01*
X140462000Y-107620950D01*
X140491283Y-107473733D01*
X140548724Y-107335058D01*
X140632116Y-107210253D01*
X140738253Y-107104116D01*
X140863058Y-107020724D01*
X141001733Y-106963283D01*
X141148950Y-106934000D01*
X141299050Y-106934000D01*
X141446267Y-106963283D01*
G37*
G36*
X146272267Y-106963283D02*
G01*
X146410942Y-107020724D01*
X146535747Y-107104116D01*
X146641884Y-107210253D01*
X146725276Y-107335058D01*
X146782717Y-107473733D01*
X146812000Y-107620950D01*
X146812000Y-107771050D01*
X146782717Y-107918267D01*
X146725276Y-108056942D01*
X146641884Y-108181747D01*
X146535747Y-108287884D01*
X146410942Y-108371276D01*
X146272267Y-108428717D01*
X146125050Y-108458000D01*
X145974950Y-108458000D01*
X145827733Y-108428717D01*
X145689058Y-108371276D01*
X145564253Y-108287884D01*
X145458116Y-108181747D01*
X145374724Y-108056942D01*
X145317283Y-107918267D01*
X145288000Y-107771050D01*
X145288000Y-107620950D01*
X145317283Y-107473733D01*
X145374724Y-107335058D01*
X145458116Y-107210253D01*
X145564253Y-107104116D01*
X145689058Y-107020724D01*
X145827733Y-106963283D01*
X145974950Y-106934000D01*
X146125050Y-106934000D01*
X146272267Y-106963283D01*
G37*
G36*
X181070267Y-105439283D02*
G01*
X181208942Y-105496724D01*
X181333747Y-105580116D01*
X181439884Y-105686253D01*
X181523276Y-105811058D01*
X181580717Y-105949733D01*
X181610000Y-106096950D01*
X181610000Y-106247050D01*
X181580717Y-106394267D01*
X181523276Y-106532942D01*
X181439884Y-106657747D01*
X181333747Y-106763884D01*
X181208942Y-106847276D01*
X181070267Y-106904717D01*
X180923050Y-106934000D01*
X180772950Y-106934000D01*
X180625733Y-106904717D01*
X180487058Y-106847276D01*
X180362253Y-106763884D01*
X180256116Y-106657747D01*
X180172724Y-106532942D01*
X180115283Y-106394267D01*
X180086000Y-106247050D01*
X180086000Y-106096950D01*
X180115283Y-105949733D01*
X180172724Y-105811058D01*
X180256116Y-105686253D01*
X180362253Y-105580116D01*
X180487058Y-105496724D01*
X180625733Y-105439283D01*
X180772950Y-105410000D01*
X180923050Y-105410000D01*
X181070267Y-105439283D01*
G37*
G36*
X142522489Y-103343349D02*
G01*
X142571715Y-103358281D01*
X142617075Y-103382527D01*
X142656840Y-103415160D01*
X142689472Y-103454923D01*
X142714409Y-103501576D01*
X142721325Y-103511926D01*
X142730127Y-103520728D01*
X142740477Y-103527643D01*
X142751978Y-103532407D01*
X142764187Y-103534835D01*
X142776635Y-103534835D01*
X142788843Y-103532407D01*
X142805688Y-103524439D01*
X142895053Y-103464727D01*
X142895054Y-103464726D01*
X142895058Y-103464724D01*
X143033733Y-103407283D01*
X143180950Y-103378000D01*
X143331050Y-103378000D01*
X143478267Y-103407283D01*
X143616942Y-103464724D01*
X143741747Y-103548116D01*
X143847884Y-103654253D01*
X143931276Y-103779058D01*
X143988717Y-103917733D01*
X144018000Y-104064950D01*
X144018000Y-104215050D01*
X143988717Y-104362267D01*
X143931276Y-104500942D01*
X143847884Y-104625747D01*
X143741747Y-104731884D01*
X143616942Y-104815276D01*
X143478267Y-104872717D01*
X143331050Y-104902000D01*
X143180950Y-104902000D01*
X143033733Y-104872717D01*
X142895058Y-104815276D01*
X142770253Y-104731884D01*
X142770252Y-104731883D01*
X142767778Y-104730230D01*
X142762734Y-104726091D01*
X142751756Y-104720223D01*
X142739844Y-104716609D01*
X142727456Y-104715389D01*
X142715068Y-104716609D01*
X142703156Y-104720223D01*
X142692178Y-104726091D01*
X142682555Y-104733987D01*
X142678370Y-104738605D01*
X142656840Y-104764840D01*
X142617075Y-104797473D01*
X142571715Y-104821719D01*
X142522489Y-104836651D01*
X142468183Y-104842000D01*
X140995817Y-104842000D01*
X140941511Y-104836651D01*
X140892285Y-104821719D01*
X140846925Y-104797473D01*
X140807160Y-104764840D01*
X140774527Y-104725075D01*
X140750281Y-104679715D01*
X140735349Y-104630489D01*
X140730000Y-104576183D01*
X140730000Y-103603817D01*
X140735349Y-103549511D01*
X140750281Y-103500285D01*
X140774527Y-103454925D01*
X140807160Y-103415160D01*
X140846925Y-103382527D01*
X140892285Y-103358281D01*
X140941511Y-103343349D01*
X140995817Y-103338000D01*
X142468183Y-103338000D01*
X142522489Y-103343349D01*
G37*
G36*
X153638267Y-102645283D02*
G01*
X153776942Y-102702724D01*
X153901747Y-102786116D01*
X154007884Y-102892253D01*
X154091276Y-103017058D01*
X154148717Y-103155733D01*
X154178000Y-103302950D01*
X154178000Y-103453050D01*
X154148717Y-103600267D01*
X154091276Y-103738942D01*
X154007884Y-103863747D01*
X153901747Y-103969884D01*
X153776942Y-104053276D01*
X153638267Y-104110717D01*
X153491050Y-104140000D01*
X153340950Y-104140000D01*
X153193733Y-104110717D01*
X153055058Y-104053276D01*
X152930253Y-103969884D01*
X152824116Y-103863747D01*
X152740724Y-103738942D01*
X152683283Y-103600267D01*
X152654000Y-103453050D01*
X152654000Y-103302950D01*
X152683283Y-103155733D01*
X152740724Y-103017058D01*
X152824116Y-102892253D01*
X152930253Y-102786116D01*
X153055058Y-102702724D01*
X153193733Y-102645283D01*
X153340950Y-102616000D01*
X153491050Y-102616000D01*
X153638267Y-102645283D01*
G37*
G36*
X174466267Y-102645283D02*
G01*
X174604942Y-102702724D01*
X174729747Y-102786116D01*
X174835884Y-102892253D01*
X174919276Y-103017058D01*
X174976717Y-103155733D01*
X175006000Y-103302950D01*
X175006000Y-103453050D01*
X174976717Y-103600267D01*
X174919276Y-103738942D01*
X174835884Y-103863747D01*
X174729747Y-103969884D01*
X174604942Y-104053276D01*
X174466267Y-104110717D01*
X174319050Y-104140000D01*
X174168950Y-104140000D01*
X174021733Y-104110717D01*
X173883058Y-104053276D01*
X173758253Y-103969884D01*
X173652116Y-103863747D01*
X173568724Y-103738942D01*
X173511283Y-103600267D01*
X173482000Y-103453050D01*
X173482000Y-103302950D01*
X173511283Y-103155733D01*
X173568724Y-103017058D01*
X173652116Y-102892253D01*
X173758253Y-102786116D01*
X173883058Y-102702724D01*
X174021733Y-102645283D01*
X174168950Y-102616000D01*
X174319050Y-102616000D01*
X174466267Y-102645283D01*
G37*
G36*
X157194267Y-101629283D02*
G01*
X157332942Y-101686724D01*
X157457747Y-101770116D01*
X157563884Y-101876253D01*
X157647275Y-102001057D01*
X157647277Y-102001060D01*
X157656017Y-102022160D01*
X157661885Y-102033138D01*
X157669782Y-102042760D01*
X157679404Y-102050657D01*
X157690383Y-102056525D01*
X157702295Y-102060138D01*
X157714683Y-102061358D01*
X157727071Y-102060138D01*
X157738983Y-102056524D01*
X157749961Y-102050656D01*
X157759583Y-102042759D01*
X157770683Y-102027792D01*
X157792527Y-101986924D01*
X157825160Y-101947160D01*
X157864925Y-101914527D01*
X157910285Y-101890281D01*
X157959511Y-101875349D01*
X158013817Y-101870000D01*
X159486183Y-101870000D01*
X159540489Y-101875349D01*
X159589715Y-101890281D01*
X159635075Y-101914527D01*
X159674840Y-101947160D01*
X159707473Y-101986925D01*
X159731719Y-102032285D01*
X159746651Y-102081511D01*
X159752000Y-102135817D01*
X159752000Y-103108183D01*
X159746651Y-103162489D01*
X159731719Y-103211715D01*
X159707473Y-103257075D01*
X159674840Y-103296840D01*
X159635075Y-103329473D01*
X159589715Y-103353719D01*
X159540489Y-103368651D01*
X159486183Y-103374000D01*
X158013817Y-103374000D01*
X157959511Y-103368651D01*
X157910285Y-103353719D01*
X157864925Y-103329473D01*
X157825160Y-103296840D01*
X157792527Y-103257075D01*
X157768281Y-103211715D01*
X157753349Y-103162489D01*
X157748000Y-103108183D01*
X157748000Y-102781526D01*
X157746780Y-102769138D01*
X157743166Y-102757226D01*
X157737298Y-102746248D01*
X157729402Y-102736625D01*
X157719779Y-102728729D01*
X157708801Y-102722861D01*
X157696889Y-102719247D01*
X157684501Y-102718027D01*
X157672113Y-102719247D01*
X157660201Y-102722861D01*
X157649223Y-102728729D01*
X157639600Y-102736625D01*
X157631704Y-102746248D01*
X157563888Y-102847742D01*
X157563886Y-102847744D01*
X157563884Y-102847747D01*
X157457747Y-102953884D01*
X157332942Y-103037276D01*
X157194267Y-103094717D01*
X157047050Y-103124000D01*
X156896950Y-103124000D01*
X156749733Y-103094717D01*
X156611058Y-103037276D01*
X156486253Y-102953884D01*
X156380116Y-102847747D01*
X156296724Y-102722942D01*
X156239283Y-102584267D01*
X156210000Y-102437050D01*
X156210000Y-102286950D01*
X156239283Y-102139733D01*
X156296724Y-102001058D01*
X156380116Y-101876253D01*
X156486253Y-101770116D01*
X156611058Y-101686724D01*
X156749733Y-101629283D01*
X156896950Y-101600000D01*
X157047050Y-101600000D01*
X157194267Y-101629283D01*
G37*
G36*
X161641184Y-102104095D02*
G01*
X161692814Y-102119756D01*
X161740388Y-102145185D01*
X161782090Y-102179410D01*
X161816315Y-102221112D01*
X161841744Y-102268686D01*
X161857405Y-102320316D01*
X161863000Y-102377117D01*
X161863000Y-103048883D01*
X161857405Y-103105684D01*
X161841744Y-103157314D01*
X161816315Y-103204888D01*
X161782090Y-103246590D01*
X161740388Y-103280815D01*
X161692814Y-103306244D01*
X161641184Y-103321905D01*
X161584383Y-103327500D01*
X160487617Y-103327500D01*
X160430816Y-103321905D01*
X160379186Y-103306244D01*
X160331612Y-103280815D01*
X160289910Y-103246590D01*
X160255685Y-103204888D01*
X160230256Y-103157314D01*
X160214595Y-103105684D01*
X160209000Y-103048883D01*
X160209000Y-102377117D01*
X160214595Y-102320316D01*
X160230256Y-102268686D01*
X160255685Y-102221112D01*
X160289910Y-102179410D01*
X160331612Y-102145185D01*
X160379186Y-102119756D01*
X160430816Y-102104095D01*
X160487617Y-102098500D01*
X161584383Y-102098500D01*
X161641184Y-102104095D01*
G37*
G36*
X164560267Y-101375283D02*
G01*
X164698942Y-101432724D01*
X164823747Y-101516116D01*
X164929884Y-101622253D01*
X165013276Y-101747058D01*
X165070717Y-101885733D01*
X165100000Y-102032950D01*
X165100000Y-102183050D01*
X165070717Y-102330267D01*
X165013276Y-102468942D01*
X164929884Y-102593747D01*
X164823747Y-102699884D01*
X164698942Y-102783276D01*
X164560267Y-102840717D01*
X164413050Y-102870000D01*
X164262950Y-102870000D01*
X164115733Y-102840717D01*
X163977058Y-102783276D01*
X163852253Y-102699884D01*
X163746116Y-102593747D01*
X163662724Y-102468942D01*
X163605283Y-102330267D01*
X163576000Y-102183050D01*
X163576000Y-102032950D01*
X163605283Y-101885733D01*
X163662724Y-101747058D01*
X163746116Y-101622253D01*
X163852253Y-101516116D01*
X163977058Y-101432724D01*
X164115733Y-101375283D01*
X164262950Y-101346000D01*
X164413050Y-101346000D01*
X164560267Y-101375283D01*
G37*
G36*
X142522489Y-100543349D02*
G01*
X142571715Y-100558281D01*
X142617075Y-100582527D01*
X142656840Y-100615160D01*
X142689473Y-100654925D01*
X142713719Y-100700285D01*
X142728651Y-100749511D01*
X142734000Y-100803817D01*
X142734000Y-101776183D01*
X142728651Y-101830489D01*
X142713719Y-101879715D01*
X142689473Y-101925075D01*
X142656840Y-101964840D01*
X142617075Y-101997473D01*
X142571715Y-102021719D01*
X142522489Y-102036651D01*
X142468183Y-102042000D01*
X140995817Y-102042000D01*
X140941511Y-102036651D01*
X140892285Y-102021719D01*
X140846925Y-101997473D01*
X140807160Y-101964840D01*
X140774527Y-101925075D01*
X140750281Y-101879715D01*
X140735349Y-101830489D01*
X140730000Y-101776183D01*
X140730000Y-100803817D01*
X140735349Y-100749511D01*
X140750281Y-100700285D01*
X140774527Y-100654925D01*
X140807160Y-100615160D01*
X140846925Y-100582527D01*
X140892285Y-100558281D01*
X140941511Y-100543349D01*
X140995817Y-100538000D01*
X142468183Y-100538000D01*
X142522489Y-100543349D01*
G37*
G36*
X179800267Y-100105283D02*
G01*
X179938942Y-100162724D01*
X180063747Y-100246116D01*
X180169884Y-100352253D01*
X180253276Y-100477058D01*
X180310717Y-100615733D01*
X180340000Y-100762950D01*
X180340000Y-100913050D01*
X180310717Y-101060267D01*
X180253276Y-101198942D01*
X180169884Y-101323747D01*
X180063747Y-101429884D01*
X179938942Y-101513276D01*
X179800267Y-101570717D01*
X179653050Y-101600000D01*
X179502950Y-101600000D01*
X179355733Y-101570717D01*
X179217058Y-101513276D01*
X179092253Y-101429884D01*
X178986116Y-101323747D01*
X178902724Y-101198942D01*
X178845283Y-101060267D01*
X178816000Y-100913050D01*
X178816000Y-100762950D01*
X178845283Y-100615733D01*
X178902724Y-100477058D01*
X178986116Y-100352253D01*
X179092253Y-100246116D01*
X179217058Y-100162724D01*
X179355733Y-100105283D01*
X179502950Y-100076000D01*
X179653050Y-100076000D01*
X179800267Y-100105283D01*
G37*
G36*
X161641184Y-100229095D02*
G01*
X161692814Y-100244756D01*
X161740388Y-100270185D01*
X161782090Y-100304410D01*
X161816315Y-100346112D01*
X161841744Y-100393686D01*
X161857405Y-100445316D01*
X161863000Y-100502117D01*
X161863000Y-101173883D01*
X161857405Y-101230684D01*
X161841744Y-101282314D01*
X161816315Y-101329888D01*
X161782090Y-101371590D01*
X161740388Y-101405815D01*
X161692814Y-101431244D01*
X161641184Y-101446905D01*
X161584383Y-101452500D01*
X160487617Y-101452500D01*
X160430816Y-101446905D01*
X160379186Y-101431244D01*
X160331612Y-101405815D01*
X160289910Y-101371590D01*
X160255685Y-101329888D01*
X160230256Y-101282314D01*
X160214595Y-101230684D01*
X160209000Y-101173883D01*
X160209000Y-100502117D01*
X160214595Y-100445316D01*
X160230256Y-100393686D01*
X160255685Y-100346112D01*
X160289910Y-100304410D01*
X160331612Y-100270185D01*
X160379186Y-100244756D01*
X160430816Y-100229095D01*
X160487617Y-100223500D01*
X161584383Y-100223500D01*
X161641184Y-100229095D01*
G37*
G36*
X151955500Y-100601701D02*
G01*
X150279100Y-100601701D01*
X150279100Y-98068299D01*
X151955500Y-98068299D01*
X151955500Y-100601701D01*
G37*
G36*
X156298900Y-100601701D02*
G01*
X154622500Y-100601701D01*
X154622500Y-98068299D01*
X156298900Y-98068299D01*
X156298900Y-100601701D01*
G37*
G36*
X172910500Y-100601701D02*
G01*
X171234100Y-100601701D01*
X171234100Y-98068299D01*
X172910500Y-98068299D01*
X172910500Y-100601701D01*
G37*
G36*
X177253900Y-100601701D02*
G01*
X175577500Y-100601701D01*
X175577500Y-98068299D01*
X177253900Y-98068299D01*
X177253900Y-100601701D01*
G37*
G36*
X159540489Y-99075349D02*
G01*
X159589715Y-99090281D01*
X159635075Y-99114527D01*
X159674840Y-99147160D01*
X159707473Y-99186925D01*
X159731719Y-99232285D01*
X159746651Y-99281511D01*
X159752000Y-99335817D01*
X159752000Y-100308183D01*
X159746651Y-100362489D01*
X159731719Y-100411715D01*
X159707473Y-100457075D01*
X159674840Y-100496840D01*
X159635075Y-100529473D01*
X159589715Y-100553719D01*
X159540489Y-100568651D01*
X159486183Y-100574000D01*
X158013817Y-100574000D01*
X157959511Y-100568651D01*
X157910285Y-100553719D01*
X157864925Y-100529473D01*
X157825160Y-100496840D01*
X157792527Y-100457075D01*
X157768281Y-100411715D01*
X157753349Y-100362489D01*
X157748000Y-100308183D01*
X157748000Y-99335817D01*
X157753349Y-99281511D01*
X157768281Y-99232285D01*
X157792527Y-99186925D01*
X157825160Y-99147160D01*
X157864925Y-99114527D01*
X157910285Y-99090281D01*
X157959511Y-99075349D01*
X158013817Y-99070000D01*
X159486183Y-99070000D01*
X159540489Y-99075349D01*
G37*
G36*
X161826489Y-98313349D02*
G01*
X161875715Y-98328281D01*
X161921075Y-98352527D01*
X161960840Y-98385160D01*
X161993473Y-98424925D01*
X162017719Y-98470285D01*
X162032651Y-98519511D01*
X162038000Y-98573817D01*
X162038000Y-99546183D01*
X162032651Y-99600489D01*
X162017719Y-99649715D01*
X161993473Y-99695075D01*
X161960840Y-99734840D01*
X161921075Y-99767473D01*
X161875715Y-99791719D01*
X161826489Y-99806651D01*
X161772183Y-99812000D01*
X160299817Y-99812000D01*
X160245511Y-99806651D01*
X160196285Y-99791719D01*
X160150925Y-99767473D01*
X160111160Y-99734840D01*
X160078527Y-99695075D01*
X160054281Y-99649715D01*
X160039349Y-99600489D01*
X160034000Y-99546183D01*
X160034000Y-98573817D01*
X160039349Y-98519511D01*
X160054281Y-98470285D01*
X160078527Y-98424925D01*
X160111160Y-98385160D01*
X160150925Y-98352527D01*
X160196285Y-98328281D01*
X160245511Y-98313349D01*
X160299817Y-98308000D01*
X161772183Y-98308000D01*
X161826489Y-98313349D01*
G37*
G36*
X165564820Y-98971100D02*
G01*
X163111180Y-98971100D01*
X163111180Y-97116900D01*
X165564820Y-97116900D01*
X165564820Y-98971100D01*
G37*
G36*
X137128267Y-97311283D02*
G01*
X137266942Y-97368724D01*
X137391747Y-97452116D01*
X137497884Y-97558253D01*
X137581276Y-97683058D01*
X137638717Y-97821733D01*
X137668000Y-97968950D01*
X137668000Y-98119050D01*
X137638717Y-98266267D01*
X137581276Y-98404942D01*
X137497884Y-98529747D01*
X137391747Y-98635884D01*
X137266942Y-98719276D01*
X137128267Y-98776717D01*
X136981050Y-98806000D01*
X136830950Y-98806000D01*
X136683733Y-98776717D01*
X136545058Y-98719276D01*
X136420253Y-98635884D01*
X136314116Y-98529747D01*
X136230724Y-98404942D01*
X136173283Y-98266267D01*
X136144000Y-98119050D01*
X136144000Y-97968950D01*
X136173283Y-97821733D01*
X136230724Y-97683058D01*
X136314116Y-97558253D01*
X136420253Y-97452116D01*
X136545058Y-97368724D01*
X136683733Y-97311283D01*
X136830950Y-97282000D01*
X136981050Y-97282000D01*
X137128267Y-97311283D01*
G37*
G36*
X158464267Y-96549283D02*
G01*
X158602942Y-96606724D01*
X158727747Y-96690116D01*
X158833884Y-96796253D01*
X158917276Y-96921058D01*
X158974717Y-97059733D01*
X159004000Y-97206950D01*
X159004000Y-97357050D01*
X158974717Y-97504267D01*
X158917276Y-97642942D01*
X158833884Y-97767747D01*
X158727747Y-97873884D01*
X158602942Y-97957276D01*
X158464267Y-98014717D01*
X158317050Y-98044000D01*
X158166950Y-98044000D01*
X158019733Y-98014717D01*
X157881058Y-97957276D01*
X157756253Y-97873884D01*
X157650116Y-97767747D01*
X157566724Y-97642942D01*
X157509283Y-97504267D01*
X157480000Y-97357050D01*
X157480000Y-97206950D01*
X157509283Y-97059733D01*
X157566724Y-96921058D01*
X157650116Y-96796253D01*
X157756253Y-96690116D01*
X157881058Y-96606724D01*
X158019733Y-96549283D01*
X158166950Y-96520000D01*
X158317050Y-96520000D01*
X158464267Y-96549283D01*
G37*
G36*
X171037267Y-96422283D02*
G01*
X171175942Y-96479724D01*
X171300747Y-96563116D01*
X171406884Y-96669253D01*
X171490276Y-96794058D01*
X171547717Y-96932733D01*
X171577000Y-97079950D01*
X171577000Y-97230050D01*
X171547717Y-97377267D01*
X171490276Y-97515942D01*
X171406884Y-97640747D01*
X171300747Y-97746884D01*
X171175942Y-97830276D01*
X171037267Y-97887717D01*
X170890050Y-97917000D01*
X170739950Y-97917000D01*
X170592733Y-97887717D01*
X170454058Y-97830276D01*
X170329253Y-97746884D01*
X170223116Y-97640747D01*
X170206457Y-97615816D01*
X170198564Y-97606198D01*
X170188941Y-97598301D01*
X170177963Y-97592433D01*
X170166051Y-97588819D01*
X170153663Y-97587599D01*
X170141275Y-97588819D01*
X170129363Y-97592432D01*
X170123729Y-97595097D01*
X170074811Y-97621244D01*
X170023184Y-97636905D01*
X169966383Y-97642500D01*
X168869617Y-97642500D01*
X168812816Y-97636905D01*
X168761186Y-97621244D01*
X168713612Y-97595815D01*
X168671910Y-97561590D01*
X168637685Y-97519888D01*
X168612256Y-97472314D01*
X168596595Y-97420684D01*
X168591000Y-97363883D01*
X168591000Y-96692117D01*
X168596595Y-96635316D01*
X168612256Y-96583686D01*
X168637685Y-96536112D01*
X168671910Y-96494410D01*
X168713612Y-96460185D01*
X168761186Y-96434756D01*
X168812816Y-96419095D01*
X168869617Y-96413500D01*
X169966383Y-96413500D01*
X170023184Y-96419095D01*
X170074814Y-96434756D01*
X170122388Y-96460185D01*
X170164090Y-96494410D01*
X170198315Y-96536112D01*
X170212970Y-96563530D01*
X170219885Y-96573880D01*
X170228688Y-96582682D01*
X170239038Y-96589598D01*
X170250538Y-96594362D01*
X170262747Y-96596790D01*
X170275195Y-96596790D01*
X170287404Y-96594362D01*
X170298904Y-96589598D01*
X170309254Y-96582683D01*
X170313861Y-96578508D01*
X170329253Y-96563116D01*
X170454058Y-96479724D01*
X170592733Y-96422283D01*
X170739950Y-96393000D01*
X170890050Y-96393000D01*
X171037267Y-96422283D01*
G37*
G36*
X149066267Y-96295283D02*
G01*
X149204942Y-96352724D01*
X149329747Y-96436116D01*
X149435884Y-96542253D01*
X149519276Y-96667058D01*
X149576717Y-96805733D01*
X149606000Y-96952950D01*
X149606000Y-97103050D01*
X149576717Y-97250267D01*
X149519276Y-97388942D01*
X149435884Y-97513747D01*
X149329747Y-97619884D01*
X149204942Y-97703276D01*
X149066267Y-97760717D01*
X148919050Y-97790000D01*
X148768950Y-97790000D01*
X148621733Y-97760717D01*
X148483058Y-97703276D01*
X148358253Y-97619884D01*
X148252116Y-97513747D01*
X148168724Y-97388942D01*
X148111283Y-97250267D01*
X148082000Y-97103050D01*
X148082000Y-96952950D01*
X148111283Y-96805733D01*
X148168724Y-96667058D01*
X148252116Y-96542253D01*
X148358253Y-96436116D01*
X148483058Y-96352724D01*
X148621733Y-96295283D01*
X148768950Y-96266000D01*
X148919050Y-96266000D01*
X149066267Y-96295283D01*
G37*
G36*
X161826489Y-95513349D02*
G01*
X161875715Y-95528281D01*
X161921075Y-95552527D01*
X161960840Y-95585160D01*
X161993473Y-95624925D01*
X162017719Y-95670285D01*
X162032651Y-95719511D01*
X162038000Y-95773817D01*
X162038000Y-96746183D01*
X162032651Y-96800489D01*
X162017719Y-96849715D01*
X161993473Y-96895075D01*
X161960840Y-96934840D01*
X161921075Y-96967473D01*
X161875715Y-96991719D01*
X161826489Y-97006651D01*
X161772183Y-97012000D01*
X160299817Y-97012000D01*
X160245511Y-97006651D01*
X160196285Y-96991719D01*
X160150925Y-96967473D01*
X160111160Y-96934840D01*
X160078527Y-96895075D01*
X160054281Y-96849715D01*
X160039349Y-96800489D01*
X160034000Y-96746183D01*
X160034000Y-95773817D01*
X160039349Y-95719511D01*
X160054281Y-95670285D01*
X160078527Y-95624925D01*
X160111160Y-95585160D01*
X160150925Y-95552527D01*
X160196285Y-95528281D01*
X160245511Y-95513349D01*
X160299817Y-95508000D01*
X161772183Y-95508000D01*
X161826489Y-95513349D01*
G37*
G36*
X134378745Y-94942146D02*
G01*
X134516691Y-94969585D01*
X134689938Y-95041346D01*
X134845863Y-95145532D01*
X134978468Y-95278137D01*
X135082654Y-95434062D01*
X135154415Y-95607309D01*
X135181626Y-95744112D01*
X135186279Y-95767500D01*
X135191000Y-95791237D01*
X135191000Y-95978763D01*
X135154415Y-96162691D01*
X135082654Y-96335938D01*
X134978468Y-96491863D01*
X134845863Y-96624468D01*
X134689938Y-96728654D01*
X134516691Y-96800415D01*
X134386501Y-96826311D01*
X134332764Y-96837000D01*
X134145236Y-96837000D01*
X134091499Y-96826311D01*
X133961309Y-96800415D01*
X133788062Y-96728654D01*
X133632137Y-96624468D01*
X133499532Y-96491863D01*
X133395346Y-96335938D01*
X133323585Y-96162691D01*
X133287000Y-95978763D01*
X133287000Y-95791237D01*
X133291722Y-95767500D01*
X133296374Y-95744112D01*
X133323585Y-95607309D01*
X133395346Y-95434062D01*
X133499532Y-95278137D01*
X133632137Y-95145532D01*
X133788062Y-95041346D01*
X133961309Y-94969585D01*
X134099255Y-94942146D01*
X134145236Y-94933000D01*
X134332764Y-94933000D01*
X134378745Y-94942146D01*
G37*
G36*
X147034267Y-94517283D02*
G01*
X147172942Y-94574724D01*
X147297747Y-94658116D01*
X147403884Y-94764253D01*
X147487276Y-94889058D01*
X147544717Y-95027733D01*
X147574000Y-95174950D01*
X147574000Y-95325050D01*
X147544717Y-95472267D01*
X147487276Y-95610942D01*
X147403884Y-95735747D01*
X147297747Y-95841884D01*
X147172942Y-95925276D01*
X147034267Y-95982717D01*
X146887050Y-96012000D01*
X146736950Y-96012000D01*
X146589733Y-95982717D01*
X146451058Y-95925276D01*
X146326253Y-95841884D01*
X146220116Y-95735747D01*
X146136724Y-95610942D01*
X146079283Y-95472267D01*
X146050000Y-95325050D01*
X146050000Y-95174950D01*
X146079283Y-95027733D01*
X146136724Y-94889058D01*
X146220116Y-94764253D01*
X146326253Y-94658116D01*
X146451058Y-94574724D01*
X146589733Y-94517283D01*
X146736950Y-94488000D01*
X146887050Y-94488000D01*
X147034267Y-94517283D01*
G37*
G36*
X170023184Y-94544095D02*
G01*
X170074814Y-94559756D01*
X170122388Y-94585185D01*
X170164090Y-94619410D01*
X170198315Y-94661112D01*
X170223744Y-94708686D01*
X170239405Y-94760316D01*
X170245000Y-94817117D01*
X170245000Y-95488883D01*
X170239405Y-95545684D01*
X170223744Y-95597314D01*
X170198315Y-95644888D01*
X170164090Y-95686590D01*
X170122388Y-95720815D01*
X170074814Y-95746244D01*
X170023184Y-95761905D01*
X169966383Y-95767500D01*
X168869617Y-95767500D01*
X168812816Y-95761905D01*
X168761186Y-95746244D01*
X168713612Y-95720815D01*
X168671910Y-95686590D01*
X168637685Y-95644888D01*
X168612256Y-95597314D01*
X168596595Y-95545684D01*
X168591000Y-95488883D01*
X168591000Y-94817117D01*
X168596595Y-94760316D01*
X168612256Y-94708686D01*
X168637685Y-94661112D01*
X168671910Y-94619410D01*
X168713612Y-94585185D01*
X168761186Y-94559756D01*
X168812816Y-94544095D01*
X168869617Y-94538500D01*
X169966383Y-94538500D01*
X170023184Y-94544095D01*
G37*
G36*
X153638267Y-94263283D02*
G01*
X153776942Y-94320724D01*
X153901747Y-94404116D01*
X154007884Y-94510253D01*
X154091276Y-94635058D01*
X154148717Y-94773733D01*
X154178000Y-94920950D01*
X154178000Y-95071050D01*
X154148717Y-95218267D01*
X154091276Y-95356942D01*
X154007884Y-95481747D01*
X153901747Y-95587884D01*
X153776942Y-95671276D01*
X153638267Y-95728717D01*
X153491050Y-95758000D01*
X153340950Y-95758000D01*
X153193733Y-95728717D01*
X153055058Y-95671276D01*
X152930253Y-95587884D01*
X152824116Y-95481747D01*
X152740724Y-95356942D01*
X152683283Y-95218267D01*
X152654000Y-95071050D01*
X152654000Y-94920950D01*
X152683283Y-94773733D01*
X152740724Y-94635058D01*
X152824116Y-94510253D01*
X152930253Y-94404116D01*
X153055058Y-94320724D01*
X153193733Y-94263283D01*
X153340950Y-94234000D01*
X153491050Y-94234000D01*
X153638267Y-94263283D01*
G37*
G36*
X174466267Y-94009283D02*
G01*
X174604942Y-94066724D01*
X174729747Y-94150116D01*
X174835884Y-94256253D01*
X174919276Y-94381058D01*
X174976717Y-94519733D01*
X175006000Y-94666950D01*
X175006000Y-94817050D01*
X174976717Y-94964267D01*
X174919276Y-95102942D01*
X174835884Y-95227747D01*
X174729747Y-95333884D01*
X174604942Y-95417276D01*
X174466267Y-95474717D01*
X174319050Y-95504000D01*
X174168950Y-95504000D01*
X174021733Y-95474717D01*
X173883058Y-95417276D01*
X173758253Y-95333884D01*
X173652116Y-95227747D01*
X173568724Y-95102942D01*
X173511283Y-94964267D01*
X173482000Y-94817050D01*
X173482000Y-94666950D01*
X173511283Y-94519733D01*
X173568724Y-94381058D01*
X173652116Y-94256253D01*
X173758253Y-94150116D01*
X173883058Y-94066724D01*
X174021733Y-94009283D01*
X174168950Y-93980000D01*
X174319050Y-93980000D01*
X174466267Y-94009283D01*
G37*
G36*
X141827267Y-93882283D02*
G01*
X141965942Y-93939724D01*
X142090747Y-94023116D01*
X142196884Y-94129253D01*
X142280276Y-94254058D01*
X142337717Y-94392733D01*
X142367000Y-94539950D01*
X142367000Y-94690050D01*
X142337717Y-94837267D01*
X142280276Y-94975942D01*
X142196884Y-95100747D01*
X142090747Y-95206884D01*
X141965942Y-95290276D01*
X141827267Y-95347717D01*
X141680050Y-95377000D01*
X141529950Y-95377000D01*
X141382733Y-95347717D01*
X141244058Y-95290276D01*
X141119253Y-95206884D01*
X141013116Y-95100747D01*
X140929724Y-94975942D01*
X140872283Y-94837267D01*
X140843000Y-94690050D01*
X140843000Y-94539950D01*
X140872283Y-94392733D01*
X140929724Y-94254058D01*
X141013116Y-94129253D01*
X141119253Y-94023116D01*
X141244058Y-93939724D01*
X141382733Y-93882283D01*
X141529950Y-93853000D01*
X141680050Y-93853000D01*
X141827267Y-93882283D01*
G37*
G36*
X165564820Y-95171260D02*
G01*
X163111180Y-95171260D01*
X163111180Y-93317060D01*
X165564820Y-93317060D01*
X165564820Y-95171260D01*
G37*
G36*
X162078489Y-90247349D02*
G01*
X162127715Y-90262281D01*
X162173075Y-90286527D01*
X162212840Y-90319160D01*
X162245473Y-90358925D01*
X162269719Y-90404285D01*
X162284651Y-90453511D01*
X162290000Y-90507817D01*
X162290000Y-92880183D01*
X162284651Y-92934489D01*
X162269719Y-92983715D01*
X162245473Y-93029075D01*
X162212840Y-93068840D01*
X162173075Y-93101473D01*
X162127715Y-93125719D01*
X162078489Y-93140651D01*
X162024183Y-93146000D01*
X161051817Y-93146000D01*
X160997511Y-93140651D01*
X160948285Y-93125719D01*
X160902925Y-93101473D01*
X160863160Y-93068840D01*
X160830527Y-93029075D01*
X160806281Y-92983715D01*
X160791349Y-92934489D01*
X160786000Y-92880183D01*
X160786000Y-90507817D01*
X160791349Y-90453511D01*
X160806281Y-90404285D01*
X160830527Y-90358925D01*
X160863160Y-90319160D01*
X160902925Y-90286527D01*
X160948285Y-90262281D01*
X160997511Y-90247349D01*
X161051817Y-90242000D01*
X162024183Y-90242000D01*
X162078489Y-90247349D01*
G37*
G36*
X164878489Y-90247349D02*
G01*
X164927715Y-90262281D01*
X164973075Y-90286527D01*
X165012840Y-90319160D01*
X165045473Y-90358925D01*
X165069719Y-90404285D01*
X165084651Y-90453511D01*
X165090000Y-90507817D01*
X165090000Y-92880183D01*
X165084651Y-92934489D01*
X165069719Y-92983715D01*
X165045473Y-93029075D01*
X165012840Y-93068840D01*
X164973075Y-93101473D01*
X164927715Y-93125719D01*
X164878489Y-93140651D01*
X164824183Y-93146000D01*
X163851817Y-93146000D01*
X163797511Y-93140651D01*
X163748285Y-93125719D01*
X163702925Y-93101473D01*
X163663160Y-93068840D01*
X163630527Y-93029075D01*
X163606281Y-92983715D01*
X163591349Y-92934489D01*
X163586000Y-92880183D01*
X163586000Y-90507817D01*
X163591349Y-90453511D01*
X163606281Y-90404285D01*
X163630527Y-90358925D01*
X163663160Y-90319160D01*
X163702925Y-90286527D01*
X163748285Y-90262281D01*
X163797511Y-90247349D01*
X163851817Y-90242000D01*
X164824183Y-90242000D01*
X164878489Y-90247349D01*
G37*
G36*
X140046000Y-93132000D02*
G01*
X137742000Y-93132000D01*
X137742000Y-92288000D01*
X140046000Y-92288000D01*
X140046000Y-93132000D01*
G37*
G36*
X130736000Y-93132000D02*
G01*
X128432000Y-93132000D01*
X128432000Y-92288000D01*
X130736000Y-92288000D01*
X130736000Y-93132000D01*
G37*
G36*
X156492489Y-91455349D02*
G01*
X156541715Y-91470281D01*
X156587075Y-91494527D01*
X156626840Y-91527160D01*
X156659473Y-91566925D01*
X156683719Y-91612285D01*
X156698651Y-91661511D01*
X156704000Y-91715817D01*
X156704000Y-92688183D01*
X156698651Y-92742489D01*
X156683719Y-92791715D01*
X156659473Y-92837075D01*
X156626840Y-92876840D01*
X156587075Y-92909473D01*
X156541715Y-92933719D01*
X156492489Y-92948651D01*
X156438183Y-92954000D01*
X154965817Y-92954000D01*
X154911511Y-92948651D01*
X154862285Y-92933719D01*
X154816925Y-92909473D01*
X154777160Y-92876840D01*
X154744527Y-92837075D01*
X154720281Y-92791715D01*
X154705349Y-92742489D01*
X154700000Y-92688183D01*
X154700000Y-91715817D01*
X154705349Y-91661511D01*
X154720281Y-91612285D01*
X154744527Y-91566925D01*
X154777160Y-91527160D01*
X154816925Y-91494527D01*
X154862285Y-91470281D01*
X154911511Y-91455349D01*
X154965817Y-91450000D01*
X156438183Y-91450000D01*
X156492489Y-91455349D01*
G37*
G36*
X184686489Y-91331349D02*
G01*
X184735715Y-91346281D01*
X184781075Y-91370527D01*
X184820840Y-91403160D01*
X184853473Y-91442925D01*
X184877719Y-91488285D01*
X184892651Y-91537511D01*
X184898000Y-91591817D01*
X184898000Y-92564183D01*
X184892651Y-92618489D01*
X184877719Y-92667715D01*
X184853473Y-92713075D01*
X184820840Y-92752840D01*
X184781075Y-92785473D01*
X184735715Y-92809719D01*
X184686489Y-92824651D01*
X184632183Y-92830000D01*
X183159817Y-92830000D01*
X183105511Y-92824651D01*
X183056285Y-92809719D01*
X183010925Y-92785473D01*
X182971160Y-92752840D01*
X182938527Y-92713075D01*
X182914281Y-92667715D01*
X182899349Y-92618489D01*
X182894000Y-92564183D01*
X182894000Y-91591817D01*
X182899349Y-91537511D01*
X182914281Y-91488285D01*
X182938527Y-91442925D01*
X182971160Y-91403160D01*
X183010925Y-91370527D01*
X183056285Y-91346281D01*
X183105511Y-91331349D01*
X183159817Y-91326000D01*
X184632183Y-91326000D01*
X184686489Y-91331349D01*
G37*
G36*
X130736000Y-91862000D02*
G01*
X128432000Y-91862000D01*
X128432000Y-91018000D01*
X130736000Y-91018000D01*
X130736000Y-91862000D01*
G37*
G36*
X140046000Y-91862000D02*
G01*
X137742000Y-91862000D01*
X137742000Y-91018000D01*
X140046000Y-91018000D01*
X140046000Y-91862000D01*
G37*
G36*
X140046000Y-90592000D02*
G01*
X137742000Y-90592000D01*
X137742000Y-89748000D01*
X140046000Y-89748000D01*
X140046000Y-90592000D01*
G37*
G36*
X130736000Y-90592000D02*
G01*
X128432000Y-90592000D01*
X128432000Y-89748000D01*
X130736000Y-89748000D01*
X130736000Y-90592000D01*
G37*
G36*
X156492489Y-88655349D02*
G01*
X156541715Y-88670281D01*
X156587075Y-88694527D01*
X156626840Y-88727160D01*
X156659473Y-88766925D01*
X156683719Y-88812285D01*
X156698651Y-88861511D01*
X156704000Y-88915817D01*
X156704000Y-89888183D01*
X156698651Y-89942489D01*
X156683719Y-89991715D01*
X156659473Y-90037075D01*
X156626840Y-90076840D01*
X156587075Y-90109473D01*
X156541715Y-90133719D01*
X156492489Y-90148651D01*
X156438183Y-90154000D01*
X154965817Y-90154000D01*
X154911511Y-90148651D01*
X154862285Y-90133719D01*
X154816925Y-90109473D01*
X154777160Y-90076840D01*
X154744527Y-90037075D01*
X154720281Y-89991715D01*
X154705349Y-89942489D01*
X154700000Y-89888183D01*
X154700000Y-88915817D01*
X154705349Y-88861511D01*
X154720281Y-88812285D01*
X154744527Y-88766925D01*
X154777160Y-88727160D01*
X154816925Y-88694527D01*
X154862285Y-88670281D01*
X154911511Y-88655349D01*
X154965817Y-88650000D01*
X156438183Y-88650000D01*
X156492489Y-88655349D01*
G37*
G36*
X184686489Y-88531349D02*
G01*
X184735715Y-88546281D01*
X184781075Y-88570527D01*
X184820840Y-88603160D01*
X184853473Y-88642925D01*
X184877719Y-88688285D01*
X184892651Y-88737511D01*
X184898000Y-88791817D01*
X184898000Y-89764183D01*
X184892651Y-89818489D01*
X184877719Y-89867715D01*
X184853473Y-89913075D01*
X184820840Y-89952840D01*
X184781075Y-89985473D01*
X184735715Y-90009719D01*
X184686489Y-90024651D01*
X184632183Y-90030000D01*
X183159817Y-90030000D01*
X183105511Y-90024651D01*
X183056285Y-90009719D01*
X183010925Y-89985473D01*
X182971160Y-89952840D01*
X182938527Y-89913075D01*
X182914281Y-89867715D01*
X182899349Y-89818489D01*
X182894000Y-89764183D01*
X182894000Y-88791817D01*
X182899349Y-88737511D01*
X182914281Y-88688285D01*
X182938527Y-88642925D01*
X182971160Y-88603160D01*
X183010925Y-88570527D01*
X183056285Y-88546281D01*
X183105511Y-88531349D01*
X183159817Y-88526000D01*
X184632183Y-88526000D01*
X184686489Y-88531349D01*
G37*
G36*
X178844489Y-88413349D02*
G01*
X178893715Y-88428281D01*
X178939075Y-88452527D01*
X178978840Y-88485160D01*
X179011473Y-88524925D01*
X179035719Y-88570285D01*
X179050651Y-88619511D01*
X179056000Y-88673817D01*
X179056000Y-89646183D01*
X179050651Y-89700489D01*
X179035719Y-89749715D01*
X179011473Y-89795075D01*
X178978840Y-89834840D01*
X178939075Y-89867473D01*
X178893715Y-89891719D01*
X178844489Y-89906651D01*
X178790183Y-89912000D01*
X177317817Y-89912000D01*
X177263511Y-89906651D01*
X177214285Y-89891719D01*
X177168925Y-89867473D01*
X177129160Y-89834840D01*
X177096527Y-89795075D01*
X177072281Y-89749715D01*
X177057349Y-89700489D01*
X177052000Y-89646183D01*
X177052000Y-88673817D01*
X177057349Y-88619511D01*
X177072281Y-88570285D01*
X177096527Y-88524925D01*
X177129160Y-88485160D01*
X177168925Y-88452527D01*
X177214285Y-88428281D01*
X177263511Y-88413349D01*
X177317817Y-88408000D01*
X178790183Y-88408000D01*
X178844489Y-88413349D01*
G37*
G36*
X130736000Y-89322000D02*
G01*
X128432000Y-89322000D01*
X128432000Y-88478000D01*
X130736000Y-88478000D01*
X130736000Y-89322000D01*
G37*
G36*
X140046000Y-89322000D02*
G01*
X137742000Y-89322000D01*
X137742000Y-88478000D01*
X140046000Y-88478000D01*
X140046000Y-89322000D01*
G37*
G36*
X184873000Y-88099000D02*
G01*
X182919000Y-88099000D01*
X182919000Y-86145000D01*
X184873000Y-86145000D01*
X184873000Y-88099000D01*
G37*
G36*
X166506000Y-88080000D02*
G01*
X164202000Y-88080000D01*
X164202000Y-86076000D01*
X166506000Y-86076000D01*
X166506000Y-88080000D01*
G37*
G36*
X140046000Y-88052000D02*
G01*
X137742000Y-88052000D01*
X137742000Y-87208000D01*
X140046000Y-87208000D01*
X140046000Y-88052000D01*
G37*
G36*
X130736000Y-88052000D02*
G01*
X128432000Y-88052000D01*
X128432000Y-87208000D01*
X130736000Y-87208000D01*
X130736000Y-88052000D01*
G37*
G36*
X142337184Y-86434595D02*
G01*
X142388814Y-86450256D01*
X142436388Y-86475685D01*
X142478090Y-86509910D01*
X142512315Y-86551612D01*
X142537744Y-86599186D01*
X142553405Y-86650816D01*
X142559000Y-86707617D01*
X142559000Y-87379383D01*
X142553405Y-87436184D01*
X142537744Y-87487814D01*
X142512315Y-87535388D01*
X142478090Y-87577090D01*
X142436388Y-87611315D01*
X142388814Y-87636744D01*
X142337184Y-87652405D01*
X142280383Y-87658000D01*
X141183617Y-87658000D01*
X141126816Y-87652405D01*
X141075186Y-87636744D01*
X141027612Y-87611315D01*
X140985910Y-87577090D01*
X140951685Y-87535388D01*
X140926256Y-87487814D01*
X140910595Y-87436184D01*
X140905000Y-87379383D01*
X140905000Y-86707617D01*
X140910595Y-86650816D01*
X140926256Y-86599186D01*
X140951685Y-86551612D01*
X140985910Y-86509910D01*
X141027612Y-86475685D01*
X141075186Y-86450256D01*
X141126816Y-86434595D01*
X141183617Y-86429000D01*
X142280383Y-86429000D01*
X142337184Y-86434595D01*
G37*
G36*
X133318267Y-86135283D02*
G01*
X133456942Y-86192724D01*
X133581747Y-86276116D01*
X133687884Y-86382253D01*
X133771276Y-86507058D01*
X133828717Y-86645733D01*
X133858000Y-86792950D01*
X133858000Y-86943050D01*
X133828717Y-87090267D01*
X133771276Y-87228942D01*
X133687884Y-87353747D01*
X133581747Y-87459884D01*
X133456942Y-87543276D01*
X133318267Y-87600717D01*
X133171050Y-87630000D01*
X133020950Y-87630000D01*
X132873733Y-87600717D01*
X132735058Y-87543276D01*
X132610253Y-87459884D01*
X132504116Y-87353747D01*
X132420724Y-87228942D01*
X132363283Y-87090267D01*
X132334000Y-86943050D01*
X132334000Y-86792950D01*
X132363283Y-86645733D01*
X132420724Y-86507058D01*
X132504116Y-86382253D01*
X132610253Y-86276116D01*
X132735058Y-86192724D01*
X132873733Y-86135283D01*
X133020950Y-86106000D01*
X133171050Y-86106000D01*
X133318267Y-86135283D01*
G37*
G36*
X178844489Y-85613349D02*
G01*
X178893715Y-85628281D01*
X178939075Y-85652527D01*
X178978840Y-85685160D01*
X179011473Y-85724925D01*
X179035719Y-85770285D01*
X179050651Y-85819511D01*
X179056000Y-85873817D01*
X179056000Y-86846183D01*
X179050651Y-86900489D01*
X179035719Y-86949715D01*
X179011473Y-86995075D01*
X178978840Y-87034840D01*
X178939075Y-87067473D01*
X178893715Y-87091719D01*
X178844489Y-87106651D01*
X178790183Y-87112000D01*
X177317817Y-87112000D01*
X177263511Y-87106651D01*
X177214285Y-87091719D01*
X177168925Y-87067473D01*
X177129160Y-87034840D01*
X177096527Y-86995075D01*
X177072281Y-86949715D01*
X177057349Y-86900489D01*
X177052000Y-86846183D01*
X177052000Y-85873817D01*
X177057349Y-85819511D01*
X177072281Y-85770285D01*
X177096527Y-85724925D01*
X177129160Y-85685160D01*
X177168925Y-85652527D01*
X177214285Y-85628281D01*
X177263511Y-85613349D01*
X177317817Y-85608000D01*
X178790183Y-85608000D01*
X178844489Y-85613349D01*
G37*
G36*
X140046000Y-86782000D02*
G01*
X137742000Y-86782000D01*
X137742000Y-85938000D01*
X140046000Y-85938000D01*
X140046000Y-86782000D01*
G37*
G36*
X130736000Y-86782000D02*
G01*
X128432000Y-86782000D01*
X128432000Y-85938000D01*
X130736000Y-85938000D01*
X130736000Y-86782000D01*
G37*
G36*
X147346489Y-83839349D02*
G01*
X147395715Y-83854281D01*
X147441075Y-83878527D01*
X147480840Y-83911160D01*
X147513473Y-83950925D01*
X147537719Y-83996285D01*
X147552651Y-84045511D01*
X147558000Y-84099817D01*
X147558000Y-85572183D01*
X147552651Y-85626489D01*
X147537719Y-85675715D01*
X147513473Y-85721075D01*
X147480840Y-85760840D01*
X147441075Y-85793473D01*
X147395715Y-85817719D01*
X147346489Y-85832651D01*
X147292183Y-85838000D01*
X146319817Y-85838000D01*
X146265511Y-85832651D01*
X146216285Y-85817719D01*
X146170925Y-85793473D01*
X146131160Y-85760840D01*
X146098527Y-85721075D01*
X146074281Y-85675715D01*
X146059349Y-85626489D01*
X146054000Y-85572183D01*
X146054000Y-84099817D01*
X146059349Y-84045511D01*
X146074281Y-83996285D01*
X146098527Y-83950925D01*
X146131160Y-83911160D01*
X146170925Y-83878527D01*
X146216285Y-83854281D01*
X146265511Y-83839349D01*
X146319817Y-83834000D01*
X147292183Y-83834000D01*
X147346489Y-83839349D01*
G37*
G36*
X150146489Y-83839349D02*
G01*
X150195715Y-83854281D01*
X150241075Y-83878527D01*
X150280840Y-83911160D01*
X150313473Y-83950925D01*
X150337719Y-83996285D01*
X150352651Y-84045511D01*
X150358000Y-84099817D01*
X150358000Y-85572183D01*
X150352651Y-85626489D01*
X150337719Y-85675715D01*
X150313473Y-85721075D01*
X150280840Y-85760840D01*
X150241075Y-85793473D01*
X150195715Y-85817719D01*
X150146489Y-85832651D01*
X150092183Y-85838000D01*
X149119817Y-85838000D01*
X149065511Y-85832651D01*
X149016285Y-85817719D01*
X148970925Y-85793473D01*
X148931160Y-85760840D01*
X148898527Y-85721075D01*
X148874281Y-85675715D01*
X148859349Y-85626489D01*
X148854000Y-85572183D01*
X148854000Y-84099817D01*
X148859349Y-84045511D01*
X148874281Y-83996285D01*
X148898527Y-83950925D01*
X148931160Y-83911160D01*
X148970925Y-83878527D01*
X149016285Y-83854281D01*
X149065511Y-83839349D01*
X149119817Y-83834000D01*
X150092183Y-83834000D01*
X150146489Y-83839349D01*
G37*
G36*
X141954267Y-83087283D02*
G01*
X142092942Y-83144724D01*
X142217747Y-83228116D01*
X142323884Y-83334253D01*
X142407276Y-83459058D01*
X142464717Y-83597733D01*
X142494000Y-83744950D01*
X142494000Y-83895050D01*
X142464717Y-84042267D01*
X142407276Y-84180942D01*
X142323884Y-84305747D01*
X142217747Y-84411884D01*
X142179100Y-84437707D01*
X142169483Y-84445600D01*
X142161586Y-84455223D01*
X142155718Y-84466201D01*
X142152104Y-84478113D01*
X142150884Y-84490501D01*
X142152104Y-84502889D01*
X142155717Y-84514801D01*
X142161585Y-84525779D01*
X142169482Y-84535401D01*
X142179105Y-84543298D01*
X142190083Y-84549166D01*
X142201995Y-84552780D01*
X142214383Y-84554000D01*
X142280383Y-84554000D01*
X142337184Y-84559595D01*
X142388814Y-84575256D01*
X142436388Y-84600685D01*
X142478090Y-84634910D01*
X142512315Y-84676612D01*
X142537744Y-84724186D01*
X142553405Y-84775816D01*
X142559000Y-84832617D01*
X142559000Y-85504383D01*
X142553405Y-85561184D01*
X142537744Y-85612814D01*
X142512315Y-85660388D01*
X142478090Y-85702090D01*
X142436388Y-85736315D01*
X142388814Y-85761744D01*
X142337184Y-85777405D01*
X142280383Y-85783000D01*
X141183617Y-85783000D01*
X141126816Y-85777405D01*
X141075186Y-85761744D01*
X141027612Y-85736315D01*
X140985910Y-85702090D01*
X140951685Y-85660388D01*
X140926256Y-85612814D01*
X140910595Y-85561184D01*
X140905000Y-85504383D01*
X140905000Y-84832617D01*
X140910595Y-84775816D01*
X140926256Y-84724186D01*
X140951685Y-84676612D01*
X140985910Y-84634910D01*
X141027612Y-84600685D01*
X141075186Y-84575256D01*
X141126816Y-84559595D01*
X141183617Y-84554000D01*
X141249617Y-84554000D01*
X141262005Y-84552780D01*
X141273917Y-84549166D01*
X141284895Y-84543298D01*
X141294518Y-84535402D01*
X141302414Y-84525779D01*
X141308282Y-84514801D01*
X141311896Y-84502889D01*
X141313116Y-84490501D01*
X141311896Y-84478113D01*
X141308282Y-84466201D01*
X141302414Y-84455223D01*
X141294518Y-84445600D01*
X141284900Y-84437707D01*
X141246253Y-84411884D01*
X141140116Y-84305747D01*
X141056724Y-84180942D01*
X140999283Y-84042267D01*
X140970000Y-83895050D01*
X140970000Y-83744950D01*
X140999283Y-83597733D01*
X141056724Y-83459058D01*
X141140116Y-83334253D01*
X141246253Y-83228116D01*
X141371058Y-83144724D01*
X141509733Y-83087283D01*
X141656950Y-83058000D01*
X141807050Y-83058000D01*
X141954267Y-83087283D01*
G37*
G36*
X152030684Y-84014595D02*
G01*
X152082314Y-84030256D01*
X152129888Y-84055685D01*
X152171590Y-84089910D01*
X152205815Y-84131612D01*
X152231244Y-84179186D01*
X152246905Y-84230816D01*
X152252500Y-84287617D01*
X152252500Y-85384383D01*
X152246905Y-85441184D01*
X152231244Y-85492814D01*
X152205815Y-85540388D01*
X152171590Y-85582090D01*
X152129888Y-85616315D01*
X152082314Y-85641744D01*
X152030684Y-85657405D01*
X151973883Y-85663000D01*
X151302117Y-85663000D01*
X151245316Y-85657405D01*
X151193686Y-85641744D01*
X151146112Y-85616315D01*
X151104410Y-85582090D01*
X151070185Y-85540388D01*
X151044756Y-85492814D01*
X151029095Y-85441184D01*
X151023500Y-85384383D01*
X151023500Y-84287617D01*
X151029095Y-84230816D01*
X151044756Y-84179186D01*
X151070185Y-84131612D01*
X151104410Y-84089910D01*
X151146112Y-84055685D01*
X151193686Y-84030256D01*
X151245316Y-84014595D01*
X151302117Y-84009000D01*
X151973883Y-84009000D01*
X152030684Y-84014595D01*
G37*
G36*
X153905684Y-84014595D02*
G01*
X153957314Y-84030256D01*
X154004888Y-84055685D01*
X154046590Y-84089910D01*
X154080815Y-84131612D01*
X154106244Y-84179186D01*
X154121905Y-84230816D01*
X154127500Y-84287617D01*
X154127500Y-85384383D01*
X154121905Y-85441184D01*
X154106244Y-85492814D01*
X154080815Y-85540388D01*
X154046590Y-85582090D01*
X154004888Y-85616315D01*
X153957314Y-85641744D01*
X153905684Y-85657405D01*
X153848883Y-85663000D01*
X153177117Y-85663000D01*
X153120316Y-85657405D01*
X153068686Y-85641744D01*
X153021112Y-85616315D01*
X152979410Y-85582090D01*
X152945185Y-85540388D01*
X152919756Y-85492814D01*
X152904095Y-85441184D01*
X152898500Y-85384383D01*
X152898500Y-84287617D01*
X152904095Y-84230816D01*
X152919756Y-84179186D01*
X152945185Y-84131612D01*
X152979410Y-84089910D01*
X153021112Y-84055685D01*
X153068686Y-84030256D01*
X153120316Y-84014595D01*
X153177117Y-84009000D01*
X153848883Y-84009000D01*
X153905684Y-84014595D01*
G37*
G36*
X184013135Y-83609159D02*
G01*
X184180983Y-83642545D01*
X184358780Y-83716191D01*
X184518800Y-83823113D01*
X184654887Y-83959200D01*
X184761809Y-84119220D01*
X184835455Y-84297017D01*
X184873000Y-84485775D01*
X184873000Y-84678225D01*
X184835455Y-84866983D01*
X184761809Y-85044780D01*
X184654887Y-85204800D01*
X184518800Y-85340887D01*
X184358780Y-85447809D01*
X184180983Y-85521455D01*
X184013135Y-85554841D01*
X183992226Y-85559000D01*
X183799774Y-85559000D01*
X183778865Y-85554841D01*
X183611017Y-85521455D01*
X183433220Y-85447809D01*
X183273200Y-85340887D01*
X183137113Y-85204800D01*
X183030191Y-85044780D01*
X182956545Y-84866983D01*
X182919000Y-84678225D01*
X182919000Y-84485775D01*
X182956545Y-84297017D01*
X183030191Y-84119220D01*
X183137113Y-83959200D01*
X183273200Y-83823113D01*
X183433220Y-83716191D01*
X183611017Y-83642545D01*
X183778865Y-83609159D01*
X183799774Y-83605000D01*
X183992226Y-83605000D01*
X184013135Y-83609159D01*
G37*
G36*
X140046000Y-85512000D02*
G01*
X137742000Y-85512000D01*
X137742000Y-84668000D01*
X140046000Y-84668000D01*
X140046000Y-85512000D01*
G37*
G36*
X130736000Y-85512000D02*
G01*
X128432000Y-85512000D01*
X128432000Y-84668000D01*
X130736000Y-84668000D01*
X130736000Y-85512000D01*
G37*
G36*
X127984267Y-83087283D02*
G01*
X128122942Y-83144724D01*
X128247747Y-83228116D01*
X128353884Y-83334253D01*
X128377625Y-83369784D01*
X128385518Y-83379401D01*
X128395141Y-83387298D01*
X128406119Y-83393166D01*
X128418031Y-83396780D01*
X128430419Y-83398000D01*
X130736000Y-83398000D01*
X130736000Y-84242000D01*
X128430419Y-84242000D01*
X128418031Y-84243220D01*
X128406119Y-84246834D01*
X128395141Y-84252702D01*
X128385518Y-84260598D01*
X128377625Y-84270216D01*
X128353884Y-84305747D01*
X128247747Y-84411884D01*
X128122942Y-84495276D01*
X127984267Y-84552717D01*
X127837050Y-84582000D01*
X127686950Y-84582000D01*
X127539733Y-84552717D01*
X127401058Y-84495276D01*
X127276253Y-84411884D01*
X127170116Y-84305747D01*
X127086724Y-84180942D01*
X127029283Y-84042267D01*
X127000000Y-83895050D01*
X127000000Y-83744950D01*
X127029283Y-83597733D01*
X127086724Y-83459058D01*
X127170116Y-83334253D01*
X127276253Y-83228116D01*
X127401058Y-83144724D01*
X127539733Y-83087283D01*
X127686950Y-83058000D01*
X127837050Y-83058000D01*
X127984267Y-83087283D01*
G37*
G36*
X140046000Y-84242000D02*
G01*
X137742000Y-84242000D01*
X137742000Y-83398000D01*
X140046000Y-83398000D01*
X140046000Y-84242000D01*
G37*
G36*
X156051267Y-82325283D02*
G01*
X156189942Y-82382724D01*
X156314747Y-82466116D01*
X156420884Y-82572253D01*
X156504276Y-82697058D01*
X156561717Y-82835733D01*
X156591000Y-82982950D01*
X156591000Y-83133050D01*
X156561717Y-83280267D01*
X156504276Y-83418942D01*
X156420884Y-83543747D01*
X156314747Y-83649884D01*
X156189942Y-83733276D01*
X156051267Y-83790717D01*
X155904050Y-83820000D01*
X155753950Y-83820000D01*
X155606733Y-83790717D01*
X155468058Y-83733276D01*
X155343253Y-83649884D01*
X155237116Y-83543747D01*
X155153724Y-83418942D01*
X155096283Y-83280267D01*
X155067000Y-83133050D01*
X155067000Y-82982950D01*
X155096283Y-82835733D01*
X155153724Y-82697058D01*
X155237116Y-82572253D01*
X155343253Y-82466116D01*
X155468058Y-82382724D01*
X155606733Y-82325283D01*
X155753950Y-82296000D01*
X155904050Y-82296000D01*
X156051267Y-82325283D01*
G37*
G36*
X159734267Y-77499283D02*
G01*
X159872942Y-77556724D01*
X159997747Y-77640116D01*
X160103884Y-77746253D01*
X160103885Y-77746255D01*
X160187278Y-77871061D01*
X160215335Y-77938798D01*
X160221202Y-77949776D01*
X160229099Y-77959398D01*
X160238722Y-77967295D01*
X160249700Y-77973163D01*
X160261612Y-77976777D01*
X160274000Y-77977997D01*
X160286388Y-77976777D01*
X160298300Y-77973163D01*
X160309278Y-77967296D01*
X160318900Y-77959399D01*
X160326797Y-77949776D01*
X160332665Y-77938798D01*
X160360722Y-77871061D01*
X160444115Y-77746255D01*
X160444116Y-77746253D01*
X160550253Y-77640116D01*
X160675058Y-77556724D01*
X160813733Y-77499283D01*
X160960950Y-77470000D01*
X161111050Y-77470000D01*
X161258267Y-77499283D01*
X161396942Y-77556724D01*
X161521747Y-77640116D01*
X161627884Y-77746253D01*
X161711276Y-77871058D01*
X161768717Y-78009733D01*
X161798000Y-78156950D01*
X161798000Y-78307050D01*
X161768717Y-78454267D01*
X161711276Y-78592942D01*
X161627884Y-78717747D01*
X161521747Y-78823884D01*
X161420852Y-78891300D01*
X161396939Y-78907278D01*
X161329202Y-78935335D01*
X161318224Y-78941202D01*
X161308602Y-78949099D01*
X161300705Y-78958722D01*
X161294837Y-78969700D01*
X161291223Y-78981612D01*
X161290003Y-78994000D01*
X161291223Y-79006388D01*
X161294837Y-79018300D01*
X161300704Y-79029278D01*
X161308601Y-79038900D01*
X161318224Y-79046797D01*
X161329202Y-79052665D01*
X161396939Y-79080722D01*
X161396942Y-79080724D01*
X161521747Y-79164116D01*
X161627884Y-79270253D01*
X161711276Y-79395058D01*
X161768717Y-79533733D01*
X161798000Y-79680950D01*
X161798000Y-79831050D01*
X161768717Y-79978267D01*
X161711276Y-80116942D01*
X161627884Y-80241747D01*
X161521747Y-80347884D01*
X161491927Y-80367809D01*
X161396939Y-80431278D01*
X161329202Y-80459335D01*
X161318224Y-80465202D01*
X161308602Y-80473099D01*
X161300705Y-80482722D01*
X161294837Y-80493700D01*
X161291223Y-80505612D01*
X161290003Y-80518000D01*
X161291223Y-80530388D01*
X161294837Y-80542300D01*
X161300704Y-80553278D01*
X161308601Y-80562900D01*
X161318224Y-80570797D01*
X161329202Y-80576665D01*
X161396939Y-80604722D01*
X161396942Y-80604724D01*
X161521747Y-80688116D01*
X161627884Y-80794253D01*
X161711276Y-80919058D01*
X161768717Y-81057733D01*
X161798000Y-81204950D01*
X161798000Y-81355050D01*
X161768717Y-81502267D01*
X161711276Y-81640942D01*
X161627884Y-81765747D01*
X161521747Y-81871884D01*
X161411163Y-81945774D01*
X161396939Y-81955278D01*
X161329202Y-81983335D01*
X161318224Y-81989202D01*
X161308602Y-81997099D01*
X161300705Y-82006722D01*
X161294837Y-82017700D01*
X161291223Y-82029612D01*
X161290003Y-82042000D01*
X161291223Y-82054388D01*
X161294837Y-82066300D01*
X161300704Y-82077278D01*
X161308601Y-82086900D01*
X161318224Y-82094797D01*
X161329202Y-82100665D01*
X161396939Y-82128722D01*
X161396942Y-82128724D01*
X161521747Y-82212116D01*
X161627884Y-82318253D01*
X161711276Y-82443058D01*
X161768717Y-82581733D01*
X161798000Y-82728950D01*
X161798000Y-82879050D01*
X161768717Y-83026267D01*
X161711276Y-83164942D01*
X161627884Y-83289747D01*
X161521747Y-83395884D01*
X161396942Y-83479276D01*
X161258267Y-83536717D01*
X161111050Y-83566000D01*
X160960950Y-83566000D01*
X160813733Y-83536717D01*
X160675058Y-83479276D01*
X160550253Y-83395884D01*
X160444116Y-83289747D01*
X160360724Y-83164942D01*
X160360722Y-83164939D01*
X160332665Y-83097202D01*
X160326798Y-83086224D01*
X160318901Y-83076602D01*
X160309278Y-83068705D01*
X160298300Y-83062837D01*
X160286388Y-83059223D01*
X160274000Y-83058003D01*
X160261612Y-83059223D01*
X160249700Y-83062837D01*
X160238722Y-83068704D01*
X160229100Y-83076601D01*
X160221203Y-83086224D01*
X160215335Y-83097202D01*
X160187278Y-83164939D01*
X160187276Y-83164942D01*
X160103884Y-83289747D01*
X159997747Y-83395884D01*
X159872942Y-83479276D01*
X159734267Y-83536717D01*
X159587050Y-83566000D01*
X159436950Y-83566000D01*
X159289733Y-83536717D01*
X159151058Y-83479276D01*
X159026253Y-83395884D01*
X158920116Y-83289747D01*
X158836724Y-83164942D01*
X158779283Y-83026267D01*
X158750000Y-82879050D01*
X158750000Y-82728950D01*
X158779283Y-82581733D01*
X158836724Y-82443058D01*
X158920116Y-82318253D01*
X159026253Y-82212116D01*
X159151058Y-82128724D01*
X159151061Y-82128722D01*
X159218798Y-82100665D01*
X159229776Y-82094798D01*
X159239398Y-82086901D01*
X159247295Y-82077278D01*
X159253163Y-82066300D01*
X159256777Y-82054388D01*
X159257997Y-82042000D01*
X159766003Y-82042000D01*
X159767223Y-82054388D01*
X159770837Y-82066300D01*
X159776704Y-82077278D01*
X159784601Y-82086900D01*
X159794224Y-82094797D01*
X159805202Y-82100665D01*
X159872939Y-82128722D01*
X159872942Y-82128724D01*
X159997747Y-82212116D01*
X160103884Y-82318253D01*
X160108581Y-82325283D01*
X160187278Y-82443061D01*
X160215335Y-82510798D01*
X160221202Y-82521776D01*
X160229099Y-82531398D01*
X160238722Y-82539295D01*
X160249700Y-82545163D01*
X160261612Y-82548777D01*
X160274000Y-82549997D01*
X160286388Y-82548777D01*
X160298300Y-82545163D01*
X160309278Y-82539296D01*
X160318900Y-82531399D01*
X160326797Y-82521776D01*
X160332665Y-82510798D01*
X160360722Y-82443061D01*
X160439419Y-82325283D01*
X160444116Y-82318253D01*
X160550253Y-82212116D01*
X160675058Y-82128724D01*
X160675061Y-82128722D01*
X160742798Y-82100665D01*
X160753776Y-82094798D01*
X160763398Y-82086901D01*
X160771295Y-82077278D01*
X160777163Y-82066300D01*
X160780777Y-82054388D01*
X160781997Y-82042000D01*
X160780777Y-82029612D01*
X160777163Y-82017700D01*
X160771296Y-82006722D01*
X160763399Y-81997100D01*
X160753776Y-81989203D01*
X160742798Y-81983335D01*
X160675061Y-81955278D01*
X160660837Y-81945774D01*
X160550253Y-81871884D01*
X160444116Y-81765747D01*
X160360724Y-81640942D01*
X160360722Y-81640939D01*
X160332665Y-81573202D01*
X160326798Y-81562224D01*
X160318901Y-81552602D01*
X160309278Y-81544705D01*
X160298300Y-81538837D01*
X160286388Y-81535223D01*
X160274000Y-81534003D01*
X160261612Y-81535223D01*
X160249700Y-81538837D01*
X160238722Y-81544704D01*
X160229100Y-81552601D01*
X160221203Y-81562224D01*
X160215335Y-81573202D01*
X160187278Y-81640939D01*
X160187276Y-81640942D01*
X160103884Y-81765747D01*
X159997747Y-81871884D01*
X159887163Y-81945774D01*
X159872939Y-81955278D01*
X159805202Y-81983335D01*
X159794224Y-81989202D01*
X159784602Y-81997099D01*
X159776705Y-82006722D01*
X159770837Y-82017700D01*
X159767223Y-82029612D01*
X159766003Y-82042000D01*
X159257997Y-82042000D01*
X159256777Y-82029612D01*
X159253163Y-82017700D01*
X159247296Y-82006722D01*
X159239399Y-81997100D01*
X159229776Y-81989203D01*
X159218798Y-81983335D01*
X159151061Y-81955278D01*
X159136837Y-81945774D01*
X159026253Y-81871884D01*
X158920116Y-81765747D01*
X158836724Y-81640942D01*
X158779283Y-81502267D01*
X158750000Y-81355050D01*
X158750000Y-81204950D01*
X158779283Y-81057733D01*
X158836724Y-80919058D01*
X158920116Y-80794253D01*
X159026253Y-80688116D01*
X159151058Y-80604724D01*
X159151061Y-80604722D01*
X159218798Y-80576665D01*
X159229776Y-80570798D01*
X159239398Y-80562901D01*
X159247295Y-80553278D01*
X159253163Y-80542300D01*
X159256777Y-80530388D01*
X159257997Y-80518000D01*
X159766003Y-80518000D01*
X159767223Y-80530388D01*
X159770837Y-80542300D01*
X159776704Y-80553278D01*
X159784601Y-80562900D01*
X159794224Y-80570797D01*
X159805202Y-80576665D01*
X159872939Y-80604722D01*
X159872942Y-80604724D01*
X159997747Y-80688116D01*
X160103884Y-80794253D01*
X160145065Y-80855885D01*
X160187278Y-80919061D01*
X160215335Y-80986798D01*
X160221202Y-80997776D01*
X160229099Y-81007398D01*
X160238722Y-81015295D01*
X160249700Y-81021163D01*
X160261612Y-81024777D01*
X160274000Y-81025997D01*
X160286388Y-81024777D01*
X160298300Y-81021163D01*
X160309278Y-81015296D01*
X160318900Y-81007399D01*
X160326797Y-80997776D01*
X160332665Y-80986798D01*
X160360722Y-80919061D01*
X160402935Y-80855885D01*
X160444116Y-80794253D01*
X160550253Y-80688116D01*
X160675058Y-80604724D01*
X160675061Y-80604722D01*
X160742798Y-80576665D01*
X160753776Y-80570798D01*
X160763398Y-80562901D01*
X160771295Y-80553278D01*
X160777163Y-80542300D01*
X160780777Y-80530388D01*
X160781997Y-80518000D01*
X160780777Y-80505612D01*
X160777163Y-80493700D01*
X160771296Y-80482722D01*
X160763399Y-80473100D01*
X160753776Y-80465203D01*
X160742798Y-80459335D01*
X160675061Y-80431278D01*
X160580073Y-80367809D01*
X160550253Y-80347884D01*
X160444116Y-80241747D01*
X160360724Y-80116942D01*
X160360722Y-80116939D01*
X160332665Y-80049202D01*
X160326798Y-80038224D01*
X160318901Y-80028602D01*
X160309278Y-80020705D01*
X160298300Y-80014837D01*
X160286388Y-80011223D01*
X160274000Y-80010003D01*
X160261612Y-80011223D01*
X160249700Y-80014837D01*
X160238722Y-80020704D01*
X160229100Y-80028601D01*
X160221203Y-80038224D01*
X160215335Y-80049202D01*
X160187278Y-80116939D01*
X160187276Y-80116942D01*
X160103884Y-80241747D01*
X159997747Y-80347884D01*
X159967927Y-80367809D01*
X159872939Y-80431278D01*
X159805202Y-80459335D01*
X159794224Y-80465202D01*
X159784602Y-80473099D01*
X159776705Y-80482722D01*
X159770837Y-80493700D01*
X159767223Y-80505612D01*
X159766003Y-80518000D01*
X159257997Y-80518000D01*
X159256777Y-80505612D01*
X159253163Y-80493700D01*
X159247296Y-80482722D01*
X159239399Y-80473100D01*
X159229776Y-80465203D01*
X159218798Y-80459335D01*
X159151061Y-80431278D01*
X159056073Y-80367809D01*
X159026253Y-80347884D01*
X158920116Y-80241747D01*
X158836724Y-80116942D01*
X158779283Y-79978267D01*
X158750000Y-79831050D01*
X158750000Y-79680950D01*
X158779283Y-79533733D01*
X158836724Y-79395058D01*
X158920116Y-79270253D01*
X159026253Y-79164116D01*
X159151058Y-79080724D01*
X159151061Y-79080722D01*
X159218798Y-79052665D01*
X159229776Y-79046798D01*
X159239398Y-79038901D01*
X159247295Y-79029278D01*
X159253163Y-79018300D01*
X159256777Y-79006388D01*
X159257997Y-78994000D01*
X159766003Y-78994000D01*
X159767223Y-79006388D01*
X159770837Y-79018300D01*
X159776704Y-79029278D01*
X159784601Y-79038900D01*
X159794224Y-79046797D01*
X159805202Y-79052665D01*
X159872939Y-79080722D01*
X159872942Y-79080724D01*
X159997747Y-79164116D01*
X160103884Y-79270253D01*
X160127510Y-79305612D01*
X160187278Y-79395061D01*
X160215335Y-79462798D01*
X160221202Y-79473776D01*
X160229099Y-79483398D01*
X160238722Y-79491295D01*
X160249700Y-79497163D01*
X160261612Y-79500777D01*
X160274000Y-79501997D01*
X160286388Y-79500777D01*
X160298300Y-79497163D01*
X160309278Y-79491296D01*
X160318900Y-79483399D01*
X160326797Y-79473776D01*
X160332665Y-79462798D01*
X160360722Y-79395061D01*
X160420490Y-79305612D01*
X160444116Y-79270253D01*
X160550253Y-79164116D01*
X160675058Y-79080724D01*
X160675061Y-79080722D01*
X160742798Y-79052665D01*
X160753776Y-79046798D01*
X160763398Y-79038901D01*
X160771295Y-79029278D01*
X160777163Y-79018300D01*
X160780777Y-79006388D01*
X160781997Y-78994000D01*
X160780777Y-78981612D01*
X160777163Y-78969700D01*
X160771296Y-78958722D01*
X160763399Y-78949100D01*
X160753776Y-78941203D01*
X160742798Y-78935335D01*
X160675061Y-78907278D01*
X160651148Y-78891300D01*
X160550253Y-78823884D01*
X160444116Y-78717747D01*
X160360724Y-78592942D01*
X160360722Y-78592939D01*
X160332665Y-78525202D01*
X160326798Y-78514224D01*
X160318901Y-78504602D01*
X160309278Y-78496705D01*
X160298300Y-78490837D01*
X160286388Y-78487223D01*
X160274000Y-78486003D01*
X160261612Y-78487223D01*
X160249700Y-78490837D01*
X160238722Y-78496704D01*
X160229100Y-78504601D01*
X160221203Y-78514224D01*
X160215335Y-78525202D01*
X160187278Y-78592939D01*
X160187276Y-78592942D01*
X160103884Y-78717747D01*
X159997747Y-78823884D01*
X159896852Y-78891300D01*
X159872939Y-78907278D01*
X159805202Y-78935335D01*
X159794224Y-78941202D01*
X159784602Y-78949099D01*
X159776705Y-78958722D01*
X159770837Y-78969700D01*
X159767223Y-78981612D01*
X159766003Y-78994000D01*
X159257997Y-78994000D01*
X159256777Y-78981612D01*
X159253163Y-78969700D01*
X159247296Y-78958722D01*
X159239399Y-78949100D01*
X159229776Y-78941203D01*
X159218798Y-78935335D01*
X159151061Y-78907278D01*
X159127148Y-78891300D01*
X159026253Y-78823884D01*
X158920116Y-78717747D01*
X158836724Y-78592942D01*
X158779283Y-78454267D01*
X158750000Y-78307050D01*
X158750000Y-78156950D01*
X158779283Y-78009733D01*
X158836724Y-77871058D01*
X158920116Y-77746253D01*
X159026253Y-77640116D01*
X159151058Y-77556724D01*
X159289733Y-77499283D01*
X159436950Y-77470000D01*
X159587050Y-77470000D01*
X159734267Y-77499283D01*
G37*
G36*
X184013135Y-81069159D02*
G01*
X184180983Y-81102545D01*
X184358780Y-81176191D01*
X184518800Y-81283113D01*
X184654887Y-81419200D01*
X184761809Y-81579220D01*
X184835455Y-81757017D01*
X184873000Y-81945775D01*
X184873000Y-82138225D01*
X184835455Y-82326983D01*
X184761809Y-82504780D01*
X184654887Y-82664800D01*
X184518800Y-82800887D01*
X184358780Y-82907809D01*
X184180983Y-82981455D01*
X184013135Y-83014841D01*
X183992226Y-83019000D01*
X183799774Y-83019000D01*
X183778865Y-83014841D01*
X183611017Y-82981455D01*
X183433220Y-82907809D01*
X183273200Y-82800887D01*
X183137113Y-82664800D01*
X183030191Y-82504780D01*
X182956545Y-82326983D01*
X182919000Y-82138225D01*
X182919000Y-81945775D01*
X182956545Y-81757017D01*
X183030191Y-81579220D01*
X183137113Y-81419200D01*
X183273200Y-81283113D01*
X183433220Y-81176191D01*
X183611017Y-81102545D01*
X183778865Y-81069159D01*
X183799774Y-81065000D01*
X183992226Y-81065000D01*
X184013135Y-81069159D01*
G37*
G36*
X147034267Y-77499283D02*
G01*
X147172942Y-77556724D01*
X147297747Y-77640116D01*
X147403884Y-77746253D01*
X147403885Y-77746255D01*
X147487278Y-77871061D01*
X147515335Y-77938798D01*
X147521202Y-77949776D01*
X147529099Y-77959398D01*
X147538722Y-77967295D01*
X147549700Y-77973163D01*
X147561612Y-77976777D01*
X147574000Y-77977997D01*
X147586388Y-77976777D01*
X147598300Y-77973163D01*
X147609278Y-77967296D01*
X147618900Y-77959399D01*
X147626797Y-77949776D01*
X147632665Y-77938798D01*
X147660722Y-77871061D01*
X147744115Y-77746255D01*
X147744116Y-77746253D01*
X147850253Y-77640116D01*
X147975058Y-77556724D01*
X148113733Y-77499283D01*
X148260950Y-77470000D01*
X148411050Y-77470000D01*
X148558267Y-77499283D01*
X148696942Y-77556724D01*
X148821747Y-77640116D01*
X148927884Y-77746253D01*
X149011276Y-77871058D01*
X149068717Y-78009733D01*
X149098000Y-78156950D01*
X149098000Y-78307050D01*
X149068717Y-78454267D01*
X149011276Y-78592942D01*
X148927884Y-78717747D01*
X148823526Y-78822105D01*
X148815635Y-78831722D01*
X148809767Y-78842700D01*
X148806153Y-78854612D01*
X148804933Y-78867000D01*
X148806153Y-78879388D01*
X148809767Y-78891300D01*
X148815635Y-78902278D01*
X148823526Y-78911895D01*
X148927884Y-79016253D01*
X149011276Y-79141058D01*
X149068717Y-79279733D01*
X149098000Y-79426950D01*
X149098000Y-79577050D01*
X149068717Y-79724267D01*
X149011276Y-79862942D01*
X148927884Y-79987747D01*
X148823526Y-80092105D01*
X148815635Y-80101722D01*
X148809767Y-80112700D01*
X148806153Y-80124612D01*
X148804933Y-80137000D01*
X148806153Y-80149388D01*
X148809767Y-80161300D01*
X148815635Y-80172278D01*
X148823526Y-80181895D01*
X148927884Y-80286253D01*
X149011276Y-80411058D01*
X149068717Y-80549733D01*
X149098000Y-80696950D01*
X149098000Y-80847050D01*
X149068717Y-80994267D01*
X149011276Y-81132942D01*
X148927884Y-81257747D01*
X148823526Y-81362105D01*
X148815635Y-81371722D01*
X148809767Y-81382700D01*
X148806153Y-81394612D01*
X148804933Y-81407000D01*
X148806153Y-81419388D01*
X148809767Y-81431300D01*
X148815635Y-81442278D01*
X148823526Y-81451895D01*
X148927884Y-81556253D01*
X149011276Y-81681058D01*
X149068717Y-81819733D01*
X149098000Y-81966950D01*
X149098000Y-82117050D01*
X149068717Y-82264267D01*
X149011276Y-82402942D01*
X148927884Y-82527747D01*
X148821747Y-82633884D01*
X148696942Y-82717276D01*
X148558267Y-82774717D01*
X148411050Y-82804000D01*
X148260950Y-82804000D01*
X148113733Y-82774717D01*
X147975058Y-82717276D01*
X147850253Y-82633884D01*
X147744116Y-82527747D01*
X147660724Y-82402942D01*
X147660722Y-82402939D01*
X147632665Y-82335202D01*
X147626798Y-82324224D01*
X147618901Y-82314602D01*
X147609278Y-82306705D01*
X147598300Y-82300837D01*
X147586388Y-82297223D01*
X147574000Y-82296003D01*
X147561612Y-82297223D01*
X147549700Y-82300837D01*
X147538722Y-82306704D01*
X147529100Y-82314601D01*
X147521203Y-82324224D01*
X147515335Y-82335202D01*
X147487278Y-82402939D01*
X147487276Y-82402942D01*
X147403884Y-82527747D01*
X147297747Y-82633884D01*
X147172942Y-82717276D01*
X147034267Y-82774717D01*
X146887050Y-82804000D01*
X146736950Y-82804000D01*
X146589733Y-82774717D01*
X146451058Y-82717276D01*
X146326253Y-82633884D01*
X146220116Y-82527747D01*
X146136724Y-82402942D01*
X146079283Y-82264267D01*
X146050000Y-82117050D01*
X146050000Y-81966950D01*
X146079283Y-81819733D01*
X146136724Y-81681058D01*
X146220116Y-81556253D01*
X146324474Y-81451895D01*
X146332365Y-81442278D01*
X146338233Y-81431300D01*
X146341847Y-81419388D01*
X146343067Y-81407000D01*
X147280933Y-81407000D01*
X147282153Y-81419388D01*
X147285767Y-81431300D01*
X147291635Y-81442278D01*
X147299526Y-81451895D01*
X147403884Y-81556253D01*
X147415209Y-81573202D01*
X147487278Y-81681061D01*
X147515335Y-81748798D01*
X147521202Y-81759776D01*
X147529099Y-81769398D01*
X147538722Y-81777295D01*
X147549700Y-81783163D01*
X147561612Y-81786777D01*
X147574000Y-81787997D01*
X147586388Y-81786777D01*
X147598300Y-81783163D01*
X147609278Y-81777296D01*
X147618900Y-81769399D01*
X147626797Y-81759776D01*
X147632665Y-81748798D01*
X147660722Y-81681061D01*
X147732791Y-81573202D01*
X147744116Y-81556253D01*
X147848474Y-81451895D01*
X147856365Y-81442278D01*
X147862233Y-81431300D01*
X147865847Y-81419388D01*
X147867067Y-81407000D01*
X147865847Y-81394612D01*
X147862233Y-81382700D01*
X147856365Y-81371722D01*
X147848474Y-81362105D01*
X147744116Y-81257747D01*
X147660724Y-81132942D01*
X147660722Y-81132939D01*
X147632665Y-81065202D01*
X147626798Y-81054224D01*
X147618901Y-81044602D01*
X147609278Y-81036705D01*
X147598300Y-81030837D01*
X147586388Y-81027223D01*
X147574000Y-81026003D01*
X147561612Y-81027223D01*
X147549700Y-81030837D01*
X147538722Y-81036704D01*
X147529100Y-81044601D01*
X147521203Y-81054224D01*
X147515335Y-81065202D01*
X147487278Y-81132939D01*
X147487276Y-81132942D01*
X147403884Y-81257747D01*
X147299526Y-81362105D01*
X147291635Y-81371722D01*
X147285767Y-81382700D01*
X147282153Y-81394612D01*
X147280933Y-81407000D01*
X146343067Y-81407000D01*
X146341847Y-81394612D01*
X146338233Y-81382700D01*
X146332365Y-81371722D01*
X146324474Y-81362105D01*
X146220116Y-81257747D01*
X146136724Y-81132942D01*
X146079283Y-80994267D01*
X146050000Y-80847050D01*
X146050000Y-80696950D01*
X146079283Y-80549733D01*
X146136724Y-80411058D01*
X146220116Y-80286253D01*
X146324474Y-80181895D01*
X146332365Y-80172278D01*
X146338233Y-80161300D01*
X146341847Y-80149388D01*
X146343067Y-80137000D01*
X147280933Y-80137000D01*
X147282153Y-80149388D01*
X147285767Y-80161300D01*
X147291635Y-80172278D01*
X147299526Y-80181895D01*
X147403884Y-80286253D01*
X147445065Y-80347885D01*
X147487278Y-80411061D01*
X147515335Y-80478798D01*
X147521202Y-80489776D01*
X147529099Y-80499398D01*
X147538722Y-80507295D01*
X147549700Y-80513163D01*
X147561612Y-80516777D01*
X147574000Y-80517997D01*
X147586388Y-80516777D01*
X147598300Y-80513163D01*
X147609278Y-80507296D01*
X147618900Y-80499399D01*
X147626797Y-80489776D01*
X147632665Y-80478798D01*
X147660722Y-80411061D01*
X147702935Y-80347885D01*
X147744116Y-80286253D01*
X147848474Y-80181895D01*
X147856365Y-80172278D01*
X147862233Y-80161300D01*
X147865847Y-80149388D01*
X147867067Y-80137000D01*
X147865847Y-80124612D01*
X147862233Y-80112700D01*
X147856365Y-80101722D01*
X147848474Y-80092105D01*
X147744116Y-79987747D01*
X147660724Y-79862942D01*
X147660722Y-79862939D01*
X147632665Y-79795202D01*
X147626798Y-79784224D01*
X147618901Y-79774602D01*
X147609278Y-79766705D01*
X147598300Y-79760837D01*
X147586388Y-79757223D01*
X147574000Y-79756003D01*
X147561612Y-79757223D01*
X147549700Y-79760837D01*
X147538722Y-79766704D01*
X147529100Y-79774601D01*
X147521203Y-79784224D01*
X147515335Y-79795202D01*
X147487278Y-79862939D01*
X147487276Y-79862942D01*
X147403884Y-79987747D01*
X147299526Y-80092105D01*
X147291635Y-80101722D01*
X147285767Y-80112700D01*
X147282153Y-80124612D01*
X147280933Y-80137000D01*
X146343067Y-80137000D01*
X146341847Y-80124612D01*
X146338233Y-80112700D01*
X146332365Y-80101722D01*
X146324474Y-80092105D01*
X146220116Y-79987747D01*
X146136724Y-79862942D01*
X146079283Y-79724267D01*
X146050000Y-79577050D01*
X146050000Y-79426950D01*
X146079283Y-79279733D01*
X146136724Y-79141058D01*
X146220116Y-79016253D01*
X146324474Y-78911895D01*
X146332365Y-78902278D01*
X146338233Y-78891300D01*
X146341847Y-78879388D01*
X146343067Y-78867000D01*
X147280933Y-78867000D01*
X147282153Y-78879388D01*
X147285767Y-78891300D01*
X147291635Y-78902278D01*
X147299526Y-78911895D01*
X147403884Y-79016253D01*
X147429640Y-79054800D01*
X147487278Y-79141061D01*
X147515335Y-79208798D01*
X147521202Y-79219776D01*
X147529099Y-79229398D01*
X147538722Y-79237295D01*
X147549700Y-79243163D01*
X147561612Y-79246777D01*
X147574000Y-79247997D01*
X147586388Y-79246777D01*
X147598300Y-79243163D01*
X147609278Y-79237296D01*
X147618900Y-79229399D01*
X147626797Y-79219776D01*
X147632665Y-79208798D01*
X147660722Y-79141061D01*
X147718360Y-79054800D01*
X147744116Y-79016253D01*
X147848474Y-78911895D01*
X147856365Y-78902278D01*
X147862233Y-78891300D01*
X147865847Y-78879388D01*
X147867067Y-78867000D01*
X147865847Y-78854612D01*
X147862233Y-78842700D01*
X147856365Y-78831722D01*
X147848474Y-78822105D01*
X147744116Y-78717747D01*
X147660724Y-78592942D01*
X147660722Y-78592939D01*
X147632665Y-78525202D01*
X147626798Y-78514224D01*
X147618901Y-78504602D01*
X147609278Y-78496705D01*
X147598300Y-78490837D01*
X147586388Y-78487223D01*
X147574000Y-78486003D01*
X147561612Y-78487223D01*
X147549700Y-78490837D01*
X147538722Y-78496704D01*
X147529100Y-78504601D01*
X147521203Y-78514224D01*
X147515335Y-78525202D01*
X147487278Y-78592939D01*
X147487276Y-78592942D01*
X147403884Y-78717747D01*
X147299526Y-78822105D01*
X147291635Y-78831722D01*
X147285767Y-78842700D01*
X147282153Y-78854612D01*
X147280933Y-78867000D01*
X146343067Y-78867000D01*
X146341847Y-78854612D01*
X146338233Y-78842700D01*
X146332365Y-78831722D01*
X146324474Y-78822105D01*
X146220116Y-78717747D01*
X146136724Y-78592942D01*
X146079283Y-78454267D01*
X146050000Y-78307050D01*
X146050000Y-78156950D01*
X146079283Y-78009733D01*
X146136724Y-77871058D01*
X146220116Y-77746253D01*
X146326253Y-77640116D01*
X146451058Y-77556724D01*
X146589733Y-77499283D01*
X146736950Y-77470000D01*
X146887050Y-77470000D01*
X147034267Y-77499283D01*
G37*
G36*
X166506000Y-82580000D02*
G01*
X164202000Y-82580000D01*
X164202000Y-80576000D01*
X166506000Y-80576000D01*
X166506000Y-82580000D01*
G37*
G36*
X144240267Y-80039283D02*
G01*
X144378942Y-80096724D01*
X144503747Y-80180116D01*
X144609884Y-80286253D01*
X144693276Y-80411058D01*
X144750717Y-80549733D01*
X144780000Y-80696950D01*
X144780000Y-80847050D01*
X144750717Y-80994267D01*
X144693276Y-81132942D01*
X144609884Y-81257747D01*
X144503747Y-81363884D01*
X144378942Y-81447276D01*
X144240267Y-81504717D01*
X144093050Y-81534000D01*
X143942950Y-81534000D01*
X143795733Y-81504717D01*
X143657058Y-81447276D01*
X143532253Y-81363884D01*
X143426116Y-81257747D01*
X143342724Y-81132942D01*
X143285283Y-80994267D01*
X143256000Y-80847050D01*
X143256000Y-80696950D01*
X143285283Y-80549733D01*
X143342724Y-80411058D01*
X143426116Y-80286253D01*
X143532253Y-80180116D01*
X143657058Y-80096724D01*
X143795733Y-80039283D01*
X143942950Y-80010000D01*
X144093050Y-80010000D01*
X144240267Y-80039283D01*
G37*
G36*
X125952267Y-79531283D02*
G01*
X126090942Y-79588724D01*
X126215747Y-79672116D01*
X126321884Y-79778253D01*
X126405276Y-79903058D01*
X126462717Y-80041733D01*
X126492000Y-80188950D01*
X126492000Y-80339050D01*
X126462717Y-80486267D01*
X126405276Y-80624942D01*
X126321884Y-80749747D01*
X126215747Y-80855884D01*
X126090942Y-80939276D01*
X125952267Y-80996717D01*
X125805050Y-81026000D01*
X125654950Y-81026000D01*
X125507733Y-80996717D01*
X125369058Y-80939276D01*
X125244253Y-80855884D01*
X125138116Y-80749747D01*
X125054724Y-80624942D01*
X124997283Y-80486267D01*
X124968000Y-80339050D01*
X124968000Y-80188950D01*
X124997283Y-80041733D01*
X125054724Y-79903058D01*
X125138116Y-79778253D01*
X125244253Y-79672116D01*
X125369058Y-79588724D01*
X125507733Y-79531283D01*
X125654950Y-79502000D01*
X125805050Y-79502000D01*
X125952267Y-79531283D01*
G37*
G36*
X172368489Y-79013349D02*
G01*
X172417715Y-79028281D01*
X172463075Y-79052527D01*
X172502840Y-79085160D01*
X172535473Y-79124925D01*
X172559719Y-79170285D01*
X172574651Y-79219511D01*
X172580000Y-79273817D01*
X172580000Y-80746183D01*
X172574651Y-80800489D01*
X172559719Y-80849715D01*
X172535473Y-80895075D01*
X172502840Y-80934840D01*
X172463075Y-80967473D01*
X172417715Y-80991719D01*
X172368489Y-81006651D01*
X172314183Y-81012000D01*
X171341817Y-81012000D01*
X171287511Y-81006651D01*
X171238285Y-80991719D01*
X171192925Y-80967473D01*
X171153160Y-80934840D01*
X171120527Y-80895075D01*
X171096281Y-80849715D01*
X171081349Y-80800489D01*
X171076000Y-80746183D01*
X171076000Y-79273817D01*
X171081349Y-79219511D01*
X171096281Y-79170285D01*
X171120527Y-79124925D01*
X171153160Y-79085160D01*
X171192925Y-79052527D01*
X171238285Y-79028281D01*
X171287511Y-79013349D01*
X171341817Y-79008000D01*
X172314183Y-79008000D01*
X172368489Y-79013349D01*
G37*
G36*
X175168489Y-79013349D02*
G01*
X175217715Y-79028281D01*
X175263075Y-79052527D01*
X175302840Y-79085160D01*
X175335473Y-79124925D01*
X175359719Y-79170285D01*
X175374651Y-79219511D01*
X175380000Y-79273817D01*
X175380000Y-80746183D01*
X175374651Y-80800489D01*
X175359719Y-80849715D01*
X175335473Y-80895075D01*
X175302840Y-80934840D01*
X175263075Y-80967473D01*
X175217715Y-80991719D01*
X175168489Y-81006651D01*
X175114183Y-81012000D01*
X174141817Y-81012000D01*
X174087511Y-81006651D01*
X174038285Y-80991719D01*
X173992925Y-80967473D01*
X173953160Y-80934840D01*
X173920527Y-80895075D01*
X173896281Y-80849715D01*
X173881349Y-80800489D01*
X173876000Y-80746183D01*
X173876000Y-79273817D01*
X173881349Y-79219511D01*
X173896281Y-79170285D01*
X173920527Y-79124925D01*
X173953160Y-79085160D01*
X173992925Y-79052527D01*
X174038285Y-79028281D01*
X174087511Y-79013349D01*
X174141817Y-79008000D01*
X175114183Y-79008000D01*
X175168489Y-79013349D01*
G37*
G36*
X177001184Y-79188595D02*
G01*
X177052814Y-79204256D01*
X177100388Y-79229685D01*
X177142090Y-79263910D01*
X177176315Y-79305612D01*
X177201744Y-79353186D01*
X177217405Y-79404816D01*
X177223000Y-79461617D01*
X177223000Y-80558383D01*
X177217405Y-80615184D01*
X177201744Y-80666814D01*
X177176315Y-80714388D01*
X177142090Y-80756090D01*
X177100388Y-80790315D01*
X177052814Y-80815744D01*
X177001184Y-80831405D01*
X176944383Y-80837000D01*
X176272617Y-80837000D01*
X176215816Y-80831405D01*
X176164186Y-80815744D01*
X176116612Y-80790315D01*
X176074910Y-80756090D01*
X176040685Y-80714388D01*
X176015256Y-80666814D01*
X175999595Y-80615184D01*
X175994000Y-80558383D01*
X175994000Y-79461617D01*
X175999595Y-79404816D01*
X176015256Y-79353186D01*
X176040685Y-79305612D01*
X176074910Y-79263910D01*
X176116612Y-79229685D01*
X176164186Y-79204256D01*
X176215816Y-79188595D01*
X176272617Y-79183000D01*
X176944383Y-79183000D01*
X177001184Y-79188595D01*
G37*
G36*
X178876184Y-79188595D02*
G01*
X178927814Y-79204256D01*
X178975388Y-79229685D01*
X179017090Y-79263910D01*
X179051315Y-79305612D01*
X179076744Y-79353186D01*
X179092405Y-79404816D01*
X179098000Y-79461617D01*
X179098000Y-80558383D01*
X179092405Y-80615184D01*
X179076744Y-80666814D01*
X179051315Y-80714388D01*
X179017090Y-80756090D01*
X178975388Y-80790315D01*
X178927814Y-80815744D01*
X178876184Y-80831405D01*
X178819383Y-80837000D01*
X178147617Y-80837000D01*
X178090816Y-80831405D01*
X178039186Y-80815744D01*
X177991612Y-80790315D01*
X177949910Y-80756090D01*
X177915685Y-80714388D01*
X177890256Y-80666814D01*
X177874595Y-80615184D01*
X177869000Y-80558383D01*
X177869000Y-79461617D01*
X177874595Y-79404816D01*
X177890256Y-79353186D01*
X177915685Y-79305612D01*
X177949910Y-79263910D01*
X177991612Y-79229685D01*
X178039186Y-79204256D01*
X178090816Y-79188595D01*
X178147617Y-79183000D01*
X178819383Y-79183000D01*
X178876184Y-79188595D01*
G37*
G36*
X136170489Y-78759349D02*
G01*
X136219715Y-78774281D01*
X136265075Y-78798527D01*
X136304840Y-78831160D01*
X136337473Y-78870925D01*
X136361719Y-78916285D01*
X136376651Y-78965511D01*
X136382000Y-79019817D01*
X136382000Y-80492183D01*
X136376651Y-80546489D01*
X136361719Y-80595715D01*
X136337473Y-80641075D01*
X136304840Y-80680840D01*
X136265075Y-80713473D01*
X136219715Y-80737719D01*
X136170489Y-80752651D01*
X136116183Y-80758000D01*
X135143817Y-80758000D01*
X135089511Y-80752651D01*
X135040285Y-80737719D01*
X134994925Y-80713473D01*
X134955160Y-80680840D01*
X134922527Y-80641075D01*
X134898281Y-80595715D01*
X134883349Y-80546489D01*
X134878000Y-80492183D01*
X134878000Y-79019817D01*
X134883349Y-78965511D01*
X134898281Y-78916285D01*
X134922527Y-78870925D01*
X134955160Y-78831160D01*
X134994925Y-78798527D01*
X135040285Y-78774281D01*
X135089511Y-78759349D01*
X135143817Y-78754000D01*
X136116183Y-78754000D01*
X136170489Y-78759349D01*
G37*
G36*
X138970489Y-78759349D02*
G01*
X139019715Y-78774281D01*
X139065075Y-78798527D01*
X139104840Y-78831160D01*
X139137473Y-78870925D01*
X139161719Y-78916285D01*
X139176651Y-78965511D01*
X139182000Y-79019817D01*
X139182000Y-80492183D01*
X139176651Y-80546489D01*
X139161719Y-80595715D01*
X139137473Y-80641075D01*
X139104840Y-80680840D01*
X139065075Y-80713473D01*
X139019715Y-80737719D01*
X138970489Y-80752651D01*
X138916183Y-80758000D01*
X137943817Y-80758000D01*
X137889511Y-80752651D01*
X137840285Y-80737719D01*
X137794925Y-80713473D01*
X137755160Y-80680840D01*
X137722527Y-80641075D01*
X137698281Y-80595715D01*
X137683349Y-80546489D01*
X137678000Y-80492183D01*
X137678000Y-79019817D01*
X137683349Y-78965511D01*
X137698281Y-78916285D01*
X137722527Y-78870925D01*
X137755160Y-78831160D01*
X137794925Y-78798527D01*
X137840285Y-78774281D01*
X137889511Y-78759349D01*
X137943817Y-78754000D01*
X138916183Y-78754000D01*
X138970489Y-78759349D01*
G37*
G36*
X184013135Y-78529159D02*
G01*
X184180983Y-78562545D01*
X184358780Y-78636191D01*
X184518800Y-78743113D01*
X184654887Y-78879200D01*
X184761809Y-79039220D01*
X184835455Y-79217017D01*
X184873000Y-79405775D01*
X184873000Y-79598225D01*
X184835455Y-79786983D01*
X184761809Y-79964780D01*
X184654887Y-80124800D01*
X184518800Y-80260887D01*
X184358780Y-80367809D01*
X184180983Y-80441455D01*
X184021892Y-80473099D01*
X183992226Y-80479000D01*
X183799774Y-80479000D01*
X183770108Y-80473099D01*
X183611017Y-80441455D01*
X183433220Y-80367809D01*
X183273200Y-80260887D01*
X183137113Y-80124800D01*
X183030191Y-79964780D01*
X182956545Y-79786983D01*
X182919000Y-79598225D01*
X182919000Y-79405775D01*
X182956545Y-79217017D01*
X183030191Y-79039220D01*
X183137113Y-78879200D01*
X183273200Y-78743113D01*
X183433220Y-78636191D01*
X183611017Y-78562545D01*
X183778865Y-78529159D01*
X183799774Y-78525000D01*
X183992226Y-78525000D01*
X184013135Y-78529159D01*
G37*
G36*
X142970267Y-77499283D02*
G01*
X143108942Y-77556724D01*
X143233747Y-77640116D01*
X143339884Y-77746253D01*
X143423276Y-77871058D01*
X143480717Y-78009733D01*
X143510000Y-78156950D01*
X143510000Y-78307050D01*
X143480717Y-78454267D01*
X143423276Y-78592942D01*
X143339884Y-78717747D01*
X143233747Y-78823884D01*
X143108942Y-78907276D01*
X142970267Y-78964717D01*
X142823050Y-78994000D01*
X142672950Y-78994000D01*
X142525733Y-78964717D01*
X142387058Y-78907276D01*
X142262253Y-78823884D01*
X142156116Y-78717747D01*
X142072724Y-78592942D01*
X142015283Y-78454267D01*
X141986000Y-78307050D01*
X141986000Y-78156950D01*
X142015283Y-78009733D01*
X142072724Y-77871058D01*
X142156116Y-77746253D01*
X142262253Y-77640116D01*
X142387058Y-77556724D01*
X142525733Y-77499283D01*
X142672950Y-77470000D01*
X142823050Y-77470000D01*
X142970267Y-77499283D01*
G37*
G36*
X167040489Y-76023349D02*
G01*
X167089715Y-76038281D01*
X167135075Y-76062527D01*
X167174840Y-76095160D01*
X167207473Y-76134925D01*
X167231719Y-76180285D01*
X167246651Y-76229511D01*
X167252000Y-76283817D01*
X167252000Y-78656183D01*
X167246651Y-78710489D01*
X167231719Y-78759715D01*
X167207473Y-78805075D01*
X167174840Y-78844840D01*
X167135075Y-78877473D01*
X167089715Y-78901719D01*
X167040489Y-78916651D01*
X166986183Y-78922000D01*
X166013817Y-78922000D01*
X165959511Y-78916651D01*
X165910285Y-78901719D01*
X165864925Y-78877473D01*
X165825160Y-78844840D01*
X165792527Y-78805075D01*
X165768281Y-78759715D01*
X165753349Y-78710489D01*
X165748000Y-78656183D01*
X165748000Y-76283817D01*
X165753349Y-76229511D01*
X165768281Y-76180285D01*
X165792527Y-76134925D01*
X165825160Y-76095160D01*
X165864925Y-76062527D01*
X165910285Y-76038281D01*
X165959511Y-76023349D01*
X166013817Y-76018000D01*
X166986183Y-76018000D01*
X167040489Y-76023349D01*
G37*
G36*
X164240489Y-76023349D02*
G01*
X164289715Y-76038281D01*
X164335075Y-76062527D01*
X164374840Y-76095160D01*
X164407473Y-76134925D01*
X164431719Y-76180285D01*
X164446651Y-76229511D01*
X164452000Y-76283817D01*
X164452000Y-78656183D01*
X164446651Y-78710489D01*
X164431719Y-78759715D01*
X164407473Y-78805075D01*
X164374840Y-78844840D01*
X164335075Y-78877473D01*
X164289715Y-78901719D01*
X164240489Y-78916651D01*
X164186183Y-78922000D01*
X163213817Y-78922000D01*
X163159511Y-78916651D01*
X163110285Y-78901719D01*
X163064925Y-78877473D01*
X163025160Y-78844840D01*
X162992527Y-78805075D01*
X162968281Y-78759715D01*
X162953349Y-78710489D01*
X162948000Y-78656183D01*
X162948000Y-76283817D01*
X162953349Y-76229511D01*
X162968281Y-76180285D01*
X162992527Y-76134925D01*
X163025160Y-76095160D01*
X163064925Y-76062527D01*
X163110285Y-76038281D01*
X163159511Y-76023349D01*
X163213817Y-76018000D01*
X164186183Y-76018000D01*
X164240489Y-76023349D01*
G37*
G36*
X124303184Y-76020595D02*
G01*
X124354814Y-76036256D01*
X124402388Y-76061685D01*
X124444090Y-76095910D01*
X124478315Y-76137612D01*
X124503744Y-76185186D01*
X124519405Y-76236816D01*
X124525000Y-76293617D01*
X124525000Y-76965383D01*
X124519405Y-77022184D01*
X124503744Y-77073814D01*
X124478315Y-77121388D01*
X124444090Y-77163090D01*
X124402388Y-77197315D01*
X124354814Y-77222744D01*
X124303184Y-77238405D01*
X124246383Y-77244000D01*
X123149617Y-77244000D01*
X123092816Y-77238405D01*
X123041186Y-77222744D01*
X122993612Y-77197315D01*
X122951910Y-77163090D01*
X122917685Y-77121388D01*
X122892256Y-77073814D01*
X122876595Y-77022184D01*
X122871000Y-76965383D01*
X122871000Y-76293617D01*
X122876595Y-76236816D01*
X122892256Y-76185186D01*
X122917685Y-76137612D01*
X122951910Y-76095910D01*
X122993612Y-76061685D01*
X123041186Y-76036256D01*
X123092816Y-76020595D01*
X123149617Y-76015000D01*
X124246383Y-76015000D01*
X124303184Y-76020595D01*
G37*
G36*
X134378745Y-74942146D02*
G01*
X134516691Y-74969585D01*
X134689938Y-75041346D01*
X134845863Y-75145532D01*
X134978468Y-75278137D01*
X135082654Y-75434062D01*
X135154415Y-75607309D01*
X135191000Y-75791237D01*
X135191000Y-75978763D01*
X135154415Y-76162691D01*
X135082654Y-76335938D01*
X134978468Y-76491863D01*
X134845863Y-76624468D01*
X134689938Y-76728654D01*
X134516691Y-76800415D01*
X134378745Y-76827854D01*
X134332764Y-76837000D01*
X134145236Y-76837000D01*
X134099255Y-76827854D01*
X133961309Y-76800415D01*
X133788062Y-76728654D01*
X133632137Y-76624468D01*
X133499532Y-76491863D01*
X133395346Y-76335938D01*
X133323585Y-76162691D01*
X133287000Y-75978763D01*
X133287000Y-75791237D01*
X133323585Y-75607309D01*
X133395346Y-75434062D01*
X133499532Y-75278137D01*
X133632137Y-75145532D01*
X133788062Y-75041346D01*
X133961309Y-74969585D01*
X134099255Y-74942146D01*
X134145236Y-74933000D01*
X134332764Y-74933000D01*
X134378745Y-74942146D01*
G37*
G36*
X177838489Y-74441349D02*
G01*
X177887715Y-74456281D01*
X177933075Y-74480527D01*
X177972840Y-74513160D01*
X178005473Y-74552925D01*
X178029719Y-74598285D01*
X178044651Y-74647511D01*
X178050000Y-74701817D01*
X178050000Y-76174183D01*
X178044651Y-76228489D01*
X178029719Y-76277715D01*
X178005473Y-76323075D01*
X177972840Y-76362840D01*
X177933075Y-76395473D01*
X177887715Y-76419719D01*
X177838489Y-76434651D01*
X177784183Y-76440000D01*
X176811817Y-76440000D01*
X176757511Y-76434651D01*
X176708285Y-76419719D01*
X176662925Y-76395473D01*
X176623160Y-76362840D01*
X176590527Y-76323075D01*
X176566281Y-76277715D01*
X176551349Y-76228489D01*
X176546000Y-76174183D01*
X176546000Y-74701817D01*
X176551349Y-74647511D01*
X176566281Y-74598285D01*
X176590527Y-74552925D01*
X176623160Y-74513160D01*
X176662925Y-74480527D01*
X176708285Y-74456281D01*
X176757511Y-74441349D01*
X176811817Y-74436000D01*
X177784183Y-74436000D01*
X177838489Y-74441349D01*
G37*
G36*
X175038489Y-74441349D02*
G01*
X175087715Y-74456281D01*
X175133075Y-74480527D01*
X175172840Y-74513160D01*
X175205473Y-74552925D01*
X175229719Y-74598285D01*
X175244651Y-74647511D01*
X175250000Y-74701817D01*
X175250000Y-76174183D01*
X175244651Y-76228489D01*
X175229719Y-76277715D01*
X175205473Y-76323075D01*
X175172840Y-76362840D01*
X175133075Y-76395473D01*
X175087715Y-76419719D01*
X175038489Y-76434651D01*
X174984183Y-76440000D01*
X174011817Y-76440000D01*
X173957511Y-76434651D01*
X173908285Y-76419719D01*
X173862925Y-76395473D01*
X173823160Y-76362840D01*
X173790527Y-76323075D01*
X173766281Y-76277715D01*
X173751349Y-76228489D01*
X173746000Y-76174183D01*
X173746000Y-74701817D01*
X173751349Y-74647511D01*
X173766281Y-74598285D01*
X173790527Y-74552925D01*
X173823160Y-74513160D01*
X173862925Y-74480527D01*
X173908285Y-74456281D01*
X173957511Y-74441349D01*
X174011817Y-74436000D01*
X174984183Y-74436000D01*
X175038489Y-74441349D01*
G37*
G36*
X153708489Y-74441349D02*
G01*
X153757715Y-74456281D01*
X153803075Y-74480527D01*
X153842840Y-74513160D01*
X153875473Y-74552925D01*
X153899719Y-74598285D01*
X153914651Y-74647511D01*
X153920000Y-74701817D01*
X153920000Y-76174183D01*
X153914651Y-76228489D01*
X153899719Y-76277715D01*
X153875473Y-76323075D01*
X153842840Y-76362840D01*
X153803075Y-76395473D01*
X153757715Y-76419719D01*
X153708489Y-76434651D01*
X153654183Y-76440000D01*
X152681817Y-76440000D01*
X152627511Y-76434651D01*
X152578285Y-76419719D01*
X152532925Y-76395473D01*
X152493160Y-76362840D01*
X152460527Y-76323075D01*
X152436281Y-76277715D01*
X152421349Y-76228489D01*
X152416000Y-76174183D01*
X152416000Y-74701817D01*
X152421349Y-74647511D01*
X152436281Y-74598285D01*
X152460527Y-74552925D01*
X152493160Y-74513160D01*
X152532925Y-74480527D01*
X152578285Y-74456281D01*
X152627511Y-74441349D01*
X152681817Y-74436000D01*
X153654183Y-74436000D01*
X153708489Y-74441349D01*
G37*
G36*
X150908489Y-74441349D02*
G01*
X150957715Y-74456281D01*
X151003075Y-74480527D01*
X151042840Y-74513160D01*
X151075473Y-74552925D01*
X151099719Y-74598285D01*
X151114651Y-74647511D01*
X151120000Y-74701817D01*
X151120000Y-76174183D01*
X151114651Y-76228489D01*
X151099719Y-76277715D01*
X151075473Y-76323075D01*
X151042840Y-76362840D01*
X151003075Y-76395473D01*
X150957715Y-76419719D01*
X150908489Y-76434651D01*
X150854183Y-76440000D01*
X149881817Y-76440000D01*
X149827511Y-76434651D01*
X149778285Y-76419719D01*
X149732925Y-76395473D01*
X149693160Y-76362840D01*
X149660527Y-76323075D01*
X149636281Y-76277715D01*
X149621349Y-76228489D01*
X149616000Y-76174183D01*
X149616000Y-74701817D01*
X149621349Y-74647511D01*
X149636281Y-74598285D01*
X149660527Y-74552925D01*
X149693160Y-74513160D01*
X149732925Y-74480527D01*
X149778285Y-74456281D01*
X149827511Y-74441349D01*
X149881817Y-74436000D01*
X150854183Y-74436000D01*
X150908489Y-74441349D01*
G37*
G36*
X173139000Y-76365000D02*
G01*
X171285000Y-76365000D01*
X171285000Y-74511000D01*
X173139000Y-74511000D01*
X173139000Y-76365000D01*
G37*
G36*
X148755000Y-76365000D02*
G01*
X146901000Y-76365000D01*
X146901000Y-74511000D01*
X148755000Y-74511000D01*
X148755000Y-76365000D01*
G37*
G36*
X155718399Y-74546624D02*
G01*
X155887096Y-74616501D01*
X156038927Y-74717951D01*
X156168049Y-74847073D01*
X156269499Y-74998904D01*
X156339376Y-75167601D01*
X156375000Y-75346699D01*
X156375000Y-75529301D01*
X156339376Y-75708399D01*
X156269499Y-75877096D01*
X156168049Y-76028927D01*
X156038927Y-76158049D01*
X155887096Y-76259499D01*
X155718399Y-76329376D01*
X155539301Y-76365000D01*
X155356699Y-76365000D01*
X155177601Y-76329376D01*
X155008904Y-76259499D01*
X154857073Y-76158049D01*
X154727951Y-76028927D01*
X154626501Y-75877096D01*
X154556624Y-75708399D01*
X154521000Y-75529301D01*
X154521000Y-75346699D01*
X154556624Y-75167601D01*
X154626501Y-74998904D01*
X154727951Y-74847073D01*
X154857073Y-74717951D01*
X155008904Y-74616501D01*
X155177601Y-74546624D01*
X155356699Y-74511000D01*
X155539301Y-74511000D01*
X155718399Y-74546624D01*
G37*
G36*
X180102399Y-74546624D02*
G01*
X180271096Y-74616501D01*
X180422927Y-74717951D01*
X180552049Y-74847073D01*
X180653499Y-74998904D01*
X180723376Y-75167601D01*
X180759000Y-75346699D01*
X180759000Y-75529301D01*
X180723376Y-75708399D01*
X180653499Y-75877096D01*
X180552049Y-76028927D01*
X180422927Y-76158049D01*
X180271096Y-76259499D01*
X180102399Y-76329376D01*
X179923301Y-76365000D01*
X179740699Y-76365000D01*
X179561601Y-76329376D01*
X179392904Y-76259499D01*
X179241073Y-76158049D01*
X179111951Y-76028927D01*
X179010501Y-75877096D01*
X178940624Y-75708399D01*
X178905000Y-75529301D01*
X178905000Y-75346699D01*
X178940624Y-75167601D01*
X179010501Y-74998904D01*
X179111951Y-74847073D01*
X179241073Y-74717951D01*
X179392904Y-74616501D01*
X179561601Y-74546624D01*
X179740699Y-74511000D01*
X179923301Y-74511000D01*
X180102399Y-74546624D01*
G37*
G36*
X161438660Y-73039642D02*
G01*
X161581606Y-73083004D01*
X161713346Y-73153420D01*
X161828816Y-73248185D01*
X161923581Y-73363655D01*
X161993997Y-73495395D01*
X162037359Y-73638341D01*
X162052001Y-73787000D01*
X162052001Y-75057000D01*
X162037359Y-75205659D01*
X161993997Y-75348605D01*
X161923581Y-75480345D01*
X161828816Y-75595815D01*
X161713346Y-75690580D01*
X161581606Y-75760996D01*
X161438660Y-75804358D01*
X161290001Y-75819000D01*
X161289999Y-75819000D01*
X161141340Y-75804358D01*
X160998394Y-75760996D01*
X160866654Y-75690580D01*
X160751184Y-75595815D01*
X160656419Y-75480345D01*
X160586003Y-75348605D01*
X160542641Y-75205659D01*
X160527999Y-75057000D01*
X160527999Y-73787000D01*
X160542641Y-73638341D01*
X160586003Y-73495395D01*
X160656419Y-73363655D01*
X160751184Y-73248185D01*
X160866654Y-73153420D01*
X160998394Y-73083004D01*
X161141340Y-73039642D01*
X161289999Y-73025000D01*
X161290001Y-73025000D01*
X161438660Y-73039642D01*
G37*
G36*
X163978660Y-73039642D02*
G01*
X164121606Y-73083004D01*
X164253346Y-73153420D01*
X164368816Y-73248185D01*
X164463581Y-73363655D01*
X164533997Y-73495395D01*
X164577359Y-73638341D01*
X164592001Y-73787000D01*
X164592001Y-75057000D01*
X164577359Y-75205659D01*
X164533997Y-75348605D01*
X164463581Y-75480345D01*
X164368816Y-75595815D01*
X164253346Y-75690580D01*
X164121606Y-75760996D01*
X163978660Y-75804358D01*
X163830001Y-75819000D01*
X163829999Y-75819000D01*
X163681340Y-75804358D01*
X163538394Y-75760996D01*
X163406654Y-75690580D01*
X163291184Y-75595815D01*
X163196419Y-75480345D01*
X163126003Y-75348605D01*
X163082641Y-75205659D01*
X163067999Y-75057000D01*
X163067999Y-73787000D01*
X163082641Y-73638341D01*
X163126003Y-73495395D01*
X163196419Y-73363655D01*
X163291184Y-73248185D01*
X163406654Y-73153420D01*
X163538394Y-73083004D01*
X163681340Y-73039642D01*
X163829999Y-73025000D01*
X163830001Y-73025000D01*
X163978660Y-73039642D01*
G37*
G36*
X166518660Y-73039642D02*
G01*
X166661606Y-73083004D01*
X166793346Y-73153420D01*
X166908816Y-73248185D01*
X167003581Y-73363655D01*
X167073997Y-73495395D01*
X167117359Y-73638341D01*
X167132001Y-73787000D01*
X167132001Y-75057000D01*
X167117359Y-75205659D01*
X167073997Y-75348605D01*
X167003581Y-75480345D01*
X166908816Y-75595815D01*
X166793346Y-75690580D01*
X166661606Y-75760996D01*
X166518660Y-75804358D01*
X166370001Y-75819000D01*
X166369999Y-75819000D01*
X166221340Y-75804358D01*
X166078394Y-75760996D01*
X165946654Y-75690580D01*
X165831184Y-75595815D01*
X165736419Y-75480345D01*
X165666003Y-75348605D01*
X165622641Y-75205659D01*
X165607999Y-75057000D01*
X165607999Y-73787000D01*
X165622641Y-73638341D01*
X165666003Y-73495395D01*
X165736419Y-73363655D01*
X165831184Y-73248185D01*
X165946654Y-73153420D01*
X166078394Y-73083004D01*
X166221340Y-73039642D01*
X166369999Y-73025000D01*
X166370001Y-73025000D01*
X166518660Y-73039642D01*
G37*
G36*
X123920267Y-72673283D02*
G01*
X124058942Y-72730724D01*
X124183747Y-72814116D01*
X124289884Y-72920253D01*
X124373276Y-73045058D01*
X124430717Y-73183733D01*
X124460000Y-73330950D01*
X124460000Y-73481050D01*
X124430717Y-73628267D01*
X124373276Y-73766942D01*
X124289884Y-73891747D01*
X124183747Y-73997884D01*
X124145100Y-74023707D01*
X124135483Y-74031600D01*
X124127586Y-74041223D01*
X124121718Y-74052201D01*
X124118104Y-74064113D01*
X124116884Y-74076501D01*
X124118104Y-74088889D01*
X124121717Y-74100801D01*
X124127585Y-74111779D01*
X124135482Y-74121401D01*
X124145105Y-74129298D01*
X124156083Y-74135166D01*
X124167995Y-74138780D01*
X124180383Y-74140000D01*
X124246383Y-74140000D01*
X124303184Y-74145595D01*
X124354814Y-74161256D01*
X124402388Y-74186685D01*
X124444090Y-74220910D01*
X124478315Y-74262612D01*
X124503744Y-74310186D01*
X124519405Y-74361816D01*
X124525000Y-74418617D01*
X124525000Y-75090383D01*
X124519405Y-75147184D01*
X124503744Y-75198814D01*
X124478315Y-75246388D01*
X124444090Y-75288090D01*
X124402388Y-75322315D01*
X124354814Y-75347744D01*
X124303184Y-75363405D01*
X124246383Y-75369000D01*
X123149617Y-75369000D01*
X123092816Y-75363405D01*
X123041186Y-75347744D01*
X122993612Y-75322315D01*
X122951910Y-75288090D01*
X122917685Y-75246388D01*
X122892256Y-75198814D01*
X122876595Y-75147184D01*
X122871000Y-75090383D01*
X122871000Y-74418617D01*
X122876595Y-74361816D01*
X122892256Y-74310186D01*
X122917685Y-74262612D01*
X122951910Y-74220910D01*
X122993612Y-74186685D01*
X123041186Y-74161256D01*
X123092816Y-74145595D01*
X123149617Y-74140000D01*
X123215617Y-74140000D01*
X123228005Y-74138780D01*
X123239917Y-74135166D01*
X123250895Y-74129298D01*
X123260518Y-74121402D01*
X123268414Y-74111779D01*
X123274282Y-74100801D01*
X123277896Y-74088889D01*
X123279116Y-74076501D01*
X123277896Y-74064113D01*
X123274282Y-74052201D01*
X123268414Y-74041223D01*
X123260518Y-74031600D01*
X123250900Y-74023707D01*
X123212253Y-73997884D01*
X123106116Y-73891747D01*
X123022724Y-73766942D01*
X122965283Y-73628267D01*
X122936000Y-73481050D01*
X122936000Y-73330950D01*
X122965283Y-73183733D01*
X123022724Y-73045058D01*
X123106116Y-72920253D01*
X123212253Y-72814116D01*
X123337058Y-72730724D01*
X123475733Y-72673283D01*
X123622950Y-72644000D01*
X123773050Y-72644000D01*
X123920267Y-72673283D01*
G37*
G36*
X159990489Y-73675349D02*
G01*
X160039715Y-73690281D01*
X160085075Y-73714527D01*
X160124840Y-73747160D01*
X160157473Y-73786925D01*
X160181719Y-73832285D01*
X160196651Y-73881511D01*
X160202000Y-73935817D01*
X160202000Y-74908183D01*
X160196651Y-74962489D01*
X160181719Y-75011715D01*
X160157473Y-75057075D01*
X160124840Y-75096840D01*
X160085075Y-75129473D01*
X160039715Y-75153719D01*
X159990489Y-75168651D01*
X159936183Y-75174000D01*
X157563817Y-75174000D01*
X157509511Y-75168651D01*
X157460285Y-75153719D01*
X157414925Y-75129473D01*
X157375160Y-75096840D01*
X157342527Y-75057075D01*
X157318281Y-75011715D01*
X157303349Y-74962489D01*
X157298000Y-74908183D01*
X157298000Y-73935817D01*
X157303349Y-73881511D01*
X157318281Y-73832285D01*
X157342527Y-73786925D01*
X157375160Y-73747160D01*
X157414925Y-73714527D01*
X157460285Y-73690281D01*
X157509511Y-73675349D01*
X157563817Y-73670000D01*
X159936183Y-73670000D01*
X159990489Y-73675349D01*
G37*
G36*
X130270267Y-73435283D02*
G01*
X130408942Y-73492724D01*
X130533747Y-73576116D01*
X130639884Y-73682253D01*
X130723276Y-73807058D01*
X130780717Y-73945733D01*
X130810000Y-74092950D01*
X130810000Y-74243050D01*
X130780717Y-74390267D01*
X130723276Y-74528942D01*
X130639884Y-74653747D01*
X130533747Y-74759884D01*
X130408942Y-74843276D01*
X130270267Y-74900717D01*
X130123050Y-74930000D01*
X129972950Y-74930000D01*
X129825733Y-74900717D01*
X129687058Y-74843276D01*
X129562253Y-74759884D01*
X129456116Y-74653747D01*
X129372724Y-74528942D01*
X129315283Y-74390267D01*
X129286000Y-74243050D01*
X129286000Y-74092950D01*
X129315283Y-73945733D01*
X129372724Y-73807058D01*
X129456116Y-73682253D01*
X129562253Y-73576116D01*
X129687058Y-73492724D01*
X129825733Y-73435283D01*
X129972950Y-73406000D01*
X130123050Y-73406000D01*
X130270267Y-73435283D01*
G37*
G36*
X154400267Y-72673283D02*
G01*
X154538942Y-72730724D01*
X154663747Y-72814116D01*
X154769884Y-72920253D01*
X154853276Y-73045058D01*
X154910717Y-73183733D01*
X154940000Y-73330950D01*
X154940000Y-73481050D01*
X154910717Y-73628267D01*
X154853276Y-73766942D01*
X154769884Y-73891747D01*
X154663747Y-73997884D01*
X154538942Y-74081276D01*
X154400267Y-74138717D01*
X154253050Y-74168000D01*
X154102950Y-74168000D01*
X153955733Y-74138717D01*
X153817058Y-74081276D01*
X153692253Y-73997884D01*
X153586116Y-73891747D01*
X153502724Y-73766942D01*
X153445283Y-73628267D01*
X153416000Y-73481050D01*
X153416000Y-73330950D01*
X153445283Y-73183733D01*
X153502724Y-73045058D01*
X153586116Y-72920253D01*
X153692253Y-72814116D01*
X153817058Y-72730724D01*
X153955733Y-72673283D01*
X154102950Y-72644000D01*
X154253050Y-72644000D01*
X154400267Y-72673283D01*
G37*
G36*
X140684267Y-72165283D02*
G01*
X140822942Y-72222724D01*
X140947747Y-72306116D01*
X141053884Y-72412253D01*
X141137276Y-72537058D01*
X141194717Y-72675733D01*
X141224000Y-72822950D01*
X141224000Y-72973050D01*
X141194717Y-73120267D01*
X141137276Y-73258942D01*
X141053884Y-73383747D01*
X140947747Y-73489884D01*
X140822942Y-73573276D01*
X140684267Y-73630717D01*
X140537050Y-73660000D01*
X140386950Y-73660000D01*
X140239733Y-73630717D01*
X140101058Y-73573276D01*
X139976253Y-73489884D01*
X139870116Y-73383747D01*
X139786724Y-73258942D01*
X139729283Y-73120267D01*
X139700000Y-72973050D01*
X139700000Y-72822950D01*
X139729283Y-72675733D01*
X139786724Y-72537058D01*
X139870116Y-72412253D01*
X139976253Y-72306116D01*
X140101058Y-72222724D01*
X140239733Y-72165283D01*
X140386950Y-72136000D01*
X140537050Y-72136000D01*
X140684267Y-72165283D01*
G37*
G36*
X185134267Y-70895283D02*
G01*
X185272942Y-70952724D01*
X185397747Y-71036116D01*
X185503884Y-71142253D01*
X185587276Y-71267058D01*
X185644717Y-71405733D01*
X185674000Y-71552950D01*
X185674000Y-71703050D01*
X185644717Y-71850267D01*
X185587276Y-71988942D01*
X185503884Y-72113747D01*
X185397747Y-72219884D01*
X185272942Y-72303276D01*
X185134267Y-72360717D01*
X184987050Y-72390000D01*
X184836950Y-72390000D01*
X184689733Y-72360717D01*
X184551058Y-72303276D01*
X184426253Y-72219884D01*
X184320116Y-72113747D01*
X184236724Y-71988942D01*
X184179283Y-71850267D01*
X184150000Y-71703050D01*
X184150000Y-71552950D01*
X184179283Y-71405733D01*
X184236724Y-71267058D01*
X184320116Y-71142253D01*
X184426253Y-71036116D01*
X184551058Y-70952724D01*
X184689733Y-70895283D01*
X184836950Y-70866000D01*
X184987050Y-70866000D01*
X185134267Y-70895283D01*
G37*
G36*
X159990489Y-70875349D02*
G01*
X160039715Y-70890281D01*
X160085075Y-70914527D01*
X160124840Y-70947160D01*
X160157473Y-70986925D01*
X160181719Y-71032285D01*
X160196651Y-71081511D01*
X160202000Y-71135817D01*
X160202000Y-72108183D01*
X160196651Y-72162489D01*
X160181719Y-72211715D01*
X160157473Y-72257075D01*
X160124840Y-72296840D01*
X160085075Y-72329473D01*
X160039715Y-72353719D01*
X159990489Y-72368651D01*
X159936183Y-72374000D01*
X157563817Y-72374000D01*
X157509511Y-72368651D01*
X157460285Y-72353719D01*
X157414925Y-72329473D01*
X157375160Y-72296840D01*
X157342527Y-72257075D01*
X157318281Y-72211715D01*
X157303349Y-72162489D01*
X157298000Y-72108183D01*
X157298000Y-71135817D01*
X157303349Y-71081511D01*
X157318281Y-71032285D01*
X157342527Y-70986925D01*
X157375160Y-70947160D01*
X157414925Y-70914527D01*
X157460285Y-70890281D01*
X157509511Y-70875349D01*
X157563817Y-70870000D01*
X159936183Y-70870000D01*
X159990489Y-70875349D01*
G37*
G36*
X164052267Y-70641283D02*
G01*
X164190942Y-70698724D01*
X164315747Y-70782116D01*
X164421884Y-70888253D01*
X164505276Y-71013058D01*
X164562717Y-71151733D01*
X164592000Y-71298950D01*
X164592000Y-71449050D01*
X164562717Y-71596267D01*
X164505276Y-71734942D01*
X164421884Y-71859747D01*
X164315747Y-71965884D01*
X164190942Y-72049276D01*
X164052267Y-72106717D01*
X163905050Y-72136000D01*
X163754950Y-72136000D01*
X163607733Y-72106717D01*
X163469058Y-72049276D01*
X163344253Y-71965884D01*
X163238116Y-71859747D01*
X163154724Y-71734942D01*
X163097283Y-71596267D01*
X163068000Y-71449050D01*
X163068000Y-71298950D01*
X163097283Y-71151733D01*
X163154724Y-71013058D01*
X163238116Y-70888253D01*
X163344253Y-70782116D01*
X163469058Y-70698724D01*
X163607733Y-70641283D01*
X163754950Y-70612000D01*
X163905050Y-70612000D01*
X164052267Y-70641283D01*
G37*
G36*
X147034267Y-70641283D02*
G01*
X147172942Y-70698724D01*
X147297747Y-70782116D01*
X147403884Y-70888253D01*
X147487276Y-71013058D01*
X147544717Y-71151733D01*
X147574000Y-71298950D01*
X147574000Y-71449050D01*
X147544717Y-71596267D01*
X147487276Y-71734942D01*
X147403884Y-71859747D01*
X147297747Y-71965884D01*
X147172942Y-72049276D01*
X147034267Y-72106717D01*
X146887050Y-72136000D01*
X146736950Y-72136000D01*
X146589733Y-72106717D01*
X146451058Y-72049276D01*
X146326253Y-71965884D01*
X146220116Y-71859747D01*
X146136724Y-71734942D01*
X146079283Y-71596267D01*
X146050000Y-71449050D01*
X146050000Y-71298950D01*
X146079283Y-71151733D01*
X146136724Y-71013058D01*
X146220116Y-70888253D01*
X146326253Y-70782116D01*
X146451058Y-70698724D01*
X146589733Y-70641283D01*
X146736950Y-70612000D01*
X146887050Y-70612000D01*
X147034267Y-70641283D01*
G37*
G36*
X149066267Y-70641283D02*
G01*
X149204942Y-70698724D01*
X149329747Y-70782116D01*
X149435884Y-70888253D01*
X149519276Y-71013058D01*
X149576717Y-71151733D01*
X149606000Y-71298950D01*
X149606000Y-71449050D01*
X149576717Y-71596267D01*
X149519276Y-71734942D01*
X149435884Y-71859747D01*
X149329747Y-71965884D01*
X149204942Y-72049276D01*
X149066267Y-72106717D01*
X148919050Y-72136000D01*
X148768950Y-72136000D01*
X148621733Y-72106717D01*
X148483058Y-72049276D01*
X148358253Y-71965884D01*
X148252116Y-71859747D01*
X148168724Y-71734942D01*
X148111283Y-71596267D01*
X148082000Y-71449050D01*
X148082000Y-71298950D01*
X148111283Y-71151733D01*
X148168724Y-71013058D01*
X148252116Y-70888253D01*
X148358253Y-70782116D01*
X148483058Y-70698724D01*
X148621733Y-70641283D01*
X148768950Y-70612000D01*
X148919050Y-70612000D01*
X149066267Y-70641283D01*
G37*
G36*
X145002267Y-70641283D02*
G01*
X145140942Y-70698724D01*
X145265747Y-70782116D01*
X145371884Y-70888253D01*
X145455276Y-71013058D01*
X145512717Y-71151733D01*
X145542000Y-71298950D01*
X145542000Y-71449050D01*
X145512717Y-71596267D01*
X145455276Y-71734942D01*
X145371884Y-71859747D01*
X145265747Y-71965884D01*
X145140942Y-72049276D01*
X145002267Y-72106717D01*
X144855050Y-72136000D01*
X144704950Y-72136000D01*
X144557733Y-72106717D01*
X144419058Y-72049276D01*
X144294253Y-71965884D01*
X144188116Y-71859747D01*
X144104724Y-71734942D01*
X144047283Y-71596267D01*
X144018000Y-71449050D01*
X144018000Y-71298950D01*
X144047283Y-71151733D01*
X144104724Y-71013058D01*
X144188116Y-70888253D01*
X144294253Y-70782116D01*
X144419058Y-70698724D01*
X144557733Y-70641283D01*
X144704950Y-70612000D01*
X144855050Y-70612000D01*
X145002267Y-70641283D01*
G37*
G36*
X152941135Y-67337159D02*
G01*
X153108983Y-67370545D01*
X153286780Y-67444191D01*
X153446800Y-67551113D01*
X153582887Y-67687200D01*
X153689809Y-67847220D01*
X153763455Y-68025017D01*
X153801000Y-68213775D01*
X153801000Y-68406225D01*
X153763455Y-68594983D01*
X153689809Y-68772780D01*
X153582887Y-68932800D01*
X153446800Y-69068887D01*
X153286780Y-69175809D01*
X153108983Y-69249455D01*
X152941135Y-69282841D01*
X152920226Y-69287000D01*
X152727774Y-69287000D01*
X152706865Y-69282841D01*
X152539017Y-69249455D01*
X152361220Y-69175809D01*
X152201200Y-69068887D01*
X152065113Y-68932800D01*
X151958191Y-68772780D01*
X151884545Y-68594983D01*
X151847000Y-68406225D01*
X151847000Y-68213775D01*
X151884545Y-68025017D01*
X151958191Y-67847220D01*
X152065113Y-67687200D01*
X152201200Y-67551113D01*
X152361220Y-67444191D01*
X152539017Y-67370545D01*
X152706865Y-67337159D01*
X152727774Y-67333000D01*
X152920226Y-67333000D01*
X152941135Y-67337159D01*
G37*
G36*
X147861135Y-67337159D02*
G01*
X148028983Y-67370545D01*
X148206780Y-67444191D01*
X148366800Y-67551113D01*
X148502887Y-67687200D01*
X148609809Y-67847220D01*
X148683455Y-68025017D01*
X148721000Y-68213775D01*
X148721000Y-68406225D01*
X148683455Y-68594983D01*
X148609809Y-68772780D01*
X148502887Y-68932800D01*
X148366800Y-69068887D01*
X148206780Y-69175809D01*
X148028983Y-69249455D01*
X147861135Y-69282841D01*
X147840226Y-69287000D01*
X147647774Y-69287000D01*
X147626865Y-69282841D01*
X147459017Y-69249455D01*
X147281220Y-69175809D01*
X147121200Y-69068887D01*
X146985113Y-68932800D01*
X146878191Y-68772780D01*
X146804545Y-68594983D01*
X146767000Y-68406225D01*
X146767000Y-68213775D01*
X146804545Y-68025017D01*
X146878191Y-67847220D01*
X146985113Y-67687200D01*
X147121200Y-67551113D01*
X147281220Y-67444191D01*
X147459017Y-67370545D01*
X147626865Y-67337159D01*
X147647774Y-67333000D01*
X147840226Y-67333000D01*
X147861135Y-67337159D01*
G37*
G36*
X175801135Y-67337159D02*
G01*
X175968983Y-67370545D01*
X176146780Y-67444191D01*
X176306800Y-67551113D01*
X176442887Y-67687200D01*
X176549809Y-67847220D01*
X176623455Y-68025017D01*
X176661000Y-68213775D01*
X176661000Y-68406225D01*
X176623455Y-68594983D01*
X176549809Y-68772780D01*
X176442887Y-68932800D01*
X176306800Y-69068887D01*
X176146780Y-69175809D01*
X175968983Y-69249455D01*
X175801135Y-69282841D01*
X175780226Y-69287000D01*
X175587774Y-69287000D01*
X175566865Y-69282841D01*
X175399017Y-69249455D01*
X175221220Y-69175809D01*
X175061200Y-69068887D01*
X174925113Y-68932800D01*
X174818191Y-68772780D01*
X174744545Y-68594983D01*
X174707000Y-68406225D01*
X174707000Y-68213775D01*
X174744545Y-68025017D01*
X174818191Y-67847220D01*
X174925113Y-67687200D01*
X175061200Y-67551113D01*
X175221220Y-67444191D01*
X175399017Y-67370545D01*
X175566865Y-67337159D01*
X175587774Y-67333000D01*
X175780226Y-67333000D01*
X175801135Y-67337159D01*
G37*
G36*
X150401135Y-67337159D02*
G01*
X150568983Y-67370545D01*
X150746780Y-67444191D01*
X150906800Y-67551113D01*
X151042887Y-67687200D01*
X151149809Y-67847220D01*
X151223455Y-68025017D01*
X151261000Y-68213775D01*
X151261000Y-68406225D01*
X151223455Y-68594983D01*
X151149809Y-68772780D01*
X151042887Y-68932800D01*
X150906800Y-69068887D01*
X150746780Y-69175809D01*
X150568983Y-69249455D01*
X150401135Y-69282841D01*
X150380226Y-69287000D01*
X150187774Y-69287000D01*
X150166865Y-69282841D01*
X149999017Y-69249455D01*
X149821220Y-69175809D01*
X149661200Y-69068887D01*
X149525113Y-68932800D01*
X149418191Y-68772780D01*
X149344545Y-68594983D01*
X149307000Y-68406225D01*
X149307000Y-68213775D01*
X149344545Y-68025017D01*
X149418191Y-67847220D01*
X149525113Y-67687200D01*
X149661200Y-67551113D01*
X149821220Y-67444191D01*
X149999017Y-67370545D01*
X150166865Y-67337159D01*
X150187774Y-67333000D01*
X150380226Y-67333000D01*
X150401135Y-67337159D01*
G37*
G36*
X142781135Y-67337159D02*
G01*
X142948983Y-67370545D01*
X143126780Y-67444191D01*
X143286800Y-67551113D01*
X143422887Y-67687200D01*
X143529809Y-67847220D01*
X143603455Y-68025017D01*
X143641000Y-68213775D01*
X143641000Y-68406225D01*
X143603455Y-68594983D01*
X143529809Y-68772780D01*
X143422887Y-68932800D01*
X143286800Y-69068887D01*
X143126780Y-69175809D01*
X142948983Y-69249455D01*
X142781135Y-69282841D01*
X142760226Y-69287000D01*
X142567774Y-69287000D01*
X142546865Y-69282841D01*
X142379017Y-69249455D01*
X142201220Y-69175809D01*
X142041200Y-69068887D01*
X141905113Y-68932800D01*
X141798191Y-68772780D01*
X141724545Y-68594983D01*
X141687000Y-68406225D01*
X141687000Y-68213775D01*
X141724545Y-68025017D01*
X141798191Y-67847220D01*
X141905113Y-67687200D01*
X142041200Y-67551113D01*
X142201220Y-67444191D01*
X142379017Y-67370545D01*
X142546865Y-67337159D01*
X142567774Y-67333000D01*
X142760226Y-67333000D01*
X142781135Y-67337159D01*
G37*
G36*
X145321135Y-67337159D02*
G01*
X145488983Y-67370545D01*
X145666780Y-67444191D01*
X145826800Y-67551113D01*
X145962887Y-67687200D01*
X146069809Y-67847220D01*
X146143455Y-68025017D01*
X146181000Y-68213775D01*
X146181000Y-68406225D01*
X146143455Y-68594983D01*
X146069809Y-68772780D01*
X145962887Y-68932800D01*
X145826800Y-69068887D01*
X145666780Y-69175809D01*
X145488983Y-69249455D01*
X145321135Y-69282841D01*
X145300226Y-69287000D01*
X145107774Y-69287000D01*
X145086865Y-69282841D01*
X144919017Y-69249455D01*
X144741220Y-69175809D01*
X144581200Y-69068887D01*
X144445113Y-68932800D01*
X144338191Y-68772780D01*
X144264545Y-68594983D01*
X144227000Y-68406225D01*
X144227000Y-68213775D01*
X144264545Y-68025017D01*
X144338191Y-67847220D01*
X144445113Y-67687200D01*
X144581200Y-67551113D01*
X144741220Y-67444191D01*
X144919017Y-67370545D01*
X145086865Y-67337159D01*
X145107774Y-67333000D01*
X145300226Y-67333000D01*
X145321135Y-67337159D01*
G37*
G36*
X165641135Y-67337159D02*
G01*
X165808983Y-67370545D01*
X165986780Y-67444191D01*
X166146800Y-67551113D01*
X166282887Y-67687200D01*
X166389809Y-67847220D01*
X166463455Y-68025017D01*
X166501000Y-68213775D01*
X166501000Y-68406225D01*
X166463455Y-68594983D01*
X166389809Y-68772780D01*
X166282887Y-68932800D01*
X166146800Y-69068887D01*
X165986780Y-69175809D01*
X165808983Y-69249455D01*
X165641135Y-69282841D01*
X165620226Y-69287000D01*
X165427774Y-69287000D01*
X165406865Y-69282841D01*
X165239017Y-69249455D01*
X165061220Y-69175809D01*
X164901200Y-69068887D01*
X164765113Y-68932800D01*
X164658191Y-68772780D01*
X164584545Y-68594983D01*
X164547000Y-68406225D01*
X164547000Y-68213775D01*
X164584545Y-68025017D01*
X164658191Y-67847220D01*
X164765113Y-67687200D01*
X164901200Y-67551113D01*
X165061220Y-67444191D01*
X165239017Y-67370545D01*
X165406865Y-67337159D01*
X165427774Y-67333000D01*
X165620226Y-67333000D01*
X165641135Y-67337159D01*
G37*
G36*
X132621135Y-67337159D02*
G01*
X132788983Y-67370545D01*
X132966780Y-67444191D01*
X133126800Y-67551113D01*
X133262887Y-67687200D01*
X133369809Y-67847220D01*
X133443455Y-68025017D01*
X133481000Y-68213775D01*
X133481000Y-68406225D01*
X133443455Y-68594983D01*
X133369809Y-68772780D01*
X133262887Y-68932800D01*
X133126800Y-69068887D01*
X132966780Y-69175809D01*
X132788983Y-69249455D01*
X132621135Y-69282841D01*
X132600226Y-69287000D01*
X132407774Y-69287000D01*
X132386865Y-69282841D01*
X132219017Y-69249455D01*
X132041220Y-69175809D01*
X131881200Y-69068887D01*
X131745113Y-68932800D01*
X131638191Y-68772780D01*
X131564545Y-68594983D01*
X131527000Y-68406225D01*
X131527000Y-68213775D01*
X131564545Y-68025017D01*
X131638191Y-67847220D01*
X131745113Y-67687200D01*
X131881200Y-67551113D01*
X132041220Y-67444191D01*
X132219017Y-67370545D01*
X132386865Y-67337159D01*
X132407774Y-67333000D01*
X132600226Y-67333000D01*
X132621135Y-67337159D01*
G37*
G36*
X140241135Y-67337159D02*
G01*
X140408983Y-67370545D01*
X140586780Y-67444191D01*
X140746800Y-67551113D01*
X140882887Y-67687200D01*
X140989809Y-67847220D01*
X141063455Y-68025017D01*
X141101000Y-68213775D01*
X141101000Y-68406225D01*
X141063455Y-68594983D01*
X140989809Y-68772780D01*
X140882887Y-68932800D01*
X140746800Y-69068887D01*
X140586780Y-69175809D01*
X140408983Y-69249455D01*
X140241135Y-69282841D01*
X140220226Y-69287000D01*
X140027774Y-69287000D01*
X140006865Y-69282841D01*
X139839017Y-69249455D01*
X139661220Y-69175809D01*
X139501200Y-69068887D01*
X139365113Y-68932800D01*
X139258191Y-68772780D01*
X139184545Y-68594983D01*
X139147000Y-68406225D01*
X139147000Y-68213775D01*
X139184545Y-68025017D01*
X139258191Y-67847220D01*
X139365113Y-67687200D01*
X139501200Y-67551113D01*
X139661220Y-67444191D01*
X139839017Y-67370545D01*
X140006865Y-67337159D01*
X140027774Y-67333000D01*
X140220226Y-67333000D01*
X140241135Y-67337159D01*
G37*
G36*
X163101135Y-67337159D02*
G01*
X163268983Y-67370545D01*
X163446780Y-67444191D01*
X163606800Y-67551113D01*
X163742887Y-67687200D01*
X163849809Y-67847220D01*
X163923455Y-68025017D01*
X163961000Y-68213775D01*
X163961000Y-68406225D01*
X163923455Y-68594983D01*
X163849809Y-68772780D01*
X163742887Y-68932800D01*
X163606800Y-69068887D01*
X163446780Y-69175809D01*
X163268983Y-69249455D01*
X163101135Y-69282841D01*
X163080226Y-69287000D01*
X162887774Y-69287000D01*
X162866865Y-69282841D01*
X162699017Y-69249455D01*
X162521220Y-69175809D01*
X162361200Y-69068887D01*
X162225113Y-68932800D01*
X162118191Y-68772780D01*
X162044545Y-68594983D01*
X162007000Y-68406225D01*
X162007000Y-68213775D01*
X162044545Y-68025017D01*
X162118191Y-67847220D01*
X162225113Y-67687200D01*
X162361200Y-67551113D01*
X162521220Y-67444191D01*
X162699017Y-67370545D01*
X162866865Y-67337159D01*
X162887774Y-67333000D01*
X163080226Y-67333000D01*
X163101135Y-67337159D01*
G37*
G36*
X170721135Y-67337159D02*
G01*
X170888983Y-67370545D01*
X171066780Y-67444191D01*
X171226800Y-67551113D01*
X171362887Y-67687200D01*
X171469809Y-67847220D01*
X171543455Y-68025017D01*
X171581000Y-68213775D01*
X171581000Y-68406225D01*
X171543455Y-68594983D01*
X171469809Y-68772780D01*
X171362887Y-68932800D01*
X171226800Y-69068887D01*
X171066780Y-69175809D01*
X170888983Y-69249455D01*
X170721135Y-69282841D01*
X170700226Y-69287000D01*
X170507774Y-69287000D01*
X170486865Y-69282841D01*
X170319017Y-69249455D01*
X170141220Y-69175809D01*
X169981200Y-69068887D01*
X169845113Y-68932800D01*
X169738191Y-68772780D01*
X169664545Y-68594983D01*
X169627000Y-68406225D01*
X169627000Y-68213775D01*
X169664545Y-68025017D01*
X169738191Y-67847220D01*
X169845113Y-67687200D01*
X169981200Y-67551113D01*
X170141220Y-67444191D01*
X170319017Y-67370545D01*
X170486865Y-67337159D01*
X170507774Y-67333000D01*
X170700226Y-67333000D01*
X170721135Y-67337159D01*
G37*
G36*
X160561135Y-67337159D02*
G01*
X160728983Y-67370545D01*
X160906780Y-67444191D01*
X161066800Y-67551113D01*
X161202887Y-67687200D01*
X161309809Y-67847220D01*
X161383455Y-68025017D01*
X161421000Y-68213775D01*
X161421000Y-68406225D01*
X161383455Y-68594983D01*
X161309809Y-68772780D01*
X161202887Y-68932800D01*
X161066800Y-69068887D01*
X160906780Y-69175809D01*
X160728983Y-69249455D01*
X160561135Y-69282841D01*
X160540226Y-69287000D01*
X160347774Y-69287000D01*
X160326865Y-69282841D01*
X160159017Y-69249455D01*
X159981220Y-69175809D01*
X159821200Y-69068887D01*
X159685113Y-68932800D01*
X159578191Y-68772780D01*
X159504545Y-68594983D01*
X159467000Y-68406225D01*
X159467000Y-68213775D01*
X159504545Y-68025017D01*
X159578191Y-67847220D01*
X159685113Y-67687200D01*
X159821200Y-67551113D01*
X159981220Y-67444191D01*
X160159017Y-67370545D01*
X160326865Y-67337159D01*
X160347774Y-67333000D01*
X160540226Y-67333000D01*
X160561135Y-67337159D01*
G37*
G36*
X158021135Y-67337159D02*
G01*
X158188983Y-67370545D01*
X158366780Y-67444191D01*
X158526800Y-67551113D01*
X158662887Y-67687200D01*
X158769809Y-67847220D01*
X158843455Y-68025017D01*
X158881000Y-68213775D01*
X158881000Y-68406225D01*
X158843455Y-68594983D01*
X158769809Y-68772780D01*
X158662887Y-68932800D01*
X158526800Y-69068887D01*
X158366780Y-69175809D01*
X158188983Y-69249455D01*
X158021135Y-69282841D01*
X158000226Y-69287000D01*
X157807774Y-69287000D01*
X157786865Y-69282841D01*
X157619017Y-69249455D01*
X157441220Y-69175809D01*
X157281200Y-69068887D01*
X157145113Y-68932800D01*
X157038191Y-68772780D01*
X156964545Y-68594983D01*
X156927000Y-68406225D01*
X156927000Y-68213775D01*
X156964545Y-68025017D01*
X157038191Y-67847220D01*
X157145113Y-67687200D01*
X157281200Y-67551113D01*
X157441220Y-67444191D01*
X157619017Y-67370545D01*
X157786865Y-67337159D01*
X157807774Y-67333000D01*
X158000226Y-67333000D01*
X158021135Y-67337159D01*
G37*
G36*
X155481135Y-67337159D02*
G01*
X155648983Y-67370545D01*
X155826780Y-67444191D01*
X155986800Y-67551113D01*
X156122887Y-67687200D01*
X156229809Y-67847220D01*
X156303455Y-68025017D01*
X156341000Y-68213775D01*
X156341000Y-68406225D01*
X156303455Y-68594983D01*
X156229809Y-68772780D01*
X156122887Y-68932800D01*
X155986800Y-69068887D01*
X155826780Y-69175809D01*
X155648983Y-69249455D01*
X155481135Y-69282841D01*
X155460226Y-69287000D01*
X155267774Y-69287000D01*
X155246865Y-69282841D01*
X155079017Y-69249455D01*
X154901220Y-69175809D01*
X154741200Y-69068887D01*
X154605113Y-68932800D01*
X154498191Y-68772780D01*
X154424545Y-68594983D01*
X154387000Y-68406225D01*
X154387000Y-68213775D01*
X154424545Y-68025017D01*
X154498191Y-67847220D01*
X154605113Y-67687200D01*
X154741200Y-67551113D01*
X154901220Y-67444191D01*
X155079017Y-67370545D01*
X155246865Y-67337159D01*
X155267774Y-67333000D01*
X155460226Y-67333000D01*
X155481135Y-67337159D01*
G37*
G36*
X178341135Y-67337159D02*
G01*
X178508983Y-67370545D01*
X178686780Y-67444191D01*
X178846800Y-67551113D01*
X178982887Y-67687200D01*
X179089809Y-67847220D01*
X179163455Y-68025017D01*
X179201000Y-68213775D01*
X179201000Y-68406225D01*
X179163455Y-68594983D01*
X179089809Y-68772780D01*
X178982887Y-68932800D01*
X178846800Y-69068887D01*
X178686780Y-69175809D01*
X178508983Y-69249455D01*
X178341135Y-69282841D01*
X178320226Y-69287000D01*
X178127774Y-69287000D01*
X178106865Y-69282841D01*
X177939017Y-69249455D01*
X177761220Y-69175809D01*
X177601200Y-69068887D01*
X177465113Y-68932800D01*
X177358191Y-68772780D01*
X177284545Y-68594983D01*
X177247000Y-68406225D01*
X177247000Y-68213775D01*
X177284545Y-68025017D01*
X177358191Y-67847220D01*
X177465113Y-67687200D01*
X177601200Y-67551113D01*
X177761220Y-67444191D01*
X177939017Y-67370545D01*
X178106865Y-67337159D01*
X178127774Y-67333000D01*
X178320226Y-67333000D01*
X178341135Y-67337159D01*
G37*
G36*
X173261135Y-67337159D02*
G01*
X173428983Y-67370545D01*
X173606780Y-67444191D01*
X173766800Y-67551113D01*
X173902887Y-67687200D01*
X174009809Y-67847220D01*
X174083455Y-68025017D01*
X174121000Y-68213775D01*
X174121000Y-68406225D01*
X174083455Y-68594983D01*
X174009809Y-68772780D01*
X173902887Y-68932800D01*
X173766800Y-69068887D01*
X173606780Y-69175809D01*
X173428983Y-69249455D01*
X173261135Y-69282841D01*
X173240226Y-69287000D01*
X173047774Y-69287000D01*
X173026865Y-69282841D01*
X172859017Y-69249455D01*
X172681220Y-69175809D01*
X172521200Y-69068887D01*
X172385113Y-68932800D01*
X172278191Y-68772780D01*
X172204545Y-68594983D01*
X172167000Y-68406225D01*
X172167000Y-68213775D01*
X172204545Y-68025017D01*
X172278191Y-67847220D01*
X172385113Y-67687200D01*
X172521200Y-67551113D01*
X172681220Y-67444191D01*
X172859017Y-67370545D01*
X173026865Y-67337159D01*
X173047774Y-67333000D01*
X173240226Y-67333000D01*
X173261135Y-67337159D01*
G37*
G36*
X137701135Y-67337159D02*
G01*
X137868983Y-67370545D01*
X138046780Y-67444191D01*
X138206800Y-67551113D01*
X138342887Y-67687200D01*
X138449809Y-67847220D01*
X138523455Y-68025017D01*
X138561000Y-68213775D01*
X138561000Y-68406225D01*
X138523455Y-68594983D01*
X138449809Y-68772780D01*
X138342887Y-68932800D01*
X138206800Y-69068887D01*
X138046780Y-69175809D01*
X137868983Y-69249455D01*
X137701135Y-69282841D01*
X137680226Y-69287000D01*
X137487774Y-69287000D01*
X137466865Y-69282841D01*
X137299017Y-69249455D01*
X137121220Y-69175809D01*
X136961200Y-69068887D01*
X136825113Y-68932800D01*
X136718191Y-68772780D01*
X136644545Y-68594983D01*
X136607000Y-68406225D01*
X136607000Y-68213775D01*
X136644545Y-68025017D01*
X136718191Y-67847220D01*
X136825113Y-67687200D01*
X136961200Y-67551113D01*
X137121220Y-67444191D01*
X137299017Y-67370545D01*
X137466865Y-67337159D01*
X137487774Y-67333000D01*
X137680226Y-67333000D01*
X137701135Y-67337159D01*
G37*
G36*
X168181135Y-67337159D02*
G01*
X168348983Y-67370545D01*
X168526780Y-67444191D01*
X168686800Y-67551113D01*
X168822887Y-67687200D01*
X168929809Y-67847220D01*
X169003455Y-68025017D01*
X169041000Y-68213775D01*
X169041000Y-68406225D01*
X169003455Y-68594983D01*
X168929809Y-68772780D01*
X168822887Y-68932800D01*
X168686800Y-69068887D01*
X168526780Y-69175809D01*
X168348983Y-69249455D01*
X168181135Y-69282841D01*
X168160226Y-69287000D01*
X167967774Y-69287000D01*
X167946865Y-69282841D01*
X167779017Y-69249455D01*
X167601220Y-69175809D01*
X167441200Y-69068887D01*
X167305113Y-68932800D01*
X167198191Y-68772780D01*
X167124545Y-68594983D01*
X167087000Y-68406225D01*
X167087000Y-68213775D01*
X167124545Y-68025017D01*
X167198191Y-67847220D01*
X167305113Y-67687200D01*
X167441200Y-67551113D01*
X167601220Y-67444191D01*
X167779017Y-67370545D01*
X167946865Y-67337159D01*
X167967774Y-67333000D01*
X168160226Y-67333000D01*
X168181135Y-67337159D01*
G37*
G36*
X135161135Y-67337159D02*
G01*
X135328983Y-67370545D01*
X135506780Y-67444191D01*
X135666800Y-67551113D01*
X135802887Y-67687200D01*
X135909809Y-67847220D01*
X135983455Y-68025017D01*
X136021000Y-68213775D01*
X136021000Y-68406225D01*
X135983455Y-68594983D01*
X135909809Y-68772780D01*
X135802887Y-68932800D01*
X135666800Y-69068887D01*
X135506780Y-69175809D01*
X135328983Y-69249455D01*
X135161135Y-69282841D01*
X135140226Y-69287000D01*
X134947774Y-69287000D01*
X134926865Y-69282841D01*
X134759017Y-69249455D01*
X134581220Y-69175809D01*
X134421200Y-69068887D01*
X134285113Y-68932800D01*
X134178191Y-68772780D01*
X134104545Y-68594983D01*
X134067000Y-68406225D01*
X134067000Y-68213775D01*
X134104545Y-68025017D01*
X134178191Y-67847220D01*
X134285113Y-67687200D01*
X134421200Y-67551113D01*
X134581220Y-67444191D01*
X134759017Y-67370545D01*
X134926865Y-67337159D01*
X134947774Y-67333000D01*
X135140226Y-67333000D01*
X135161135Y-67337159D01*
G37*
G36*
X183612332Y-65331289D02*
G01*
X183612334Y-65331290D01*
X183612335Y-65331290D01*
X183935726Y-65465243D01*
X184226766Y-65659710D01*
X184226768Y-65659712D01*
X184226771Y-65659714D01*
X184474286Y-65907229D01*
X184474288Y-65907232D01*
X184474290Y-65907234D01*
X184668757Y-66198274D01*
X184802710Y-66521665D01*
X184802711Y-66521668D01*
X184871000Y-66864981D01*
X184871000Y-67215019D01*
X184804147Y-67551115D01*
X184802710Y-67558335D01*
X184668757Y-67881726D01*
X184474290Y-68172766D01*
X184474288Y-68172768D01*
X184474286Y-68172771D01*
X184226771Y-68420286D01*
X184226768Y-68420288D01*
X184226766Y-68420290D01*
X183935726Y-68614757D01*
X183612335Y-68748710D01*
X183612334Y-68748710D01*
X183612332Y-68748711D01*
X183269019Y-68817000D01*
X182918981Y-68817000D01*
X182575668Y-68748711D01*
X182575666Y-68748710D01*
X182575665Y-68748710D01*
X182252274Y-68614757D01*
X181961234Y-68420290D01*
X181961232Y-68420288D01*
X181961229Y-68420286D01*
X181713714Y-68172771D01*
X181713712Y-68172768D01*
X181713710Y-68172766D01*
X181519243Y-67881726D01*
X181385290Y-67558335D01*
X181383854Y-67551115D01*
X181317000Y-67215019D01*
X181317000Y-66864981D01*
X181385289Y-66521668D01*
X181385290Y-66521665D01*
X181519243Y-66198274D01*
X181713710Y-65907234D01*
X181713712Y-65907232D01*
X181713714Y-65907229D01*
X181961229Y-65659714D01*
X181961232Y-65659712D01*
X181961234Y-65659710D01*
X182252274Y-65465243D01*
X182575665Y-65331290D01*
X182575666Y-65331290D01*
X182575668Y-65331289D01*
X182918981Y-65263000D01*
X183269019Y-65263000D01*
X183612332Y-65331289D01*
G37*
G36*
X125612332Y-65331289D02*
G01*
X125612334Y-65331290D01*
X125612335Y-65331290D01*
X125935726Y-65465243D01*
X126226766Y-65659710D01*
X126226768Y-65659712D01*
X126226771Y-65659714D01*
X126474286Y-65907229D01*
X126474288Y-65907232D01*
X126474290Y-65907234D01*
X126668757Y-66198274D01*
X126802710Y-66521665D01*
X126802711Y-66521668D01*
X126871000Y-66864981D01*
X126871000Y-67215019D01*
X126804147Y-67551115D01*
X126802710Y-67558335D01*
X126668757Y-67881726D01*
X126474290Y-68172766D01*
X126474288Y-68172768D01*
X126474286Y-68172771D01*
X126226771Y-68420286D01*
X126226768Y-68420288D01*
X126226766Y-68420290D01*
X125935726Y-68614757D01*
X125612335Y-68748710D01*
X125612334Y-68748710D01*
X125612332Y-68748711D01*
X125269019Y-68817000D01*
X124918981Y-68817000D01*
X124575668Y-68748711D01*
X124575666Y-68748710D01*
X124575665Y-68748710D01*
X124252274Y-68614757D01*
X123961234Y-68420290D01*
X123961232Y-68420288D01*
X123961229Y-68420286D01*
X123713714Y-68172771D01*
X123713712Y-68172768D01*
X123713710Y-68172766D01*
X123519243Y-67881726D01*
X123385290Y-67558335D01*
X123383854Y-67551115D01*
X123317000Y-67215019D01*
X123317000Y-66864981D01*
X123385289Y-66521668D01*
X123385290Y-66521665D01*
X123519243Y-66198274D01*
X123713710Y-65907234D01*
X123713712Y-65907232D01*
X123713714Y-65907229D01*
X123961229Y-65659714D01*
X123961232Y-65659712D01*
X123961234Y-65659710D01*
X124252274Y-65465243D01*
X124575665Y-65331290D01*
X124575666Y-65331290D01*
X124575668Y-65331289D01*
X124918981Y-65263000D01*
X125269019Y-65263000D01*
X125612332Y-65331289D01*
G37*
G36*
X130081135Y-64797159D02*
G01*
X130248983Y-64830545D01*
X130426780Y-64904191D01*
X130586800Y-65011113D01*
X130722887Y-65147200D01*
X130829809Y-65307220D01*
X130903455Y-65485017D01*
X130941000Y-65673775D01*
X130941000Y-65866225D01*
X130903455Y-66054983D01*
X130829809Y-66232780D01*
X130722887Y-66392800D01*
X130586800Y-66528887D01*
X130426780Y-66635809D01*
X130248983Y-66709455D01*
X130081135Y-66742841D01*
X130060226Y-66747000D01*
X129867774Y-66747000D01*
X129846865Y-66742841D01*
X129679017Y-66709455D01*
X129501220Y-66635809D01*
X129341200Y-66528887D01*
X129205113Y-66392800D01*
X129098191Y-66232780D01*
X129024545Y-66054983D01*
X128987000Y-65866225D01*
X128987000Y-65673775D01*
X129024545Y-65485017D01*
X129098191Y-65307220D01*
X129205113Y-65147200D01*
X129341200Y-65011113D01*
X129501220Y-64904191D01*
X129679017Y-64830545D01*
X129846865Y-64797159D01*
X129867774Y-64793000D01*
X130060226Y-64793000D01*
X130081135Y-64797159D01*
G37*
G36*
X132621135Y-64797159D02*
G01*
X132788983Y-64830545D01*
X132966780Y-64904191D01*
X133126800Y-65011113D01*
X133262887Y-65147200D01*
X133369809Y-65307220D01*
X133443455Y-65485017D01*
X133481000Y-65673775D01*
X133481000Y-65866225D01*
X133443455Y-66054983D01*
X133369809Y-66232780D01*
X133262887Y-66392800D01*
X133126800Y-66528887D01*
X132966780Y-66635809D01*
X132788983Y-66709455D01*
X132621135Y-66742841D01*
X132600226Y-66747000D01*
X132407774Y-66747000D01*
X132386865Y-66742841D01*
X132219017Y-66709455D01*
X132041220Y-66635809D01*
X131881200Y-66528887D01*
X131745113Y-66392800D01*
X131638191Y-66232780D01*
X131564545Y-66054983D01*
X131527000Y-65866225D01*
X131527000Y-65673775D01*
X131564545Y-65485017D01*
X131638191Y-65307220D01*
X131745113Y-65147200D01*
X131881200Y-65011113D01*
X132041220Y-64904191D01*
X132219017Y-64830545D01*
X132386865Y-64797159D01*
X132407774Y-64793000D01*
X132600226Y-64793000D01*
X132621135Y-64797159D01*
G37*
G36*
X135161135Y-64797159D02*
G01*
X135328983Y-64830545D01*
X135506780Y-64904191D01*
X135666800Y-65011113D01*
X135802887Y-65147200D01*
X135909809Y-65307220D01*
X135983455Y-65485017D01*
X136021000Y-65673775D01*
X136021000Y-65866225D01*
X135983455Y-66054983D01*
X135909809Y-66232780D01*
X135802887Y-66392800D01*
X135666800Y-66528887D01*
X135506780Y-66635809D01*
X135328983Y-66709455D01*
X135161135Y-66742841D01*
X135140226Y-66747000D01*
X134947774Y-66747000D01*
X134926865Y-66742841D01*
X134759017Y-66709455D01*
X134581220Y-66635809D01*
X134421200Y-66528887D01*
X134285113Y-66392800D01*
X134178191Y-66232780D01*
X134104545Y-66054983D01*
X134067000Y-65866225D01*
X134067000Y-65673775D01*
X134104545Y-65485017D01*
X134178191Y-65307220D01*
X134285113Y-65147200D01*
X134421200Y-65011113D01*
X134581220Y-64904191D01*
X134759017Y-64830545D01*
X134926865Y-64797159D01*
X134947774Y-64793000D01*
X135140226Y-64793000D01*
X135161135Y-64797159D01*
G37*
G36*
X137701135Y-64797159D02*
G01*
X137868983Y-64830545D01*
X138046780Y-64904191D01*
X138206800Y-65011113D01*
X138342887Y-65147200D01*
X138449809Y-65307220D01*
X138523455Y-65485017D01*
X138561000Y-65673775D01*
X138561000Y-65866225D01*
X138523455Y-66054983D01*
X138449809Y-66232780D01*
X138342887Y-66392800D01*
X138206800Y-66528887D01*
X138046780Y-66635809D01*
X137868983Y-66709455D01*
X137701135Y-66742841D01*
X137680226Y-66747000D01*
X137487774Y-66747000D01*
X137466865Y-66742841D01*
X137299017Y-66709455D01*
X137121220Y-66635809D01*
X136961200Y-66528887D01*
X136825113Y-66392800D01*
X136718191Y-66232780D01*
X136644545Y-66054983D01*
X136607000Y-65866225D01*
X136607000Y-65673775D01*
X136644545Y-65485017D01*
X136718191Y-65307220D01*
X136825113Y-65147200D01*
X136961200Y-65011113D01*
X137121220Y-64904191D01*
X137299017Y-64830545D01*
X137466865Y-64797159D01*
X137487774Y-64793000D01*
X137680226Y-64793000D01*
X137701135Y-64797159D01*
G37*
G36*
X140241135Y-64797159D02*
G01*
X140408983Y-64830545D01*
X140586780Y-64904191D01*
X140746800Y-65011113D01*
X140882887Y-65147200D01*
X140989809Y-65307220D01*
X141063455Y-65485017D01*
X141101000Y-65673775D01*
X141101000Y-65866225D01*
X141063455Y-66054983D01*
X140989809Y-66232780D01*
X140882887Y-66392800D01*
X140746800Y-66528887D01*
X140586780Y-66635809D01*
X140408983Y-66709455D01*
X140241135Y-66742841D01*
X140220226Y-66747000D01*
X140027774Y-66747000D01*
X140006865Y-66742841D01*
X139839017Y-66709455D01*
X139661220Y-66635809D01*
X139501200Y-66528887D01*
X139365113Y-66392800D01*
X139258191Y-66232780D01*
X139184545Y-66054983D01*
X139147000Y-65866225D01*
X139147000Y-65673775D01*
X139184545Y-65485017D01*
X139258191Y-65307220D01*
X139365113Y-65147200D01*
X139501200Y-65011113D01*
X139661220Y-64904191D01*
X139839017Y-64830545D01*
X140006865Y-64797159D01*
X140027774Y-64793000D01*
X140220226Y-64793000D01*
X140241135Y-64797159D01*
G37*
G36*
X173261135Y-64797159D02*
G01*
X173428983Y-64830545D01*
X173606780Y-64904191D01*
X173766800Y-65011113D01*
X173902887Y-65147200D01*
X174009809Y-65307220D01*
X174083455Y-65485017D01*
X174121000Y-65673775D01*
X174121000Y-65866225D01*
X174083455Y-66054983D01*
X174009809Y-66232780D01*
X173902887Y-66392800D01*
X173766800Y-66528887D01*
X173606780Y-66635809D01*
X173428983Y-66709455D01*
X173261135Y-66742841D01*
X173240226Y-66747000D01*
X173047774Y-66747000D01*
X173026865Y-66742841D01*
X172859017Y-66709455D01*
X172681220Y-66635809D01*
X172521200Y-66528887D01*
X172385113Y-66392800D01*
X172278191Y-66232780D01*
X172204545Y-66054983D01*
X172167000Y-65866225D01*
X172167000Y-65673775D01*
X172204545Y-65485017D01*
X172278191Y-65307220D01*
X172385113Y-65147200D01*
X172521200Y-65011113D01*
X172681220Y-64904191D01*
X172859017Y-64830545D01*
X173026865Y-64797159D01*
X173047774Y-64793000D01*
X173240226Y-64793000D01*
X173261135Y-64797159D01*
G37*
G36*
X175801135Y-64797159D02*
G01*
X175968983Y-64830545D01*
X176146780Y-64904191D01*
X176306800Y-65011113D01*
X176442887Y-65147200D01*
X176549809Y-65307220D01*
X176623455Y-65485017D01*
X176661000Y-65673775D01*
X176661000Y-65866225D01*
X176623455Y-66054983D01*
X176549809Y-66232780D01*
X176442887Y-66392800D01*
X176306800Y-66528887D01*
X176146780Y-66635809D01*
X175968983Y-66709455D01*
X175801135Y-66742841D01*
X175780226Y-66747000D01*
X175587774Y-66747000D01*
X175566865Y-66742841D01*
X175399017Y-66709455D01*
X175221220Y-66635809D01*
X175061200Y-66528887D01*
X174925113Y-66392800D01*
X174818191Y-66232780D01*
X174744545Y-66054983D01*
X174707000Y-65866225D01*
X174707000Y-65673775D01*
X174744545Y-65485017D01*
X174818191Y-65307220D01*
X174925113Y-65147200D01*
X175061200Y-65011113D01*
X175221220Y-64904191D01*
X175399017Y-64830545D01*
X175566865Y-64797159D01*
X175587774Y-64793000D01*
X175780226Y-64793000D01*
X175801135Y-64797159D01*
G37*
G36*
X150401135Y-64797159D02*
G01*
X150568983Y-64830545D01*
X150746780Y-64904191D01*
X150906800Y-65011113D01*
X151042887Y-65147200D01*
X151149809Y-65307220D01*
X151223455Y-65485017D01*
X151261000Y-65673775D01*
X151261000Y-65866225D01*
X151223455Y-66054983D01*
X151149809Y-66232780D01*
X151042887Y-66392800D01*
X150906800Y-66528887D01*
X150746780Y-66635809D01*
X150568983Y-66709455D01*
X150401135Y-66742841D01*
X150380226Y-66747000D01*
X150187774Y-66747000D01*
X150166865Y-66742841D01*
X149999017Y-66709455D01*
X149821220Y-66635809D01*
X149661200Y-66528887D01*
X149525113Y-66392800D01*
X149418191Y-66232780D01*
X149344545Y-66054983D01*
X149307000Y-65866225D01*
X149307000Y-65673775D01*
X149344545Y-65485017D01*
X149418191Y-65307220D01*
X149525113Y-65147200D01*
X149661200Y-65011113D01*
X149821220Y-64904191D01*
X149999017Y-64830545D01*
X150166865Y-64797159D01*
X150187774Y-64793000D01*
X150380226Y-64793000D01*
X150401135Y-64797159D01*
G37*
G36*
X147861135Y-64797159D02*
G01*
X148028983Y-64830545D01*
X148206780Y-64904191D01*
X148366800Y-65011113D01*
X148502887Y-65147200D01*
X148609809Y-65307220D01*
X148683455Y-65485017D01*
X148721000Y-65673775D01*
X148721000Y-65866225D01*
X148683455Y-66054983D01*
X148609809Y-66232780D01*
X148502887Y-66392800D01*
X148366800Y-66528887D01*
X148206780Y-66635809D01*
X148028983Y-66709455D01*
X147861135Y-66742841D01*
X147840226Y-66747000D01*
X147647774Y-66747000D01*
X147626865Y-66742841D01*
X147459017Y-66709455D01*
X147281220Y-66635809D01*
X147121200Y-66528887D01*
X146985113Y-66392800D01*
X146878191Y-66232780D01*
X146804545Y-66054983D01*
X146767000Y-65866225D01*
X146767000Y-65673775D01*
X146804545Y-65485017D01*
X146878191Y-65307220D01*
X146985113Y-65147200D01*
X147121200Y-65011113D01*
X147281220Y-64904191D01*
X147459017Y-64830545D01*
X147626865Y-64797159D01*
X147647774Y-64793000D01*
X147840226Y-64793000D01*
X147861135Y-64797159D01*
G37*
G36*
X145321135Y-64797159D02*
G01*
X145488983Y-64830545D01*
X145666780Y-64904191D01*
X145826800Y-65011113D01*
X145962887Y-65147200D01*
X146069809Y-65307220D01*
X146143455Y-65485017D01*
X146181000Y-65673775D01*
X146181000Y-65866225D01*
X146143455Y-66054983D01*
X146069809Y-66232780D01*
X145962887Y-66392800D01*
X145826800Y-66528887D01*
X145666780Y-66635809D01*
X145488983Y-66709455D01*
X145321135Y-66742841D01*
X145300226Y-66747000D01*
X145107774Y-66747000D01*
X145086865Y-66742841D01*
X144919017Y-66709455D01*
X144741220Y-66635809D01*
X144581200Y-66528887D01*
X144445113Y-66392800D01*
X144338191Y-66232780D01*
X144264545Y-66054983D01*
X144227000Y-65866225D01*
X144227000Y-65673775D01*
X144264545Y-65485017D01*
X144338191Y-65307220D01*
X144445113Y-65147200D01*
X144581200Y-65011113D01*
X144741220Y-64904191D01*
X144919017Y-64830545D01*
X145086865Y-64797159D01*
X145107774Y-64793000D01*
X145300226Y-64793000D01*
X145321135Y-64797159D01*
G37*
G36*
X152941135Y-64797159D02*
G01*
X153108983Y-64830545D01*
X153286780Y-64904191D01*
X153446800Y-65011113D01*
X153582887Y-65147200D01*
X153689809Y-65307220D01*
X153763455Y-65485017D01*
X153801000Y-65673775D01*
X153801000Y-65866225D01*
X153763455Y-66054983D01*
X153689809Y-66232780D01*
X153582887Y-66392800D01*
X153446800Y-66528887D01*
X153286780Y-66635809D01*
X153108983Y-66709455D01*
X152941135Y-66742841D01*
X152920226Y-66747000D01*
X152727774Y-66747000D01*
X152706865Y-66742841D01*
X152539017Y-66709455D01*
X152361220Y-66635809D01*
X152201200Y-66528887D01*
X152065113Y-66392800D01*
X151958191Y-66232780D01*
X151884545Y-66054983D01*
X151847000Y-65866225D01*
X151847000Y-65673775D01*
X151884545Y-65485017D01*
X151958191Y-65307220D01*
X152065113Y-65147200D01*
X152201200Y-65011113D01*
X152361220Y-64904191D01*
X152539017Y-64830545D01*
X152706865Y-64797159D01*
X152727774Y-64793000D01*
X152920226Y-64793000D01*
X152941135Y-64797159D01*
G37*
G36*
X155481135Y-64797159D02*
G01*
X155648983Y-64830545D01*
X155826780Y-64904191D01*
X155986800Y-65011113D01*
X156122887Y-65147200D01*
X156229809Y-65307220D01*
X156303455Y-65485017D01*
X156341000Y-65673775D01*
X156341000Y-65866225D01*
X156303455Y-66054983D01*
X156229809Y-66232780D01*
X156122887Y-66392800D01*
X155986800Y-66528887D01*
X155826780Y-66635809D01*
X155648983Y-66709455D01*
X155481135Y-66742841D01*
X155460226Y-66747000D01*
X155267774Y-66747000D01*
X155246865Y-66742841D01*
X155079017Y-66709455D01*
X154901220Y-66635809D01*
X154741200Y-66528887D01*
X154605113Y-66392800D01*
X154498191Y-66232780D01*
X154424545Y-66054983D01*
X154387000Y-65866225D01*
X154387000Y-65673775D01*
X154424545Y-65485017D01*
X154498191Y-65307220D01*
X154605113Y-65147200D01*
X154741200Y-65011113D01*
X154901220Y-64904191D01*
X155079017Y-64830545D01*
X155246865Y-64797159D01*
X155267774Y-64793000D01*
X155460226Y-64793000D01*
X155481135Y-64797159D01*
G37*
G36*
X158021135Y-64797159D02*
G01*
X158188983Y-64830545D01*
X158366780Y-64904191D01*
X158526800Y-65011113D01*
X158662887Y-65147200D01*
X158769809Y-65307220D01*
X158843455Y-65485017D01*
X158881000Y-65673775D01*
X158881000Y-65866225D01*
X158843455Y-66054983D01*
X158769809Y-66232780D01*
X158662887Y-66392800D01*
X158526800Y-66528887D01*
X158366780Y-66635809D01*
X158188983Y-66709455D01*
X158021135Y-66742841D01*
X158000226Y-66747000D01*
X157807774Y-66747000D01*
X157786865Y-66742841D01*
X157619017Y-66709455D01*
X157441220Y-66635809D01*
X157281200Y-66528887D01*
X157145113Y-66392800D01*
X157038191Y-66232780D01*
X156964545Y-66054983D01*
X156927000Y-65866225D01*
X156927000Y-65673775D01*
X156964545Y-65485017D01*
X157038191Y-65307220D01*
X157145113Y-65147200D01*
X157281200Y-65011113D01*
X157441220Y-64904191D01*
X157619017Y-64830545D01*
X157786865Y-64797159D01*
X157807774Y-64793000D01*
X158000226Y-64793000D01*
X158021135Y-64797159D01*
G37*
G36*
X160561135Y-64797159D02*
G01*
X160728983Y-64830545D01*
X160906780Y-64904191D01*
X161066800Y-65011113D01*
X161202887Y-65147200D01*
X161309809Y-65307220D01*
X161383455Y-65485017D01*
X161421000Y-65673775D01*
X161421000Y-65866225D01*
X161383455Y-66054983D01*
X161309809Y-66232780D01*
X161202887Y-66392800D01*
X161066800Y-66528887D01*
X160906780Y-66635809D01*
X160728983Y-66709455D01*
X160561135Y-66742841D01*
X160540226Y-66747000D01*
X160347774Y-66747000D01*
X160326865Y-66742841D01*
X160159017Y-66709455D01*
X159981220Y-66635809D01*
X159821200Y-66528887D01*
X159685113Y-66392800D01*
X159578191Y-66232780D01*
X159504545Y-66054983D01*
X159467000Y-65866225D01*
X159467000Y-65673775D01*
X159504545Y-65485017D01*
X159578191Y-65307220D01*
X159685113Y-65147200D01*
X159821200Y-65011113D01*
X159981220Y-64904191D01*
X160159017Y-64830545D01*
X160326865Y-64797159D01*
X160347774Y-64793000D01*
X160540226Y-64793000D01*
X160561135Y-64797159D01*
G37*
G36*
X163101135Y-64797159D02*
G01*
X163268983Y-64830545D01*
X163446780Y-64904191D01*
X163606800Y-65011113D01*
X163742887Y-65147200D01*
X163849809Y-65307220D01*
X163923455Y-65485017D01*
X163961000Y-65673775D01*
X163961000Y-65866225D01*
X163923455Y-66054983D01*
X163849809Y-66232780D01*
X163742887Y-66392800D01*
X163606800Y-66528887D01*
X163446780Y-66635809D01*
X163268983Y-66709455D01*
X163101135Y-66742841D01*
X163080226Y-66747000D01*
X162887774Y-66747000D01*
X162866865Y-66742841D01*
X162699017Y-66709455D01*
X162521220Y-66635809D01*
X162361200Y-66528887D01*
X162225113Y-66392800D01*
X162118191Y-66232780D01*
X162044545Y-66054983D01*
X162007000Y-65866225D01*
X162007000Y-65673775D01*
X162044545Y-65485017D01*
X162118191Y-65307220D01*
X162225113Y-65147200D01*
X162361200Y-65011113D01*
X162521220Y-64904191D01*
X162699017Y-64830545D01*
X162866865Y-64797159D01*
X162887774Y-64793000D01*
X163080226Y-64793000D01*
X163101135Y-64797159D01*
G37*
G36*
X178341135Y-64797159D02*
G01*
X178508983Y-64830545D01*
X178686780Y-64904191D01*
X178846800Y-65011113D01*
X178982887Y-65147200D01*
X179089809Y-65307220D01*
X179163455Y-65485017D01*
X179201000Y-65673775D01*
X179201000Y-65866225D01*
X179163455Y-66054983D01*
X179089809Y-66232780D01*
X178982887Y-66392800D01*
X178846800Y-66528887D01*
X178686780Y-66635809D01*
X178508983Y-66709455D01*
X178341135Y-66742841D01*
X178320226Y-66747000D01*
X178127774Y-66747000D01*
X178106865Y-66742841D01*
X177939017Y-66709455D01*
X177761220Y-66635809D01*
X177601200Y-66528887D01*
X177465113Y-66392800D01*
X177358191Y-66232780D01*
X177284545Y-66054983D01*
X177247000Y-65866225D01*
X177247000Y-65673775D01*
X177284545Y-65485017D01*
X177358191Y-65307220D01*
X177465113Y-65147200D01*
X177601200Y-65011113D01*
X177761220Y-64904191D01*
X177939017Y-64830545D01*
X178106865Y-64797159D01*
X178127774Y-64793000D01*
X178320226Y-64793000D01*
X178341135Y-64797159D01*
G37*
G36*
X165641135Y-64797159D02*
G01*
X165808983Y-64830545D01*
X165986780Y-64904191D01*
X166146800Y-65011113D01*
X166282887Y-65147200D01*
X166389809Y-65307220D01*
X166463455Y-65485017D01*
X166501000Y-65673775D01*
X166501000Y-65866225D01*
X166463455Y-66054983D01*
X166389809Y-66232780D01*
X166282887Y-66392800D01*
X166146800Y-66528887D01*
X165986780Y-66635809D01*
X165808983Y-66709455D01*
X165641135Y-66742841D01*
X165620226Y-66747000D01*
X165427774Y-66747000D01*
X165406865Y-66742841D01*
X165239017Y-66709455D01*
X165061220Y-66635809D01*
X164901200Y-66528887D01*
X164765113Y-66392800D01*
X164658191Y-66232780D01*
X164584545Y-66054983D01*
X164547000Y-65866225D01*
X164547000Y-65673775D01*
X164584545Y-65485017D01*
X164658191Y-65307220D01*
X164765113Y-65147200D01*
X164901200Y-65011113D01*
X165061220Y-64904191D01*
X165239017Y-64830545D01*
X165406865Y-64797159D01*
X165427774Y-64793000D01*
X165620226Y-64793000D01*
X165641135Y-64797159D01*
G37*
G36*
X168181135Y-64797159D02*
G01*
X168348983Y-64830545D01*
X168526780Y-64904191D01*
X168686800Y-65011113D01*
X168822887Y-65147200D01*
X168929809Y-65307220D01*
X169003455Y-65485017D01*
X169041000Y-65673775D01*
X169041000Y-65866225D01*
X169003455Y-66054983D01*
X168929809Y-66232780D01*
X168822887Y-66392800D01*
X168686800Y-66528887D01*
X168526780Y-66635809D01*
X168348983Y-66709455D01*
X168181135Y-66742841D01*
X168160226Y-66747000D01*
X167967774Y-66747000D01*
X167946865Y-66742841D01*
X167779017Y-66709455D01*
X167601220Y-66635809D01*
X167441200Y-66528887D01*
X167305113Y-66392800D01*
X167198191Y-66232780D01*
X167124545Y-66054983D01*
X167087000Y-65866225D01*
X167087000Y-65673775D01*
X167124545Y-65485017D01*
X167198191Y-65307220D01*
X167305113Y-65147200D01*
X167441200Y-65011113D01*
X167601220Y-64904191D01*
X167779017Y-64830545D01*
X167946865Y-64797159D01*
X167967774Y-64793000D01*
X168160226Y-64793000D01*
X168181135Y-64797159D01*
G37*
G36*
X142781135Y-64797159D02*
G01*
X142948983Y-64830545D01*
X143126780Y-64904191D01*
X143286800Y-65011113D01*
X143422887Y-65147200D01*
X143529809Y-65307220D01*
X143603455Y-65485017D01*
X143641000Y-65673775D01*
X143641000Y-65866225D01*
X143603455Y-66054983D01*
X143529809Y-66232780D01*
X143422887Y-66392800D01*
X143286800Y-66528887D01*
X143126780Y-66635809D01*
X142948983Y-66709455D01*
X142781135Y-66742841D01*
X142760226Y-66747000D01*
X142567774Y-66747000D01*
X142546865Y-66742841D01*
X142379017Y-66709455D01*
X142201220Y-66635809D01*
X142041200Y-66528887D01*
X141905113Y-66392800D01*
X141798191Y-66232780D01*
X141724545Y-66054983D01*
X141687000Y-65866225D01*
X141687000Y-65673775D01*
X141724545Y-65485017D01*
X141798191Y-65307220D01*
X141905113Y-65147200D01*
X142041200Y-65011113D01*
X142201220Y-64904191D01*
X142379017Y-64830545D01*
X142546865Y-64797159D01*
X142567774Y-64793000D01*
X142760226Y-64793000D01*
X142781135Y-64797159D01*
G37*
G36*
X170721135Y-64797159D02*
G01*
X170888983Y-64830545D01*
X171066780Y-64904191D01*
X171226800Y-65011113D01*
X171362887Y-65147200D01*
X171469809Y-65307220D01*
X171543455Y-65485017D01*
X171581000Y-65673775D01*
X171581000Y-65866225D01*
X171543455Y-66054983D01*
X171469809Y-66232780D01*
X171362887Y-66392800D01*
X171226800Y-66528887D01*
X171066780Y-66635809D01*
X170888983Y-66709455D01*
X170721135Y-66742841D01*
X170700226Y-66747000D01*
X170507774Y-66747000D01*
X170486865Y-66742841D01*
X170319017Y-66709455D01*
X170141220Y-66635809D01*
X169981200Y-66528887D01*
X169845113Y-66392800D01*
X169738191Y-66232780D01*
X169664545Y-66054983D01*
X169627000Y-65866225D01*
X169627000Y-65673775D01*
X169664545Y-65485017D01*
X169738191Y-65307220D01*
X169845113Y-65147200D01*
X169981200Y-65011113D01*
X170141220Y-64904191D01*
X170319017Y-64830545D01*
X170486865Y-64797159D01*
X170507774Y-64793000D01*
X170700226Y-64793000D01*
X170721135Y-64797159D01*
G37*
M02*
