M48
; DRILL file {KiCad 5.1.5+dfsg1-2} date Sat 18 Jan 2020 06:57:06 PM EET
; FORMAT={-:-/ absolute / inch / decimal}
; #@! TF.CreationDate,2020-01-18T18:57:06+02:00
; #@! TF.GenerationSoftware,Kicad,Pcbnew,5.1.5+dfsg1-2
FMAT,2
INCH
T1C0.0236
T2C0.0300
T3C0.0315
T4C0.0394
T5C0.0433
T6C0.0512
T7C0.1299
%
G90
G05
T1
X4.87Y-2.89
X4.95Y-3.16
X5.03Y-3.3
X5.03Y-4.39
X5.12Y-2.92
X5.13Y-4.58
X5.24Y-3.42
X5.39Y-3.86
X5.39Y-4.27
X5.53Y-2.87
X5.56Y-4.24
X5.575Y-3.725
X5.58Y-3.3
X5.58Y-4.52
X5.62Y-3.08
X5.64Y-4.1
X5.67Y-3.18
X5.7Y-2.81
X5.75Y-4.24
X5.78Y-2.81
X5.78Y-3.08
X5.78Y-3.13
X5.78Y-3.18
X5.78Y-3.23
X5.78Y-3.75
X5.84Y-3.08
X5.84Y-3.13
X5.84Y-3.18
X5.84Y-3.23
X5.86Y-2.81
X5.86Y-3.82
X6.04Y-3.74
X6.04Y-4.07
X6.07Y-2.89
X6.135Y-3.27
X6.18Y-4.03
X6.23Y-3.83
X6.28Y-3.08
X6.28Y-3.14
X6.28Y-3.2
X6.28Y-3.26
X6.34Y-3.08
X6.34Y-3.14
X6.34Y-3.2
X6.34Y-3.26
X6.45Y-2.81
X6.47Y-4.02
X6.725Y-3.825
X6.86Y-3.73
X6.86Y-4.07
X7.07Y-3.97
X7.12Y-4.18
X7.28Y-2.82
T2
X6.35Y-2.93
X6.45Y-2.93
X6.55Y-2.93
T3
X6.78Y-2.97
X7.08Y-2.97
X5.82Y-2.97
X6.12Y-2.97
T4
X5.1167Y-2.5894
X5.2167Y-2.5894
X5.2167Y-2.6894
X5.3167Y-2.5894
X5.3167Y-2.6894
X5.4167Y-2.5894
X5.4167Y-2.6894
X5.5167Y-2.5894
X5.5167Y-2.6894
X5.6167Y-2.5894
X5.6167Y-2.6894
X5.7167Y-2.5894
X5.7167Y-2.6894
X5.8167Y-2.5894
X5.8167Y-2.6894
X5.9167Y-2.5894
X5.9167Y-2.6894
X6.0167Y-2.5894
X6.0167Y-2.6894
X6.1167Y-2.5894
X6.1167Y-2.6894
X6.2167Y-2.5894
X6.2167Y-2.6894
X6.3167Y-2.5894
X6.3167Y-2.6894
X6.4167Y-2.5894
X6.4167Y-2.6894
X6.5167Y-2.5894
X6.5167Y-2.6894
X6.6167Y-2.5894
X6.6167Y-2.6894
X6.7167Y-2.5894
X6.7167Y-2.6894
X6.8167Y-2.5894
X6.8167Y-2.6894
X6.9167Y-2.5894
X6.9167Y-2.6894
X7.0167Y-2.5894
X7.0167Y-2.6894
X7.24Y-3.13
X7.24Y-3.23
X7.24Y-3.33
X7.24Y-3.43
X5.235Y-4.575
X5.335Y-4.575
X5.435Y-4.575
T5
X5.285Y-2.9876
X5.285Y-3.775
T6
X5.8907Y-4.2272
X5.8907Y-4.55
X6.0285Y-4.2272
X6.0285Y-4.55
X6.1663Y-4.2272
X6.1663Y-4.55
X6.3041Y-4.2272
X6.3041Y-4.55
X6.4419Y-4.2272
X6.4419Y-4.55
X6.5797Y-4.2272
X6.5797Y-4.55
X6.7175Y-4.2272
X6.7175Y-4.55
X6.8553Y-4.2272
X6.8553Y-4.55
T7
X7.2084Y-4.5685
X4.925Y-2.6394
X7.2084Y-2.6394
X4.925Y-4.5685
T0
M30
