G04 #@! TF.GenerationSoftware,KiCad,Pcbnew,5.1.5+dfsg1-2*
G04 #@! TF.CreationDate,2020-01-18T18:57:03+02:00*
G04 #@! TF.ProjectId,Morfeas_Rpi_Hat,4d6f7266-6561-4735-9f52-70695f486174,V1.0*
G04 #@! TF.SameCoordinates,Original*
G04 #@! TF.FileFunction,Soldermask,Top*
G04 #@! TF.FilePolarity,Negative*
%FSLAX46Y46*%
G04 Gerber Fmt 4.6, Leading zero omitted, Abs format (unit mm)*
G04 Created by KiCad (PCBNEW 5.1.5+dfsg1-2) date 2020-01-18 18:57:03*
%MOMM*%
%LPD*%
G04 APERTURE LIST*
%ADD10C,0.025400*%
G04 APERTURE END LIST*
D10*
G36*
X183612332Y-114331289D02*
G01*
X183612334Y-114331290D01*
X183612335Y-114331290D01*
X183935726Y-114465243D01*
X184226766Y-114659710D01*
X184226768Y-114659712D01*
X184226771Y-114659714D01*
X184474286Y-114907229D01*
X184474288Y-114907232D01*
X184474290Y-114907234D01*
X184668757Y-115198274D01*
X184802710Y-115521665D01*
X184802711Y-115521668D01*
X184871000Y-115864981D01*
X184871000Y-116215019D01*
X184803520Y-116554267D01*
X184802710Y-116558335D01*
X184668757Y-116881726D01*
X184474290Y-117172766D01*
X184474288Y-117172768D01*
X184474286Y-117172771D01*
X184226771Y-117420286D01*
X184226768Y-117420288D01*
X184226766Y-117420290D01*
X183935726Y-117614757D01*
X183612335Y-117748710D01*
X183612334Y-117748710D01*
X183612332Y-117748711D01*
X183269019Y-117817000D01*
X182918981Y-117817000D01*
X182575668Y-117748711D01*
X182575666Y-117748710D01*
X182575665Y-117748710D01*
X182252274Y-117614757D01*
X181961234Y-117420290D01*
X181961232Y-117420288D01*
X181961229Y-117420286D01*
X181713714Y-117172771D01*
X181713712Y-117172768D01*
X181713710Y-117172766D01*
X181519243Y-116881726D01*
X181385290Y-116558335D01*
X181384481Y-116554267D01*
X181317000Y-116215019D01*
X181317000Y-115864981D01*
X181385289Y-115521668D01*
X181385290Y-115521665D01*
X181519243Y-115198274D01*
X181713710Y-114907234D01*
X181713712Y-114907232D01*
X181713714Y-114907229D01*
X181961229Y-114659714D01*
X181961232Y-114659712D01*
X181961234Y-114659710D01*
X182252274Y-114465243D01*
X182575665Y-114331290D01*
X182575666Y-114331290D01*
X182575668Y-114331289D01*
X182918981Y-114263000D01*
X183269019Y-114263000D01*
X183612332Y-114331289D01*
G37*
G36*
X125612332Y-114331289D02*
G01*
X125612334Y-114331290D01*
X125612335Y-114331290D01*
X125935726Y-114465243D01*
X126226766Y-114659710D01*
X126226768Y-114659712D01*
X126226771Y-114659714D01*
X126474286Y-114907229D01*
X126474288Y-114907232D01*
X126474290Y-114907234D01*
X126668757Y-115198274D01*
X126802710Y-115521665D01*
X126802711Y-115521668D01*
X126871000Y-115864981D01*
X126871000Y-116215019D01*
X126803520Y-116554267D01*
X126802710Y-116558335D01*
X126668757Y-116881726D01*
X126474290Y-117172766D01*
X126474288Y-117172768D01*
X126474286Y-117172771D01*
X126226771Y-117420286D01*
X126226768Y-117420288D01*
X126226766Y-117420290D01*
X125935726Y-117614757D01*
X125612335Y-117748710D01*
X125612334Y-117748710D01*
X125612332Y-117748711D01*
X125269019Y-117817000D01*
X124918981Y-117817000D01*
X124575668Y-117748711D01*
X124575666Y-117748710D01*
X124575665Y-117748710D01*
X124252274Y-117614757D01*
X123961234Y-117420290D01*
X123961232Y-117420288D01*
X123961229Y-117420286D01*
X123713714Y-117172771D01*
X123713712Y-117172768D01*
X123713710Y-117172766D01*
X123519243Y-116881726D01*
X123385290Y-116558335D01*
X123384481Y-116554267D01*
X123317000Y-116215019D01*
X123317000Y-115864981D01*
X123385289Y-115521668D01*
X123385290Y-115521665D01*
X123519243Y-115198274D01*
X123713710Y-114907234D01*
X123713712Y-114907232D01*
X123713714Y-114907229D01*
X123961229Y-114659714D01*
X123961232Y-114659712D01*
X123961234Y-114659710D01*
X124252274Y-114465243D01*
X124575665Y-114331290D01*
X124575666Y-114331290D01*
X124575668Y-114331289D01*
X124918981Y-114263000D01*
X125269019Y-114263000D01*
X125612332Y-114331289D01*
G37*
G36*
X135626135Y-115232159D02*
G01*
X135793983Y-115265545D01*
X135971780Y-115339191D01*
X136131800Y-115446113D01*
X136267887Y-115582200D01*
X136374809Y-115742220D01*
X136448455Y-115920017D01*
X136486000Y-116108775D01*
X136486000Y-116301225D01*
X136448455Y-116489983D01*
X136374809Y-116667780D01*
X136267887Y-116827800D01*
X136131800Y-116963887D01*
X135971780Y-117070809D01*
X135793983Y-117144455D01*
X135626135Y-117177841D01*
X135605226Y-117182000D01*
X135412774Y-117182000D01*
X135391865Y-117177841D01*
X135224017Y-117144455D01*
X135046220Y-117070809D01*
X134886200Y-116963887D01*
X134750113Y-116827800D01*
X134643191Y-116667780D01*
X134569545Y-116489983D01*
X134532000Y-116301225D01*
X134532000Y-116108775D01*
X134569545Y-115920017D01*
X134643191Y-115742220D01*
X134750113Y-115582200D01*
X134886200Y-115446113D01*
X135046220Y-115339191D01*
X135224017Y-115265545D01*
X135391865Y-115232159D01*
X135412774Y-115228000D01*
X135605226Y-115228000D01*
X135626135Y-115232159D01*
G37*
G36*
X133086135Y-115232159D02*
G01*
X133253983Y-115265545D01*
X133431780Y-115339191D01*
X133591800Y-115446113D01*
X133727887Y-115582200D01*
X133834809Y-115742220D01*
X133908455Y-115920017D01*
X133946000Y-116108775D01*
X133946000Y-116301225D01*
X133908455Y-116489983D01*
X133834809Y-116667780D01*
X133727887Y-116827800D01*
X133591800Y-116963887D01*
X133431780Y-117070809D01*
X133253983Y-117144455D01*
X133086135Y-117177841D01*
X133065226Y-117182000D01*
X132872774Y-117182000D01*
X132851865Y-117177841D01*
X132684017Y-117144455D01*
X132506220Y-117070809D01*
X132346200Y-116963887D01*
X132210113Y-116827800D01*
X132103191Y-116667780D01*
X132029545Y-116489983D01*
X131992000Y-116301225D01*
X131992000Y-116108775D01*
X132029545Y-115920017D01*
X132103191Y-115742220D01*
X132210113Y-115582200D01*
X132346200Y-115446113D01*
X132506220Y-115339191D01*
X132684017Y-115265545D01*
X132851865Y-115232159D01*
X132872774Y-115228000D01*
X133065226Y-115228000D01*
X133086135Y-115232159D01*
G37*
G36*
X139026000Y-117182000D02*
G01*
X137072000Y-117182000D01*
X137072000Y-115228000D01*
X139026000Y-115228000D01*
X139026000Y-117182000D01*
G37*
G36*
X130524267Y-115599283D02*
G01*
X130662942Y-115656724D01*
X130787747Y-115740116D01*
X130893884Y-115846253D01*
X130977276Y-115971058D01*
X131034717Y-116109733D01*
X131064000Y-116256950D01*
X131064000Y-116407050D01*
X131034717Y-116554267D01*
X130977276Y-116692942D01*
X130893884Y-116817747D01*
X130787747Y-116923884D01*
X130662942Y-117007276D01*
X130524267Y-117064717D01*
X130377050Y-117094000D01*
X130226950Y-117094000D01*
X130079733Y-117064717D01*
X129941058Y-117007276D01*
X129816253Y-116923884D01*
X129710116Y-116817747D01*
X129626724Y-116692942D01*
X129569283Y-116554267D01*
X129540000Y-116407050D01*
X129540000Y-116256950D01*
X129569283Y-116109733D01*
X129626724Y-115971058D01*
X129710116Y-115846253D01*
X129816253Y-115740116D01*
X129941058Y-115656724D01*
X130079733Y-115599283D01*
X130226950Y-115570000D01*
X130377050Y-115570000D01*
X130524267Y-115599283D01*
G37*
G36*
X167531493Y-114226686D02*
G01*
X167785729Y-114331994D01*
X168014531Y-114484875D01*
X168209125Y-114679469D01*
X168362006Y-114908271D01*
X168467314Y-115162507D01*
X168521000Y-115432408D01*
X168521000Y-115707592D01*
X168467314Y-115977493D01*
X168362006Y-116231729D01*
X168209125Y-116460531D01*
X168014531Y-116655125D01*
X167785729Y-116808006D01*
X167531493Y-116913314D01*
X167261592Y-116967000D01*
X166986408Y-116967000D01*
X166716507Y-116913314D01*
X166462271Y-116808006D01*
X166233469Y-116655125D01*
X166038875Y-116460531D01*
X165885994Y-116231729D01*
X165780686Y-115977493D01*
X165727000Y-115707592D01*
X165727000Y-115432408D01*
X165780686Y-115162507D01*
X165885994Y-114908271D01*
X166038875Y-114679469D01*
X166233469Y-114484875D01*
X166462271Y-114331994D01*
X166716507Y-114226686D01*
X166986408Y-114173000D01*
X167261592Y-114173000D01*
X167531493Y-114226686D01*
G37*
G36*
X174531493Y-114226686D02*
G01*
X174785729Y-114331994D01*
X175014531Y-114484875D01*
X175209125Y-114679469D01*
X175362006Y-114908271D01*
X175467314Y-115162507D01*
X175521000Y-115432408D01*
X175521000Y-115707592D01*
X175467314Y-115977493D01*
X175362006Y-116231729D01*
X175209125Y-116460531D01*
X175014531Y-116655125D01*
X174785729Y-116808006D01*
X174531493Y-116913314D01*
X174261592Y-116967000D01*
X173986408Y-116967000D01*
X173716507Y-116913314D01*
X173462271Y-116808006D01*
X173233469Y-116655125D01*
X173038875Y-116460531D01*
X172885994Y-116231729D01*
X172780686Y-115977493D01*
X172727000Y-115707592D01*
X172727000Y-115432408D01*
X172780686Y-115162507D01*
X172885994Y-114908271D01*
X173038875Y-114679469D01*
X173233469Y-114484875D01*
X173462271Y-114331994D01*
X173716507Y-114226686D01*
X173986408Y-114173000D01*
X174261592Y-114173000D01*
X174531493Y-114226686D01*
G37*
G36*
X164031493Y-114226686D02*
G01*
X164285729Y-114331994D01*
X164514531Y-114484875D01*
X164709125Y-114679469D01*
X164862006Y-114908271D01*
X164967314Y-115162507D01*
X165021000Y-115432408D01*
X165021000Y-115707592D01*
X164967314Y-115977493D01*
X164862006Y-116231729D01*
X164709125Y-116460531D01*
X164514531Y-116655125D01*
X164285729Y-116808006D01*
X164031493Y-116913314D01*
X163761592Y-116967000D01*
X163486408Y-116967000D01*
X163216507Y-116913314D01*
X162962271Y-116808006D01*
X162733469Y-116655125D01*
X162538875Y-116460531D01*
X162385994Y-116231729D01*
X162280686Y-115977493D01*
X162227000Y-115707592D01*
X162227000Y-115432408D01*
X162280686Y-115162507D01*
X162385994Y-114908271D01*
X162538875Y-114679469D01*
X162733469Y-114484875D01*
X162962271Y-114331994D01*
X163216507Y-114226686D01*
X163486408Y-114173000D01*
X163761592Y-114173000D01*
X164031493Y-114226686D01*
G37*
G36*
X160531493Y-114226686D02*
G01*
X160785729Y-114331994D01*
X161014531Y-114484875D01*
X161209125Y-114679469D01*
X161362006Y-114908271D01*
X161467314Y-115162507D01*
X161521000Y-115432408D01*
X161521000Y-115707592D01*
X161467314Y-115977493D01*
X161362006Y-116231729D01*
X161209125Y-116460531D01*
X161014531Y-116655125D01*
X160785729Y-116808006D01*
X160531493Y-116913314D01*
X160261592Y-116967000D01*
X159986408Y-116967000D01*
X159716507Y-116913314D01*
X159462271Y-116808006D01*
X159233469Y-116655125D01*
X159038875Y-116460531D01*
X158885994Y-116231729D01*
X158780686Y-115977493D01*
X158727000Y-115707592D01*
X158727000Y-115432408D01*
X158780686Y-115162507D01*
X158885994Y-114908271D01*
X159038875Y-114679469D01*
X159233469Y-114484875D01*
X159462271Y-114331994D01*
X159716507Y-114226686D01*
X159986408Y-114173000D01*
X160261592Y-114173000D01*
X160531493Y-114226686D01*
G37*
G36*
X157031493Y-114226686D02*
G01*
X157285729Y-114331994D01*
X157514531Y-114484875D01*
X157709125Y-114679469D01*
X157862006Y-114908271D01*
X157967314Y-115162507D01*
X158021000Y-115432408D01*
X158021000Y-115707592D01*
X157967314Y-115977493D01*
X157862006Y-116231729D01*
X157709125Y-116460531D01*
X157514531Y-116655125D01*
X157285729Y-116808006D01*
X157031493Y-116913314D01*
X156761592Y-116967000D01*
X156486408Y-116967000D01*
X156216507Y-116913314D01*
X155962271Y-116808006D01*
X155733469Y-116655125D01*
X155538875Y-116460531D01*
X155385994Y-116231729D01*
X155280686Y-115977493D01*
X155227000Y-115707592D01*
X155227000Y-115432408D01*
X155280686Y-115162507D01*
X155385994Y-114908271D01*
X155538875Y-114679469D01*
X155733469Y-114484875D01*
X155962271Y-114331994D01*
X156216507Y-114226686D01*
X156486408Y-114173000D01*
X156761592Y-114173000D01*
X157031493Y-114226686D01*
G37*
G36*
X153531493Y-114226686D02*
G01*
X153785729Y-114331994D01*
X154014531Y-114484875D01*
X154209125Y-114679469D01*
X154362006Y-114908271D01*
X154467314Y-115162507D01*
X154521000Y-115432408D01*
X154521000Y-115707592D01*
X154467314Y-115977493D01*
X154362006Y-116231729D01*
X154209125Y-116460531D01*
X154014531Y-116655125D01*
X153785729Y-116808006D01*
X153531493Y-116913314D01*
X153261592Y-116967000D01*
X152986408Y-116967000D01*
X152716507Y-116913314D01*
X152462271Y-116808006D01*
X152233469Y-116655125D01*
X152038875Y-116460531D01*
X151885994Y-116231729D01*
X151780686Y-115977493D01*
X151727000Y-115707592D01*
X151727000Y-115432408D01*
X151780686Y-115162507D01*
X151885994Y-114908271D01*
X152038875Y-114679469D01*
X152233469Y-114484875D01*
X152462271Y-114331994D01*
X152716507Y-114226686D01*
X152986408Y-114173000D01*
X153261592Y-114173000D01*
X153531493Y-114226686D01*
G37*
G36*
X150031493Y-114226686D02*
G01*
X150285729Y-114331994D01*
X150514531Y-114484875D01*
X150709125Y-114679469D01*
X150862006Y-114908271D01*
X150967314Y-115162507D01*
X151021000Y-115432408D01*
X151021000Y-115707592D01*
X150967314Y-115977493D01*
X150862006Y-116231729D01*
X150709125Y-116460531D01*
X150514531Y-116655125D01*
X150285729Y-116808006D01*
X150031493Y-116913314D01*
X149761592Y-116967000D01*
X149486408Y-116967000D01*
X149216507Y-116913314D01*
X148962271Y-116808006D01*
X148733469Y-116655125D01*
X148538875Y-116460531D01*
X148385994Y-116231729D01*
X148280686Y-115977493D01*
X148227000Y-115707592D01*
X148227000Y-115432408D01*
X148280686Y-115162507D01*
X148385994Y-114908271D01*
X148538875Y-114679469D01*
X148733469Y-114484875D01*
X148962271Y-114331994D01*
X149216507Y-114226686D01*
X149486408Y-114173000D01*
X149761592Y-114173000D01*
X150031493Y-114226686D01*
G37*
G36*
X171031493Y-114226686D02*
G01*
X171285729Y-114331994D01*
X171514531Y-114484875D01*
X171709125Y-114679469D01*
X171862006Y-114908271D01*
X171967314Y-115162507D01*
X172021000Y-115432408D01*
X172021000Y-115707592D01*
X171967314Y-115977493D01*
X171862006Y-116231729D01*
X171709125Y-116460531D01*
X171514531Y-116655125D01*
X171285729Y-116808006D01*
X171031493Y-116913314D01*
X170761592Y-116967000D01*
X170486408Y-116967000D01*
X170216507Y-116913314D01*
X169962271Y-116808006D01*
X169733469Y-116655125D01*
X169538875Y-116460531D01*
X169385994Y-116231729D01*
X169280686Y-115977493D01*
X169227000Y-115707592D01*
X169227000Y-115432408D01*
X169280686Y-115162507D01*
X169385994Y-114908271D01*
X169538875Y-114679469D01*
X169733469Y-114484875D01*
X169962271Y-114331994D01*
X170216507Y-114226686D01*
X170486408Y-114173000D01*
X170761592Y-114173000D01*
X171031493Y-114226686D01*
G37*
G36*
X146514820Y-116873020D02*
G01*
X144061180Y-116873020D01*
X144061180Y-115018820D01*
X146514820Y-115018820D01*
X146514820Y-116873020D01*
G37*
G36*
X141954267Y-114075283D02*
G01*
X142092942Y-114132724D01*
X142217747Y-114216116D01*
X142323884Y-114322253D01*
X142407276Y-114447058D01*
X142464717Y-114585733D01*
X142494000Y-114732950D01*
X142494000Y-114883050D01*
X142464717Y-115030267D01*
X142407276Y-115168942D01*
X142323884Y-115293747D01*
X142217747Y-115399884D01*
X142092942Y-115483276D01*
X141954267Y-115540717D01*
X141807050Y-115570000D01*
X141656950Y-115570000D01*
X141509733Y-115540717D01*
X141371058Y-115483276D01*
X141246253Y-115399884D01*
X141140116Y-115293747D01*
X141056724Y-115168942D01*
X140999283Y-115030267D01*
X140970000Y-114883050D01*
X140970000Y-114732950D01*
X140999283Y-114585733D01*
X141056724Y-114447058D01*
X141140116Y-114322253D01*
X141246253Y-114216116D01*
X141371058Y-114132724D01*
X141509733Y-114075283D01*
X141656950Y-114046000D01*
X141807050Y-114046000D01*
X141954267Y-114075283D01*
G37*
G36*
X146514820Y-113073180D02*
G01*
X144061180Y-113073180D01*
X144061180Y-111218980D01*
X146514820Y-111218980D01*
X146514820Y-113073180D01*
G37*
G36*
X127984267Y-110773283D02*
G01*
X128122942Y-110830724D01*
X128247747Y-110914116D01*
X128353884Y-111020253D01*
X128437276Y-111145058D01*
X128494717Y-111283733D01*
X128524000Y-111430950D01*
X128524000Y-111581050D01*
X128494717Y-111728267D01*
X128437276Y-111866942D01*
X128353884Y-111991747D01*
X128247747Y-112097884D01*
X128122942Y-112181276D01*
X127984267Y-112238717D01*
X127837050Y-112268000D01*
X127686950Y-112268000D01*
X127539733Y-112238717D01*
X127401058Y-112181276D01*
X127276253Y-112097884D01*
X127170116Y-111991747D01*
X127086724Y-111866942D01*
X127029283Y-111728267D01*
X127000000Y-111581050D01*
X127000000Y-111430950D01*
X127029283Y-111283733D01*
X127086724Y-111145058D01*
X127170116Y-111020253D01*
X127276253Y-110914116D01*
X127401058Y-110830724D01*
X127539733Y-110773283D01*
X127686950Y-110744000D01*
X127837050Y-110744000D01*
X127984267Y-110773283D01*
G37*
G36*
X130709645Y-109961793D02*
G01*
X130743685Y-109972119D01*
X130775054Y-109988886D01*
X130802549Y-110011451D01*
X130825114Y-110038946D01*
X130841881Y-110070315D01*
X130852207Y-110104355D01*
X130856000Y-110142866D01*
X130856000Y-111977134D01*
X130852207Y-112015645D01*
X130841881Y-112049685D01*
X130825114Y-112081054D01*
X130802549Y-112108549D01*
X130775054Y-112131114D01*
X130743685Y-112147881D01*
X130709645Y-112158207D01*
X130671134Y-112162000D01*
X130186866Y-112162000D01*
X130148355Y-112158207D01*
X130114315Y-112147881D01*
X130082946Y-112131114D01*
X130055451Y-112108549D01*
X130032886Y-112081054D01*
X130016119Y-112049685D01*
X130005793Y-112015645D01*
X130002000Y-111977134D01*
X130002000Y-110142866D01*
X130005793Y-110104355D01*
X130016119Y-110070315D01*
X130032886Y-110038946D01*
X130055451Y-110011451D01*
X130082946Y-109988886D01*
X130114315Y-109972119D01*
X130148355Y-109961793D01*
X130186866Y-109958000D01*
X130671134Y-109958000D01*
X130709645Y-109961793D01*
G37*
G36*
X137059645Y-109961793D02*
G01*
X137093685Y-109972119D01*
X137125054Y-109988886D01*
X137152549Y-110011451D01*
X137175114Y-110038946D01*
X137191881Y-110070315D01*
X137202207Y-110104355D01*
X137206000Y-110142866D01*
X137206000Y-111977134D01*
X137202207Y-112015645D01*
X137191881Y-112049685D01*
X137175114Y-112081054D01*
X137152549Y-112108549D01*
X137125054Y-112131114D01*
X137093685Y-112147881D01*
X137059645Y-112158207D01*
X137021134Y-112162000D01*
X136536866Y-112162000D01*
X136498355Y-112158207D01*
X136464315Y-112147881D01*
X136432946Y-112131114D01*
X136405451Y-112108549D01*
X136382886Y-112081054D01*
X136366119Y-112049685D01*
X136355793Y-112015645D01*
X136352000Y-111977134D01*
X136352000Y-110142866D01*
X136355793Y-110104355D01*
X136366119Y-110070315D01*
X136382886Y-110038946D01*
X136405451Y-110011451D01*
X136432946Y-109988886D01*
X136464315Y-109972119D01*
X136498355Y-109961793D01*
X136536866Y-109958000D01*
X137021134Y-109958000D01*
X137059645Y-109961793D01*
G37*
G36*
X138329645Y-109961793D02*
G01*
X138363685Y-109972119D01*
X138395054Y-109988886D01*
X138422549Y-110011451D01*
X138445114Y-110038946D01*
X138461881Y-110070315D01*
X138472207Y-110104355D01*
X138476000Y-110142866D01*
X138476000Y-111977134D01*
X138472207Y-112015645D01*
X138461881Y-112049685D01*
X138445114Y-112081054D01*
X138422549Y-112108549D01*
X138395054Y-112131114D01*
X138363685Y-112147881D01*
X138329645Y-112158207D01*
X138291134Y-112162000D01*
X137806866Y-112162000D01*
X137768355Y-112158207D01*
X137734315Y-112147881D01*
X137702946Y-112131114D01*
X137675451Y-112108549D01*
X137652886Y-112081054D01*
X137636119Y-112049685D01*
X137625793Y-112015645D01*
X137622000Y-111977134D01*
X137622000Y-110142866D01*
X137625793Y-110104355D01*
X137636119Y-110070315D01*
X137652886Y-110038946D01*
X137675451Y-110011451D01*
X137702946Y-109988886D01*
X137734315Y-109972119D01*
X137768355Y-109961793D01*
X137806866Y-109958000D01*
X138291134Y-109958000D01*
X138329645Y-109961793D01*
G37*
G36*
X139599645Y-109961793D02*
G01*
X139633685Y-109972119D01*
X139665054Y-109988886D01*
X139692549Y-110011451D01*
X139715114Y-110038946D01*
X139731881Y-110070315D01*
X139742207Y-110104355D01*
X139746000Y-110142866D01*
X139746000Y-111977134D01*
X139742207Y-112015645D01*
X139731881Y-112049685D01*
X139715114Y-112081054D01*
X139692549Y-112108549D01*
X139665054Y-112131114D01*
X139633685Y-112147881D01*
X139599645Y-112158207D01*
X139561134Y-112162000D01*
X139076866Y-112162000D01*
X139038355Y-112158207D01*
X139004315Y-112147881D01*
X138972946Y-112131114D01*
X138945451Y-112108549D01*
X138922886Y-112081054D01*
X138906119Y-112049685D01*
X138895793Y-112015645D01*
X138892000Y-111977134D01*
X138892000Y-110142866D01*
X138895793Y-110104355D01*
X138906119Y-110070315D01*
X138922886Y-110038946D01*
X138945451Y-110011451D01*
X138972946Y-109988886D01*
X139004315Y-109972119D01*
X139038355Y-109961793D01*
X139076866Y-109958000D01*
X139561134Y-109958000D01*
X139599645Y-109961793D01*
G37*
G36*
X131979645Y-109961793D02*
G01*
X132013685Y-109972119D01*
X132045054Y-109988886D01*
X132072549Y-110011451D01*
X132095114Y-110038946D01*
X132111881Y-110070315D01*
X132122207Y-110104355D01*
X132126000Y-110142866D01*
X132126000Y-111977134D01*
X132122207Y-112015645D01*
X132111881Y-112049685D01*
X132095114Y-112081054D01*
X132072549Y-112108549D01*
X132045054Y-112131114D01*
X132013685Y-112147881D01*
X131979645Y-112158207D01*
X131941134Y-112162000D01*
X131456866Y-112162000D01*
X131418355Y-112158207D01*
X131384315Y-112147881D01*
X131352946Y-112131114D01*
X131325451Y-112108549D01*
X131302886Y-112081054D01*
X131286119Y-112049685D01*
X131275793Y-112015645D01*
X131272000Y-111977134D01*
X131272000Y-110142866D01*
X131275793Y-110104355D01*
X131286119Y-110070315D01*
X131302886Y-110038946D01*
X131325451Y-110011451D01*
X131352946Y-109988886D01*
X131384315Y-109972119D01*
X131418355Y-109961793D01*
X131456866Y-109958000D01*
X131941134Y-109958000D01*
X131979645Y-109961793D01*
G37*
G36*
X133249645Y-109961793D02*
G01*
X133283685Y-109972119D01*
X133315054Y-109988886D01*
X133342549Y-110011451D01*
X133365114Y-110038946D01*
X133381881Y-110070315D01*
X133392207Y-110104355D01*
X133396000Y-110142866D01*
X133396000Y-111977134D01*
X133392207Y-112015645D01*
X133381881Y-112049685D01*
X133365114Y-112081054D01*
X133342549Y-112108549D01*
X133315054Y-112131114D01*
X133283685Y-112147881D01*
X133249645Y-112158207D01*
X133211134Y-112162000D01*
X132726866Y-112162000D01*
X132688355Y-112158207D01*
X132654315Y-112147881D01*
X132622946Y-112131114D01*
X132595451Y-112108549D01*
X132572886Y-112081054D01*
X132556119Y-112049685D01*
X132545793Y-112015645D01*
X132542000Y-111977134D01*
X132542000Y-110142866D01*
X132545793Y-110104355D01*
X132556119Y-110070315D01*
X132572886Y-110038946D01*
X132595451Y-110011451D01*
X132622946Y-109988886D01*
X132654315Y-109972119D01*
X132688355Y-109961793D01*
X132726866Y-109958000D01*
X133211134Y-109958000D01*
X133249645Y-109961793D01*
G37*
G36*
X134519645Y-109961793D02*
G01*
X134553685Y-109972119D01*
X134585054Y-109988886D01*
X134612549Y-110011451D01*
X134635114Y-110038946D01*
X134651881Y-110070315D01*
X134662207Y-110104355D01*
X134666000Y-110142866D01*
X134666000Y-111977134D01*
X134662207Y-112015645D01*
X134651881Y-112049685D01*
X134635114Y-112081054D01*
X134612549Y-112108549D01*
X134585054Y-112131114D01*
X134553685Y-112147881D01*
X134519645Y-112158207D01*
X134481134Y-112162000D01*
X133996866Y-112162000D01*
X133958355Y-112158207D01*
X133924315Y-112147881D01*
X133892946Y-112131114D01*
X133865451Y-112108549D01*
X133842886Y-112081054D01*
X133826119Y-112049685D01*
X133815793Y-112015645D01*
X133812000Y-111977134D01*
X133812000Y-110142866D01*
X133815793Y-110104355D01*
X133826119Y-110070315D01*
X133842886Y-110038946D01*
X133865451Y-110011451D01*
X133892946Y-109988886D01*
X133924315Y-109972119D01*
X133958355Y-109961793D01*
X133996866Y-109958000D01*
X134481134Y-109958000D01*
X134519645Y-109961793D01*
G37*
G36*
X135789645Y-109961793D02*
G01*
X135823685Y-109972119D01*
X135855054Y-109988886D01*
X135882549Y-110011451D01*
X135905114Y-110038946D01*
X135921881Y-110070315D01*
X135932207Y-110104355D01*
X135936000Y-110142866D01*
X135936000Y-111977134D01*
X135932207Y-112015645D01*
X135921881Y-112049685D01*
X135905114Y-112081054D01*
X135882549Y-112108549D01*
X135855054Y-112131114D01*
X135823685Y-112147881D01*
X135789645Y-112158207D01*
X135751134Y-112162000D01*
X135266866Y-112162000D01*
X135228355Y-112158207D01*
X135194315Y-112147881D01*
X135162946Y-112131114D01*
X135135451Y-112108549D01*
X135112886Y-112081054D01*
X135096119Y-112049685D01*
X135085793Y-112015645D01*
X135082000Y-111977134D01*
X135082000Y-110142866D01*
X135085793Y-110104355D01*
X135096119Y-110070315D01*
X135112886Y-110038946D01*
X135135451Y-110011451D01*
X135162946Y-109988886D01*
X135194315Y-109972119D01*
X135228355Y-109961793D01*
X135266866Y-109958000D01*
X135751134Y-109958000D01*
X135789645Y-109961793D01*
G37*
G36*
X141829184Y-110389095D02*
G01*
X141880814Y-110404756D01*
X141928388Y-110430185D01*
X141970090Y-110464410D01*
X142004315Y-110506112D01*
X142029744Y-110553686D01*
X142045405Y-110605316D01*
X142051000Y-110662117D01*
X142051000Y-111333883D01*
X142045405Y-111390684D01*
X142029744Y-111442314D01*
X142004315Y-111489888D01*
X141970090Y-111531590D01*
X141928388Y-111565815D01*
X141880814Y-111591244D01*
X141829184Y-111606905D01*
X141772383Y-111612500D01*
X140675617Y-111612500D01*
X140618816Y-111606905D01*
X140567186Y-111591244D01*
X140519612Y-111565815D01*
X140477910Y-111531590D01*
X140443685Y-111489888D01*
X140418256Y-111442314D01*
X140402595Y-111390684D01*
X140397000Y-111333883D01*
X140397000Y-110662117D01*
X140402595Y-110605316D01*
X140418256Y-110553686D01*
X140443685Y-110506112D01*
X140477910Y-110464410D01*
X140519612Y-110430185D01*
X140567186Y-110404756D01*
X140618816Y-110389095D01*
X140675617Y-110383500D01*
X141772383Y-110383500D01*
X141829184Y-110389095D01*
G37*
G36*
X141446267Y-106963283D02*
G01*
X141584942Y-107020724D01*
X141709747Y-107104116D01*
X141815884Y-107210253D01*
X141899276Y-107335058D01*
X141956717Y-107473733D01*
X141986000Y-107620950D01*
X141986000Y-107771050D01*
X141956717Y-107918267D01*
X141899276Y-108056942D01*
X141815884Y-108181747D01*
X141709747Y-108287884D01*
X141584942Y-108371276D01*
X141548576Y-108386339D01*
X141537606Y-108392203D01*
X141527984Y-108400100D01*
X141520087Y-108409723D01*
X141514219Y-108420701D01*
X141510605Y-108432613D01*
X141509385Y-108445001D01*
X141510605Y-108457389D01*
X141514218Y-108469301D01*
X141520086Y-108480279D01*
X141527983Y-108489901D01*
X141537606Y-108497798D01*
X141548584Y-108503666D01*
X141560496Y-108507280D01*
X141572884Y-108508500D01*
X141772383Y-108508500D01*
X141829184Y-108514095D01*
X141880814Y-108529756D01*
X141928388Y-108555185D01*
X141970090Y-108589410D01*
X142004315Y-108631112D01*
X142029744Y-108678686D01*
X142045405Y-108730316D01*
X142051000Y-108787117D01*
X142051000Y-109458883D01*
X142045405Y-109515684D01*
X142029744Y-109567314D01*
X142004315Y-109614888D01*
X141970090Y-109656590D01*
X141928388Y-109690815D01*
X141880814Y-109716244D01*
X141829184Y-109731905D01*
X141772383Y-109737500D01*
X140675617Y-109737500D01*
X140618816Y-109731905D01*
X140567186Y-109716244D01*
X140519612Y-109690815D01*
X140477910Y-109656590D01*
X140443685Y-109614888D01*
X140418256Y-109567314D01*
X140402595Y-109515684D01*
X140397000Y-109458883D01*
X140397000Y-108787117D01*
X140402595Y-108730316D01*
X140418256Y-108678686D01*
X140443685Y-108631112D01*
X140477910Y-108589410D01*
X140519612Y-108555185D01*
X140567186Y-108529756D01*
X140618816Y-108514095D01*
X140675617Y-108508500D01*
X140875116Y-108508500D01*
X140887504Y-108507280D01*
X140899416Y-108503666D01*
X140910394Y-108497798D01*
X140920017Y-108489902D01*
X140927913Y-108480279D01*
X140933781Y-108469301D01*
X140937395Y-108457389D01*
X140938615Y-108445001D01*
X140937395Y-108432613D01*
X140933781Y-108420701D01*
X140927913Y-108409723D01*
X140920017Y-108400100D01*
X140910394Y-108392204D01*
X140899424Y-108386339D01*
X140863058Y-108371276D01*
X140738253Y-108287884D01*
X140632116Y-108181747D01*
X140548724Y-108056942D01*
X140491283Y-107918267D01*
X140462000Y-107771050D01*
X140462000Y-107620950D01*
X140491283Y-107473733D01*
X140548724Y-107335058D01*
X140632116Y-107210253D01*
X140738253Y-107104116D01*
X140863058Y-107020724D01*
X141001733Y-106963283D01*
X141148950Y-106934000D01*
X141299050Y-106934000D01*
X141446267Y-106963283D01*
G37*
G36*
X137128267Y-107725283D02*
G01*
X137266942Y-107782724D01*
X137391747Y-107866116D01*
X137497884Y-107972253D01*
X137581276Y-108097058D01*
X137638717Y-108235733D01*
X137668000Y-108382950D01*
X137668000Y-108533050D01*
X137638717Y-108680267D01*
X137581276Y-108818942D01*
X137497884Y-108943747D01*
X137391747Y-109049884D01*
X137266942Y-109133276D01*
X137128267Y-109190717D01*
X136981050Y-109220000D01*
X136830950Y-109220000D01*
X136683733Y-109190717D01*
X136545058Y-109133276D01*
X136420253Y-109049884D01*
X136314116Y-108943747D01*
X136230724Y-108818942D01*
X136173283Y-108680267D01*
X136144000Y-108533050D01*
X136144000Y-108382950D01*
X136173283Y-108235733D01*
X136230724Y-108097058D01*
X136314116Y-107972253D01*
X136420253Y-107866116D01*
X136545058Y-107782724D01*
X136683733Y-107725283D01*
X136830950Y-107696000D01*
X136981050Y-107696000D01*
X137128267Y-107725283D01*
G37*
G36*
X163896542Y-105999842D02*
G01*
X164158610Y-106079339D01*
X164400133Y-106208436D01*
X164611829Y-106382171D01*
X164785564Y-106593867D01*
X164914661Y-106835390D01*
X164994158Y-107097458D01*
X165021001Y-107369999D01*
X165021001Y-107370001D01*
X164994158Y-107642542D01*
X164914661Y-107904610D01*
X164785564Y-108146133D01*
X164611829Y-108357829D01*
X164400133Y-108531564D01*
X164158610Y-108660661D01*
X163896542Y-108740158D01*
X163624001Y-108767001D01*
X163623999Y-108767001D01*
X163351458Y-108740158D01*
X163089390Y-108660661D01*
X162847867Y-108531564D01*
X162636171Y-108357829D01*
X162462436Y-108146133D01*
X162333339Y-107904610D01*
X162253842Y-107642542D01*
X162226999Y-107370001D01*
X162226999Y-107369999D01*
X162253842Y-107097458D01*
X162333339Y-106835390D01*
X162462436Y-106593867D01*
X162636171Y-106382171D01*
X162847867Y-106208436D01*
X163089390Y-106079339D01*
X163351458Y-105999842D01*
X163623999Y-105972999D01*
X163624001Y-105972999D01*
X163896542Y-105999842D01*
G37*
G36*
X153396542Y-105999842D02*
G01*
X153658610Y-106079339D01*
X153900133Y-106208436D01*
X154111829Y-106382171D01*
X154285564Y-106593867D01*
X154414661Y-106835390D01*
X154494158Y-107097458D01*
X154521001Y-107369999D01*
X154521001Y-107370001D01*
X154494158Y-107642542D01*
X154414661Y-107904610D01*
X154285564Y-108146133D01*
X154111829Y-108357829D01*
X153900133Y-108531564D01*
X153658610Y-108660661D01*
X153396542Y-108740158D01*
X153124001Y-108767001D01*
X153123999Y-108767001D01*
X152851458Y-108740158D01*
X152589390Y-108660661D01*
X152347867Y-108531564D01*
X152136171Y-108357829D01*
X151962436Y-108146133D01*
X151833339Y-107904610D01*
X151753842Y-107642542D01*
X151726999Y-107370001D01*
X151726999Y-107369999D01*
X151753842Y-107097458D01*
X151833339Y-106835390D01*
X151962436Y-106593867D01*
X152136171Y-106382171D01*
X152347867Y-106208436D01*
X152589390Y-106079339D01*
X152851458Y-105999842D01*
X153123999Y-105972999D01*
X153124001Y-105972999D01*
X153396542Y-105999842D01*
G37*
G36*
X174396542Y-105999842D02*
G01*
X174658610Y-106079339D01*
X174900133Y-106208436D01*
X175111829Y-106382171D01*
X175285564Y-106593867D01*
X175414661Y-106835390D01*
X175494158Y-107097458D01*
X175521001Y-107369999D01*
X175521001Y-107370001D01*
X175494158Y-107642542D01*
X175414661Y-107904610D01*
X175285564Y-108146133D01*
X175111829Y-108357829D01*
X174900133Y-108531564D01*
X174658610Y-108660661D01*
X174396542Y-108740158D01*
X174124001Y-108767001D01*
X174123999Y-108767001D01*
X173851458Y-108740158D01*
X173589390Y-108660661D01*
X173347867Y-108531564D01*
X173136171Y-108357829D01*
X172962436Y-108146133D01*
X172833339Y-107904610D01*
X172753842Y-107642542D01*
X172726999Y-107370001D01*
X172726999Y-107369999D01*
X172753842Y-107097458D01*
X172833339Y-106835390D01*
X172962436Y-106593867D01*
X173136171Y-106382171D01*
X173347867Y-106208436D01*
X173589390Y-106079339D01*
X173851458Y-105999842D01*
X174123999Y-105972999D01*
X174124001Y-105972999D01*
X174396542Y-105999842D01*
G37*
G36*
X170896542Y-105999842D02*
G01*
X171158610Y-106079339D01*
X171400133Y-106208436D01*
X171611829Y-106382171D01*
X171785564Y-106593867D01*
X171914661Y-106835390D01*
X171994158Y-107097458D01*
X172021001Y-107369999D01*
X172021001Y-107370001D01*
X171994158Y-107642542D01*
X171914661Y-107904610D01*
X171785564Y-108146133D01*
X171611829Y-108357829D01*
X171400133Y-108531564D01*
X171158610Y-108660661D01*
X170896542Y-108740158D01*
X170624001Y-108767001D01*
X170623999Y-108767001D01*
X170351458Y-108740158D01*
X170089390Y-108660661D01*
X169847867Y-108531564D01*
X169636171Y-108357829D01*
X169462436Y-108146133D01*
X169333339Y-107904610D01*
X169253842Y-107642542D01*
X169226999Y-107370001D01*
X169226999Y-107369999D01*
X169253842Y-107097458D01*
X169333339Y-106835390D01*
X169462436Y-106593867D01*
X169636171Y-106382171D01*
X169847867Y-106208436D01*
X170089390Y-106079339D01*
X170351458Y-105999842D01*
X170623999Y-105972999D01*
X170624001Y-105972999D01*
X170896542Y-105999842D01*
G37*
G36*
X167396542Y-105999842D02*
G01*
X167658610Y-106079339D01*
X167900133Y-106208436D01*
X168111829Y-106382171D01*
X168285564Y-106593867D01*
X168414661Y-106835390D01*
X168494158Y-107097458D01*
X168521001Y-107369999D01*
X168521001Y-107370001D01*
X168494158Y-107642542D01*
X168414661Y-107904610D01*
X168285564Y-108146133D01*
X168111829Y-108357829D01*
X167900133Y-108531564D01*
X167658610Y-108660661D01*
X167396542Y-108740158D01*
X167124001Y-108767001D01*
X167123999Y-108767001D01*
X166851458Y-108740158D01*
X166589390Y-108660661D01*
X166347867Y-108531564D01*
X166136171Y-108357829D01*
X165962436Y-108146133D01*
X165833339Y-107904610D01*
X165753842Y-107642542D01*
X165726999Y-107370001D01*
X165726999Y-107369999D01*
X165753842Y-107097458D01*
X165833339Y-106835390D01*
X165962436Y-106593867D01*
X166136171Y-106382171D01*
X166347867Y-106208436D01*
X166589390Y-106079339D01*
X166851458Y-105999842D01*
X167123999Y-105972999D01*
X167124001Y-105972999D01*
X167396542Y-105999842D01*
G37*
G36*
X160396542Y-105999842D02*
G01*
X160658610Y-106079339D01*
X160900133Y-106208436D01*
X161111829Y-106382171D01*
X161285564Y-106593867D01*
X161414661Y-106835390D01*
X161494158Y-107097458D01*
X161521001Y-107369999D01*
X161521001Y-107370001D01*
X161494158Y-107642542D01*
X161414661Y-107904610D01*
X161285564Y-108146133D01*
X161111829Y-108357829D01*
X160900133Y-108531564D01*
X160658610Y-108660661D01*
X160396542Y-108740158D01*
X160124001Y-108767001D01*
X160123999Y-108767001D01*
X159851458Y-108740158D01*
X159589390Y-108660661D01*
X159347867Y-108531564D01*
X159136171Y-108357829D01*
X158962436Y-108146133D01*
X158833339Y-107904610D01*
X158753842Y-107642542D01*
X158726999Y-107370001D01*
X158726999Y-107369999D01*
X158753842Y-107097458D01*
X158833339Y-106835390D01*
X158962436Y-106593867D01*
X159136171Y-106382171D01*
X159347867Y-106208436D01*
X159589390Y-106079339D01*
X159851458Y-105999842D01*
X160123999Y-105972999D01*
X160124001Y-105972999D01*
X160396542Y-105999842D01*
G37*
G36*
X156896542Y-105999842D02*
G01*
X157158610Y-106079339D01*
X157400133Y-106208436D01*
X157611829Y-106382171D01*
X157785564Y-106593867D01*
X157914661Y-106835390D01*
X157994158Y-107097458D01*
X158021001Y-107369999D01*
X158021001Y-107370001D01*
X157994158Y-107642542D01*
X157914661Y-107904610D01*
X157785564Y-108146133D01*
X157611829Y-108357829D01*
X157400133Y-108531564D01*
X157158610Y-108660661D01*
X156896542Y-108740158D01*
X156624001Y-108767001D01*
X156623999Y-108767001D01*
X156351458Y-108740158D01*
X156089390Y-108660661D01*
X155847867Y-108531564D01*
X155636171Y-108357829D01*
X155462436Y-108146133D01*
X155333339Y-107904610D01*
X155253842Y-107642542D01*
X155226999Y-107370001D01*
X155226999Y-107369999D01*
X155253842Y-107097458D01*
X155333339Y-106835390D01*
X155462436Y-106593867D01*
X155636171Y-106382171D01*
X155847867Y-106208436D01*
X156089390Y-106079339D01*
X156351458Y-105999842D01*
X156623999Y-105972999D01*
X156624001Y-105972999D01*
X156896542Y-105999842D01*
G37*
G36*
X149896542Y-105999842D02*
G01*
X150158610Y-106079339D01*
X150400133Y-106208436D01*
X150611829Y-106382171D01*
X150785564Y-106593867D01*
X150914661Y-106835390D01*
X150994158Y-107097458D01*
X151021001Y-107369999D01*
X151021001Y-107370001D01*
X150994158Y-107642542D01*
X150914661Y-107904610D01*
X150785564Y-108146133D01*
X150611829Y-108357829D01*
X150400133Y-108531564D01*
X150158610Y-108660661D01*
X149896542Y-108740158D01*
X149624001Y-108767001D01*
X149623999Y-108767001D01*
X149351458Y-108740158D01*
X149089390Y-108660661D01*
X148847867Y-108531564D01*
X148636171Y-108357829D01*
X148462436Y-108146133D01*
X148333339Y-107904610D01*
X148253842Y-107642542D01*
X148226999Y-107370001D01*
X148226999Y-107369999D01*
X148253842Y-107097458D01*
X148333339Y-106835390D01*
X148462436Y-106593867D01*
X148636171Y-106382171D01*
X148847867Y-106208436D01*
X149089390Y-106079339D01*
X149351458Y-105999842D01*
X149623999Y-105972999D01*
X149624001Y-105972999D01*
X149896542Y-105999842D01*
G37*
G36*
X146272267Y-106963283D02*
G01*
X146410942Y-107020724D01*
X146535747Y-107104116D01*
X146641884Y-107210253D01*
X146725276Y-107335058D01*
X146782717Y-107473733D01*
X146812000Y-107620950D01*
X146812000Y-107771050D01*
X146782717Y-107918267D01*
X146725276Y-108056942D01*
X146641884Y-108181747D01*
X146535747Y-108287884D01*
X146410942Y-108371276D01*
X146272267Y-108428717D01*
X146125050Y-108458000D01*
X145974950Y-108458000D01*
X145827733Y-108428717D01*
X145689058Y-108371276D01*
X145564253Y-108287884D01*
X145458116Y-108181747D01*
X145374724Y-108056942D01*
X145317283Y-107918267D01*
X145288000Y-107771050D01*
X145288000Y-107620950D01*
X145317283Y-107473733D01*
X145374724Y-107335058D01*
X145458116Y-107210253D01*
X145564253Y-107104116D01*
X145689058Y-107020724D01*
X145827733Y-106963283D01*
X145974950Y-106934000D01*
X146125050Y-106934000D01*
X146272267Y-106963283D01*
G37*
G36*
X131979645Y-105011793D02*
G01*
X132013685Y-105022119D01*
X132045054Y-105038886D01*
X132072549Y-105061451D01*
X132095114Y-105088946D01*
X132111881Y-105120315D01*
X132122207Y-105154355D01*
X132126000Y-105192866D01*
X132126000Y-107027134D01*
X132122207Y-107065645D01*
X132111881Y-107099685D01*
X132095114Y-107131054D01*
X132072549Y-107158549D01*
X132045054Y-107181114D01*
X132013685Y-107197881D01*
X131979645Y-107208207D01*
X131941134Y-107212000D01*
X131456866Y-107212000D01*
X131418355Y-107208207D01*
X131384315Y-107197881D01*
X131352946Y-107181114D01*
X131325451Y-107158549D01*
X131302886Y-107131054D01*
X131286119Y-107099685D01*
X131275793Y-107065645D01*
X131272000Y-107027134D01*
X131272000Y-105192866D01*
X131275793Y-105154355D01*
X131286119Y-105120315D01*
X131302886Y-105088946D01*
X131325451Y-105061451D01*
X131352946Y-105038886D01*
X131384315Y-105022119D01*
X131418355Y-105011793D01*
X131456866Y-105008000D01*
X131941134Y-105008000D01*
X131979645Y-105011793D01*
G37*
G36*
X130709645Y-105011793D02*
G01*
X130743685Y-105022119D01*
X130775054Y-105038886D01*
X130802549Y-105061451D01*
X130825114Y-105088946D01*
X130841881Y-105120315D01*
X130852207Y-105154355D01*
X130856000Y-105192866D01*
X130856000Y-107027134D01*
X130852207Y-107065645D01*
X130841881Y-107099685D01*
X130825114Y-107131054D01*
X130802549Y-107158549D01*
X130775054Y-107181114D01*
X130743685Y-107197881D01*
X130709645Y-107208207D01*
X130671134Y-107212000D01*
X130186866Y-107212000D01*
X130148355Y-107208207D01*
X130114315Y-107197881D01*
X130082946Y-107181114D01*
X130055451Y-107158549D01*
X130032886Y-107131054D01*
X130016119Y-107099685D01*
X130005793Y-107065645D01*
X130002000Y-107027134D01*
X130002000Y-105192866D01*
X130005793Y-105154355D01*
X130016119Y-105120315D01*
X130032886Y-105088946D01*
X130055451Y-105061451D01*
X130082946Y-105038886D01*
X130114315Y-105022119D01*
X130148355Y-105011793D01*
X130186866Y-105008000D01*
X130671134Y-105008000D01*
X130709645Y-105011793D01*
G37*
G36*
X133249645Y-105011793D02*
G01*
X133283685Y-105022119D01*
X133315054Y-105038886D01*
X133342549Y-105061451D01*
X133365114Y-105088946D01*
X133381881Y-105120315D01*
X133392207Y-105154355D01*
X133396000Y-105192866D01*
X133396000Y-107027134D01*
X133392207Y-107065645D01*
X133381881Y-107099685D01*
X133365114Y-107131054D01*
X133342549Y-107158549D01*
X133315054Y-107181114D01*
X133283685Y-107197881D01*
X133249645Y-107208207D01*
X133211134Y-107212000D01*
X132726866Y-107212000D01*
X132688355Y-107208207D01*
X132654315Y-107197881D01*
X132622946Y-107181114D01*
X132595451Y-107158549D01*
X132572886Y-107131054D01*
X132556119Y-107099685D01*
X132545793Y-107065645D01*
X132542000Y-107027134D01*
X132542000Y-105192866D01*
X132545793Y-105154355D01*
X132556119Y-105120315D01*
X132572886Y-105088946D01*
X132595451Y-105061451D01*
X132622946Y-105038886D01*
X132654315Y-105022119D01*
X132688355Y-105011793D01*
X132726866Y-105008000D01*
X133211134Y-105008000D01*
X133249645Y-105011793D01*
G37*
G36*
X134519645Y-105011793D02*
G01*
X134553685Y-105022119D01*
X134585054Y-105038886D01*
X134612549Y-105061451D01*
X134635114Y-105088946D01*
X134651881Y-105120315D01*
X134662207Y-105154355D01*
X134666000Y-105192866D01*
X134666000Y-107027134D01*
X134662207Y-107065645D01*
X134651881Y-107099685D01*
X134635114Y-107131054D01*
X134612549Y-107158549D01*
X134585054Y-107181114D01*
X134553685Y-107197881D01*
X134519645Y-107208207D01*
X134481134Y-107212000D01*
X133996866Y-107212000D01*
X133958355Y-107208207D01*
X133924315Y-107197881D01*
X133892946Y-107181114D01*
X133865451Y-107158549D01*
X133842886Y-107131054D01*
X133826119Y-107099685D01*
X133815793Y-107065645D01*
X133812000Y-107027134D01*
X133812000Y-105192866D01*
X133815793Y-105154355D01*
X133826119Y-105120315D01*
X133842886Y-105088946D01*
X133865451Y-105061451D01*
X133892946Y-105038886D01*
X133924315Y-105022119D01*
X133958355Y-105011793D01*
X133996866Y-105008000D01*
X134481134Y-105008000D01*
X134519645Y-105011793D01*
G37*
G36*
X137059645Y-105011793D02*
G01*
X137093685Y-105022119D01*
X137125054Y-105038886D01*
X137152549Y-105061451D01*
X137175114Y-105088946D01*
X137191881Y-105120315D01*
X137202207Y-105154355D01*
X137206000Y-105192866D01*
X137206000Y-107027134D01*
X137202207Y-107065645D01*
X137191881Y-107099685D01*
X137175114Y-107131054D01*
X137152549Y-107158549D01*
X137125054Y-107181114D01*
X137093685Y-107197881D01*
X137059645Y-107208207D01*
X137021134Y-107212000D01*
X136536866Y-107212000D01*
X136498355Y-107208207D01*
X136464315Y-107197881D01*
X136432946Y-107181114D01*
X136405451Y-107158549D01*
X136382886Y-107131054D01*
X136366119Y-107099685D01*
X136355793Y-107065645D01*
X136352000Y-107027134D01*
X136352000Y-105192866D01*
X136355793Y-105154355D01*
X136366119Y-105120315D01*
X136382886Y-105088946D01*
X136405451Y-105061451D01*
X136432946Y-105038886D01*
X136464315Y-105022119D01*
X136498355Y-105011793D01*
X136536866Y-105008000D01*
X137021134Y-105008000D01*
X137059645Y-105011793D01*
G37*
G36*
X135789645Y-105011793D02*
G01*
X135823685Y-105022119D01*
X135855054Y-105038886D01*
X135882549Y-105061451D01*
X135905114Y-105088946D01*
X135921881Y-105120315D01*
X135932207Y-105154355D01*
X135936000Y-105192866D01*
X135936000Y-107027134D01*
X135932207Y-107065645D01*
X135921881Y-107099685D01*
X135905114Y-107131054D01*
X135882549Y-107158549D01*
X135855054Y-107181114D01*
X135823685Y-107197881D01*
X135789645Y-107208207D01*
X135751134Y-107212000D01*
X135266866Y-107212000D01*
X135228355Y-107208207D01*
X135194315Y-107197881D01*
X135162946Y-107181114D01*
X135135451Y-107158549D01*
X135112886Y-107131054D01*
X135096119Y-107099685D01*
X135085793Y-107065645D01*
X135082000Y-107027134D01*
X135082000Y-105192866D01*
X135085793Y-105154355D01*
X135096119Y-105120315D01*
X135112886Y-105088946D01*
X135135451Y-105061451D01*
X135162946Y-105038886D01*
X135194315Y-105022119D01*
X135228355Y-105011793D01*
X135266866Y-105008000D01*
X135751134Y-105008000D01*
X135789645Y-105011793D01*
G37*
G36*
X138329645Y-105011793D02*
G01*
X138363685Y-105022119D01*
X138395054Y-105038886D01*
X138422549Y-105061451D01*
X138445114Y-105088946D01*
X138461881Y-105120315D01*
X138472207Y-105154355D01*
X138476000Y-105192866D01*
X138476000Y-107027134D01*
X138472207Y-107065645D01*
X138461881Y-107099685D01*
X138445114Y-107131054D01*
X138422549Y-107158549D01*
X138395054Y-107181114D01*
X138363685Y-107197881D01*
X138329645Y-107208207D01*
X138291134Y-107212000D01*
X137806866Y-107212000D01*
X137768355Y-107208207D01*
X137734315Y-107197881D01*
X137702946Y-107181114D01*
X137675451Y-107158549D01*
X137652886Y-107131054D01*
X137636119Y-107099685D01*
X137625793Y-107065645D01*
X137622000Y-107027134D01*
X137622000Y-105192866D01*
X137625793Y-105154355D01*
X137636119Y-105120315D01*
X137652886Y-105088946D01*
X137675451Y-105061451D01*
X137702946Y-105038886D01*
X137734315Y-105022119D01*
X137768355Y-105011793D01*
X137806866Y-105008000D01*
X138291134Y-105008000D01*
X138329645Y-105011793D01*
G37*
G36*
X139599645Y-105011793D02*
G01*
X139633685Y-105022119D01*
X139665054Y-105038886D01*
X139692549Y-105061451D01*
X139715114Y-105088946D01*
X139731881Y-105120315D01*
X139742207Y-105154355D01*
X139746000Y-105192866D01*
X139746000Y-107027134D01*
X139742207Y-107065645D01*
X139731881Y-107099685D01*
X139715114Y-107131054D01*
X139692549Y-107158549D01*
X139665054Y-107181114D01*
X139633685Y-107197881D01*
X139599645Y-107208207D01*
X139561134Y-107212000D01*
X139076866Y-107212000D01*
X139038355Y-107208207D01*
X139004315Y-107197881D01*
X138972946Y-107181114D01*
X138945451Y-107158549D01*
X138922886Y-107131054D01*
X138906119Y-107099685D01*
X138895793Y-107065645D01*
X138892000Y-107027134D01*
X138892000Y-105192866D01*
X138895793Y-105154355D01*
X138906119Y-105120315D01*
X138922886Y-105088946D01*
X138945451Y-105061451D01*
X138972946Y-105038886D01*
X139004315Y-105022119D01*
X139038355Y-105011793D01*
X139076866Y-105008000D01*
X139561134Y-105008000D01*
X139599645Y-105011793D01*
G37*
G36*
X181070267Y-105439283D02*
G01*
X181208942Y-105496724D01*
X181333747Y-105580116D01*
X181439884Y-105686253D01*
X181523276Y-105811058D01*
X181580717Y-105949733D01*
X181610000Y-106096950D01*
X181610000Y-106247050D01*
X181580717Y-106394267D01*
X181523276Y-106532942D01*
X181439884Y-106657747D01*
X181333747Y-106763884D01*
X181208942Y-106847276D01*
X181070267Y-106904717D01*
X180923050Y-106934000D01*
X180772950Y-106934000D01*
X180625733Y-106904717D01*
X180487058Y-106847276D01*
X180362253Y-106763884D01*
X180256116Y-106657747D01*
X180172724Y-106532942D01*
X180115283Y-106394267D01*
X180086000Y-106247050D01*
X180086000Y-106096950D01*
X180115283Y-105949733D01*
X180172724Y-105811058D01*
X180256116Y-105686253D01*
X180362253Y-105580116D01*
X180487058Y-105496724D01*
X180625733Y-105439283D01*
X180772950Y-105410000D01*
X180923050Y-105410000D01*
X181070267Y-105439283D01*
G37*
G36*
X182908489Y-103647349D02*
G01*
X182957715Y-103662281D01*
X183003075Y-103686527D01*
X183042840Y-103719160D01*
X183075473Y-103758925D01*
X183099719Y-103804285D01*
X183114651Y-103853511D01*
X183120000Y-103907817D01*
X183120000Y-104880183D01*
X183114651Y-104934489D01*
X183099719Y-104983715D01*
X183075473Y-105029075D01*
X183042840Y-105068840D01*
X183003075Y-105101473D01*
X182957715Y-105125719D01*
X182908489Y-105140651D01*
X182854183Y-105146000D01*
X181381817Y-105146000D01*
X181327511Y-105140651D01*
X181278285Y-105125719D01*
X181232925Y-105101473D01*
X181193160Y-105068840D01*
X181160527Y-105029075D01*
X181136281Y-104983715D01*
X181121349Y-104934489D01*
X181116000Y-104880183D01*
X181116000Y-103907817D01*
X181121349Y-103853511D01*
X181136281Y-103804285D01*
X181160527Y-103758925D01*
X181193160Y-103719160D01*
X181232925Y-103686527D01*
X181278285Y-103662281D01*
X181327511Y-103647349D01*
X181381817Y-103642000D01*
X182854183Y-103642000D01*
X182908489Y-103647349D01*
G37*
G36*
X180183184Y-103706595D02*
G01*
X180234814Y-103722256D01*
X180282388Y-103747685D01*
X180324090Y-103781910D01*
X180358315Y-103823612D01*
X180383744Y-103871186D01*
X180399405Y-103922816D01*
X180405000Y-103979617D01*
X180405000Y-104651383D01*
X180399405Y-104708184D01*
X180383744Y-104759814D01*
X180358315Y-104807388D01*
X180324090Y-104849090D01*
X180282388Y-104883315D01*
X180234814Y-104908744D01*
X180183184Y-104924405D01*
X180126383Y-104930000D01*
X179029617Y-104930000D01*
X178972816Y-104924405D01*
X178921186Y-104908744D01*
X178873612Y-104883315D01*
X178831910Y-104849090D01*
X178797685Y-104807388D01*
X178772256Y-104759814D01*
X178756595Y-104708184D01*
X178751000Y-104651383D01*
X178751000Y-103979617D01*
X178756595Y-103922816D01*
X178772256Y-103871186D01*
X178797685Y-103823612D01*
X178831910Y-103781910D01*
X178873612Y-103747685D01*
X178921186Y-103722256D01*
X178972816Y-103706595D01*
X179029617Y-103701000D01*
X180126383Y-103701000D01*
X180183184Y-103706595D01*
G37*
G36*
X143478267Y-103407283D02*
G01*
X143616942Y-103464724D01*
X143741747Y-103548116D01*
X143847884Y-103654253D01*
X143931276Y-103779058D01*
X143988717Y-103917733D01*
X144018000Y-104064950D01*
X144018000Y-104215050D01*
X143988717Y-104362267D01*
X143931276Y-104500942D01*
X143847884Y-104625747D01*
X143741747Y-104731884D01*
X143616942Y-104815276D01*
X143478267Y-104872717D01*
X143331050Y-104902000D01*
X143180950Y-104902000D01*
X143033733Y-104872717D01*
X142895058Y-104815276D01*
X142770253Y-104731884D01*
X142664116Y-104625747D01*
X142580724Y-104500942D01*
X142523283Y-104362267D01*
X142494000Y-104215050D01*
X142494000Y-104064950D01*
X142523283Y-103917733D01*
X142580724Y-103779058D01*
X142664116Y-103654253D01*
X142770253Y-103548116D01*
X142895058Y-103464724D01*
X143033733Y-103407283D01*
X143180950Y-103378000D01*
X143331050Y-103378000D01*
X143478267Y-103407283D01*
G37*
G36*
X132472684Y-102556595D02*
G01*
X132524314Y-102572256D01*
X132571888Y-102597685D01*
X132613590Y-102631910D01*
X132647815Y-102673612D01*
X132673244Y-102721186D01*
X132688905Y-102772816D01*
X132694500Y-102829617D01*
X132694500Y-103926383D01*
X132688905Y-103983184D01*
X132673244Y-104034814D01*
X132647815Y-104082388D01*
X132613590Y-104124090D01*
X132571888Y-104158315D01*
X132524314Y-104183744D01*
X132472684Y-104199405D01*
X132415883Y-104205000D01*
X131744117Y-104205000D01*
X131687316Y-104199405D01*
X131635686Y-104183744D01*
X131588112Y-104158315D01*
X131546410Y-104124090D01*
X131512185Y-104082388D01*
X131486756Y-104034814D01*
X131471095Y-103983184D01*
X131465500Y-103926383D01*
X131465500Y-102829617D01*
X131471095Y-102772816D01*
X131486756Y-102721186D01*
X131512185Y-102673612D01*
X131546410Y-102631910D01*
X131588112Y-102597685D01*
X131635686Y-102572256D01*
X131687316Y-102556595D01*
X131744117Y-102551000D01*
X132415883Y-102551000D01*
X132472684Y-102556595D01*
G37*
G36*
X130597684Y-102556595D02*
G01*
X130649314Y-102572256D01*
X130696888Y-102597685D01*
X130738590Y-102631910D01*
X130772815Y-102673612D01*
X130798244Y-102721186D01*
X130813905Y-102772816D01*
X130819500Y-102829617D01*
X130819500Y-103926383D01*
X130813905Y-103983184D01*
X130798244Y-104034814D01*
X130772815Y-104082388D01*
X130738590Y-104124090D01*
X130696888Y-104158315D01*
X130649314Y-104183744D01*
X130597684Y-104199405D01*
X130540883Y-104205000D01*
X129869117Y-104205000D01*
X129812316Y-104199405D01*
X129760686Y-104183744D01*
X129713112Y-104158315D01*
X129671410Y-104124090D01*
X129637185Y-104082388D01*
X129611756Y-104034814D01*
X129596095Y-103983184D01*
X129590500Y-103926383D01*
X129590500Y-102829617D01*
X129596095Y-102772816D01*
X129611756Y-102721186D01*
X129637185Y-102673612D01*
X129671410Y-102631910D01*
X129713112Y-102597685D01*
X129760686Y-102572256D01*
X129812316Y-102556595D01*
X129869117Y-102551000D01*
X130540883Y-102551000D01*
X130597684Y-102556595D01*
G37*
G36*
X137552684Y-102556595D02*
G01*
X137604314Y-102572256D01*
X137651888Y-102597685D01*
X137693590Y-102631910D01*
X137727815Y-102673612D01*
X137753244Y-102721186D01*
X137768905Y-102772816D01*
X137774500Y-102829617D01*
X137774500Y-103926383D01*
X137768905Y-103983184D01*
X137753244Y-104034814D01*
X137727815Y-104082388D01*
X137693590Y-104124090D01*
X137651888Y-104158315D01*
X137604314Y-104183744D01*
X137552684Y-104199405D01*
X137495883Y-104205000D01*
X136824117Y-104205000D01*
X136767316Y-104199405D01*
X136715686Y-104183744D01*
X136668112Y-104158315D01*
X136626410Y-104124090D01*
X136592185Y-104082388D01*
X136566756Y-104034814D01*
X136551095Y-103983184D01*
X136545500Y-103926383D01*
X136545500Y-102829617D01*
X136551095Y-102772816D01*
X136566756Y-102721186D01*
X136592185Y-102673612D01*
X136626410Y-102631910D01*
X136668112Y-102597685D01*
X136715686Y-102572256D01*
X136767316Y-102556595D01*
X136824117Y-102551000D01*
X137495883Y-102551000D01*
X137552684Y-102556595D01*
G37*
G36*
X139427684Y-102556595D02*
G01*
X139479314Y-102572256D01*
X139526888Y-102597685D01*
X139568590Y-102631910D01*
X139602815Y-102673612D01*
X139628244Y-102721186D01*
X139643905Y-102772816D01*
X139649500Y-102829617D01*
X139649500Y-103926383D01*
X139643905Y-103983184D01*
X139628244Y-104034814D01*
X139602815Y-104082388D01*
X139568590Y-104124090D01*
X139526888Y-104158315D01*
X139479314Y-104183744D01*
X139427684Y-104199405D01*
X139370883Y-104205000D01*
X138699117Y-104205000D01*
X138642316Y-104199405D01*
X138590686Y-104183744D01*
X138543112Y-104158315D01*
X138501410Y-104124090D01*
X138467185Y-104082388D01*
X138441756Y-104034814D01*
X138426095Y-103983184D01*
X138420500Y-103926383D01*
X138420500Y-102829617D01*
X138426095Y-102772816D01*
X138441756Y-102721186D01*
X138467185Y-102673612D01*
X138501410Y-102631910D01*
X138543112Y-102597685D01*
X138590686Y-102572256D01*
X138642316Y-102556595D01*
X138699117Y-102551000D01*
X139370883Y-102551000D01*
X139427684Y-102556595D01*
G37*
G36*
X134075184Y-102556595D02*
G01*
X134126814Y-102572256D01*
X134174388Y-102597685D01*
X134216090Y-102631910D01*
X134250315Y-102673612D01*
X134275744Y-102721186D01*
X134291405Y-102772816D01*
X134297000Y-102829617D01*
X134297000Y-103926383D01*
X134291405Y-103983184D01*
X134275744Y-104034814D01*
X134250315Y-104082388D01*
X134216090Y-104124090D01*
X134174388Y-104158315D01*
X134126814Y-104183744D01*
X134075184Y-104199405D01*
X134018383Y-104205000D01*
X133346617Y-104205000D01*
X133289816Y-104199405D01*
X133238186Y-104183744D01*
X133190612Y-104158315D01*
X133148910Y-104124090D01*
X133114685Y-104082388D01*
X133089256Y-104034814D01*
X133073595Y-103983184D01*
X133068000Y-103926383D01*
X133068000Y-102829617D01*
X133073595Y-102772816D01*
X133089256Y-102721186D01*
X133114685Y-102673612D01*
X133148910Y-102631910D01*
X133190612Y-102597685D01*
X133238186Y-102572256D01*
X133289816Y-102556595D01*
X133346617Y-102551000D01*
X134018383Y-102551000D01*
X134075184Y-102556595D01*
G37*
G36*
X135950184Y-102556595D02*
G01*
X136001814Y-102572256D01*
X136049388Y-102597685D01*
X136091090Y-102631910D01*
X136125315Y-102673612D01*
X136150744Y-102721186D01*
X136166405Y-102772816D01*
X136172000Y-102829617D01*
X136172000Y-103926383D01*
X136166405Y-103983184D01*
X136150744Y-104034814D01*
X136125315Y-104082388D01*
X136091090Y-104124090D01*
X136049388Y-104158315D01*
X136001814Y-104183744D01*
X135950184Y-104199405D01*
X135893383Y-104205000D01*
X135221617Y-104205000D01*
X135164816Y-104199405D01*
X135113186Y-104183744D01*
X135065612Y-104158315D01*
X135023910Y-104124090D01*
X134989685Y-104082388D01*
X134964256Y-104034814D01*
X134948595Y-103983184D01*
X134943000Y-103926383D01*
X134943000Y-102829617D01*
X134948595Y-102772816D01*
X134964256Y-102721186D01*
X134989685Y-102673612D01*
X135023910Y-102631910D01*
X135065612Y-102597685D01*
X135113186Y-102572256D01*
X135164816Y-102556595D01*
X135221617Y-102551000D01*
X135893383Y-102551000D01*
X135950184Y-102556595D01*
G37*
G36*
X175839031Y-101438240D02*
G01*
X175887201Y-101452852D01*
X175931584Y-101476576D01*
X175970493Y-101508507D01*
X176002424Y-101547416D01*
X176026148Y-101591799D01*
X176040760Y-101639969D01*
X176046000Y-101693172D01*
X176046000Y-102776828D01*
X176040760Y-102830031D01*
X176026148Y-102878201D01*
X176002424Y-102922584D01*
X175970493Y-102961493D01*
X175931584Y-102993424D01*
X175887201Y-103017148D01*
X175839031Y-103031760D01*
X175785828Y-103037000D01*
X175022569Y-103037000D01*
X175010181Y-103038220D01*
X174998269Y-103041834D01*
X174987291Y-103047702D01*
X174977668Y-103055598D01*
X174969772Y-103065221D01*
X174963904Y-103076199D01*
X174960290Y-103088111D01*
X174959070Y-103100499D01*
X174960290Y-103112887D01*
X174963902Y-103124795D01*
X174976717Y-103155733D01*
X175006000Y-103302950D01*
X175006000Y-103453050D01*
X174976717Y-103600267D01*
X174919276Y-103738942D01*
X174835884Y-103863747D01*
X174729747Y-103969884D01*
X174604942Y-104053276D01*
X174466267Y-104110717D01*
X174319050Y-104140000D01*
X174168950Y-104140000D01*
X174021733Y-104110717D01*
X173883058Y-104053276D01*
X173758253Y-103969884D01*
X173652116Y-103863747D01*
X173568724Y-103738942D01*
X173511283Y-103600267D01*
X173482000Y-103453050D01*
X173482000Y-103302950D01*
X173511283Y-103155733D01*
X173524098Y-103124795D01*
X173527710Y-103112886D01*
X173528930Y-103100498D01*
X173527710Y-103088110D01*
X173524096Y-103076198D01*
X173518228Y-103065220D01*
X173510331Y-103055598D01*
X173500708Y-103047701D01*
X173489730Y-103041833D01*
X173477818Y-103038220D01*
X173465431Y-103037000D01*
X172702172Y-103037000D01*
X172648969Y-103031760D01*
X172600799Y-103017148D01*
X172556416Y-102993424D01*
X172517507Y-102961493D01*
X172485576Y-102922584D01*
X172461852Y-102878201D01*
X172447240Y-102830031D01*
X172442000Y-102776828D01*
X172442000Y-101693172D01*
X172447240Y-101639969D01*
X172461852Y-101591799D01*
X172485576Y-101547416D01*
X172517507Y-101508507D01*
X172556416Y-101476576D01*
X172600799Y-101452852D01*
X172648969Y-101438240D01*
X172702172Y-101433000D01*
X175785828Y-101433000D01*
X175839031Y-101438240D01*
G37*
G36*
X154884031Y-101438240D02*
G01*
X154932201Y-101452852D01*
X154976584Y-101476576D01*
X155015493Y-101508507D01*
X155047424Y-101547416D01*
X155071148Y-101591799D01*
X155085760Y-101639969D01*
X155091000Y-101693172D01*
X155091000Y-102776828D01*
X155085760Y-102830031D01*
X155071148Y-102878201D01*
X155047424Y-102922584D01*
X155015493Y-102961493D01*
X154976584Y-102993424D01*
X154932201Y-103017148D01*
X154884031Y-103031760D01*
X154830828Y-103037000D01*
X154194569Y-103037000D01*
X154182181Y-103038220D01*
X154170269Y-103041834D01*
X154159291Y-103047702D01*
X154149668Y-103055598D01*
X154141772Y-103065221D01*
X154135904Y-103076199D01*
X154132290Y-103088111D01*
X154131070Y-103100499D01*
X154132290Y-103112887D01*
X154135902Y-103124795D01*
X154148717Y-103155733D01*
X154178000Y-103302950D01*
X154178000Y-103453050D01*
X154148717Y-103600267D01*
X154091276Y-103738942D01*
X154007884Y-103863747D01*
X153901747Y-103969884D01*
X153776942Y-104053276D01*
X153638267Y-104110717D01*
X153491050Y-104140000D01*
X153340950Y-104140000D01*
X153193733Y-104110717D01*
X153055058Y-104053276D01*
X152930253Y-103969884D01*
X152824116Y-103863747D01*
X152740724Y-103738942D01*
X152683283Y-103600267D01*
X152654000Y-103453050D01*
X152654000Y-103302950D01*
X152683283Y-103155733D01*
X152696098Y-103124795D01*
X152699710Y-103112886D01*
X152700930Y-103100498D01*
X152699710Y-103088110D01*
X152696096Y-103076198D01*
X152690228Y-103065220D01*
X152682331Y-103055598D01*
X152672708Y-103047701D01*
X152661730Y-103041833D01*
X152649818Y-103038220D01*
X152637431Y-103037000D01*
X151747172Y-103037000D01*
X151693969Y-103031760D01*
X151645799Y-103017148D01*
X151601416Y-102993424D01*
X151562507Y-102961493D01*
X151530576Y-102922584D01*
X151506852Y-102878201D01*
X151492240Y-102830031D01*
X151487000Y-102776828D01*
X151487000Y-101693172D01*
X151492240Y-101639969D01*
X151506852Y-101591799D01*
X151530576Y-101547416D01*
X151562507Y-101508507D01*
X151601416Y-101476576D01*
X151645799Y-101452852D01*
X151693969Y-101438240D01*
X151747172Y-101433000D01*
X154830828Y-101433000D01*
X154884031Y-101438240D01*
G37*
G36*
X157194267Y-101629283D02*
G01*
X157332942Y-101686724D01*
X157457747Y-101770116D01*
X157563884Y-101876253D01*
X157647276Y-102001058D01*
X157704717Y-102139733D01*
X157734000Y-102286950D01*
X157734000Y-102437050D01*
X157704717Y-102584267D01*
X157647276Y-102722942D01*
X157563884Y-102847747D01*
X157457747Y-102953884D01*
X157332942Y-103037276D01*
X157194267Y-103094717D01*
X157047050Y-103124000D01*
X156896950Y-103124000D01*
X156749733Y-103094717D01*
X156611058Y-103037276D01*
X156486253Y-102953884D01*
X156380116Y-102847747D01*
X156296724Y-102722942D01*
X156239283Y-102584267D01*
X156210000Y-102437050D01*
X156210000Y-102286950D01*
X156239283Y-102139733D01*
X156296724Y-102001058D01*
X156380116Y-101876253D01*
X156486253Y-101770116D01*
X156611058Y-101686724D01*
X156749733Y-101629283D01*
X156896950Y-101600000D01*
X157047050Y-101600000D01*
X157194267Y-101629283D01*
G37*
G36*
X180183184Y-101831595D02*
G01*
X180234814Y-101847256D01*
X180282388Y-101872685D01*
X180324090Y-101906910D01*
X180358315Y-101948612D01*
X180383744Y-101996186D01*
X180399405Y-102047816D01*
X180405000Y-102104617D01*
X180405000Y-102776383D01*
X180399405Y-102833184D01*
X180383744Y-102884814D01*
X180358315Y-102932388D01*
X180324090Y-102974090D01*
X180282388Y-103008315D01*
X180234814Y-103033744D01*
X180183184Y-103049405D01*
X180126383Y-103055000D01*
X179029617Y-103055000D01*
X178972816Y-103049405D01*
X178921186Y-103033744D01*
X178873612Y-103008315D01*
X178831910Y-102974090D01*
X178797685Y-102932388D01*
X178772256Y-102884814D01*
X178756595Y-102833184D01*
X178751000Y-102776383D01*
X178751000Y-102104617D01*
X178756595Y-102047816D01*
X178772256Y-101996186D01*
X178797685Y-101948612D01*
X178831910Y-101906910D01*
X178873612Y-101872685D01*
X178921186Y-101847256D01*
X178972816Y-101831595D01*
X179029617Y-101826000D01*
X180126383Y-101826000D01*
X180183184Y-101831595D01*
G37*
G36*
X164560267Y-101375283D02*
G01*
X164698942Y-101432724D01*
X164823747Y-101516116D01*
X164929884Y-101622253D01*
X165013276Y-101747058D01*
X165070717Y-101885733D01*
X165100000Y-102032950D01*
X165100000Y-102183050D01*
X165070717Y-102330267D01*
X165013276Y-102468942D01*
X164929884Y-102593747D01*
X164823747Y-102699884D01*
X164698942Y-102783276D01*
X164560267Y-102840717D01*
X164413050Y-102870000D01*
X164262950Y-102870000D01*
X164115733Y-102840717D01*
X163977058Y-102783276D01*
X163852253Y-102699884D01*
X163746116Y-102593747D01*
X163662724Y-102468942D01*
X163605283Y-102330267D01*
X163576000Y-102183050D01*
X163576000Y-102032950D01*
X163605283Y-101885733D01*
X163662724Y-101747058D01*
X163746116Y-101622253D01*
X163852253Y-101516116D01*
X163977058Y-101432724D01*
X164115733Y-101375283D01*
X164262950Y-101346000D01*
X164413050Y-101346000D01*
X164560267Y-101375283D01*
G37*
G36*
X182908489Y-100847349D02*
G01*
X182957715Y-100862281D01*
X183003075Y-100886527D01*
X183042840Y-100919160D01*
X183075473Y-100958925D01*
X183099719Y-101004285D01*
X183114651Y-101053511D01*
X183120000Y-101107817D01*
X183120000Y-102080183D01*
X183114651Y-102134489D01*
X183099719Y-102183715D01*
X183075473Y-102229075D01*
X183042840Y-102268840D01*
X183003075Y-102301473D01*
X182957715Y-102325719D01*
X182908489Y-102340651D01*
X182854183Y-102346000D01*
X181381817Y-102346000D01*
X181327511Y-102340651D01*
X181278285Y-102325719D01*
X181232925Y-102301473D01*
X181193160Y-102268840D01*
X181160527Y-102229075D01*
X181136281Y-102183715D01*
X181121349Y-102134489D01*
X181116000Y-102080183D01*
X181116000Y-101107817D01*
X181121349Y-101053511D01*
X181136281Y-101004285D01*
X181160527Y-100958925D01*
X181193160Y-100919160D01*
X181232925Y-100886527D01*
X181278285Y-100862281D01*
X181327511Y-100847349D01*
X181381817Y-100842000D01*
X182854183Y-100842000D01*
X182908489Y-100847349D01*
G37*
G36*
X179800267Y-100105283D02*
G01*
X179938942Y-100162724D01*
X180063747Y-100246116D01*
X180169884Y-100352253D01*
X180253276Y-100477058D01*
X180310717Y-100615733D01*
X180340000Y-100762950D01*
X180340000Y-100913050D01*
X180310717Y-101060267D01*
X180253276Y-101198942D01*
X180169884Y-101323747D01*
X180063747Y-101429884D01*
X179938942Y-101513276D01*
X179800267Y-101570717D01*
X179653050Y-101600000D01*
X179502950Y-101600000D01*
X179355733Y-101570717D01*
X179217058Y-101513276D01*
X179092253Y-101429884D01*
X178986116Y-101323747D01*
X178902724Y-101198942D01*
X178845283Y-101060267D01*
X178816000Y-100913050D01*
X178816000Y-100762950D01*
X178845283Y-100615733D01*
X178902724Y-100477058D01*
X178986116Y-100352253D01*
X179092253Y-100246116D01*
X179217058Y-100162724D01*
X179355733Y-100105283D01*
X179502950Y-100076000D01*
X179653050Y-100076000D01*
X179800267Y-100105283D01*
G37*
G36*
X149449184Y-99818095D02*
G01*
X149500814Y-99833756D01*
X149548388Y-99859185D01*
X149590090Y-99893410D01*
X149624315Y-99935112D01*
X149649744Y-99982686D01*
X149665405Y-100034316D01*
X149671000Y-100091117D01*
X149671000Y-100762883D01*
X149665405Y-100819684D01*
X149649744Y-100871314D01*
X149624315Y-100918888D01*
X149590090Y-100960590D01*
X149548388Y-100994815D01*
X149500814Y-101020244D01*
X149449184Y-101035905D01*
X149392383Y-101041500D01*
X148295617Y-101041500D01*
X148238816Y-101035905D01*
X148187186Y-101020244D01*
X148139612Y-100994815D01*
X148097910Y-100960590D01*
X148063685Y-100918888D01*
X148038256Y-100871314D01*
X148022595Y-100819684D01*
X148017000Y-100762883D01*
X148017000Y-100091117D01*
X148022595Y-100034316D01*
X148038256Y-99982686D01*
X148063685Y-99935112D01*
X148097910Y-99893410D01*
X148139612Y-99859185D01*
X148187186Y-99833756D01*
X148238816Y-99818095D01*
X148295617Y-99812500D01*
X149392383Y-99812500D01*
X149449184Y-99818095D01*
G37*
G36*
X182908489Y-99075349D02*
G01*
X182957715Y-99090281D01*
X183003075Y-99114527D01*
X183042840Y-99147160D01*
X183075473Y-99186925D01*
X183099719Y-99232285D01*
X183114651Y-99281511D01*
X183120000Y-99335817D01*
X183120000Y-100308183D01*
X183114651Y-100362489D01*
X183099719Y-100411715D01*
X183075473Y-100457075D01*
X183042840Y-100496840D01*
X183003075Y-100529473D01*
X182957715Y-100553719D01*
X182908489Y-100568651D01*
X182854183Y-100574000D01*
X181381817Y-100574000D01*
X181327511Y-100568651D01*
X181278285Y-100553719D01*
X181232925Y-100529473D01*
X181193160Y-100496840D01*
X181160527Y-100457075D01*
X181136281Y-100411715D01*
X181121349Y-100362489D01*
X181116000Y-100308183D01*
X181116000Y-99335817D01*
X181121349Y-99281511D01*
X181136281Y-99232285D01*
X181160527Y-99186925D01*
X181193160Y-99147160D01*
X181232925Y-99114527D01*
X181278285Y-99090281D01*
X181327511Y-99075349D01*
X181381817Y-99070000D01*
X182854183Y-99070000D01*
X182908489Y-99075349D01*
G37*
G36*
X149449184Y-97943095D02*
G01*
X149500814Y-97958756D01*
X149548388Y-97984185D01*
X149590090Y-98018410D01*
X149624315Y-98060112D01*
X149649744Y-98107686D01*
X149665405Y-98159316D01*
X149671000Y-98216117D01*
X149671000Y-98887883D01*
X149665405Y-98944684D01*
X149649744Y-98996314D01*
X149624315Y-99043888D01*
X149590090Y-99085590D01*
X149548388Y-99119815D01*
X149500814Y-99145244D01*
X149449184Y-99160905D01*
X149392383Y-99166500D01*
X148295617Y-99166500D01*
X148238816Y-99160905D01*
X148187186Y-99145244D01*
X148139612Y-99119815D01*
X148097910Y-99085590D01*
X148063685Y-99043888D01*
X148038256Y-98996314D01*
X148022595Y-98944684D01*
X148017000Y-98887883D01*
X148017000Y-98216117D01*
X148022595Y-98159316D01*
X148038256Y-98107686D01*
X148063685Y-98060112D01*
X148097910Y-98018410D01*
X148139612Y-97984185D01*
X148187186Y-97958756D01*
X148238816Y-97943095D01*
X148295617Y-97937500D01*
X149392383Y-97937500D01*
X149449184Y-97943095D01*
G37*
G36*
X137128267Y-97311283D02*
G01*
X137266942Y-97368724D01*
X137391747Y-97452116D01*
X137497884Y-97558253D01*
X137581276Y-97683058D01*
X137638717Y-97821733D01*
X137668000Y-97968950D01*
X137668000Y-98119050D01*
X137638717Y-98266267D01*
X137581276Y-98404942D01*
X137497884Y-98529747D01*
X137391747Y-98635884D01*
X137266942Y-98719276D01*
X137128267Y-98776717D01*
X136981050Y-98806000D01*
X136830950Y-98806000D01*
X136683733Y-98776717D01*
X136545058Y-98719276D01*
X136420253Y-98635884D01*
X136314116Y-98529747D01*
X136230724Y-98404942D01*
X136173283Y-98266267D01*
X136144000Y-98119050D01*
X136144000Y-97968950D01*
X136173283Y-97821733D01*
X136230724Y-97683058D01*
X136314116Y-97558253D01*
X136420253Y-97452116D01*
X136545058Y-97368724D01*
X136683733Y-97311283D01*
X136830950Y-97282000D01*
X136981050Y-97282000D01*
X137128267Y-97311283D01*
G37*
G36*
X158464267Y-96549283D02*
G01*
X158602942Y-96606724D01*
X158727747Y-96690116D01*
X158833884Y-96796253D01*
X158917276Y-96921058D01*
X158974717Y-97059733D01*
X159004000Y-97206950D01*
X159004000Y-97357050D01*
X158974717Y-97504267D01*
X158917276Y-97642942D01*
X158833884Y-97767747D01*
X158727747Y-97873884D01*
X158602942Y-97957276D01*
X158464267Y-98014717D01*
X158317050Y-98044000D01*
X158166950Y-98044000D01*
X158019733Y-98014717D01*
X157881058Y-97957276D01*
X157756253Y-97873884D01*
X157650116Y-97767747D01*
X157566724Y-97642942D01*
X157509283Y-97504267D01*
X157480000Y-97357050D01*
X157480000Y-97206950D01*
X157509283Y-97059733D01*
X157566724Y-96921058D01*
X157650116Y-96796253D01*
X157756253Y-96690116D01*
X157881058Y-96606724D01*
X158019733Y-96549283D01*
X158166950Y-96520000D01*
X158317050Y-96520000D01*
X158464267Y-96549283D01*
G37*
G36*
X171037267Y-96422283D02*
G01*
X171175942Y-96479724D01*
X171300747Y-96563116D01*
X171406884Y-96669253D01*
X171490276Y-96794058D01*
X171547717Y-96932733D01*
X171577000Y-97079950D01*
X171577000Y-97230050D01*
X171547717Y-97377267D01*
X171490276Y-97515942D01*
X171406884Y-97640747D01*
X171300747Y-97746884D01*
X171175942Y-97830276D01*
X171037267Y-97887717D01*
X170890050Y-97917000D01*
X170739950Y-97917000D01*
X170592733Y-97887717D01*
X170454058Y-97830276D01*
X170329253Y-97746884D01*
X170223116Y-97640747D01*
X170139724Y-97515942D01*
X170082283Y-97377267D01*
X170053000Y-97230050D01*
X170053000Y-97079950D01*
X170082283Y-96932733D01*
X170139724Y-96794058D01*
X170223116Y-96669253D01*
X170329253Y-96563116D01*
X170454058Y-96479724D01*
X170592733Y-96422283D01*
X170739950Y-96393000D01*
X170890050Y-96393000D01*
X171037267Y-96422283D01*
G37*
G36*
X149066267Y-96295283D02*
G01*
X149204942Y-96352724D01*
X149329747Y-96436116D01*
X149435884Y-96542253D01*
X149519276Y-96667058D01*
X149576717Y-96805733D01*
X149606000Y-96952950D01*
X149606000Y-97103050D01*
X149576717Y-97250267D01*
X149519276Y-97388942D01*
X149435884Y-97513747D01*
X149329747Y-97619884D01*
X149204942Y-97703276D01*
X149066267Y-97760717D01*
X148919050Y-97790000D01*
X148768950Y-97790000D01*
X148621733Y-97760717D01*
X148483058Y-97703276D01*
X148358253Y-97619884D01*
X148252116Y-97513747D01*
X148168724Y-97388942D01*
X148111283Y-97250267D01*
X148082000Y-97103050D01*
X148082000Y-96952950D01*
X148111283Y-96805733D01*
X148168724Y-96667058D01*
X148252116Y-96542253D01*
X148358253Y-96436116D01*
X148483058Y-96352724D01*
X148621733Y-96295283D01*
X148768950Y-96266000D01*
X148919050Y-96266000D01*
X149066267Y-96295283D01*
G37*
G36*
X182908489Y-96275349D02*
G01*
X182957715Y-96290281D01*
X183003075Y-96314527D01*
X183042840Y-96347160D01*
X183075473Y-96386925D01*
X183099719Y-96432285D01*
X183114651Y-96481511D01*
X183120000Y-96535817D01*
X183120000Y-97508183D01*
X183114651Y-97562489D01*
X183099719Y-97611715D01*
X183075473Y-97657075D01*
X183042840Y-97696840D01*
X183003075Y-97729473D01*
X182957715Y-97753719D01*
X182908489Y-97768651D01*
X182854183Y-97774000D01*
X181381817Y-97774000D01*
X181327511Y-97768651D01*
X181278285Y-97753719D01*
X181232925Y-97729473D01*
X181193160Y-97696840D01*
X181160527Y-97657075D01*
X181136281Y-97611715D01*
X181121349Y-97562489D01*
X181116000Y-97508183D01*
X181116000Y-96535817D01*
X181121349Y-96481511D01*
X181136281Y-96432285D01*
X181160527Y-96386925D01*
X181193160Y-96347160D01*
X181232925Y-96314527D01*
X181278285Y-96290281D01*
X181327511Y-96275349D01*
X181381817Y-96270000D01*
X182854183Y-96270000D01*
X182908489Y-96275349D01*
G37*
G36*
X175839031Y-95638240D02*
G01*
X175887201Y-95652852D01*
X175931584Y-95676576D01*
X175970493Y-95708507D01*
X176002424Y-95747416D01*
X176026148Y-95791799D01*
X176040760Y-95839969D01*
X176046000Y-95893172D01*
X176046000Y-96976828D01*
X176040760Y-97030031D01*
X176026148Y-97078201D01*
X176002424Y-97122584D01*
X175970493Y-97161493D01*
X175931584Y-97193424D01*
X175887201Y-97217148D01*
X175839031Y-97231760D01*
X175785828Y-97237000D01*
X172702172Y-97237000D01*
X172648969Y-97231760D01*
X172600799Y-97217148D01*
X172556416Y-97193424D01*
X172517507Y-97161493D01*
X172485576Y-97122584D01*
X172461852Y-97078201D01*
X172447240Y-97030031D01*
X172442000Y-96976828D01*
X172442000Y-95893172D01*
X172447240Y-95839969D01*
X172461852Y-95791799D01*
X172485576Y-95747416D01*
X172517507Y-95708507D01*
X172556416Y-95676576D01*
X172600799Y-95652852D01*
X172648969Y-95638240D01*
X172702172Y-95633000D01*
X175785828Y-95633000D01*
X175839031Y-95638240D01*
G37*
G36*
X153638267Y-94263283D02*
G01*
X153776942Y-94320724D01*
X153901747Y-94404116D01*
X154007884Y-94510253D01*
X154091276Y-94635058D01*
X154148717Y-94773733D01*
X154178000Y-94920950D01*
X154178000Y-95071050D01*
X154148717Y-95218267D01*
X154091276Y-95356942D01*
X154007884Y-95481747D01*
X153965025Y-95524606D01*
X153957134Y-95534223D01*
X153951266Y-95545201D01*
X153947652Y-95557113D01*
X153946432Y-95569501D01*
X153947652Y-95581889D01*
X153951266Y-95593801D01*
X153957134Y-95604779D01*
X153965030Y-95614402D01*
X153974653Y-95622298D01*
X153985631Y-95628166D01*
X153997543Y-95631780D01*
X154009931Y-95633000D01*
X154830828Y-95633000D01*
X154884031Y-95638240D01*
X154932201Y-95652852D01*
X154976584Y-95676576D01*
X155015493Y-95708507D01*
X155047424Y-95747416D01*
X155071148Y-95791799D01*
X155085760Y-95839969D01*
X155091000Y-95893172D01*
X155091000Y-96976828D01*
X155085760Y-97030031D01*
X155071148Y-97078201D01*
X155047424Y-97122584D01*
X155015493Y-97161493D01*
X154976584Y-97193424D01*
X154932201Y-97217148D01*
X154884031Y-97231760D01*
X154830828Y-97237000D01*
X151747172Y-97237000D01*
X151693969Y-97231760D01*
X151645799Y-97217148D01*
X151601416Y-97193424D01*
X151562507Y-97161493D01*
X151530576Y-97122584D01*
X151506852Y-97078201D01*
X151492240Y-97030031D01*
X151487000Y-96976828D01*
X151487000Y-95893172D01*
X151492240Y-95839969D01*
X151506852Y-95791799D01*
X151530576Y-95747416D01*
X151562507Y-95708507D01*
X151601416Y-95676576D01*
X151645799Y-95652852D01*
X151693969Y-95638240D01*
X151747172Y-95633000D01*
X152822069Y-95633000D01*
X152834457Y-95631780D01*
X152846369Y-95628166D01*
X152857347Y-95622298D01*
X152866970Y-95614402D01*
X152874866Y-95604779D01*
X152880734Y-95593801D01*
X152884348Y-95581889D01*
X152885568Y-95569501D01*
X152884348Y-95557113D01*
X152880734Y-95545201D01*
X152874866Y-95534223D01*
X152866975Y-95524606D01*
X152824116Y-95481747D01*
X152740724Y-95356942D01*
X152683283Y-95218267D01*
X152654000Y-95071050D01*
X152654000Y-94920950D01*
X152683283Y-94773733D01*
X152740724Y-94635058D01*
X152824116Y-94510253D01*
X152930253Y-94404116D01*
X153055058Y-94320724D01*
X153193733Y-94263283D01*
X153340950Y-94234000D01*
X153491050Y-94234000D01*
X153638267Y-94263283D01*
G37*
G36*
X134378745Y-94942146D02*
G01*
X134516691Y-94969585D01*
X134689938Y-95041346D01*
X134845863Y-95145532D01*
X134978468Y-95278137D01*
X135082654Y-95434062D01*
X135154415Y-95607309D01*
X135191000Y-95791237D01*
X135191000Y-95978763D01*
X135154415Y-96162691D01*
X135082654Y-96335938D01*
X134978468Y-96491863D01*
X134845863Y-96624468D01*
X134689938Y-96728654D01*
X134516691Y-96800415D01*
X134378745Y-96827854D01*
X134332764Y-96837000D01*
X134145236Y-96837000D01*
X134099255Y-96827854D01*
X133961309Y-96800415D01*
X133788062Y-96728654D01*
X133632137Y-96624468D01*
X133499532Y-96491863D01*
X133395346Y-96335938D01*
X133323585Y-96162691D01*
X133287000Y-95978763D01*
X133287000Y-95791237D01*
X133323585Y-95607309D01*
X133395346Y-95434062D01*
X133499532Y-95278137D01*
X133632137Y-95145532D01*
X133788062Y-95041346D01*
X133961309Y-94969585D01*
X134099255Y-94942146D01*
X134145236Y-94933000D01*
X134332764Y-94933000D01*
X134378745Y-94942146D01*
G37*
G36*
X147034267Y-94517283D02*
G01*
X147172942Y-94574724D01*
X147297747Y-94658116D01*
X147403884Y-94764253D01*
X147487276Y-94889058D01*
X147544717Y-95027733D01*
X147574000Y-95174950D01*
X147574000Y-95325050D01*
X147544717Y-95472267D01*
X147487276Y-95610942D01*
X147403884Y-95735747D01*
X147297747Y-95841884D01*
X147172942Y-95925276D01*
X147034267Y-95982717D01*
X146887050Y-96012000D01*
X146736950Y-96012000D01*
X146589733Y-95982717D01*
X146451058Y-95925276D01*
X146326253Y-95841884D01*
X146220116Y-95735747D01*
X146136724Y-95610942D01*
X146079283Y-95472267D01*
X146050000Y-95325050D01*
X146050000Y-95174950D01*
X146079283Y-95027733D01*
X146136724Y-94889058D01*
X146220116Y-94764253D01*
X146326253Y-94658116D01*
X146451058Y-94574724D01*
X146589733Y-94517283D01*
X146736950Y-94488000D01*
X146887050Y-94488000D01*
X147034267Y-94517283D01*
G37*
G36*
X174466267Y-94009283D02*
G01*
X174604942Y-94066724D01*
X174729747Y-94150116D01*
X174835884Y-94256253D01*
X174919276Y-94381058D01*
X174976717Y-94519733D01*
X175006000Y-94666950D01*
X175006000Y-94817050D01*
X174976717Y-94964267D01*
X174919276Y-95102942D01*
X174835884Y-95227747D01*
X174729747Y-95333884D01*
X174604942Y-95417276D01*
X174466267Y-95474717D01*
X174319050Y-95504000D01*
X174168950Y-95504000D01*
X174021733Y-95474717D01*
X173883058Y-95417276D01*
X173758253Y-95333884D01*
X173652116Y-95227747D01*
X173568724Y-95102942D01*
X173511283Y-94964267D01*
X173482000Y-94817050D01*
X173482000Y-94666950D01*
X173511283Y-94519733D01*
X173568724Y-94381058D01*
X173652116Y-94256253D01*
X173758253Y-94150116D01*
X173883058Y-94066724D01*
X174021733Y-94009283D01*
X174168950Y-93980000D01*
X174319050Y-93980000D01*
X174466267Y-94009283D01*
G37*
G36*
X141827267Y-93882283D02*
G01*
X141965942Y-93939724D01*
X142090747Y-94023116D01*
X142196884Y-94129253D01*
X142280276Y-94254058D01*
X142337717Y-94392733D01*
X142367000Y-94539950D01*
X142367000Y-94690050D01*
X142337717Y-94837267D01*
X142280276Y-94975942D01*
X142196884Y-95100747D01*
X142090747Y-95206884D01*
X141965942Y-95290276D01*
X141827267Y-95347717D01*
X141680050Y-95377000D01*
X141529950Y-95377000D01*
X141382733Y-95347717D01*
X141244058Y-95290276D01*
X141119253Y-95206884D01*
X141013116Y-95100747D01*
X140929724Y-94975942D01*
X140872283Y-94837267D01*
X140843000Y-94690050D01*
X140843000Y-94539950D01*
X140872283Y-94392733D01*
X140929724Y-94254058D01*
X141013116Y-94129253D01*
X141119253Y-94023116D01*
X141244058Y-93939724D01*
X141382733Y-93882283D01*
X141529950Y-93853000D01*
X141680050Y-93853000D01*
X141827267Y-93882283D01*
G37*
G36*
X158816000Y-93927000D02*
G01*
X147762000Y-93927000D01*
X147762000Y-84273000D01*
X158816000Y-84273000D01*
X158816000Y-93927000D01*
G37*
G36*
X181041000Y-93800000D02*
G01*
X169987000Y-93800000D01*
X169987000Y-84146000D01*
X181041000Y-84146000D01*
X181041000Y-93800000D01*
G37*
G36*
X184873000Y-88099000D02*
G01*
X182919000Y-88099000D01*
X182919000Y-86145000D01*
X184873000Y-86145000D01*
X184873000Y-88099000D01*
G37*
G36*
X133318267Y-86135283D02*
G01*
X133456942Y-86192724D01*
X133581747Y-86276116D01*
X133687884Y-86382253D01*
X133771276Y-86507058D01*
X133828717Y-86645733D01*
X133858000Y-86792950D01*
X133858000Y-86943050D01*
X133828717Y-87090267D01*
X133771276Y-87228942D01*
X133687884Y-87353747D01*
X133581747Y-87459884D01*
X133456942Y-87543276D01*
X133318267Y-87600717D01*
X133171050Y-87630000D01*
X133020950Y-87630000D01*
X132873733Y-87600717D01*
X132735058Y-87543276D01*
X132610253Y-87459884D01*
X132504116Y-87353747D01*
X132420724Y-87228942D01*
X132363283Y-87090267D01*
X132334000Y-86943050D01*
X132334000Y-86792950D01*
X132363283Y-86645733D01*
X132420724Y-86507058D01*
X132504116Y-86382253D01*
X132610253Y-86276116D01*
X132735058Y-86192724D01*
X132873733Y-86135283D01*
X133020950Y-86106000D01*
X133171050Y-86106000D01*
X133318267Y-86135283D01*
G37*
G36*
X184013135Y-83609159D02*
G01*
X184180983Y-83642545D01*
X184358780Y-83716191D01*
X184518800Y-83823113D01*
X184654887Y-83959200D01*
X184761809Y-84119220D01*
X184835455Y-84297017D01*
X184873000Y-84485775D01*
X184873000Y-84678225D01*
X184835455Y-84866983D01*
X184761809Y-85044780D01*
X184654887Y-85204800D01*
X184518800Y-85340887D01*
X184358780Y-85447809D01*
X184180983Y-85521455D01*
X184013135Y-85554841D01*
X183992226Y-85559000D01*
X183799774Y-85559000D01*
X183778865Y-85554841D01*
X183611017Y-85521455D01*
X183433220Y-85447809D01*
X183273200Y-85340887D01*
X183137113Y-85204800D01*
X183030191Y-85044780D01*
X182956545Y-84866983D01*
X182919000Y-84678225D01*
X182919000Y-84485775D01*
X182956545Y-84297017D01*
X183030191Y-84119220D01*
X183137113Y-83959200D01*
X183273200Y-83823113D01*
X183433220Y-83716191D01*
X183611017Y-83642545D01*
X183778865Y-83609159D01*
X183799774Y-83605000D01*
X183992226Y-83605000D01*
X184013135Y-83609159D01*
G37*
G36*
X141954267Y-83087283D02*
G01*
X142092942Y-83144724D01*
X142217747Y-83228116D01*
X142323884Y-83334253D01*
X142407276Y-83459058D01*
X142464717Y-83597733D01*
X142494000Y-83744950D01*
X142494000Y-83895050D01*
X142464717Y-84042267D01*
X142407276Y-84180942D01*
X142323884Y-84305747D01*
X142217747Y-84411884D01*
X142092942Y-84495276D01*
X141954267Y-84552717D01*
X141807050Y-84582000D01*
X141656950Y-84582000D01*
X141509733Y-84552717D01*
X141371058Y-84495276D01*
X141246253Y-84411884D01*
X141140116Y-84305747D01*
X141056724Y-84180942D01*
X140999283Y-84042267D01*
X140970000Y-83895050D01*
X140970000Y-83744950D01*
X140999283Y-83597733D01*
X141056724Y-83459058D01*
X141140116Y-83334253D01*
X141246253Y-83228116D01*
X141371058Y-83144724D01*
X141509733Y-83087283D01*
X141656950Y-83058000D01*
X141807050Y-83058000D01*
X141954267Y-83087283D01*
G37*
G36*
X127984267Y-83087283D02*
G01*
X128122942Y-83144724D01*
X128247747Y-83228116D01*
X128353884Y-83334253D01*
X128437276Y-83459058D01*
X128494717Y-83597733D01*
X128524000Y-83744950D01*
X128524000Y-83895050D01*
X128494717Y-84042267D01*
X128437276Y-84180942D01*
X128353884Y-84305747D01*
X128247747Y-84411884D01*
X128122942Y-84495276D01*
X127984267Y-84552717D01*
X127837050Y-84582000D01*
X127686950Y-84582000D01*
X127539733Y-84552717D01*
X127401058Y-84495276D01*
X127276253Y-84411884D01*
X127170116Y-84305747D01*
X127086724Y-84180942D01*
X127029283Y-84042267D01*
X127000000Y-83895050D01*
X127000000Y-83744950D01*
X127029283Y-83597733D01*
X127086724Y-83459058D01*
X127170116Y-83334253D01*
X127276253Y-83228116D01*
X127401058Y-83144724D01*
X127539733Y-83087283D01*
X127686950Y-83058000D01*
X127837050Y-83058000D01*
X127984267Y-83087283D01*
G37*
G36*
X156506000Y-82377000D02*
G01*
X156378931Y-82377000D01*
X156366543Y-82378220D01*
X156354631Y-82381834D01*
X156343653Y-82387702D01*
X156334030Y-82395598D01*
X156326134Y-82405221D01*
X156320266Y-82416199D01*
X156316652Y-82428111D01*
X156315432Y-82440499D01*
X156316652Y-82452887D01*
X156320266Y-82464799D01*
X156326134Y-82475777D01*
X156334025Y-82485394D01*
X156420884Y-82572253D01*
X156504276Y-82697058D01*
X156561717Y-82835733D01*
X156591000Y-82982950D01*
X156591000Y-83133050D01*
X156561717Y-83280267D01*
X156504276Y-83418942D01*
X156420884Y-83543747D01*
X156314747Y-83649884D01*
X156189942Y-83733276D01*
X156051267Y-83790717D01*
X155904050Y-83820000D01*
X155753950Y-83820000D01*
X155606733Y-83790717D01*
X155468058Y-83733276D01*
X155343253Y-83649884D01*
X155237116Y-83543747D01*
X155153724Y-83418942D01*
X155096283Y-83280267D01*
X155067000Y-83133050D01*
X155067000Y-82982950D01*
X155096283Y-82835733D01*
X155153724Y-82697058D01*
X155237116Y-82572253D01*
X155323975Y-82485394D01*
X155331866Y-82475777D01*
X155337734Y-82464799D01*
X155341348Y-82452887D01*
X155342568Y-82440499D01*
X155341348Y-82428111D01*
X155337734Y-82416199D01*
X155331866Y-82405221D01*
X155323970Y-82395598D01*
X155314347Y-82387702D01*
X155303369Y-82381834D01*
X155291457Y-82378220D01*
X155279069Y-82377000D01*
X155152000Y-82377000D01*
X155152000Y-77523000D01*
X156506000Y-77523000D01*
X156506000Y-82377000D01*
G37*
G36*
X159734267Y-77499283D02*
G01*
X159872942Y-77556724D01*
X159997747Y-77640116D01*
X160103884Y-77746253D01*
X160131986Y-77788311D01*
X160187278Y-77871061D01*
X160215335Y-77938798D01*
X160221202Y-77949776D01*
X160229099Y-77959398D01*
X160238722Y-77967295D01*
X160249700Y-77973163D01*
X160261612Y-77976777D01*
X160274000Y-77977997D01*
X160286388Y-77976777D01*
X160298300Y-77973163D01*
X160309278Y-77967296D01*
X160318900Y-77959399D01*
X160326797Y-77949776D01*
X160332665Y-77938798D01*
X160360722Y-77871061D01*
X160416014Y-77788311D01*
X160444116Y-77746253D01*
X160550253Y-77640116D01*
X160675058Y-77556724D01*
X160813733Y-77499283D01*
X160960950Y-77470000D01*
X161111050Y-77470000D01*
X161258267Y-77499283D01*
X161396942Y-77556724D01*
X161521747Y-77640116D01*
X161627884Y-77746253D01*
X161711276Y-77871058D01*
X161768717Y-78009733D01*
X161798000Y-78156950D01*
X161798000Y-78307050D01*
X161768717Y-78454267D01*
X161711276Y-78592942D01*
X161627884Y-78717747D01*
X161521747Y-78823884D01*
X161475759Y-78854612D01*
X161396939Y-78907278D01*
X161329202Y-78935335D01*
X161318224Y-78941202D01*
X161308602Y-78949099D01*
X161300705Y-78958722D01*
X161294837Y-78969700D01*
X161291223Y-78981612D01*
X161290003Y-78994000D01*
X161291223Y-79006388D01*
X161294837Y-79018300D01*
X161300704Y-79029278D01*
X161308601Y-79038900D01*
X161318224Y-79046797D01*
X161329202Y-79052665D01*
X161396939Y-79080722D01*
X161396942Y-79080724D01*
X161521747Y-79164116D01*
X161627884Y-79270253D01*
X161711276Y-79395058D01*
X161768717Y-79533733D01*
X161798000Y-79680950D01*
X161798000Y-79831050D01*
X161768717Y-79978267D01*
X161711276Y-80116942D01*
X161627884Y-80241747D01*
X161521747Y-80347884D01*
X161491927Y-80367809D01*
X161396939Y-80431278D01*
X161329202Y-80459335D01*
X161318224Y-80465202D01*
X161308602Y-80473099D01*
X161300705Y-80482722D01*
X161294837Y-80493700D01*
X161291223Y-80505612D01*
X161290003Y-80518000D01*
X161291223Y-80530388D01*
X161294837Y-80542300D01*
X161300704Y-80553278D01*
X161308601Y-80562900D01*
X161318224Y-80570797D01*
X161329202Y-80576665D01*
X161396939Y-80604722D01*
X161396942Y-80604724D01*
X161521747Y-80688116D01*
X161627884Y-80794253D01*
X161711276Y-80919058D01*
X161768717Y-81057733D01*
X161798000Y-81204950D01*
X161798000Y-81355050D01*
X161768717Y-81502267D01*
X161711276Y-81640942D01*
X161627884Y-81765747D01*
X161521747Y-81871884D01*
X161411163Y-81945774D01*
X161396939Y-81955278D01*
X161329202Y-81983335D01*
X161318224Y-81989202D01*
X161308602Y-81997099D01*
X161300705Y-82006722D01*
X161294837Y-82017700D01*
X161291223Y-82029612D01*
X161290003Y-82042000D01*
X161291223Y-82054388D01*
X161294837Y-82066300D01*
X161300704Y-82077278D01*
X161308601Y-82086900D01*
X161318224Y-82094797D01*
X161329202Y-82100665D01*
X161396939Y-82128722D01*
X161396942Y-82128724D01*
X161521747Y-82212116D01*
X161627884Y-82318253D01*
X161711276Y-82443058D01*
X161768717Y-82581733D01*
X161798000Y-82728950D01*
X161798000Y-82879050D01*
X161768717Y-83026267D01*
X161711276Y-83164942D01*
X161627884Y-83289747D01*
X161521747Y-83395884D01*
X161396942Y-83479276D01*
X161258267Y-83536717D01*
X161111050Y-83566000D01*
X160960950Y-83566000D01*
X160813733Y-83536717D01*
X160675058Y-83479276D01*
X160550253Y-83395884D01*
X160444116Y-83289747D01*
X160360724Y-83164942D01*
X160360722Y-83164939D01*
X160332665Y-83097202D01*
X160326798Y-83086224D01*
X160318901Y-83076602D01*
X160309278Y-83068705D01*
X160298300Y-83062837D01*
X160286388Y-83059223D01*
X160274000Y-83058003D01*
X160261612Y-83059223D01*
X160249700Y-83062837D01*
X160238722Y-83068704D01*
X160229100Y-83076601D01*
X160221203Y-83086224D01*
X160215335Y-83097202D01*
X160187278Y-83164939D01*
X160187276Y-83164942D01*
X160103884Y-83289747D01*
X159997747Y-83395884D01*
X159872942Y-83479276D01*
X159734267Y-83536717D01*
X159587050Y-83566000D01*
X159436950Y-83566000D01*
X159289733Y-83536717D01*
X159151058Y-83479276D01*
X159026253Y-83395884D01*
X158920116Y-83289747D01*
X158836724Y-83164942D01*
X158779283Y-83026267D01*
X158750000Y-82879050D01*
X158750000Y-82728950D01*
X158779283Y-82581733D01*
X158836724Y-82443058D01*
X158920116Y-82318253D01*
X159026253Y-82212116D01*
X159151058Y-82128724D01*
X159151061Y-82128722D01*
X159218798Y-82100665D01*
X159229776Y-82094798D01*
X159239398Y-82086901D01*
X159247295Y-82077278D01*
X159253163Y-82066300D01*
X159256777Y-82054388D01*
X159257997Y-82042000D01*
X159766003Y-82042000D01*
X159767223Y-82054388D01*
X159770837Y-82066300D01*
X159776704Y-82077278D01*
X159784601Y-82086900D01*
X159794224Y-82094797D01*
X159805202Y-82100665D01*
X159872939Y-82128722D01*
X159872942Y-82128724D01*
X159997747Y-82212116D01*
X160103884Y-82318253D01*
X160146367Y-82381834D01*
X160187278Y-82443061D01*
X160215335Y-82510798D01*
X160221202Y-82521776D01*
X160229099Y-82531398D01*
X160238722Y-82539295D01*
X160249700Y-82545163D01*
X160261612Y-82548777D01*
X160274000Y-82549997D01*
X160286388Y-82548777D01*
X160298300Y-82545163D01*
X160309278Y-82539296D01*
X160318900Y-82531399D01*
X160326797Y-82521776D01*
X160332665Y-82510798D01*
X160360722Y-82443061D01*
X160401633Y-82381834D01*
X160444116Y-82318253D01*
X160550253Y-82212116D01*
X160675058Y-82128724D01*
X160675061Y-82128722D01*
X160742798Y-82100665D01*
X160753776Y-82094798D01*
X160763398Y-82086901D01*
X160771295Y-82077278D01*
X160777163Y-82066300D01*
X160780777Y-82054388D01*
X160781997Y-82042000D01*
X160780777Y-82029612D01*
X160777163Y-82017700D01*
X160771296Y-82006722D01*
X160763399Y-81997100D01*
X160753776Y-81989203D01*
X160742798Y-81983335D01*
X160675061Y-81955278D01*
X160660837Y-81945774D01*
X160550253Y-81871884D01*
X160444116Y-81765747D01*
X160360724Y-81640942D01*
X160360722Y-81640939D01*
X160332665Y-81573202D01*
X160326798Y-81562224D01*
X160318901Y-81552602D01*
X160309278Y-81544705D01*
X160298300Y-81538837D01*
X160286388Y-81535223D01*
X160274000Y-81534003D01*
X160261612Y-81535223D01*
X160249700Y-81538837D01*
X160238722Y-81544704D01*
X160229100Y-81552601D01*
X160221203Y-81562224D01*
X160215335Y-81573202D01*
X160187278Y-81640939D01*
X160187276Y-81640942D01*
X160103884Y-81765747D01*
X159997747Y-81871884D01*
X159887163Y-81945774D01*
X159872939Y-81955278D01*
X159805202Y-81983335D01*
X159794224Y-81989202D01*
X159784602Y-81997099D01*
X159776705Y-82006722D01*
X159770837Y-82017700D01*
X159767223Y-82029612D01*
X159766003Y-82042000D01*
X159257997Y-82042000D01*
X159256777Y-82029612D01*
X159253163Y-82017700D01*
X159247296Y-82006722D01*
X159239399Y-81997100D01*
X159229776Y-81989203D01*
X159218798Y-81983335D01*
X159151061Y-81955278D01*
X159136837Y-81945774D01*
X159026253Y-81871884D01*
X158920116Y-81765747D01*
X158836724Y-81640942D01*
X158779283Y-81502267D01*
X158750000Y-81355050D01*
X158750000Y-81204950D01*
X158779283Y-81057733D01*
X158836724Y-80919058D01*
X158920116Y-80794253D01*
X159026253Y-80688116D01*
X159151058Y-80604724D01*
X159151061Y-80604722D01*
X159218798Y-80576665D01*
X159229776Y-80570798D01*
X159239398Y-80562901D01*
X159247295Y-80553278D01*
X159253163Y-80542300D01*
X159256777Y-80530388D01*
X159257997Y-80518000D01*
X159766003Y-80518000D01*
X159767223Y-80530388D01*
X159770837Y-80542300D01*
X159776704Y-80553278D01*
X159784601Y-80562900D01*
X159794224Y-80570797D01*
X159805202Y-80576665D01*
X159872939Y-80604722D01*
X159872942Y-80604724D01*
X159997747Y-80688116D01*
X160103884Y-80794253D01*
X160145065Y-80855885D01*
X160187278Y-80919061D01*
X160215335Y-80986798D01*
X160221202Y-80997776D01*
X160229099Y-81007398D01*
X160238722Y-81015295D01*
X160249700Y-81021163D01*
X160261612Y-81024777D01*
X160274000Y-81025997D01*
X160286388Y-81024777D01*
X160298300Y-81021163D01*
X160309278Y-81015296D01*
X160318900Y-81007399D01*
X160326797Y-80997776D01*
X160332665Y-80986798D01*
X160360722Y-80919061D01*
X160402935Y-80855885D01*
X160444116Y-80794253D01*
X160550253Y-80688116D01*
X160675058Y-80604724D01*
X160675061Y-80604722D01*
X160742798Y-80576665D01*
X160753776Y-80570798D01*
X160763398Y-80562901D01*
X160771295Y-80553278D01*
X160777163Y-80542300D01*
X160780777Y-80530388D01*
X160781997Y-80518000D01*
X160780777Y-80505612D01*
X160777163Y-80493700D01*
X160771296Y-80482722D01*
X160763399Y-80473100D01*
X160753776Y-80465203D01*
X160742798Y-80459335D01*
X160675061Y-80431278D01*
X160580073Y-80367809D01*
X160550253Y-80347884D01*
X160444116Y-80241747D01*
X160360724Y-80116942D01*
X160360722Y-80116939D01*
X160332665Y-80049202D01*
X160326798Y-80038224D01*
X160318901Y-80028602D01*
X160309278Y-80020705D01*
X160298300Y-80014837D01*
X160286388Y-80011223D01*
X160274000Y-80010003D01*
X160261612Y-80011223D01*
X160249700Y-80014837D01*
X160238722Y-80020704D01*
X160229100Y-80028601D01*
X160221203Y-80038224D01*
X160215335Y-80049202D01*
X160187278Y-80116939D01*
X160187276Y-80116942D01*
X160103884Y-80241747D01*
X159997747Y-80347884D01*
X159967927Y-80367809D01*
X159872939Y-80431278D01*
X159805202Y-80459335D01*
X159794224Y-80465202D01*
X159784602Y-80473099D01*
X159776705Y-80482722D01*
X159770837Y-80493700D01*
X159767223Y-80505612D01*
X159766003Y-80518000D01*
X159257997Y-80518000D01*
X159256777Y-80505612D01*
X159253163Y-80493700D01*
X159247296Y-80482722D01*
X159239399Y-80473100D01*
X159229776Y-80465203D01*
X159218798Y-80459335D01*
X159151061Y-80431278D01*
X159056073Y-80367809D01*
X159026253Y-80347884D01*
X158920116Y-80241747D01*
X158836724Y-80116942D01*
X158779283Y-79978267D01*
X158750000Y-79831050D01*
X158750000Y-79680950D01*
X158779283Y-79533733D01*
X158836724Y-79395058D01*
X158920116Y-79270253D01*
X159026253Y-79164116D01*
X159151058Y-79080724D01*
X159151061Y-79080722D01*
X159218798Y-79052665D01*
X159229776Y-79046798D01*
X159239398Y-79038901D01*
X159247295Y-79029278D01*
X159253163Y-79018300D01*
X159256777Y-79006388D01*
X159257997Y-78994000D01*
X159766003Y-78994000D01*
X159767223Y-79006388D01*
X159770837Y-79018300D01*
X159776704Y-79029278D01*
X159784601Y-79038900D01*
X159794224Y-79046797D01*
X159805202Y-79052665D01*
X159872939Y-79080722D01*
X159872942Y-79080724D01*
X159997747Y-79164116D01*
X160103884Y-79270253D01*
X160187275Y-79395057D01*
X160187278Y-79395061D01*
X160215335Y-79462798D01*
X160221202Y-79473776D01*
X160229099Y-79483398D01*
X160238722Y-79491295D01*
X160249700Y-79497163D01*
X160261612Y-79500777D01*
X160274000Y-79501997D01*
X160286388Y-79500777D01*
X160298300Y-79497163D01*
X160309278Y-79491296D01*
X160318900Y-79483399D01*
X160326797Y-79473776D01*
X160332665Y-79462798D01*
X160360722Y-79395061D01*
X160360725Y-79395057D01*
X160444116Y-79270253D01*
X160550253Y-79164116D01*
X160675058Y-79080724D01*
X160675061Y-79080722D01*
X160742798Y-79052665D01*
X160753776Y-79046798D01*
X160763398Y-79038901D01*
X160771295Y-79029278D01*
X160777163Y-79018300D01*
X160780777Y-79006388D01*
X160781997Y-78994000D01*
X160780777Y-78981612D01*
X160777163Y-78969700D01*
X160771296Y-78958722D01*
X160763399Y-78949100D01*
X160753776Y-78941203D01*
X160742798Y-78935335D01*
X160675061Y-78907278D01*
X160596241Y-78854612D01*
X160550253Y-78823884D01*
X160444116Y-78717747D01*
X160360724Y-78592942D01*
X160360722Y-78592939D01*
X160332665Y-78525202D01*
X160326798Y-78514224D01*
X160318901Y-78504602D01*
X160309278Y-78496705D01*
X160298300Y-78490837D01*
X160286388Y-78487223D01*
X160274000Y-78486003D01*
X160261612Y-78487223D01*
X160249700Y-78490837D01*
X160238722Y-78496704D01*
X160229100Y-78504601D01*
X160221203Y-78514224D01*
X160215335Y-78525202D01*
X160187278Y-78592939D01*
X160187276Y-78592942D01*
X160103884Y-78717747D01*
X159997747Y-78823884D01*
X159951759Y-78854612D01*
X159872939Y-78907278D01*
X159805202Y-78935335D01*
X159794224Y-78941202D01*
X159784602Y-78949099D01*
X159776705Y-78958722D01*
X159770837Y-78969700D01*
X159767223Y-78981612D01*
X159766003Y-78994000D01*
X159257997Y-78994000D01*
X159256777Y-78981612D01*
X159253163Y-78969700D01*
X159247296Y-78958722D01*
X159239399Y-78949100D01*
X159229776Y-78941203D01*
X159218798Y-78935335D01*
X159151061Y-78907278D01*
X159072241Y-78854612D01*
X159026253Y-78823884D01*
X158920116Y-78717747D01*
X158836724Y-78592942D01*
X158779283Y-78454267D01*
X158750000Y-78307050D01*
X158750000Y-78156950D01*
X158779283Y-78009733D01*
X158836724Y-77871058D01*
X158920116Y-77746253D01*
X159026253Y-77640116D01*
X159151058Y-77556724D01*
X159289733Y-77499283D01*
X159436950Y-77470000D01*
X159587050Y-77470000D01*
X159734267Y-77499283D01*
G37*
G36*
X184013135Y-81069159D02*
G01*
X184180983Y-81102545D01*
X184358780Y-81176191D01*
X184518800Y-81283113D01*
X184654887Y-81419200D01*
X184761809Y-81579220D01*
X184835455Y-81757017D01*
X184873000Y-81945775D01*
X184873000Y-82138225D01*
X184835455Y-82326983D01*
X184761809Y-82504780D01*
X184654887Y-82664800D01*
X184518800Y-82800887D01*
X184358780Y-82907809D01*
X184180983Y-82981455D01*
X184013135Y-83014841D01*
X183992226Y-83019000D01*
X183799774Y-83019000D01*
X183778865Y-83014841D01*
X183611017Y-82981455D01*
X183433220Y-82907809D01*
X183273200Y-82800887D01*
X183137113Y-82664800D01*
X183030191Y-82504780D01*
X182956545Y-82326983D01*
X182919000Y-82138225D01*
X182919000Y-81945775D01*
X182956545Y-81757017D01*
X183030191Y-81579220D01*
X183137113Y-81419200D01*
X183273200Y-81283113D01*
X183433220Y-81176191D01*
X183611017Y-81102545D01*
X183778865Y-81069159D01*
X183799774Y-81065000D01*
X183992226Y-81065000D01*
X184013135Y-81069159D01*
G37*
G36*
X147034267Y-77499283D02*
G01*
X147172942Y-77556724D01*
X147297747Y-77640116D01*
X147403884Y-77746253D01*
X147431986Y-77788311D01*
X147487278Y-77871061D01*
X147515335Y-77938798D01*
X147521202Y-77949776D01*
X147529099Y-77959398D01*
X147538722Y-77967295D01*
X147549700Y-77973163D01*
X147561612Y-77976777D01*
X147574000Y-77977997D01*
X147586388Y-77976777D01*
X147598300Y-77973163D01*
X147609278Y-77967296D01*
X147618900Y-77959399D01*
X147626797Y-77949776D01*
X147632665Y-77938798D01*
X147660722Y-77871061D01*
X147716014Y-77788311D01*
X147744116Y-77746253D01*
X147850253Y-77640116D01*
X147975058Y-77556724D01*
X148113733Y-77499283D01*
X148260950Y-77470000D01*
X148411050Y-77470000D01*
X148558267Y-77499283D01*
X148696942Y-77556724D01*
X148821747Y-77640116D01*
X148927884Y-77746253D01*
X149011276Y-77871058D01*
X149068717Y-78009733D01*
X149098000Y-78156950D01*
X149098000Y-78307050D01*
X149068717Y-78454267D01*
X149011276Y-78592942D01*
X148927884Y-78717747D01*
X148823526Y-78822105D01*
X148815635Y-78831722D01*
X148809767Y-78842700D01*
X148806153Y-78854612D01*
X148804933Y-78867000D01*
X148806153Y-78879388D01*
X148809767Y-78891300D01*
X148815635Y-78902278D01*
X148823526Y-78911895D01*
X148927884Y-79016253D01*
X149011276Y-79141058D01*
X149068717Y-79279733D01*
X149098000Y-79426950D01*
X149098000Y-79577050D01*
X149068717Y-79724267D01*
X149011276Y-79862942D01*
X148927884Y-79987747D01*
X148823526Y-80092105D01*
X148815635Y-80101722D01*
X148809767Y-80112700D01*
X148806153Y-80124612D01*
X148804933Y-80137000D01*
X148806153Y-80149388D01*
X148809767Y-80161300D01*
X148815635Y-80172278D01*
X148823526Y-80181895D01*
X148927884Y-80286253D01*
X149011276Y-80411058D01*
X149068717Y-80549733D01*
X149098000Y-80696950D01*
X149098000Y-80847050D01*
X149068717Y-80994267D01*
X149011276Y-81132942D01*
X148927884Y-81257747D01*
X148823526Y-81362105D01*
X148815635Y-81371722D01*
X148809767Y-81382700D01*
X148806153Y-81394612D01*
X148804933Y-81407000D01*
X148806153Y-81419388D01*
X148809767Y-81431300D01*
X148815635Y-81442278D01*
X148823526Y-81451895D01*
X148927884Y-81556253D01*
X149011276Y-81681058D01*
X149068717Y-81819733D01*
X149098000Y-81966950D01*
X149098000Y-82117050D01*
X149068717Y-82264267D01*
X149011276Y-82402942D01*
X148927884Y-82527747D01*
X148821747Y-82633884D01*
X148696942Y-82717276D01*
X148558267Y-82774717D01*
X148411050Y-82804000D01*
X148260950Y-82804000D01*
X148113733Y-82774717D01*
X147975058Y-82717276D01*
X147850253Y-82633884D01*
X147744116Y-82527747D01*
X147660724Y-82402942D01*
X147660722Y-82402939D01*
X147632665Y-82335202D01*
X147626798Y-82324224D01*
X147618901Y-82314602D01*
X147609278Y-82306705D01*
X147598300Y-82300837D01*
X147586388Y-82297223D01*
X147574000Y-82296003D01*
X147561612Y-82297223D01*
X147549700Y-82300837D01*
X147538722Y-82306704D01*
X147529100Y-82314601D01*
X147521203Y-82324224D01*
X147515335Y-82335202D01*
X147487278Y-82402939D01*
X147487276Y-82402942D01*
X147403884Y-82527747D01*
X147297747Y-82633884D01*
X147172942Y-82717276D01*
X147034267Y-82774717D01*
X146887050Y-82804000D01*
X146736950Y-82804000D01*
X146589733Y-82774717D01*
X146451058Y-82717276D01*
X146326253Y-82633884D01*
X146220116Y-82527747D01*
X146136724Y-82402942D01*
X146079283Y-82264267D01*
X146050000Y-82117050D01*
X146050000Y-81966950D01*
X146079283Y-81819733D01*
X146136724Y-81681058D01*
X146220116Y-81556253D01*
X146324474Y-81451895D01*
X146332365Y-81442278D01*
X146338233Y-81431300D01*
X146341847Y-81419388D01*
X146343067Y-81407000D01*
X147280933Y-81407000D01*
X147282153Y-81419388D01*
X147285767Y-81431300D01*
X147291635Y-81442278D01*
X147299526Y-81451895D01*
X147403884Y-81556253D01*
X147415209Y-81573202D01*
X147487278Y-81681061D01*
X147515335Y-81748798D01*
X147521202Y-81759776D01*
X147529099Y-81769398D01*
X147538722Y-81777295D01*
X147549700Y-81783163D01*
X147561612Y-81786777D01*
X147574000Y-81787997D01*
X147586388Y-81786777D01*
X147598300Y-81783163D01*
X147609278Y-81777296D01*
X147618900Y-81769399D01*
X147626797Y-81759776D01*
X147632665Y-81748798D01*
X147660722Y-81681061D01*
X147732791Y-81573202D01*
X147744116Y-81556253D01*
X147848474Y-81451895D01*
X147856365Y-81442278D01*
X147862233Y-81431300D01*
X147865847Y-81419388D01*
X147867067Y-81407000D01*
X147865847Y-81394612D01*
X147862233Y-81382700D01*
X147856365Y-81371722D01*
X147848474Y-81362105D01*
X147744116Y-81257747D01*
X147660724Y-81132942D01*
X147660722Y-81132939D01*
X147632665Y-81065202D01*
X147626798Y-81054224D01*
X147618901Y-81044602D01*
X147609278Y-81036705D01*
X147598300Y-81030837D01*
X147586388Y-81027223D01*
X147574000Y-81026003D01*
X147561612Y-81027223D01*
X147549700Y-81030837D01*
X147538722Y-81036704D01*
X147529100Y-81044601D01*
X147521203Y-81054224D01*
X147515335Y-81065202D01*
X147487278Y-81132939D01*
X147487276Y-81132942D01*
X147403884Y-81257747D01*
X147299526Y-81362105D01*
X147291635Y-81371722D01*
X147285767Y-81382700D01*
X147282153Y-81394612D01*
X147280933Y-81407000D01*
X146343067Y-81407000D01*
X146341847Y-81394612D01*
X146338233Y-81382700D01*
X146332365Y-81371722D01*
X146324474Y-81362105D01*
X146220116Y-81257747D01*
X146136724Y-81132942D01*
X146079283Y-80994267D01*
X146050000Y-80847050D01*
X146050000Y-80696950D01*
X146079283Y-80549733D01*
X146136724Y-80411058D01*
X146220116Y-80286253D01*
X146324474Y-80181895D01*
X146332365Y-80172278D01*
X146338233Y-80161300D01*
X146341847Y-80149388D01*
X146343067Y-80137000D01*
X147280933Y-80137000D01*
X147282153Y-80149388D01*
X147285767Y-80161300D01*
X147291635Y-80172278D01*
X147299526Y-80181895D01*
X147403884Y-80286253D01*
X147445065Y-80347885D01*
X147487278Y-80411061D01*
X147515335Y-80478798D01*
X147521202Y-80489776D01*
X147529099Y-80499398D01*
X147538722Y-80507295D01*
X147549700Y-80513163D01*
X147561612Y-80516777D01*
X147574000Y-80517997D01*
X147586388Y-80516777D01*
X147598300Y-80513163D01*
X147609278Y-80507296D01*
X147618900Y-80499399D01*
X147626797Y-80489776D01*
X147632665Y-80478798D01*
X147660722Y-80411061D01*
X147702935Y-80347885D01*
X147744116Y-80286253D01*
X147848474Y-80181895D01*
X147856365Y-80172278D01*
X147862233Y-80161300D01*
X147865847Y-80149388D01*
X147867067Y-80137000D01*
X147865847Y-80124612D01*
X147862233Y-80112700D01*
X147856365Y-80101722D01*
X147848474Y-80092105D01*
X147744116Y-79987747D01*
X147660724Y-79862942D01*
X147660722Y-79862939D01*
X147632665Y-79795202D01*
X147626798Y-79784224D01*
X147618901Y-79774602D01*
X147609278Y-79766705D01*
X147598300Y-79760837D01*
X147586388Y-79757223D01*
X147574000Y-79756003D01*
X147561612Y-79757223D01*
X147549700Y-79760837D01*
X147538722Y-79766704D01*
X147529100Y-79774601D01*
X147521203Y-79784224D01*
X147515335Y-79795202D01*
X147487278Y-79862939D01*
X147487276Y-79862942D01*
X147403884Y-79987747D01*
X147299526Y-80092105D01*
X147291635Y-80101722D01*
X147285767Y-80112700D01*
X147282153Y-80124612D01*
X147280933Y-80137000D01*
X146343067Y-80137000D01*
X146341847Y-80124612D01*
X146338233Y-80112700D01*
X146332365Y-80101722D01*
X146324474Y-80092105D01*
X146220116Y-79987747D01*
X146136724Y-79862942D01*
X146079283Y-79724267D01*
X146050000Y-79577050D01*
X146050000Y-79426950D01*
X146079283Y-79279733D01*
X146136724Y-79141058D01*
X146220116Y-79016253D01*
X146324474Y-78911895D01*
X146332365Y-78902278D01*
X146338233Y-78891300D01*
X146341847Y-78879388D01*
X146343067Y-78867000D01*
X147280933Y-78867000D01*
X147282153Y-78879388D01*
X147285767Y-78891300D01*
X147291635Y-78902278D01*
X147299526Y-78911895D01*
X147403884Y-79016253D01*
X147446961Y-79080722D01*
X147487278Y-79141061D01*
X147515335Y-79208798D01*
X147521202Y-79219776D01*
X147529099Y-79229398D01*
X147538722Y-79237295D01*
X147549700Y-79243163D01*
X147561612Y-79246777D01*
X147574000Y-79247997D01*
X147586388Y-79246777D01*
X147598300Y-79243163D01*
X147609278Y-79237296D01*
X147618900Y-79229399D01*
X147626797Y-79219776D01*
X147632665Y-79208798D01*
X147660722Y-79141061D01*
X147701039Y-79080722D01*
X147744116Y-79016253D01*
X147848474Y-78911895D01*
X147856365Y-78902278D01*
X147862233Y-78891300D01*
X147865847Y-78879388D01*
X147867067Y-78867000D01*
X147865847Y-78854612D01*
X147862233Y-78842700D01*
X147856365Y-78831722D01*
X147848474Y-78822105D01*
X147744116Y-78717747D01*
X147660724Y-78592942D01*
X147660722Y-78592939D01*
X147632665Y-78525202D01*
X147626798Y-78514224D01*
X147618901Y-78504602D01*
X147609278Y-78496705D01*
X147598300Y-78490837D01*
X147586388Y-78487223D01*
X147574000Y-78486003D01*
X147561612Y-78487223D01*
X147549700Y-78490837D01*
X147538722Y-78496704D01*
X147529100Y-78504601D01*
X147521203Y-78514224D01*
X147515335Y-78525202D01*
X147487278Y-78592939D01*
X147487276Y-78592942D01*
X147403884Y-78717747D01*
X147299526Y-78822105D01*
X147291635Y-78831722D01*
X147285767Y-78842700D01*
X147282153Y-78854612D01*
X147280933Y-78867000D01*
X146343067Y-78867000D01*
X146341847Y-78854612D01*
X146338233Y-78842700D01*
X146332365Y-78831722D01*
X146324474Y-78822105D01*
X146220116Y-78717747D01*
X146136724Y-78592942D01*
X146079283Y-78454267D01*
X146050000Y-78307050D01*
X146050000Y-78156950D01*
X146079283Y-78009733D01*
X146136724Y-77871058D01*
X146220116Y-77746253D01*
X146326253Y-77640116D01*
X146451058Y-77556724D01*
X146589733Y-77499283D01*
X146736950Y-77470000D01*
X146887050Y-77470000D01*
X147034267Y-77499283D01*
G37*
G36*
X151426000Y-82377000D02*
G01*
X150072000Y-82377000D01*
X150072000Y-77523000D01*
X151426000Y-77523000D01*
X151426000Y-82377000D01*
G37*
G36*
X173651000Y-82250000D02*
G01*
X172297000Y-82250000D01*
X172297000Y-77396000D01*
X173651000Y-77396000D01*
X173651000Y-82250000D01*
G37*
G36*
X178731000Y-82250000D02*
G01*
X177377000Y-82250000D01*
X177377000Y-77396000D01*
X178731000Y-77396000D01*
X178731000Y-82250000D01*
G37*
G36*
X144240267Y-80039283D02*
G01*
X144378942Y-80096724D01*
X144503747Y-80180116D01*
X144609884Y-80286253D01*
X144693276Y-80411058D01*
X144750717Y-80549733D01*
X144780000Y-80696950D01*
X144780000Y-80847050D01*
X144750717Y-80994267D01*
X144693276Y-81132942D01*
X144609884Y-81257747D01*
X144503747Y-81363884D01*
X144378942Y-81447276D01*
X144240267Y-81504717D01*
X144093050Y-81534000D01*
X143942950Y-81534000D01*
X143795733Y-81504717D01*
X143657058Y-81447276D01*
X143532253Y-81363884D01*
X143426116Y-81257747D01*
X143342724Y-81132942D01*
X143285283Y-80994267D01*
X143256000Y-80847050D01*
X143256000Y-80696950D01*
X143285283Y-80549733D01*
X143342724Y-80411058D01*
X143426116Y-80286253D01*
X143532253Y-80180116D01*
X143657058Y-80096724D01*
X143795733Y-80039283D01*
X143942950Y-80010000D01*
X144093050Y-80010000D01*
X144240267Y-80039283D01*
G37*
G36*
X125952267Y-79531283D02*
G01*
X126090942Y-79588724D01*
X126215747Y-79672116D01*
X126321884Y-79778253D01*
X126405276Y-79903058D01*
X126462717Y-80041733D01*
X126492000Y-80188950D01*
X126492000Y-80339050D01*
X126462717Y-80486267D01*
X126405276Y-80624942D01*
X126321884Y-80749747D01*
X126215747Y-80855884D01*
X126090942Y-80939276D01*
X125952267Y-80996717D01*
X125805050Y-81026000D01*
X125654950Y-81026000D01*
X125507733Y-80996717D01*
X125369058Y-80939276D01*
X125244253Y-80855884D01*
X125138116Y-80749747D01*
X125054724Y-80624942D01*
X124997283Y-80486267D01*
X124968000Y-80339050D01*
X124968000Y-80188950D01*
X124997283Y-80041733D01*
X125054724Y-79903058D01*
X125138116Y-79778253D01*
X125244253Y-79672116D01*
X125369058Y-79588724D01*
X125507733Y-79531283D01*
X125654950Y-79502000D01*
X125805050Y-79502000D01*
X125952267Y-79531283D01*
G37*
G36*
X184013135Y-78529159D02*
G01*
X184180983Y-78562545D01*
X184358780Y-78636191D01*
X184518800Y-78743113D01*
X184654887Y-78879200D01*
X184761809Y-79039220D01*
X184835455Y-79217017D01*
X184873000Y-79405775D01*
X184873000Y-79598225D01*
X184835455Y-79786983D01*
X184761809Y-79964780D01*
X184654887Y-80124800D01*
X184518800Y-80260887D01*
X184358780Y-80367809D01*
X184180983Y-80441455D01*
X184021892Y-80473099D01*
X183992226Y-80479000D01*
X183799774Y-80479000D01*
X183770108Y-80473099D01*
X183611017Y-80441455D01*
X183433220Y-80367809D01*
X183273200Y-80260887D01*
X183137113Y-80124800D01*
X183030191Y-79964780D01*
X182956545Y-79786983D01*
X182919000Y-79598225D01*
X182919000Y-79405775D01*
X182956545Y-79217017D01*
X183030191Y-79039220D01*
X183137113Y-78879200D01*
X183273200Y-78743113D01*
X183433220Y-78636191D01*
X183611017Y-78562545D01*
X183778865Y-78529159D01*
X183799774Y-78525000D01*
X183992226Y-78525000D01*
X184013135Y-78529159D01*
G37*
G36*
X142970267Y-77499283D02*
G01*
X143108942Y-77556724D01*
X143233747Y-77640116D01*
X143339884Y-77746253D01*
X143423276Y-77871058D01*
X143480717Y-78009733D01*
X143510000Y-78156950D01*
X143510000Y-78307050D01*
X143480717Y-78454267D01*
X143423276Y-78592942D01*
X143339884Y-78717747D01*
X143233747Y-78823884D01*
X143108942Y-78907276D01*
X142970267Y-78964717D01*
X142823050Y-78994000D01*
X142672950Y-78994000D01*
X142525733Y-78964717D01*
X142387058Y-78907276D01*
X142262253Y-78823884D01*
X142156116Y-78717747D01*
X142072724Y-78592942D01*
X142015283Y-78454267D01*
X141986000Y-78307050D01*
X141986000Y-78156950D01*
X142015283Y-78009733D01*
X142072724Y-77871058D01*
X142156116Y-77746253D01*
X142262253Y-77640116D01*
X142387058Y-77556724D01*
X142525733Y-77499283D01*
X142672950Y-77470000D01*
X142823050Y-77470000D01*
X142970267Y-77499283D01*
G37*
G36*
X141702489Y-76475349D02*
G01*
X141751715Y-76490281D01*
X141797075Y-76514527D01*
X141836840Y-76547160D01*
X141869473Y-76586925D01*
X141893719Y-76632285D01*
X141908651Y-76681511D01*
X141914000Y-76735817D01*
X141914000Y-77708183D01*
X141908651Y-77762489D01*
X141893719Y-77811715D01*
X141869473Y-77857075D01*
X141836840Y-77896840D01*
X141797075Y-77929473D01*
X141751715Y-77953719D01*
X141702489Y-77968651D01*
X141648183Y-77974000D01*
X139275817Y-77974000D01*
X139221511Y-77968651D01*
X139172285Y-77953719D01*
X139126925Y-77929473D01*
X139087160Y-77896840D01*
X139054527Y-77857075D01*
X139030281Y-77811715D01*
X139015349Y-77762489D01*
X139010000Y-77708183D01*
X139010000Y-76735817D01*
X139015349Y-76681511D01*
X139030281Y-76632285D01*
X139054527Y-76586925D01*
X139087160Y-76547160D01*
X139126925Y-76514527D01*
X139172285Y-76490281D01*
X139221511Y-76475349D01*
X139275817Y-76470000D01*
X141648183Y-76470000D01*
X141702489Y-76475349D01*
G37*
G36*
X129336800Y-77048401D02*
G01*
X127762000Y-77048401D01*
X127762000Y-76235601D01*
X129336800Y-76235601D01*
X129336800Y-77048401D01*
G37*
G36*
X126746000Y-77048401D02*
G01*
X125171200Y-77048401D01*
X125171200Y-76235601D01*
X126746000Y-76235601D01*
X126746000Y-77048401D01*
G37*
G36*
X145440400Y-76911200D02*
G01*
X144627600Y-76911200D01*
X144627600Y-75184000D01*
X145440400Y-75184000D01*
X145440400Y-76911200D01*
G37*
G36*
X143540398Y-76911200D02*
G01*
X142727598Y-76911200D01*
X142727598Y-75184000D01*
X143540398Y-75184000D01*
X143540398Y-76911200D01*
G37*
G36*
X134378745Y-74942146D02*
G01*
X134516691Y-74969585D01*
X134689938Y-75041346D01*
X134845863Y-75145532D01*
X134978468Y-75278137D01*
X135082654Y-75434062D01*
X135154415Y-75607309D01*
X135191000Y-75791237D01*
X135191000Y-75978763D01*
X135154415Y-76162691D01*
X135082654Y-76335938D01*
X134978468Y-76491863D01*
X134845863Y-76624468D01*
X134689938Y-76728654D01*
X134516691Y-76800415D01*
X134378745Y-76827854D01*
X134332764Y-76837000D01*
X134145236Y-76837000D01*
X134099255Y-76827854D01*
X133961309Y-76800415D01*
X133788062Y-76728654D01*
X133632137Y-76624468D01*
X133499532Y-76491863D01*
X133395346Y-76335938D01*
X133323585Y-76162691D01*
X133287000Y-75978763D01*
X133287000Y-75791237D01*
X133323585Y-75607309D01*
X133395346Y-75434062D01*
X133499532Y-75278137D01*
X133632137Y-75145532D01*
X133788062Y-75041346D01*
X133961309Y-74969585D01*
X134099255Y-74942146D01*
X134145236Y-74933000D01*
X134332764Y-74933000D01*
X134378745Y-74942146D01*
G37*
G36*
X148755000Y-76365000D02*
G01*
X146901000Y-76365000D01*
X146901000Y-74511000D01*
X148755000Y-74511000D01*
X148755000Y-76365000D01*
G37*
G36*
X155718399Y-74546624D02*
G01*
X155887096Y-74616501D01*
X156038927Y-74717951D01*
X156168049Y-74847073D01*
X156269499Y-74998904D01*
X156339376Y-75167601D01*
X156375000Y-75346699D01*
X156375000Y-75529301D01*
X156339376Y-75708399D01*
X156269499Y-75877096D01*
X156168049Y-76028927D01*
X156038927Y-76158049D01*
X155887096Y-76259499D01*
X155718399Y-76329376D01*
X155539301Y-76365000D01*
X155356699Y-76365000D01*
X155177601Y-76329376D01*
X155008904Y-76259499D01*
X154857073Y-76158049D01*
X154727951Y-76028927D01*
X154626501Y-75877096D01*
X154556624Y-75708399D01*
X154521000Y-75529301D01*
X154521000Y-75346699D01*
X154556624Y-75167601D01*
X154626501Y-74998904D01*
X154727951Y-74847073D01*
X154857073Y-74717951D01*
X155008904Y-74616501D01*
X155177601Y-74546624D01*
X155356699Y-74511000D01*
X155539301Y-74511000D01*
X155718399Y-74546624D01*
G37*
G36*
X180102399Y-74546624D02*
G01*
X180271096Y-74616501D01*
X180422927Y-74717951D01*
X180552049Y-74847073D01*
X180653499Y-74998904D01*
X180723376Y-75167601D01*
X180759000Y-75346699D01*
X180759000Y-75529301D01*
X180723376Y-75708399D01*
X180653499Y-75877096D01*
X180552049Y-76028927D01*
X180422927Y-76158049D01*
X180271096Y-76259499D01*
X180102399Y-76329376D01*
X179923301Y-76365000D01*
X179740699Y-76365000D01*
X179561601Y-76329376D01*
X179392904Y-76259499D01*
X179241073Y-76158049D01*
X179111951Y-76028927D01*
X179010501Y-75877096D01*
X178940624Y-75708399D01*
X178905000Y-75529301D01*
X178905000Y-75346699D01*
X178940624Y-75167601D01*
X179010501Y-74998904D01*
X179111951Y-74847073D01*
X179241073Y-74717951D01*
X179392904Y-74616501D01*
X179561601Y-74546624D01*
X179740699Y-74511000D01*
X179923301Y-74511000D01*
X180102399Y-74546624D01*
G37*
G36*
X173139000Y-76365000D02*
G01*
X171285000Y-76365000D01*
X171285000Y-74511000D01*
X173139000Y-74511000D01*
X173139000Y-76365000D01*
G37*
G36*
X129336800Y-76098400D02*
G01*
X127762000Y-76098400D01*
X127762000Y-75285600D01*
X129336800Y-75285600D01*
X129336800Y-76098400D01*
G37*
G36*
X163978660Y-73039642D02*
G01*
X164121606Y-73083004D01*
X164253346Y-73153420D01*
X164368816Y-73248185D01*
X164463581Y-73363655D01*
X164533997Y-73495395D01*
X164577359Y-73638341D01*
X164592001Y-73787000D01*
X164592001Y-75057000D01*
X164577359Y-75205659D01*
X164533997Y-75348605D01*
X164463581Y-75480345D01*
X164368816Y-75595815D01*
X164253346Y-75690580D01*
X164121606Y-75760996D01*
X163978660Y-75804358D01*
X163830001Y-75819000D01*
X163829999Y-75819000D01*
X163681340Y-75804358D01*
X163538394Y-75760996D01*
X163406654Y-75690580D01*
X163291184Y-75595815D01*
X163196419Y-75480345D01*
X163126003Y-75348605D01*
X163082641Y-75205659D01*
X163067999Y-75057000D01*
X163067999Y-73787000D01*
X163082641Y-73638341D01*
X163126003Y-73495395D01*
X163196419Y-73363655D01*
X163291184Y-73248185D01*
X163406654Y-73153420D01*
X163538394Y-73083004D01*
X163681340Y-73039642D01*
X163829999Y-73025000D01*
X163830001Y-73025000D01*
X163978660Y-73039642D01*
G37*
G36*
X161438660Y-73039642D02*
G01*
X161581606Y-73083004D01*
X161713346Y-73153420D01*
X161828816Y-73248185D01*
X161923581Y-73363655D01*
X161993997Y-73495395D01*
X162037359Y-73638341D01*
X162052001Y-73787000D01*
X162052001Y-75057000D01*
X162037359Y-75205659D01*
X161993997Y-75348605D01*
X161923581Y-75480345D01*
X161828816Y-75595815D01*
X161713346Y-75690580D01*
X161581606Y-75760996D01*
X161438660Y-75804358D01*
X161290001Y-75819000D01*
X161289999Y-75819000D01*
X161141340Y-75804358D01*
X160998394Y-75760996D01*
X160866654Y-75690580D01*
X160751184Y-75595815D01*
X160656419Y-75480345D01*
X160586003Y-75348605D01*
X160542641Y-75205659D01*
X160527999Y-75057000D01*
X160527999Y-73787000D01*
X160542641Y-73638341D01*
X160586003Y-73495395D01*
X160656419Y-73363655D01*
X160751184Y-73248185D01*
X160866654Y-73153420D01*
X160998394Y-73083004D01*
X161141340Y-73039642D01*
X161289999Y-73025000D01*
X161290001Y-73025000D01*
X161438660Y-73039642D01*
G37*
G36*
X166518660Y-73039642D02*
G01*
X166661606Y-73083004D01*
X166793346Y-73153420D01*
X166908816Y-73248185D01*
X167003581Y-73363655D01*
X167073997Y-73495395D01*
X167117359Y-73638341D01*
X167132001Y-73787000D01*
X167132001Y-75057000D01*
X167117359Y-75205659D01*
X167073997Y-75348605D01*
X167003581Y-75480345D01*
X166908816Y-75595815D01*
X166793346Y-75690580D01*
X166661606Y-75760996D01*
X166518660Y-75804358D01*
X166370001Y-75819000D01*
X166369999Y-75819000D01*
X166221340Y-75804358D01*
X166078394Y-75760996D01*
X165946654Y-75690580D01*
X165831184Y-75595815D01*
X165736419Y-75480345D01*
X165666003Y-75348605D01*
X165622641Y-75205659D01*
X165607999Y-75057000D01*
X165607999Y-73787000D01*
X165622641Y-73638341D01*
X165666003Y-73495395D01*
X165736419Y-73363655D01*
X165831184Y-73248185D01*
X165946654Y-73153420D01*
X166078394Y-73083004D01*
X166221340Y-73039642D01*
X166369999Y-73025000D01*
X166370001Y-73025000D01*
X166518660Y-73039642D01*
G37*
G36*
X140684267Y-72165283D02*
G01*
X140822942Y-72222724D01*
X140947747Y-72306116D01*
X141053884Y-72412253D01*
X141137276Y-72537058D01*
X141194717Y-72675733D01*
X141224000Y-72822950D01*
X141224000Y-72973050D01*
X141194717Y-73120267D01*
X141137276Y-73258942D01*
X141053884Y-73383747D01*
X140947747Y-73489884D01*
X140852229Y-73553707D01*
X140842612Y-73561600D01*
X140834715Y-73571223D01*
X140828847Y-73582201D01*
X140825233Y-73594113D01*
X140824013Y-73606501D01*
X140825233Y-73618889D01*
X140828847Y-73630801D01*
X140834714Y-73641779D01*
X140842611Y-73651401D01*
X140852234Y-73659298D01*
X140863212Y-73665166D01*
X140875124Y-73668780D01*
X140887512Y-73670000D01*
X141648183Y-73670000D01*
X141702489Y-73675349D01*
X141751715Y-73690281D01*
X141797075Y-73714527D01*
X141836840Y-73747160D01*
X141869473Y-73786925D01*
X141893719Y-73832285D01*
X141908651Y-73881511D01*
X141914000Y-73935817D01*
X141914000Y-74908183D01*
X141908651Y-74962489D01*
X141893719Y-75011715D01*
X141869473Y-75057075D01*
X141836840Y-75096840D01*
X141797075Y-75129473D01*
X141751715Y-75153719D01*
X141702489Y-75168651D01*
X141648183Y-75174000D01*
X139275817Y-75174000D01*
X139221511Y-75168651D01*
X139172285Y-75153719D01*
X139126925Y-75129473D01*
X139087160Y-75096840D01*
X139054527Y-75057075D01*
X139030281Y-75011715D01*
X139015349Y-74962489D01*
X139010000Y-74908183D01*
X139010000Y-73935817D01*
X139015349Y-73881511D01*
X139030281Y-73832285D01*
X139054527Y-73786925D01*
X139087160Y-73747160D01*
X139126925Y-73714527D01*
X139172285Y-73690281D01*
X139221511Y-73675349D01*
X139275817Y-73670000D01*
X140036488Y-73670000D01*
X140048876Y-73668780D01*
X140060788Y-73665166D01*
X140071766Y-73659298D01*
X140081389Y-73651402D01*
X140089285Y-73641779D01*
X140095153Y-73630801D01*
X140098767Y-73618889D01*
X140099987Y-73606501D01*
X140098767Y-73594113D01*
X140095153Y-73582201D01*
X140089285Y-73571223D01*
X140081389Y-73561600D01*
X140071771Y-73553707D01*
X139976253Y-73489884D01*
X139870116Y-73383747D01*
X139786724Y-73258942D01*
X139729283Y-73120267D01*
X139700000Y-72973050D01*
X139700000Y-72822950D01*
X139729283Y-72675733D01*
X139786724Y-72537058D01*
X139870116Y-72412253D01*
X139976253Y-72306116D01*
X140101058Y-72222724D01*
X140239733Y-72165283D01*
X140386950Y-72136000D01*
X140537050Y-72136000D01*
X140684267Y-72165283D01*
G37*
G36*
X130270267Y-73435283D02*
G01*
X130408942Y-73492724D01*
X130533747Y-73576116D01*
X130639884Y-73682253D01*
X130723276Y-73807058D01*
X130780717Y-73945733D01*
X130810000Y-74092950D01*
X130810000Y-74243050D01*
X130780717Y-74390267D01*
X130723276Y-74528942D01*
X130639884Y-74653747D01*
X130533747Y-74759884D01*
X130408942Y-74843276D01*
X130270267Y-74900717D01*
X130123050Y-74930000D01*
X129972950Y-74930000D01*
X129825733Y-74900717D01*
X129687058Y-74843276D01*
X129562253Y-74759884D01*
X129456116Y-74653747D01*
X129453094Y-74649225D01*
X129445200Y-74639606D01*
X129435577Y-74631709D01*
X129424599Y-74625841D01*
X129412687Y-74622227D01*
X129400299Y-74621007D01*
X129387911Y-74622227D01*
X129375999Y-74625841D01*
X129365021Y-74631708D01*
X129355399Y-74639605D01*
X129347502Y-74649228D01*
X129341634Y-74660206D01*
X129338020Y-74672118D01*
X129336800Y-74684506D01*
X129336800Y-75148399D01*
X127762000Y-75148399D01*
X127762000Y-74335599D01*
X129227035Y-74335599D01*
X129239423Y-74334379D01*
X129251335Y-74330765D01*
X129262313Y-74324897D01*
X129271936Y-74317001D01*
X129279832Y-74307378D01*
X129285700Y-74296400D01*
X129289314Y-74284488D01*
X129290534Y-74272100D01*
X129289314Y-74259713D01*
X129286000Y-74243052D01*
X129286000Y-74092950D01*
X129288322Y-74081275D01*
X129315283Y-73945733D01*
X129372724Y-73807058D01*
X129456116Y-73682253D01*
X129562253Y-73576116D01*
X129687058Y-73492724D01*
X129825733Y-73435283D01*
X129972950Y-73406000D01*
X130123050Y-73406000D01*
X130270267Y-73435283D01*
G37*
G36*
X126746000Y-75148399D02*
G01*
X125171200Y-75148399D01*
X125171200Y-74335599D01*
X126746000Y-74335599D01*
X126746000Y-75148399D01*
G37*
G36*
X143540398Y-74676000D02*
G01*
X142727598Y-74676000D01*
X142727598Y-72948800D01*
X143540398Y-72948800D01*
X143540398Y-74676000D01*
G37*
G36*
X144490399Y-74676000D02*
G01*
X143677599Y-74676000D01*
X143677599Y-72948800D01*
X144490399Y-72948800D01*
X144490399Y-74676000D01*
G37*
G36*
X145440400Y-74676000D02*
G01*
X144627600Y-74676000D01*
X144627600Y-72948800D01*
X145440400Y-72948800D01*
X145440400Y-74676000D01*
G37*
G36*
X154400267Y-72673283D02*
G01*
X154538942Y-72730724D01*
X154663747Y-72814116D01*
X154769884Y-72920253D01*
X154853276Y-73045058D01*
X154910717Y-73183733D01*
X154940000Y-73330950D01*
X154940000Y-73481050D01*
X154910717Y-73628267D01*
X154853276Y-73766942D01*
X154769884Y-73891747D01*
X154663747Y-73997884D01*
X154538942Y-74081276D01*
X154400267Y-74138717D01*
X154253050Y-74168000D01*
X154102950Y-74168000D01*
X153955733Y-74138717D01*
X153817058Y-74081276D01*
X153692253Y-73997884D01*
X153586116Y-73891747D01*
X153502724Y-73766942D01*
X153445283Y-73628267D01*
X153416000Y-73481050D01*
X153416000Y-73330950D01*
X153445283Y-73183733D01*
X153502724Y-73045058D01*
X153586116Y-72920253D01*
X153692253Y-72814116D01*
X153817058Y-72730724D01*
X153955733Y-72673283D01*
X154102950Y-72644000D01*
X154253050Y-72644000D01*
X154400267Y-72673283D01*
G37*
G36*
X123920267Y-72673283D02*
G01*
X124058942Y-72730724D01*
X124183747Y-72814116D01*
X124289884Y-72920253D01*
X124373276Y-73045058D01*
X124430717Y-73183733D01*
X124460000Y-73330950D01*
X124460000Y-73481050D01*
X124430717Y-73628267D01*
X124373276Y-73766942D01*
X124289884Y-73891747D01*
X124183747Y-73997884D01*
X124058942Y-74081276D01*
X123920267Y-74138717D01*
X123773050Y-74168000D01*
X123622950Y-74168000D01*
X123475733Y-74138717D01*
X123337058Y-74081276D01*
X123212253Y-73997884D01*
X123106116Y-73891747D01*
X123022724Y-73766942D01*
X122965283Y-73628267D01*
X122936000Y-73481050D01*
X122936000Y-73330950D01*
X122965283Y-73183733D01*
X123022724Y-73045058D01*
X123106116Y-72920253D01*
X123212253Y-72814116D01*
X123337058Y-72730724D01*
X123475733Y-72673283D01*
X123622950Y-72644000D01*
X123773050Y-72644000D01*
X123920267Y-72673283D01*
G37*
G36*
X185134267Y-70895283D02*
G01*
X185272942Y-70952724D01*
X185397747Y-71036116D01*
X185503884Y-71142253D01*
X185587276Y-71267058D01*
X185644717Y-71405733D01*
X185674000Y-71552950D01*
X185674000Y-71703050D01*
X185644717Y-71850267D01*
X185587276Y-71988942D01*
X185503884Y-72113747D01*
X185397747Y-72219884D01*
X185272942Y-72303276D01*
X185134267Y-72360717D01*
X184987050Y-72390000D01*
X184836950Y-72390000D01*
X184689733Y-72360717D01*
X184551058Y-72303276D01*
X184426253Y-72219884D01*
X184320116Y-72113747D01*
X184236724Y-71988942D01*
X184179283Y-71850267D01*
X184150000Y-71703050D01*
X184150000Y-71552950D01*
X184179283Y-71405733D01*
X184236724Y-71267058D01*
X184320116Y-71142253D01*
X184426253Y-71036116D01*
X184551058Y-70952724D01*
X184689733Y-70895283D01*
X184836950Y-70866000D01*
X184987050Y-70866000D01*
X185134267Y-70895283D01*
G37*
G36*
X145002267Y-70641283D02*
G01*
X145140942Y-70698724D01*
X145265747Y-70782116D01*
X145371884Y-70888253D01*
X145455276Y-71013058D01*
X145512717Y-71151733D01*
X145542000Y-71298950D01*
X145542000Y-71449050D01*
X145512717Y-71596267D01*
X145455276Y-71734942D01*
X145371884Y-71859747D01*
X145265747Y-71965884D01*
X145140942Y-72049276D01*
X145002267Y-72106717D01*
X144855050Y-72136000D01*
X144704950Y-72136000D01*
X144557733Y-72106717D01*
X144419058Y-72049276D01*
X144294253Y-71965884D01*
X144188116Y-71859747D01*
X144104724Y-71734942D01*
X144047283Y-71596267D01*
X144018000Y-71449050D01*
X144018000Y-71298950D01*
X144047283Y-71151733D01*
X144104724Y-71013058D01*
X144188116Y-70888253D01*
X144294253Y-70782116D01*
X144419058Y-70698724D01*
X144557733Y-70641283D01*
X144704950Y-70612000D01*
X144855050Y-70612000D01*
X145002267Y-70641283D01*
G37*
G36*
X147034267Y-70641283D02*
G01*
X147172942Y-70698724D01*
X147297747Y-70782116D01*
X147403884Y-70888253D01*
X147487276Y-71013058D01*
X147544717Y-71151733D01*
X147574000Y-71298950D01*
X147574000Y-71449050D01*
X147544717Y-71596267D01*
X147487276Y-71734942D01*
X147403884Y-71859747D01*
X147297747Y-71965884D01*
X147172942Y-72049276D01*
X147034267Y-72106717D01*
X146887050Y-72136000D01*
X146736950Y-72136000D01*
X146589733Y-72106717D01*
X146451058Y-72049276D01*
X146326253Y-71965884D01*
X146220116Y-71859747D01*
X146136724Y-71734942D01*
X146079283Y-71596267D01*
X146050000Y-71449050D01*
X146050000Y-71298950D01*
X146079283Y-71151733D01*
X146136724Y-71013058D01*
X146220116Y-70888253D01*
X146326253Y-70782116D01*
X146451058Y-70698724D01*
X146589733Y-70641283D01*
X146736950Y-70612000D01*
X146887050Y-70612000D01*
X147034267Y-70641283D01*
G37*
G36*
X164052267Y-70641283D02*
G01*
X164190942Y-70698724D01*
X164315747Y-70782116D01*
X164421884Y-70888253D01*
X164505276Y-71013058D01*
X164562717Y-71151733D01*
X164592000Y-71298950D01*
X164592000Y-71449050D01*
X164562717Y-71596267D01*
X164505276Y-71734942D01*
X164421884Y-71859747D01*
X164315747Y-71965884D01*
X164190942Y-72049276D01*
X164052267Y-72106717D01*
X163905050Y-72136000D01*
X163754950Y-72136000D01*
X163607733Y-72106717D01*
X163469058Y-72049276D01*
X163344253Y-71965884D01*
X163238116Y-71859747D01*
X163154724Y-71734942D01*
X163097283Y-71596267D01*
X163068000Y-71449050D01*
X163068000Y-71298950D01*
X163097283Y-71151733D01*
X163154724Y-71013058D01*
X163238116Y-70888253D01*
X163344253Y-70782116D01*
X163469058Y-70698724D01*
X163607733Y-70641283D01*
X163754950Y-70612000D01*
X163905050Y-70612000D01*
X164052267Y-70641283D01*
G37*
G36*
X149066267Y-70641283D02*
G01*
X149204942Y-70698724D01*
X149329747Y-70782116D01*
X149435884Y-70888253D01*
X149519276Y-71013058D01*
X149576717Y-71151733D01*
X149606000Y-71298950D01*
X149606000Y-71449050D01*
X149576717Y-71596267D01*
X149519276Y-71734942D01*
X149435884Y-71859747D01*
X149329747Y-71965884D01*
X149204942Y-72049276D01*
X149066267Y-72106717D01*
X148919050Y-72136000D01*
X148768950Y-72136000D01*
X148621733Y-72106717D01*
X148483058Y-72049276D01*
X148358253Y-71965884D01*
X148252116Y-71859747D01*
X148168724Y-71734942D01*
X148111283Y-71596267D01*
X148082000Y-71449050D01*
X148082000Y-71298950D01*
X148111283Y-71151733D01*
X148168724Y-71013058D01*
X148252116Y-70888253D01*
X148358253Y-70782116D01*
X148483058Y-70698724D01*
X148621733Y-70641283D01*
X148768950Y-70612000D01*
X148919050Y-70612000D01*
X149066267Y-70641283D01*
G37*
G36*
X140241135Y-67337159D02*
G01*
X140408983Y-67370545D01*
X140586780Y-67444191D01*
X140746800Y-67551113D01*
X140882887Y-67687200D01*
X140989809Y-67847220D01*
X141063455Y-68025017D01*
X141101000Y-68213775D01*
X141101000Y-68406225D01*
X141063455Y-68594983D01*
X140989809Y-68772780D01*
X140882887Y-68932800D01*
X140746800Y-69068887D01*
X140586780Y-69175809D01*
X140408983Y-69249455D01*
X140241135Y-69282841D01*
X140220226Y-69287000D01*
X140027774Y-69287000D01*
X140006865Y-69282841D01*
X139839017Y-69249455D01*
X139661220Y-69175809D01*
X139501200Y-69068887D01*
X139365113Y-68932800D01*
X139258191Y-68772780D01*
X139184545Y-68594983D01*
X139147000Y-68406225D01*
X139147000Y-68213775D01*
X139184545Y-68025017D01*
X139258191Y-67847220D01*
X139365113Y-67687200D01*
X139501200Y-67551113D01*
X139661220Y-67444191D01*
X139839017Y-67370545D01*
X140006865Y-67337159D01*
X140027774Y-67333000D01*
X140220226Y-67333000D01*
X140241135Y-67337159D01*
G37*
G36*
X178341135Y-67337159D02*
G01*
X178508983Y-67370545D01*
X178686780Y-67444191D01*
X178846800Y-67551113D01*
X178982887Y-67687200D01*
X179089809Y-67847220D01*
X179163455Y-68025017D01*
X179201000Y-68213775D01*
X179201000Y-68406225D01*
X179163455Y-68594983D01*
X179089809Y-68772780D01*
X178982887Y-68932800D01*
X178846800Y-69068887D01*
X178686780Y-69175809D01*
X178508983Y-69249455D01*
X178341135Y-69282841D01*
X178320226Y-69287000D01*
X178127774Y-69287000D01*
X178106865Y-69282841D01*
X177939017Y-69249455D01*
X177761220Y-69175809D01*
X177601200Y-69068887D01*
X177465113Y-68932800D01*
X177358191Y-68772780D01*
X177284545Y-68594983D01*
X177247000Y-68406225D01*
X177247000Y-68213775D01*
X177284545Y-68025017D01*
X177358191Y-67847220D01*
X177465113Y-67687200D01*
X177601200Y-67551113D01*
X177761220Y-67444191D01*
X177939017Y-67370545D01*
X178106865Y-67337159D01*
X178127774Y-67333000D01*
X178320226Y-67333000D01*
X178341135Y-67337159D01*
G37*
G36*
X158021135Y-67337159D02*
G01*
X158188983Y-67370545D01*
X158366780Y-67444191D01*
X158526800Y-67551113D01*
X158662887Y-67687200D01*
X158769809Y-67847220D01*
X158843455Y-68025017D01*
X158881000Y-68213775D01*
X158881000Y-68406225D01*
X158843455Y-68594983D01*
X158769809Y-68772780D01*
X158662887Y-68932800D01*
X158526800Y-69068887D01*
X158366780Y-69175809D01*
X158188983Y-69249455D01*
X158021135Y-69282841D01*
X158000226Y-69287000D01*
X157807774Y-69287000D01*
X157786865Y-69282841D01*
X157619017Y-69249455D01*
X157441220Y-69175809D01*
X157281200Y-69068887D01*
X157145113Y-68932800D01*
X157038191Y-68772780D01*
X156964545Y-68594983D01*
X156927000Y-68406225D01*
X156927000Y-68213775D01*
X156964545Y-68025017D01*
X157038191Y-67847220D01*
X157145113Y-67687200D01*
X157281200Y-67551113D01*
X157441220Y-67444191D01*
X157619017Y-67370545D01*
X157786865Y-67337159D01*
X157807774Y-67333000D01*
X158000226Y-67333000D01*
X158021135Y-67337159D01*
G37*
G36*
X155481135Y-67337159D02*
G01*
X155648983Y-67370545D01*
X155826780Y-67444191D01*
X155986800Y-67551113D01*
X156122887Y-67687200D01*
X156229809Y-67847220D01*
X156303455Y-68025017D01*
X156341000Y-68213775D01*
X156341000Y-68406225D01*
X156303455Y-68594983D01*
X156229809Y-68772780D01*
X156122887Y-68932800D01*
X155986800Y-69068887D01*
X155826780Y-69175809D01*
X155648983Y-69249455D01*
X155481135Y-69282841D01*
X155460226Y-69287000D01*
X155267774Y-69287000D01*
X155246865Y-69282841D01*
X155079017Y-69249455D01*
X154901220Y-69175809D01*
X154741200Y-69068887D01*
X154605113Y-68932800D01*
X154498191Y-68772780D01*
X154424545Y-68594983D01*
X154387000Y-68406225D01*
X154387000Y-68213775D01*
X154424545Y-68025017D01*
X154498191Y-67847220D01*
X154605113Y-67687200D01*
X154741200Y-67551113D01*
X154901220Y-67444191D01*
X155079017Y-67370545D01*
X155246865Y-67337159D01*
X155267774Y-67333000D01*
X155460226Y-67333000D01*
X155481135Y-67337159D01*
G37*
G36*
X168181135Y-67337159D02*
G01*
X168348983Y-67370545D01*
X168526780Y-67444191D01*
X168686800Y-67551113D01*
X168822887Y-67687200D01*
X168929809Y-67847220D01*
X169003455Y-68025017D01*
X169041000Y-68213775D01*
X169041000Y-68406225D01*
X169003455Y-68594983D01*
X168929809Y-68772780D01*
X168822887Y-68932800D01*
X168686800Y-69068887D01*
X168526780Y-69175809D01*
X168348983Y-69249455D01*
X168181135Y-69282841D01*
X168160226Y-69287000D01*
X167967774Y-69287000D01*
X167946865Y-69282841D01*
X167779017Y-69249455D01*
X167601220Y-69175809D01*
X167441200Y-69068887D01*
X167305113Y-68932800D01*
X167198191Y-68772780D01*
X167124545Y-68594983D01*
X167087000Y-68406225D01*
X167087000Y-68213775D01*
X167124545Y-68025017D01*
X167198191Y-67847220D01*
X167305113Y-67687200D01*
X167441200Y-67551113D01*
X167601220Y-67444191D01*
X167779017Y-67370545D01*
X167946865Y-67337159D01*
X167967774Y-67333000D01*
X168160226Y-67333000D01*
X168181135Y-67337159D01*
G37*
G36*
X165641135Y-67337159D02*
G01*
X165808983Y-67370545D01*
X165986780Y-67444191D01*
X166146800Y-67551113D01*
X166282887Y-67687200D01*
X166389809Y-67847220D01*
X166463455Y-68025017D01*
X166501000Y-68213775D01*
X166501000Y-68406225D01*
X166463455Y-68594983D01*
X166389809Y-68772780D01*
X166282887Y-68932800D01*
X166146800Y-69068887D01*
X165986780Y-69175809D01*
X165808983Y-69249455D01*
X165641135Y-69282841D01*
X165620226Y-69287000D01*
X165427774Y-69287000D01*
X165406865Y-69282841D01*
X165239017Y-69249455D01*
X165061220Y-69175809D01*
X164901200Y-69068887D01*
X164765113Y-68932800D01*
X164658191Y-68772780D01*
X164584545Y-68594983D01*
X164547000Y-68406225D01*
X164547000Y-68213775D01*
X164584545Y-68025017D01*
X164658191Y-67847220D01*
X164765113Y-67687200D01*
X164901200Y-67551113D01*
X165061220Y-67444191D01*
X165239017Y-67370545D01*
X165406865Y-67337159D01*
X165427774Y-67333000D01*
X165620226Y-67333000D01*
X165641135Y-67337159D01*
G37*
G36*
X170721135Y-67337159D02*
G01*
X170888983Y-67370545D01*
X171066780Y-67444191D01*
X171226800Y-67551113D01*
X171362887Y-67687200D01*
X171469809Y-67847220D01*
X171543455Y-68025017D01*
X171581000Y-68213775D01*
X171581000Y-68406225D01*
X171543455Y-68594983D01*
X171469809Y-68772780D01*
X171362887Y-68932800D01*
X171226800Y-69068887D01*
X171066780Y-69175809D01*
X170888983Y-69249455D01*
X170721135Y-69282841D01*
X170700226Y-69287000D01*
X170507774Y-69287000D01*
X170486865Y-69282841D01*
X170319017Y-69249455D01*
X170141220Y-69175809D01*
X169981200Y-69068887D01*
X169845113Y-68932800D01*
X169738191Y-68772780D01*
X169664545Y-68594983D01*
X169627000Y-68406225D01*
X169627000Y-68213775D01*
X169664545Y-68025017D01*
X169738191Y-67847220D01*
X169845113Y-67687200D01*
X169981200Y-67551113D01*
X170141220Y-67444191D01*
X170319017Y-67370545D01*
X170486865Y-67337159D01*
X170507774Y-67333000D01*
X170700226Y-67333000D01*
X170721135Y-67337159D01*
G37*
G36*
X163101135Y-67337159D02*
G01*
X163268983Y-67370545D01*
X163446780Y-67444191D01*
X163606800Y-67551113D01*
X163742887Y-67687200D01*
X163849809Y-67847220D01*
X163923455Y-68025017D01*
X163961000Y-68213775D01*
X163961000Y-68406225D01*
X163923455Y-68594983D01*
X163849809Y-68772780D01*
X163742887Y-68932800D01*
X163606800Y-69068887D01*
X163446780Y-69175809D01*
X163268983Y-69249455D01*
X163101135Y-69282841D01*
X163080226Y-69287000D01*
X162887774Y-69287000D01*
X162866865Y-69282841D01*
X162699017Y-69249455D01*
X162521220Y-69175809D01*
X162361200Y-69068887D01*
X162225113Y-68932800D01*
X162118191Y-68772780D01*
X162044545Y-68594983D01*
X162007000Y-68406225D01*
X162007000Y-68213775D01*
X162044545Y-68025017D01*
X162118191Y-67847220D01*
X162225113Y-67687200D01*
X162361200Y-67551113D01*
X162521220Y-67444191D01*
X162699017Y-67370545D01*
X162866865Y-67337159D01*
X162887774Y-67333000D01*
X163080226Y-67333000D01*
X163101135Y-67337159D01*
G37*
G36*
X173261135Y-67337159D02*
G01*
X173428983Y-67370545D01*
X173606780Y-67444191D01*
X173766800Y-67551113D01*
X173902887Y-67687200D01*
X174009809Y-67847220D01*
X174083455Y-68025017D01*
X174121000Y-68213775D01*
X174121000Y-68406225D01*
X174083455Y-68594983D01*
X174009809Y-68772780D01*
X173902887Y-68932800D01*
X173766800Y-69068887D01*
X173606780Y-69175809D01*
X173428983Y-69249455D01*
X173261135Y-69282841D01*
X173240226Y-69287000D01*
X173047774Y-69287000D01*
X173026865Y-69282841D01*
X172859017Y-69249455D01*
X172681220Y-69175809D01*
X172521200Y-69068887D01*
X172385113Y-68932800D01*
X172278191Y-68772780D01*
X172204545Y-68594983D01*
X172167000Y-68406225D01*
X172167000Y-68213775D01*
X172204545Y-68025017D01*
X172278191Y-67847220D01*
X172385113Y-67687200D01*
X172521200Y-67551113D01*
X172681220Y-67444191D01*
X172859017Y-67370545D01*
X173026865Y-67337159D01*
X173047774Y-67333000D01*
X173240226Y-67333000D01*
X173261135Y-67337159D01*
G37*
G36*
X145321135Y-67337159D02*
G01*
X145488983Y-67370545D01*
X145666780Y-67444191D01*
X145826800Y-67551113D01*
X145962887Y-67687200D01*
X146069809Y-67847220D01*
X146143455Y-68025017D01*
X146181000Y-68213775D01*
X146181000Y-68406225D01*
X146143455Y-68594983D01*
X146069809Y-68772780D01*
X145962887Y-68932800D01*
X145826800Y-69068887D01*
X145666780Y-69175809D01*
X145488983Y-69249455D01*
X145321135Y-69282841D01*
X145300226Y-69287000D01*
X145107774Y-69287000D01*
X145086865Y-69282841D01*
X144919017Y-69249455D01*
X144741220Y-69175809D01*
X144581200Y-69068887D01*
X144445113Y-68932800D01*
X144338191Y-68772780D01*
X144264545Y-68594983D01*
X144227000Y-68406225D01*
X144227000Y-68213775D01*
X144264545Y-68025017D01*
X144338191Y-67847220D01*
X144445113Y-67687200D01*
X144581200Y-67551113D01*
X144741220Y-67444191D01*
X144919017Y-67370545D01*
X145086865Y-67337159D01*
X145107774Y-67333000D01*
X145300226Y-67333000D01*
X145321135Y-67337159D01*
G37*
G36*
X142781135Y-67337159D02*
G01*
X142948983Y-67370545D01*
X143126780Y-67444191D01*
X143286800Y-67551113D01*
X143422887Y-67687200D01*
X143529809Y-67847220D01*
X143603455Y-68025017D01*
X143641000Y-68213775D01*
X143641000Y-68406225D01*
X143603455Y-68594983D01*
X143529809Y-68772780D01*
X143422887Y-68932800D01*
X143286800Y-69068887D01*
X143126780Y-69175809D01*
X142948983Y-69249455D01*
X142781135Y-69282841D01*
X142760226Y-69287000D01*
X142567774Y-69287000D01*
X142546865Y-69282841D01*
X142379017Y-69249455D01*
X142201220Y-69175809D01*
X142041200Y-69068887D01*
X141905113Y-68932800D01*
X141798191Y-68772780D01*
X141724545Y-68594983D01*
X141687000Y-68406225D01*
X141687000Y-68213775D01*
X141724545Y-68025017D01*
X141798191Y-67847220D01*
X141905113Y-67687200D01*
X142041200Y-67551113D01*
X142201220Y-67444191D01*
X142379017Y-67370545D01*
X142546865Y-67337159D01*
X142567774Y-67333000D01*
X142760226Y-67333000D01*
X142781135Y-67337159D01*
G37*
G36*
X150401135Y-67337159D02*
G01*
X150568983Y-67370545D01*
X150746780Y-67444191D01*
X150906800Y-67551113D01*
X151042887Y-67687200D01*
X151149809Y-67847220D01*
X151223455Y-68025017D01*
X151261000Y-68213775D01*
X151261000Y-68406225D01*
X151223455Y-68594983D01*
X151149809Y-68772780D01*
X151042887Y-68932800D01*
X150906800Y-69068887D01*
X150746780Y-69175809D01*
X150568983Y-69249455D01*
X150401135Y-69282841D01*
X150380226Y-69287000D01*
X150187774Y-69287000D01*
X150166865Y-69282841D01*
X149999017Y-69249455D01*
X149821220Y-69175809D01*
X149661200Y-69068887D01*
X149525113Y-68932800D01*
X149418191Y-68772780D01*
X149344545Y-68594983D01*
X149307000Y-68406225D01*
X149307000Y-68213775D01*
X149344545Y-68025017D01*
X149418191Y-67847220D01*
X149525113Y-67687200D01*
X149661200Y-67551113D01*
X149821220Y-67444191D01*
X149999017Y-67370545D01*
X150166865Y-67337159D01*
X150187774Y-67333000D01*
X150380226Y-67333000D01*
X150401135Y-67337159D01*
G37*
G36*
X160561135Y-67337159D02*
G01*
X160728983Y-67370545D01*
X160906780Y-67444191D01*
X161066800Y-67551113D01*
X161202887Y-67687200D01*
X161309809Y-67847220D01*
X161383455Y-68025017D01*
X161421000Y-68213775D01*
X161421000Y-68406225D01*
X161383455Y-68594983D01*
X161309809Y-68772780D01*
X161202887Y-68932800D01*
X161066800Y-69068887D01*
X160906780Y-69175809D01*
X160728983Y-69249455D01*
X160561135Y-69282841D01*
X160540226Y-69287000D01*
X160347774Y-69287000D01*
X160326865Y-69282841D01*
X160159017Y-69249455D01*
X159981220Y-69175809D01*
X159821200Y-69068887D01*
X159685113Y-68932800D01*
X159578191Y-68772780D01*
X159504545Y-68594983D01*
X159467000Y-68406225D01*
X159467000Y-68213775D01*
X159504545Y-68025017D01*
X159578191Y-67847220D01*
X159685113Y-67687200D01*
X159821200Y-67551113D01*
X159981220Y-67444191D01*
X160159017Y-67370545D01*
X160326865Y-67337159D01*
X160347774Y-67333000D01*
X160540226Y-67333000D01*
X160561135Y-67337159D01*
G37*
G36*
X175801135Y-67337159D02*
G01*
X175968983Y-67370545D01*
X176146780Y-67444191D01*
X176306800Y-67551113D01*
X176442887Y-67687200D01*
X176549809Y-67847220D01*
X176623455Y-68025017D01*
X176661000Y-68213775D01*
X176661000Y-68406225D01*
X176623455Y-68594983D01*
X176549809Y-68772780D01*
X176442887Y-68932800D01*
X176306800Y-69068887D01*
X176146780Y-69175809D01*
X175968983Y-69249455D01*
X175801135Y-69282841D01*
X175780226Y-69287000D01*
X175587774Y-69287000D01*
X175566865Y-69282841D01*
X175399017Y-69249455D01*
X175221220Y-69175809D01*
X175061200Y-69068887D01*
X174925113Y-68932800D01*
X174818191Y-68772780D01*
X174744545Y-68594983D01*
X174707000Y-68406225D01*
X174707000Y-68213775D01*
X174744545Y-68025017D01*
X174818191Y-67847220D01*
X174925113Y-67687200D01*
X175061200Y-67551113D01*
X175221220Y-67444191D01*
X175399017Y-67370545D01*
X175566865Y-67337159D01*
X175587774Y-67333000D01*
X175780226Y-67333000D01*
X175801135Y-67337159D01*
G37*
G36*
X152941135Y-67337159D02*
G01*
X153108983Y-67370545D01*
X153286780Y-67444191D01*
X153446800Y-67551113D01*
X153582887Y-67687200D01*
X153689809Y-67847220D01*
X153763455Y-68025017D01*
X153801000Y-68213775D01*
X153801000Y-68406225D01*
X153763455Y-68594983D01*
X153689809Y-68772780D01*
X153582887Y-68932800D01*
X153446800Y-69068887D01*
X153286780Y-69175809D01*
X153108983Y-69249455D01*
X152941135Y-69282841D01*
X152920226Y-69287000D01*
X152727774Y-69287000D01*
X152706865Y-69282841D01*
X152539017Y-69249455D01*
X152361220Y-69175809D01*
X152201200Y-69068887D01*
X152065113Y-68932800D01*
X151958191Y-68772780D01*
X151884545Y-68594983D01*
X151847000Y-68406225D01*
X151847000Y-68213775D01*
X151884545Y-68025017D01*
X151958191Y-67847220D01*
X152065113Y-67687200D01*
X152201200Y-67551113D01*
X152361220Y-67444191D01*
X152539017Y-67370545D01*
X152706865Y-67337159D01*
X152727774Y-67333000D01*
X152920226Y-67333000D01*
X152941135Y-67337159D01*
G37*
G36*
X132621135Y-67337159D02*
G01*
X132788983Y-67370545D01*
X132966780Y-67444191D01*
X133126800Y-67551113D01*
X133262887Y-67687200D01*
X133369809Y-67847220D01*
X133443455Y-68025017D01*
X133481000Y-68213775D01*
X133481000Y-68406225D01*
X133443455Y-68594983D01*
X133369809Y-68772780D01*
X133262887Y-68932800D01*
X133126800Y-69068887D01*
X132966780Y-69175809D01*
X132788983Y-69249455D01*
X132621135Y-69282841D01*
X132600226Y-69287000D01*
X132407774Y-69287000D01*
X132386865Y-69282841D01*
X132219017Y-69249455D01*
X132041220Y-69175809D01*
X131881200Y-69068887D01*
X131745113Y-68932800D01*
X131638191Y-68772780D01*
X131564545Y-68594983D01*
X131527000Y-68406225D01*
X131527000Y-68213775D01*
X131564545Y-68025017D01*
X131638191Y-67847220D01*
X131745113Y-67687200D01*
X131881200Y-67551113D01*
X132041220Y-67444191D01*
X132219017Y-67370545D01*
X132386865Y-67337159D01*
X132407774Y-67333000D01*
X132600226Y-67333000D01*
X132621135Y-67337159D01*
G37*
G36*
X135161135Y-67337159D02*
G01*
X135328983Y-67370545D01*
X135506780Y-67444191D01*
X135666800Y-67551113D01*
X135802887Y-67687200D01*
X135909809Y-67847220D01*
X135983455Y-68025017D01*
X136021000Y-68213775D01*
X136021000Y-68406225D01*
X135983455Y-68594983D01*
X135909809Y-68772780D01*
X135802887Y-68932800D01*
X135666800Y-69068887D01*
X135506780Y-69175809D01*
X135328983Y-69249455D01*
X135161135Y-69282841D01*
X135140226Y-69287000D01*
X134947774Y-69287000D01*
X134926865Y-69282841D01*
X134759017Y-69249455D01*
X134581220Y-69175809D01*
X134421200Y-69068887D01*
X134285113Y-68932800D01*
X134178191Y-68772780D01*
X134104545Y-68594983D01*
X134067000Y-68406225D01*
X134067000Y-68213775D01*
X134104545Y-68025017D01*
X134178191Y-67847220D01*
X134285113Y-67687200D01*
X134421200Y-67551113D01*
X134581220Y-67444191D01*
X134759017Y-67370545D01*
X134926865Y-67337159D01*
X134947774Y-67333000D01*
X135140226Y-67333000D01*
X135161135Y-67337159D01*
G37*
G36*
X137701135Y-67337159D02*
G01*
X137868983Y-67370545D01*
X138046780Y-67444191D01*
X138206800Y-67551113D01*
X138342887Y-67687200D01*
X138449809Y-67847220D01*
X138523455Y-68025017D01*
X138561000Y-68213775D01*
X138561000Y-68406225D01*
X138523455Y-68594983D01*
X138449809Y-68772780D01*
X138342887Y-68932800D01*
X138206800Y-69068887D01*
X138046780Y-69175809D01*
X137868983Y-69249455D01*
X137701135Y-69282841D01*
X137680226Y-69287000D01*
X137487774Y-69287000D01*
X137466865Y-69282841D01*
X137299017Y-69249455D01*
X137121220Y-69175809D01*
X136961200Y-69068887D01*
X136825113Y-68932800D01*
X136718191Y-68772780D01*
X136644545Y-68594983D01*
X136607000Y-68406225D01*
X136607000Y-68213775D01*
X136644545Y-68025017D01*
X136718191Y-67847220D01*
X136825113Y-67687200D01*
X136961200Y-67551113D01*
X137121220Y-67444191D01*
X137299017Y-67370545D01*
X137466865Y-67337159D01*
X137487774Y-67333000D01*
X137680226Y-67333000D01*
X137701135Y-67337159D01*
G37*
G36*
X147861135Y-67337159D02*
G01*
X148028983Y-67370545D01*
X148206780Y-67444191D01*
X148366800Y-67551113D01*
X148502887Y-67687200D01*
X148609809Y-67847220D01*
X148683455Y-68025017D01*
X148721000Y-68213775D01*
X148721000Y-68406225D01*
X148683455Y-68594983D01*
X148609809Y-68772780D01*
X148502887Y-68932800D01*
X148366800Y-69068887D01*
X148206780Y-69175809D01*
X148028983Y-69249455D01*
X147861135Y-69282841D01*
X147840226Y-69287000D01*
X147647774Y-69287000D01*
X147626865Y-69282841D01*
X147459017Y-69249455D01*
X147281220Y-69175809D01*
X147121200Y-69068887D01*
X146985113Y-68932800D01*
X146878191Y-68772780D01*
X146804545Y-68594983D01*
X146767000Y-68406225D01*
X146767000Y-68213775D01*
X146804545Y-68025017D01*
X146878191Y-67847220D01*
X146985113Y-67687200D01*
X147121200Y-67551113D01*
X147281220Y-67444191D01*
X147459017Y-67370545D01*
X147626865Y-67337159D01*
X147647774Y-67333000D01*
X147840226Y-67333000D01*
X147861135Y-67337159D01*
G37*
G36*
X125612332Y-65331289D02*
G01*
X125612334Y-65331290D01*
X125612335Y-65331290D01*
X125935726Y-65465243D01*
X126226766Y-65659710D01*
X126226768Y-65659712D01*
X126226771Y-65659714D01*
X126474286Y-65907229D01*
X126474288Y-65907232D01*
X126474290Y-65907234D01*
X126668757Y-66198274D01*
X126802710Y-66521665D01*
X126802711Y-66521668D01*
X126871000Y-66864981D01*
X126871000Y-67215019D01*
X126804147Y-67551115D01*
X126802710Y-67558335D01*
X126668757Y-67881726D01*
X126474290Y-68172766D01*
X126474288Y-68172768D01*
X126474286Y-68172771D01*
X126226771Y-68420286D01*
X126226768Y-68420288D01*
X126226766Y-68420290D01*
X125935726Y-68614757D01*
X125612335Y-68748710D01*
X125612334Y-68748710D01*
X125612332Y-68748711D01*
X125269019Y-68817000D01*
X124918981Y-68817000D01*
X124575668Y-68748711D01*
X124575666Y-68748710D01*
X124575665Y-68748710D01*
X124252274Y-68614757D01*
X123961234Y-68420290D01*
X123961232Y-68420288D01*
X123961229Y-68420286D01*
X123713714Y-68172771D01*
X123713712Y-68172768D01*
X123713710Y-68172766D01*
X123519243Y-67881726D01*
X123385290Y-67558335D01*
X123383854Y-67551115D01*
X123317000Y-67215019D01*
X123317000Y-66864981D01*
X123385289Y-66521668D01*
X123385290Y-66521665D01*
X123519243Y-66198274D01*
X123713710Y-65907234D01*
X123713712Y-65907232D01*
X123713714Y-65907229D01*
X123961229Y-65659714D01*
X123961232Y-65659712D01*
X123961234Y-65659710D01*
X124252274Y-65465243D01*
X124575665Y-65331290D01*
X124575666Y-65331290D01*
X124575668Y-65331289D01*
X124918981Y-65263000D01*
X125269019Y-65263000D01*
X125612332Y-65331289D01*
G37*
G36*
X183612332Y-65331289D02*
G01*
X183612334Y-65331290D01*
X183612335Y-65331290D01*
X183935726Y-65465243D01*
X184226766Y-65659710D01*
X184226768Y-65659712D01*
X184226771Y-65659714D01*
X184474286Y-65907229D01*
X184474288Y-65907232D01*
X184474290Y-65907234D01*
X184668757Y-66198274D01*
X184802710Y-66521665D01*
X184802711Y-66521668D01*
X184871000Y-66864981D01*
X184871000Y-67215019D01*
X184804147Y-67551115D01*
X184802710Y-67558335D01*
X184668757Y-67881726D01*
X184474290Y-68172766D01*
X184474288Y-68172768D01*
X184474286Y-68172771D01*
X184226771Y-68420286D01*
X184226768Y-68420288D01*
X184226766Y-68420290D01*
X183935726Y-68614757D01*
X183612335Y-68748710D01*
X183612334Y-68748710D01*
X183612332Y-68748711D01*
X183269019Y-68817000D01*
X182918981Y-68817000D01*
X182575668Y-68748711D01*
X182575666Y-68748710D01*
X182575665Y-68748710D01*
X182252274Y-68614757D01*
X181961234Y-68420290D01*
X181961232Y-68420288D01*
X181961229Y-68420286D01*
X181713714Y-68172771D01*
X181713712Y-68172768D01*
X181713710Y-68172766D01*
X181519243Y-67881726D01*
X181385290Y-67558335D01*
X181383854Y-67551115D01*
X181317000Y-67215019D01*
X181317000Y-66864981D01*
X181385289Y-66521668D01*
X181385290Y-66521665D01*
X181519243Y-66198274D01*
X181713710Y-65907234D01*
X181713712Y-65907232D01*
X181713714Y-65907229D01*
X181961229Y-65659714D01*
X181961232Y-65659712D01*
X181961234Y-65659710D01*
X182252274Y-65465243D01*
X182575665Y-65331290D01*
X182575666Y-65331290D01*
X182575668Y-65331289D01*
X182918981Y-65263000D01*
X183269019Y-65263000D01*
X183612332Y-65331289D01*
G37*
G36*
X132621135Y-64797159D02*
G01*
X132788983Y-64830545D01*
X132966780Y-64904191D01*
X133126800Y-65011113D01*
X133262887Y-65147200D01*
X133369809Y-65307220D01*
X133443455Y-65485017D01*
X133481000Y-65673775D01*
X133481000Y-65866225D01*
X133443455Y-66054983D01*
X133369809Y-66232780D01*
X133262887Y-66392800D01*
X133126800Y-66528887D01*
X132966780Y-66635809D01*
X132788983Y-66709455D01*
X132621135Y-66742841D01*
X132600226Y-66747000D01*
X132407774Y-66747000D01*
X132386865Y-66742841D01*
X132219017Y-66709455D01*
X132041220Y-66635809D01*
X131881200Y-66528887D01*
X131745113Y-66392800D01*
X131638191Y-66232780D01*
X131564545Y-66054983D01*
X131527000Y-65866225D01*
X131527000Y-65673775D01*
X131564545Y-65485017D01*
X131638191Y-65307220D01*
X131745113Y-65147200D01*
X131881200Y-65011113D01*
X132041220Y-64904191D01*
X132219017Y-64830545D01*
X132386865Y-64797159D01*
X132407774Y-64793000D01*
X132600226Y-64793000D01*
X132621135Y-64797159D01*
G37*
G36*
X165641135Y-64797159D02*
G01*
X165808983Y-64830545D01*
X165986780Y-64904191D01*
X166146800Y-65011113D01*
X166282887Y-65147200D01*
X166389809Y-65307220D01*
X166463455Y-65485017D01*
X166501000Y-65673775D01*
X166501000Y-65866225D01*
X166463455Y-66054983D01*
X166389809Y-66232780D01*
X166282887Y-66392800D01*
X166146800Y-66528887D01*
X165986780Y-66635809D01*
X165808983Y-66709455D01*
X165641135Y-66742841D01*
X165620226Y-66747000D01*
X165427774Y-66747000D01*
X165406865Y-66742841D01*
X165239017Y-66709455D01*
X165061220Y-66635809D01*
X164901200Y-66528887D01*
X164765113Y-66392800D01*
X164658191Y-66232780D01*
X164584545Y-66054983D01*
X164547000Y-65866225D01*
X164547000Y-65673775D01*
X164584545Y-65485017D01*
X164658191Y-65307220D01*
X164765113Y-65147200D01*
X164901200Y-65011113D01*
X165061220Y-64904191D01*
X165239017Y-64830545D01*
X165406865Y-64797159D01*
X165427774Y-64793000D01*
X165620226Y-64793000D01*
X165641135Y-64797159D01*
G37*
G36*
X178341135Y-64797159D02*
G01*
X178508983Y-64830545D01*
X178686780Y-64904191D01*
X178846800Y-65011113D01*
X178982887Y-65147200D01*
X179089809Y-65307220D01*
X179163455Y-65485017D01*
X179201000Y-65673775D01*
X179201000Y-65866225D01*
X179163455Y-66054983D01*
X179089809Y-66232780D01*
X178982887Y-66392800D01*
X178846800Y-66528887D01*
X178686780Y-66635809D01*
X178508983Y-66709455D01*
X178341135Y-66742841D01*
X178320226Y-66747000D01*
X178127774Y-66747000D01*
X178106865Y-66742841D01*
X177939017Y-66709455D01*
X177761220Y-66635809D01*
X177601200Y-66528887D01*
X177465113Y-66392800D01*
X177358191Y-66232780D01*
X177284545Y-66054983D01*
X177247000Y-65866225D01*
X177247000Y-65673775D01*
X177284545Y-65485017D01*
X177358191Y-65307220D01*
X177465113Y-65147200D01*
X177601200Y-65011113D01*
X177761220Y-64904191D01*
X177939017Y-64830545D01*
X178106865Y-64797159D01*
X178127774Y-64793000D01*
X178320226Y-64793000D01*
X178341135Y-64797159D01*
G37*
G36*
X175801135Y-64797159D02*
G01*
X175968983Y-64830545D01*
X176146780Y-64904191D01*
X176306800Y-65011113D01*
X176442887Y-65147200D01*
X176549809Y-65307220D01*
X176623455Y-65485017D01*
X176661000Y-65673775D01*
X176661000Y-65866225D01*
X176623455Y-66054983D01*
X176549809Y-66232780D01*
X176442887Y-66392800D01*
X176306800Y-66528887D01*
X176146780Y-66635809D01*
X175968983Y-66709455D01*
X175801135Y-66742841D01*
X175780226Y-66747000D01*
X175587774Y-66747000D01*
X175566865Y-66742841D01*
X175399017Y-66709455D01*
X175221220Y-66635809D01*
X175061200Y-66528887D01*
X174925113Y-66392800D01*
X174818191Y-66232780D01*
X174744545Y-66054983D01*
X174707000Y-65866225D01*
X174707000Y-65673775D01*
X174744545Y-65485017D01*
X174818191Y-65307220D01*
X174925113Y-65147200D01*
X175061200Y-65011113D01*
X175221220Y-64904191D01*
X175399017Y-64830545D01*
X175566865Y-64797159D01*
X175587774Y-64793000D01*
X175780226Y-64793000D01*
X175801135Y-64797159D01*
G37*
G36*
X173261135Y-64797159D02*
G01*
X173428983Y-64830545D01*
X173606780Y-64904191D01*
X173766800Y-65011113D01*
X173902887Y-65147200D01*
X174009809Y-65307220D01*
X174083455Y-65485017D01*
X174121000Y-65673775D01*
X174121000Y-65866225D01*
X174083455Y-66054983D01*
X174009809Y-66232780D01*
X173902887Y-66392800D01*
X173766800Y-66528887D01*
X173606780Y-66635809D01*
X173428983Y-66709455D01*
X173261135Y-66742841D01*
X173240226Y-66747000D01*
X173047774Y-66747000D01*
X173026865Y-66742841D01*
X172859017Y-66709455D01*
X172681220Y-66635809D01*
X172521200Y-66528887D01*
X172385113Y-66392800D01*
X172278191Y-66232780D01*
X172204545Y-66054983D01*
X172167000Y-65866225D01*
X172167000Y-65673775D01*
X172204545Y-65485017D01*
X172278191Y-65307220D01*
X172385113Y-65147200D01*
X172521200Y-65011113D01*
X172681220Y-64904191D01*
X172859017Y-64830545D01*
X173026865Y-64797159D01*
X173047774Y-64793000D01*
X173240226Y-64793000D01*
X173261135Y-64797159D01*
G37*
G36*
X170721135Y-64797159D02*
G01*
X170888983Y-64830545D01*
X171066780Y-64904191D01*
X171226800Y-65011113D01*
X171362887Y-65147200D01*
X171469809Y-65307220D01*
X171543455Y-65485017D01*
X171581000Y-65673775D01*
X171581000Y-65866225D01*
X171543455Y-66054983D01*
X171469809Y-66232780D01*
X171362887Y-66392800D01*
X171226800Y-66528887D01*
X171066780Y-66635809D01*
X170888983Y-66709455D01*
X170721135Y-66742841D01*
X170700226Y-66747000D01*
X170507774Y-66747000D01*
X170486865Y-66742841D01*
X170319017Y-66709455D01*
X170141220Y-66635809D01*
X169981200Y-66528887D01*
X169845113Y-66392800D01*
X169738191Y-66232780D01*
X169664545Y-66054983D01*
X169627000Y-65866225D01*
X169627000Y-65673775D01*
X169664545Y-65485017D01*
X169738191Y-65307220D01*
X169845113Y-65147200D01*
X169981200Y-65011113D01*
X170141220Y-64904191D01*
X170319017Y-64830545D01*
X170486865Y-64797159D01*
X170507774Y-64793000D01*
X170700226Y-64793000D01*
X170721135Y-64797159D01*
G37*
G36*
X168181135Y-64797159D02*
G01*
X168348983Y-64830545D01*
X168526780Y-64904191D01*
X168686800Y-65011113D01*
X168822887Y-65147200D01*
X168929809Y-65307220D01*
X169003455Y-65485017D01*
X169041000Y-65673775D01*
X169041000Y-65866225D01*
X169003455Y-66054983D01*
X168929809Y-66232780D01*
X168822887Y-66392800D01*
X168686800Y-66528887D01*
X168526780Y-66635809D01*
X168348983Y-66709455D01*
X168181135Y-66742841D01*
X168160226Y-66747000D01*
X167967774Y-66747000D01*
X167946865Y-66742841D01*
X167779017Y-66709455D01*
X167601220Y-66635809D01*
X167441200Y-66528887D01*
X167305113Y-66392800D01*
X167198191Y-66232780D01*
X167124545Y-66054983D01*
X167087000Y-65866225D01*
X167087000Y-65673775D01*
X167124545Y-65485017D01*
X167198191Y-65307220D01*
X167305113Y-65147200D01*
X167441200Y-65011113D01*
X167601220Y-64904191D01*
X167779017Y-64830545D01*
X167946865Y-64797159D01*
X167967774Y-64793000D01*
X168160226Y-64793000D01*
X168181135Y-64797159D01*
G37*
G36*
X147861135Y-64797159D02*
G01*
X148028983Y-64830545D01*
X148206780Y-64904191D01*
X148366800Y-65011113D01*
X148502887Y-65147200D01*
X148609809Y-65307220D01*
X148683455Y-65485017D01*
X148721000Y-65673775D01*
X148721000Y-65866225D01*
X148683455Y-66054983D01*
X148609809Y-66232780D01*
X148502887Y-66392800D01*
X148366800Y-66528887D01*
X148206780Y-66635809D01*
X148028983Y-66709455D01*
X147861135Y-66742841D01*
X147840226Y-66747000D01*
X147647774Y-66747000D01*
X147626865Y-66742841D01*
X147459017Y-66709455D01*
X147281220Y-66635809D01*
X147121200Y-66528887D01*
X146985113Y-66392800D01*
X146878191Y-66232780D01*
X146804545Y-66054983D01*
X146767000Y-65866225D01*
X146767000Y-65673775D01*
X146804545Y-65485017D01*
X146878191Y-65307220D01*
X146985113Y-65147200D01*
X147121200Y-65011113D01*
X147281220Y-64904191D01*
X147459017Y-64830545D01*
X147626865Y-64797159D01*
X147647774Y-64793000D01*
X147840226Y-64793000D01*
X147861135Y-64797159D01*
G37*
G36*
X150401135Y-64797159D02*
G01*
X150568983Y-64830545D01*
X150746780Y-64904191D01*
X150906800Y-65011113D01*
X151042887Y-65147200D01*
X151149809Y-65307220D01*
X151223455Y-65485017D01*
X151261000Y-65673775D01*
X151261000Y-65866225D01*
X151223455Y-66054983D01*
X151149809Y-66232780D01*
X151042887Y-66392800D01*
X150906800Y-66528887D01*
X150746780Y-66635809D01*
X150568983Y-66709455D01*
X150401135Y-66742841D01*
X150380226Y-66747000D01*
X150187774Y-66747000D01*
X150166865Y-66742841D01*
X149999017Y-66709455D01*
X149821220Y-66635809D01*
X149661200Y-66528887D01*
X149525113Y-66392800D01*
X149418191Y-66232780D01*
X149344545Y-66054983D01*
X149307000Y-65866225D01*
X149307000Y-65673775D01*
X149344545Y-65485017D01*
X149418191Y-65307220D01*
X149525113Y-65147200D01*
X149661200Y-65011113D01*
X149821220Y-64904191D01*
X149999017Y-64830545D01*
X150166865Y-64797159D01*
X150187774Y-64793000D01*
X150380226Y-64793000D01*
X150401135Y-64797159D01*
G37*
G36*
X130081135Y-64797159D02*
G01*
X130248983Y-64830545D01*
X130426780Y-64904191D01*
X130586800Y-65011113D01*
X130722887Y-65147200D01*
X130829809Y-65307220D01*
X130903455Y-65485017D01*
X130941000Y-65673775D01*
X130941000Y-65866225D01*
X130903455Y-66054983D01*
X130829809Y-66232780D01*
X130722887Y-66392800D01*
X130586800Y-66528887D01*
X130426780Y-66635809D01*
X130248983Y-66709455D01*
X130081135Y-66742841D01*
X130060226Y-66747000D01*
X129867774Y-66747000D01*
X129846865Y-66742841D01*
X129679017Y-66709455D01*
X129501220Y-66635809D01*
X129341200Y-66528887D01*
X129205113Y-66392800D01*
X129098191Y-66232780D01*
X129024545Y-66054983D01*
X128987000Y-65866225D01*
X128987000Y-65673775D01*
X129024545Y-65485017D01*
X129098191Y-65307220D01*
X129205113Y-65147200D01*
X129341200Y-65011113D01*
X129501220Y-64904191D01*
X129679017Y-64830545D01*
X129846865Y-64797159D01*
X129867774Y-64793000D01*
X130060226Y-64793000D01*
X130081135Y-64797159D01*
G37*
G36*
X152941135Y-64797159D02*
G01*
X153108983Y-64830545D01*
X153286780Y-64904191D01*
X153446800Y-65011113D01*
X153582887Y-65147200D01*
X153689809Y-65307220D01*
X153763455Y-65485017D01*
X153801000Y-65673775D01*
X153801000Y-65866225D01*
X153763455Y-66054983D01*
X153689809Y-66232780D01*
X153582887Y-66392800D01*
X153446800Y-66528887D01*
X153286780Y-66635809D01*
X153108983Y-66709455D01*
X152941135Y-66742841D01*
X152920226Y-66747000D01*
X152727774Y-66747000D01*
X152706865Y-66742841D01*
X152539017Y-66709455D01*
X152361220Y-66635809D01*
X152201200Y-66528887D01*
X152065113Y-66392800D01*
X151958191Y-66232780D01*
X151884545Y-66054983D01*
X151847000Y-65866225D01*
X151847000Y-65673775D01*
X151884545Y-65485017D01*
X151958191Y-65307220D01*
X152065113Y-65147200D01*
X152201200Y-65011113D01*
X152361220Y-64904191D01*
X152539017Y-64830545D01*
X152706865Y-64797159D01*
X152727774Y-64793000D01*
X152920226Y-64793000D01*
X152941135Y-64797159D01*
G37*
G36*
X155481135Y-64797159D02*
G01*
X155648983Y-64830545D01*
X155826780Y-64904191D01*
X155986800Y-65011113D01*
X156122887Y-65147200D01*
X156229809Y-65307220D01*
X156303455Y-65485017D01*
X156341000Y-65673775D01*
X156341000Y-65866225D01*
X156303455Y-66054983D01*
X156229809Y-66232780D01*
X156122887Y-66392800D01*
X155986800Y-66528887D01*
X155826780Y-66635809D01*
X155648983Y-66709455D01*
X155481135Y-66742841D01*
X155460226Y-66747000D01*
X155267774Y-66747000D01*
X155246865Y-66742841D01*
X155079017Y-66709455D01*
X154901220Y-66635809D01*
X154741200Y-66528887D01*
X154605113Y-66392800D01*
X154498191Y-66232780D01*
X154424545Y-66054983D01*
X154387000Y-65866225D01*
X154387000Y-65673775D01*
X154424545Y-65485017D01*
X154498191Y-65307220D01*
X154605113Y-65147200D01*
X154741200Y-65011113D01*
X154901220Y-64904191D01*
X155079017Y-64830545D01*
X155246865Y-64797159D01*
X155267774Y-64793000D01*
X155460226Y-64793000D01*
X155481135Y-64797159D01*
G37*
G36*
X135161135Y-64797159D02*
G01*
X135328983Y-64830545D01*
X135506780Y-64904191D01*
X135666800Y-65011113D01*
X135802887Y-65147200D01*
X135909809Y-65307220D01*
X135983455Y-65485017D01*
X136021000Y-65673775D01*
X136021000Y-65866225D01*
X135983455Y-66054983D01*
X135909809Y-66232780D01*
X135802887Y-66392800D01*
X135666800Y-66528887D01*
X135506780Y-66635809D01*
X135328983Y-66709455D01*
X135161135Y-66742841D01*
X135140226Y-66747000D01*
X134947774Y-66747000D01*
X134926865Y-66742841D01*
X134759017Y-66709455D01*
X134581220Y-66635809D01*
X134421200Y-66528887D01*
X134285113Y-66392800D01*
X134178191Y-66232780D01*
X134104545Y-66054983D01*
X134067000Y-65866225D01*
X134067000Y-65673775D01*
X134104545Y-65485017D01*
X134178191Y-65307220D01*
X134285113Y-65147200D01*
X134421200Y-65011113D01*
X134581220Y-64904191D01*
X134759017Y-64830545D01*
X134926865Y-64797159D01*
X134947774Y-64793000D01*
X135140226Y-64793000D01*
X135161135Y-64797159D01*
G37*
G36*
X158021135Y-64797159D02*
G01*
X158188983Y-64830545D01*
X158366780Y-64904191D01*
X158526800Y-65011113D01*
X158662887Y-65147200D01*
X158769809Y-65307220D01*
X158843455Y-65485017D01*
X158881000Y-65673775D01*
X158881000Y-65866225D01*
X158843455Y-66054983D01*
X158769809Y-66232780D01*
X158662887Y-66392800D01*
X158526800Y-66528887D01*
X158366780Y-66635809D01*
X158188983Y-66709455D01*
X158021135Y-66742841D01*
X158000226Y-66747000D01*
X157807774Y-66747000D01*
X157786865Y-66742841D01*
X157619017Y-66709455D01*
X157441220Y-66635809D01*
X157281200Y-66528887D01*
X157145113Y-66392800D01*
X157038191Y-66232780D01*
X156964545Y-66054983D01*
X156927000Y-65866225D01*
X156927000Y-65673775D01*
X156964545Y-65485017D01*
X157038191Y-65307220D01*
X157145113Y-65147200D01*
X157281200Y-65011113D01*
X157441220Y-64904191D01*
X157619017Y-64830545D01*
X157786865Y-64797159D01*
X157807774Y-64793000D01*
X158000226Y-64793000D01*
X158021135Y-64797159D01*
G37*
G36*
X137701135Y-64797159D02*
G01*
X137868983Y-64830545D01*
X138046780Y-64904191D01*
X138206800Y-65011113D01*
X138342887Y-65147200D01*
X138449809Y-65307220D01*
X138523455Y-65485017D01*
X138561000Y-65673775D01*
X138561000Y-65866225D01*
X138523455Y-66054983D01*
X138449809Y-66232780D01*
X138342887Y-66392800D01*
X138206800Y-66528887D01*
X138046780Y-66635809D01*
X137868983Y-66709455D01*
X137701135Y-66742841D01*
X137680226Y-66747000D01*
X137487774Y-66747000D01*
X137466865Y-66742841D01*
X137299017Y-66709455D01*
X137121220Y-66635809D01*
X136961200Y-66528887D01*
X136825113Y-66392800D01*
X136718191Y-66232780D01*
X136644545Y-66054983D01*
X136607000Y-65866225D01*
X136607000Y-65673775D01*
X136644545Y-65485017D01*
X136718191Y-65307220D01*
X136825113Y-65147200D01*
X136961200Y-65011113D01*
X137121220Y-64904191D01*
X137299017Y-64830545D01*
X137466865Y-64797159D01*
X137487774Y-64793000D01*
X137680226Y-64793000D01*
X137701135Y-64797159D01*
G37*
G36*
X160561135Y-64797159D02*
G01*
X160728983Y-64830545D01*
X160906780Y-64904191D01*
X161066800Y-65011113D01*
X161202887Y-65147200D01*
X161309809Y-65307220D01*
X161383455Y-65485017D01*
X161421000Y-65673775D01*
X161421000Y-65866225D01*
X161383455Y-66054983D01*
X161309809Y-66232780D01*
X161202887Y-66392800D01*
X161066800Y-66528887D01*
X160906780Y-66635809D01*
X160728983Y-66709455D01*
X160561135Y-66742841D01*
X160540226Y-66747000D01*
X160347774Y-66747000D01*
X160326865Y-66742841D01*
X160159017Y-66709455D01*
X159981220Y-66635809D01*
X159821200Y-66528887D01*
X159685113Y-66392800D01*
X159578191Y-66232780D01*
X159504545Y-66054983D01*
X159467000Y-65866225D01*
X159467000Y-65673775D01*
X159504545Y-65485017D01*
X159578191Y-65307220D01*
X159685113Y-65147200D01*
X159821200Y-65011113D01*
X159981220Y-64904191D01*
X160159017Y-64830545D01*
X160326865Y-64797159D01*
X160347774Y-64793000D01*
X160540226Y-64793000D01*
X160561135Y-64797159D01*
G37*
G36*
X140241135Y-64797159D02*
G01*
X140408983Y-64830545D01*
X140586780Y-64904191D01*
X140746800Y-65011113D01*
X140882887Y-65147200D01*
X140989809Y-65307220D01*
X141063455Y-65485017D01*
X141101000Y-65673775D01*
X141101000Y-65866225D01*
X141063455Y-66054983D01*
X140989809Y-66232780D01*
X140882887Y-66392800D01*
X140746800Y-66528887D01*
X140586780Y-66635809D01*
X140408983Y-66709455D01*
X140241135Y-66742841D01*
X140220226Y-66747000D01*
X140027774Y-66747000D01*
X140006865Y-66742841D01*
X139839017Y-66709455D01*
X139661220Y-66635809D01*
X139501200Y-66528887D01*
X139365113Y-66392800D01*
X139258191Y-66232780D01*
X139184545Y-66054983D01*
X139147000Y-65866225D01*
X139147000Y-65673775D01*
X139184545Y-65485017D01*
X139258191Y-65307220D01*
X139365113Y-65147200D01*
X139501200Y-65011113D01*
X139661220Y-64904191D01*
X139839017Y-64830545D01*
X140006865Y-64797159D01*
X140027774Y-64793000D01*
X140220226Y-64793000D01*
X140241135Y-64797159D01*
G37*
G36*
X163101135Y-64797159D02*
G01*
X163268983Y-64830545D01*
X163446780Y-64904191D01*
X163606800Y-65011113D01*
X163742887Y-65147200D01*
X163849809Y-65307220D01*
X163923455Y-65485017D01*
X163961000Y-65673775D01*
X163961000Y-65866225D01*
X163923455Y-66054983D01*
X163849809Y-66232780D01*
X163742887Y-66392800D01*
X163606800Y-66528887D01*
X163446780Y-66635809D01*
X163268983Y-66709455D01*
X163101135Y-66742841D01*
X163080226Y-66747000D01*
X162887774Y-66747000D01*
X162866865Y-66742841D01*
X162699017Y-66709455D01*
X162521220Y-66635809D01*
X162361200Y-66528887D01*
X162225113Y-66392800D01*
X162118191Y-66232780D01*
X162044545Y-66054983D01*
X162007000Y-65866225D01*
X162007000Y-65673775D01*
X162044545Y-65485017D01*
X162118191Y-65307220D01*
X162225113Y-65147200D01*
X162361200Y-65011113D01*
X162521220Y-64904191D01*
X162699017Y-64830545D01*
X162866865Y-64797159D01*
X162887774Y-64793000D01*
X163080226Y-64793000D01*
X163101135Y-64797159D01*
G37*
G36*
X145321135Y-64797159D02*
G01*
X145488983Y-64830545D01*
X145666780Y-64904191D01*
X145826800Y-65011113D01*
X145962887Y-65147200D01*
X146069809Y-65307220D01*
X146143455Y-65485017D01*
X146181000Y-65673775D01*
X146181000Y-65866225D01*
X146143455Y-66054983D01*
X146069809Y-66232780D01*
X145962887Y-66392800D01*
X145826800Y-66528887D01*
X145666780Y-66635809D01*
X145488983Y-66709455D01*
X145321135Y-66742841D01*
X145300226Y-66747000D01*
X145107774Y-66747000D01*
X145086865Y-66742841D01*
X144919017Y-66709455D01*
X144741220Y-66635809D01*
X144581200Y-66528887D01*
X144445113Y-66392800D01*
X144338191Y-66232780D01*
X144264545Y-66054983D01*
X144227000Y-65866225D01*
X144227000Y-65673775D01*
X144264545Y-65485017D01*
X144338191Y-65307220D01*
X144445113Y-65147200D01*
X144581200Y-65011113D01*
X144741220Y-64904191D01*
X144919017Y-64830545D01*
X145086865Y-64797159D01*
X145107774Y-64793000D01*
X145300226Y-64793000D01*
X145321135Y-64797159D01*
G37*
G36*
X142781135Y-64797159D02*
G01*
X142948983Y-64830545D01*
X143126780Y-64904191D01*
X143286800Y-65011113D01*
X143422887Y-65147200D01*
X143529809Y-65307220D01*
X143603455Y-65485017D01*
X143641000Y-65673775D01*
X143641000Y-65866225D01*
X143603455Y-66054983D01*
X143529809Y-66232780D01*
X143422887Y-66392800D01*
X143286800Y-66528887D01*
X143126780Y-66635809D01*
X142948983Y-66709455D01*
X142781135Y-66742841D01*
X142760226Y-66747000D01*
X142567774Y-66747000D01*
X142546865Y-66742841D01*
X142379017Y-66709455D01*
X142201220Y-66635809D01*
X142041200Y-66528887D01*
X141905113Y-66392800D01*
X141798191Y-66232780D01*
X141724545Y-66054983D01*
X141687000Y-65866225D01*
X141687000Y-65673775D01*
X141724545Y-65485017D01*
X141798191Y-65307220D01*
X141905113Y-65147200D01*
X142041200Y-65011113D01*
X142201220Y-64904191D01*
X142379017Y-64830545D01*
X142546865Y-64797159D01*
X142567774Y-64793000D01*
X142760226Y-64793000D01*
X142781135Y-64797159D01*
G37*
M02*
